<svg id="institutional-changes" data-name="institutional-changes" xmlns="http://www.w3.org/2000/svg" viewBox="0 0 900.53 544.36">
    <polygon points="68.53 193.87 622.32 193.87 622.32 88.54 0 88.54 68.53 193.87" style="fill:#bedcfa" />
    <polygon points="68.53 298.91 622.32 298.91 622.32 193.58 0 193.58 68.53 298.91" style="fill:#3264c8" />
    <polygon points="68.53 403.94 622.32 403.94 622.32 298.62 0 298.62 68.53 403.94" style="fill:#1e2dbe" />
    <g style="isolation:isolate">
        <polygon points="414.95 304.08 656.81 444.63 900.25 304.08 658.39 163.53 414.95 304.08" style="fill:#5a87cd" />
        <polygon points="414.95 304.08 415.23 403.8 657.09 544.36 656.81 444.63 414.95 304.08" style="fill:#151f85" />
        <polygon points="656.81 444.63 657.09 544.36 900.53 403.81 900.25 304.08 656.81 444.63" style="fill:#1e2dbe" />
    </g>
    <g style="isolation:isolate">
        <polygon points="431.04 203.59 656.87 334.83 884.18 203.59 658.35 72.35 431.04 203.59" style="fill:#82afdc" />
        <polygon points="431.04 203.59 431.3 296.7 657.13 427.95 656.87 334.83 431.04 203.59" style="fill:#1e2dbe" />
        <polygon points="656.87 334.83 657.13 427.95 884.45 296.71 884.18 203.59 656.87 334.83" style="fill:#3264c8" />
    </g>
    <g style="isolation:isolate">
        <polygon points="457.59 115.86 656.97 231.73 857.65 115.87 658.28 0 457.59 115.86" style="fill:#ebf5fd" />
        <polygon points="457.59 115.86 457.82 198.07 657.21 313.94 656.97 231.73 457.59 115.86" style="fill:#5a87cd" />
        <polygon points="656.97 231.73 657.21 313.94 857.89 198.07 857.65 115.87 656.97 231.73" style="fill:#bedcfa" />
    </g><text transform="translate(105.26 160.41)"
        style="font-size:51.03597640991211px;fill:#151f85;font-family:NotoSans, Noto Sans">1</text>
    <line x1="149.31" y1="111.87" x2="149.31" y2="172.66" style="fill:#fff;stroke:#151f85;stroke-miterlimit:10" /><text
        transform="translate(168.69 137.47)" style="font-size:12px;fill:#151f85;font-family:NotoSans, Noto Sans">The
        endorsement or reform of a new <tspan x="0" y="14.4">social protection strategy</tspan></text><text
        transform="translate(101.26 159) rotate(-90)"
        style="font-size:14px;fill:#151f85;font-family:NotoSans, Noto Sans;letter-spacing:-0.019984654017857144em">Step</text><text
        transform="translate(105.26 264.03)"
        style="font-size:51.03597640991211px;fill:#fff;font-family:NotoSans, Noto Sans">2</text>
    <line x1="149.31" y1="217.19" x2="149.31" y2="277.4"
        style="fill:none;stroke:#fff;stroke-linecap:round;stroke-linejoin:round" /><text
        transform="translate(168.69 244.39)" style="font-size:12px;fill:#fff;font-family:NotoSans, Noto Sans">The
        adoption of a social protection law or <tspan x="0" y="14.4">legal framework</tspan></text><text
        transform="translate(101.26 264.03) rotate(-90)"
        style="font-size:14px;fill:#fff;font-family:NotoSans, Noto Sans;letter-spacing:-0.019984654017857144em">Step</text><text
        transform="translate(105.26 369.06)"
        style="font-size:51.03597640991211px;fill:#fff;font-family:NotoSans, Noto Sans">3</text>
    <line x1="149.31" y1="321.95" x2="149.31" y2="382.7"
        style="fill:none;stroke:#fff;stroke-linecap:round;stroke-linejoin:round" /><text
        transform="translate(168.69 335.1)" style="font-size:12px;fill:#fff;font-family:NotoSans, Noto Sans">The
        adoption or operationalisation of <tspan x="0" y="14.4">policy measures to improve the fnancial </tspan>
        <tspan x="0" y="28.8">and administrative governance of the </tspan>
        <tspan x="0" y="43.2">social protection system</tspan>
    </text><text transform="translate(101.26 369.06) rotate(-90)"
        style="font-size:14px;fill:#fff;font-family:NotoSans, Noto Sans;letter-spacing:-0.019984654017857144em">Step</text><text
        transform="matrix(0.67, -0.4, 0.07, 1, 681.75, 271.09)"
        style="font-size:17px;font-family:NotoSans-SemiBold, Noto Sans;font-weight:600;letter-spacing:-0.024610859372204183em">I
        <tspan x="5.87" y="0" style="letter-spacing:-0.02321501958691499em">n</tspan>
        <tspan x="16.39" y="0" style="letter-spacing:-0.023802741601773595em">c</tspan>
        <tspan x="24.5" y="0" style="letter-spacing:-0.025051650883348136em">r</tspan>
        <tspan x="31.54" y="0" style="letter-spacing:-0.023508880594344292em">e</tspan>
        <tspan x="41.02" y="0" style="letter-spacing:-0.01866017397176078em">as</tspan>
        <tspan x="58.71" y="0" style="letter-spacing:-0.01689700792718496em">e</tspan>
        <tspan x="68.3" y="0" style="letter-spacing:-0.019982548505192647em">d </tspan>
        <tspan x="82.68" y="0" style="letter-spacing:-0.01836631296433148em">p</tspan>
        <tspan x="93.01" y="0" style="letter-spacing:-0.023508880594344292em">o</tspan>
        <tspan x="103.05" y="0" style="letter-spacing:-0.02446392886848953em">t</tspan>
        <tspan x="109.53" y="0" style="letter-spacing:-0.020717201023765907em">e</tspan>
        <tspan x="119.06" y="0" style="letter-spacing:-0.024096602609202898em">n</tspan>
        <tspan x="129.56" y="0" style="letter-spacing:-0.025565907646349414em">t</tspan>
        <tspan x="136.03" y="0" style="letter-spacing:-0.029606496498502343em">i</tspan>
        <tspan x="140.4" y="0" style="letter-spacing:-0.026520955920494655em">a</tspan>
        <tspan x="149.95" y="0" style="letter-spacing:-0.019982548505192647em">l </tspan>
        <tspan x="158.57" y="0" style="letter-spacing:-0.028431052468785127em">c</tspan>
        <tspan x="166.6" y="0" style="letter-spacing:-0.029679961750359668em">o</tspan>
        <tspan x="176.53" y="0" style="letter-spacing:-0.02909223973550106em">v</tspan>
        <tspan x="185.32" y="0" style="letter-spacing:-0.020643735771908586em">e</tspan>
        <tspan x="194.85" y="0" style="letter-spacing:-0.031149266787506184em">r</tspan>
        <tspan x="201.78" y="0" style="letter-spacing:-0.02108452728305254em">a</tspan>
        <tspan x="211.42" y="0" style="letter-spacing:-0.023141554335057664em">g</tspan>
        <tspan x="221.67" y="0" style="letter-spacing:-0.019982548505192647em">e</tspan>
    </text><text transform="matrix(0.67, -0.4, 0.07, 1, 694.14, 359.15)"
        style="font-size:17px;fill:#fff;font-family:NotoSans-SemiBold, Noto Sans;font-weight:600;letter-spacing:-0.024610859372204183em">I
        <tspan x="5.87" y="0" style="letter-spacing:-0.02321501958691499em">n</tspan>
        <tspan x="16.39" y="0" style="letter-spacing:-0.023802741601773595em">c</tspan>
        <tspan x="24.5" y="0" style="letter-spacing:-0.025051650883348136em">r</tspan>
        <tspan x="31.54" y="0" style="letter-spacing:-0.023508880594344292em">e</tspan>
        <tspan x="41.02" y="0" style="letter-spacing:-0.01866017397176078em">as</tspan>
        <tspan x="58.71" y="0" style="letter-spacing:-0.01689700792718496em">e</tspan>
        <tspan x="68.3" y="0" style="letter-spacing:-0.019982548505192647em">d </tspan>
        <tspan x="82.68" y="0" style="letter-spacing:-0.028431052468785127em">c</tspan>
        <tspan x="90.71" y="0" style="letter-spacing:-0.02365581109805894em">o</tspan>
        <tspan x="100.75" y="0" style="letter-spacing:-0.026814816927923955em">m</tspan>
        <tspan x="116.68" y="0" style="letter-spacing:-0.022186506060912426em">p</tspan>
        <tspan x="126.94" y="0" style="letter-spacing:-0.025051650883348136em">r</tspan>
        <tspan x="133.98" y="0" style="letter-spacing:-0.020643735771908586em">e</tspan>
        <tspan x="143.51" y="0" style="letter-spacing:-0.02321501958691499em">h</tspan>
        <tspan x="154.03" y="0" style="letter-spacing:-0.020643735771908586em">e</tspan>
        <tspan x="163.55" y="0" style="letter-spacing:-0.019247895986619388em">n</tspan>
        <tspan x="174.14" y="0" style="letter-spacing:-0.021892645053483123em">s</tspan>
        <tspan x="182.1" y="0" style="letter-spacing:-0.011019787778598886em">i</tspan>
        <tspan x="186.79" y="0" style="letter-spacing:-0.02909223973550106em">v</tspan>
        <tspan x="195.58" y="0" style="letter-spacing:-0.020643735771908586em">e</tspan>
        <tspan x="205.1" y="0" style="letter-spacing:-0.02321501958691499em">n</tspan>
        <tspan x="215.62" y="0" style="letter-spacing:-0.01579502914932507em">es</tspan>
        <tspan x="233.29" y="0" style="letter-spacing:-0.020056013757049972em">s</tspan>
    </text><text transform="matrix(0.67, -0.4, 0.07, 1, 710.24, 378.67)"
        style="font-size:17px;fill:#fff;font-family:NotoSans-SemiBold, Noto Sans;font-weight:600;letter-spacing:-0.024610859372204183em">I
        <tspan x="5.87" y="0" style="letter-spacing:-0.02321501958691499em">n</tspan>
        <tspan x="16.39" y="0" style="letter-spacing:-0.023802741601773595em">c</tspan>
        <tspan x="24.5" y="0" style="letter-spacing:-0.025051650883348136em">r</tspan>
        <tspan x="31.54" y="0" style="letter-spacing:-0.023508880594344292em">e</tspan>
        <tspan x="41.02" y="0" style="letter-spacing:-0.01866017397176078em">as</tspan>
        <tspan x="58.71" y="0" style="letter-spacing:-0.01689700792718496em">e</tspan>
        <tspan x="68.3" y="0" style="letter-spacing:-0.019982548505192647em">d </tspan>
        <tspan x="82.68" y="0" style="letter-spacing:-0.021598784046053816em">l</tspan>
        <tspan x="87.19" y="0" style="letter-spacing:-0.01689700792718496em">e</tspan>
        <tspan x="96.78" y="0" style="letter-spacing:-0.027402538942782564em">g</tspan>
        <tspan x="106.95" y="0" style="letter-spacing:-0.026520955920494655em">a</tspan>
        <tspan x="116.5" y="0" style="letter-spacing:-0.019982548505192647em">l </tspan>
        <tspan x="125.12" y="0" style="letter-spacing:-0.028504517720642455em">c</tspan>
        <tspan x="133.15" y="0" style="letter-spacing:-0.029606496498502343em">o</tspan>
        <tspan x="143.09" y="0" style="letter-spacing:-0.02909223973550106em">v</tspan>
        <tspan x="151.87" y="0" style="letter-spacing:-0.020643735771908586em">e</tspan>
        <tspan x="161.4" y="0" style="letter-spacing:-0.031149266787506184em">r</tspan>
        <tspan x="168.33" y="0" style="letter-spacing:-0.02115799253490986em">a</tspan>
        <tspan x="177.97" y="0" style="letter-spacing:-0.023068089083200332em">g</tspan>
        <tspan x="188.22" y="0" style="letter-spacing:-0.019982548505192647em">e</tspan>
    </text><text transform="matrix(0.57, 0.34, 0.03, 1, 467.5, 264.03)"
        style="font-size:17px;fill:#fff;font-family:NotoSans-SemiBold, Noto Sans;font-weight:600;letter-spacing:-0.021201159367153423em">I
        <tspan x="5.93" y="0" style="letter-spacing:-0.019999474220837032em">n</tspan>
        <tspan x="16.5" y="0" style="letter-spacing:-0.02060031679399523em">c</tspan>
        <tspan x="24.67" y="0" style="letter-spacing:-0.021802001940311618em">r</tspan>
        <tspan x="31.76" y="0" style="letter-spacing:-0.019999474220837032em">e</tspan>
        <tspan x="41.3" y="0" style="letter-spacing:-0.01536440294218811em">as</tspan>
        <tspan x="59.1" y="0" style="letter-spacing:-0.013819379182638467em">e</tspan>
        <tspan x="68.74" y="0" style="letter-spacing:-0.019999474220837032em">d </tspan>
        <tspan x="83.13" y="0" style="letter-spacing:-0.01244602472970545em">e</tspan>
        <tspan x="92.79" y="0" style="letter-spacing:0.01836861580797908em">f</tspan>
        <tspan x="99.41" y="0" style="letter-spacing:-0.013390205916096899em">fe</tspan>
        <tspan x="115.14" y="0" style="letter-spacing:0.005407583158423748em">c</tspan>
        <tspan x="123.75" y="0" style="letter-spacing:-0.0223170098601615em">t</tspan>
        <tspan x="130.27" y="0" style="letter-spacing:-0.007982622757673152em">i</tspan>
        <tspan x="135.01" y="0" style="letter-spacing:-0.025750395992494037em">v</tspan>
        <tspan x="143.86" y="0" style="letter-spacing:-0.02008530887414535em">e </tspan>
        <tspan x="157.47" y="0" style="letter-spacing:-0.025235388072644152em">c</tspan>
        <tspan x="165.56" y="0" style="letter-spacing:-0.026265403912343915em">o</tspan>
        <tspan x="175.55" y="0" style="letter-spacing:-0.025750395992494037em">v</tspan>
        <tspan x="184.39" y="0" style="letter-spacing:-0.01742443462158763em">e</tspan>
        <tspan x="193.98" y="0" style="letter-spacing:-0.027724593018585247em">r</tspan>
        <tspan x="200.97" y="0" style="letter-spacing:-0.017853607888129196em">a</tspan>
        <tspan x="210.66" y="0" style="letter-spacing:-0.019999474220837032em">ge</tspan>
    </text><text transform="matrix(0.61, 0.35, 0.05, 1, 483.61, 308.08)"
        style="font-size:17px;fill:#fff;font-family:NotoSans-SemiBold, Noto Sans;font-weight:600;letter-spacing:-0.02406361741846095em">I
        <tspan x="5.88" y="0" style="letter-spacing:-0.022681585336995286em">n</tspan>
        <tspan x="16.41" y="0" style="letter-spacing:-0.023494545384916264em">c</tspan>
        <tspan x="24.53" y="0" style="letter-spacing:-0.024551393447213535em">r</tspan>
        <tspan x="31.57" y="0" style="letter-spacing:-0.023169361365747872em">e</tspan>
        <tspan x="41.06" y="0" style="letter-spacing:-0.018210305073429908em">as</tspan>
        <tspan x="58.76" y="0" style="letter-spacing:-0.016421792968003755em">e</tspan>
        <tspan x="68.36" y="0" style="letter-spacing:-0.019998817178856057em">d </tspan>
        <tspan x="82.74" y="0" style="letter-spacing:-0.02064918521719284em">a</tspan>
        <tspan x="92.39" y="0" style="letter-spacing:-0.022600289332203184em">d</tspan>
        <tspan x="102.65" y="0" style="letter-spacing:-0.016421792968003755em">e</tspan>
        <tspan x="112.24" y="0" style="letter-spacing:-0.02617731354305549em">qu</tspan>
        <tspan x="132.91" y="0" style="letter-spacing:-0.022275105313034796em">a</tspan>
        <tspan x="142.53" y="0" style="letter-spacing:0.010893664642141105em">c</tspan>
        <tspan x="151.23" y="0" style="letter-spacing:-0.019998817178856057em">y</tspan>
    </text><text transform="matrix(0.67, -0.4, 0.07, 1, 738.73, 455.64)"
        style="font-size:17px;fill:#fff;font-family:NotoSans-SemiBold, Noto Sans;font-weight:600;letter-spacing:-0.024610859372204183em">I
        <tspan x="5.87" y="0" style="letter-spacing:-0.02321501958691499em">n</tspan>
        <tspan x="16.39" y="0" style="letter-spacing:-0.023802741601773595em">c</tspan>
        <tspan x="24.5" y="0" style="letter-spacing:-0.025051650883348136em">r</tspan>
        <tspan x="31.54" y="0" style="letter-spacing:-0.023508880594344292em">e</tspan>
        <tspan x="41.02" y="0" style="letter-spacing:-0.01866017397176078em">as</tspan>
        <tspan x="58.71" y="0" style="letter-spacing:-0.01689700792718496em">e</tspan>
        <tspan x="68.3" y="0" style="letter-spacing:-0.019982548505192647em">d </tspan>
        <tspan x="82.68" y="0" style="letter-spacing:-0.022700762823913707em">a</tspan>
        <tspan x="92.29" y="0" style="letter-spacing:-0.025933233905636045em">c</tspan>
        <tspan x="100.36" y="0" style="letter-spacing:-0.02747600419463989em">c</tspan>
        <tspan x="108.41" y="0" style="letter-spacing:-0.01579502914932507em">es</tspan>
        <tspan x="126.08" y="0" style="letter-spacing:-0.020056013757049972em">s</tspan>
    </text>
</svg>