<?xml version="1.0" encoding="utf-8"?>
<!-- Generator: Adobe Illustrator 19.2.1, SVG Export Plug-In . SVG Version: 6.00 Build 0)  -->
<svg version="1.1" id="layer" xmlns="http://www.w3.org/2000/svg" xmlns:xlink="http://www.w3.org/1999/xlink" x="0px" y="0px"
	 viewBox="0 0 652 652" style="enable-background:new 0 0 652 652;" xml:space="preserve">
<style type="text/css">
	.st0{fill:#03784C;}
	.st1{fill:#184780;}
</style>
<g>
	<path class="st0" d="M137,320.9v-3.8c5.7-0.5,9.8-1,10.4-3.2c0.5-2.4,0.5-4.2,0.3-7.6l0-57.6c0-3.2-0.1-5.1-0.4-7.5
		c-0.5-2.2-4.7-2.9-10.4-3.2v-3.9l39.1-0.1l0,3.8c-5.5,0.5-9.8,1.1-10.3,3.3c-0.5,2.3-0.5,4.1-0.5,7.5l0.1,57.6c0,3.3,0,5.1,0.6,7.5
		c0.5,2.3,4.8,3.1,10.8,3.2c4.7-0.2,9.6-1,10-3.2c0.5-2.4,0.5-4.3,0.4-7.6v-32.8c-0.1-6.2-3.3-7.1-9.7-7.1v-3.8
		c8.4-0.1,19.2-1.6,25.8-5.2l0.2,0.2l0,12.7h0.3l5.2-7.2c2.8-3.9,5.7-5.7,8.7-5.7c1.8,0,3.7,0.7,5.7,3.9l4,6.5
		c0.7,1.4,0,2.6-0.7,3.7l-3.3,3.5c-1.1,1.7-2,0.9-3.5,0.4l-5.9-2.7c-1.4-0.8-3.2-1.2-5-1.2c-3.4,0-5.6,4.5-5.6,17.3l0,17.3
		c0,3.3,0.1,5.2,0.5,7.5c0.6,2.3,4.8,2.9,10.4,3.3v3.8L137,320.9z"/>
	<path class="st0" d="M256.9,257.4l0.1,48.7c0,3.3,0.1,5.2,0.5,7.6c0.5,2.2,4.7,2.7,9,3.1l0.1,3.8l-35.7,0.1l-0.1-3.8
		c4.4-0.4,8.8-1.1,9.2-3.3c0.5-2.3,0.5-4.3,0.5-7.5v-32.8c-0.1-6.2-3.4-7.1-9.9-7.1v-3.7c8.5-0.2,19.3-1.8,26.1-5.3L256.9,257.4z"/>
	<path class="st0" d="M247.6,232.6c5.4,0,9,4,9,9c0,4.8-3.6,8.9-9,8.9c-5,0-9.1-3.8-9.1-8.9C238.5,236.6,242.5,232.6,247.6,232.6"/>
	<path class="st0" d="M271.6,303.6h3.4c1.1,8,7.2,13.9,14.3,13.9c7-0.1,10-5.2,10-10c-0.1-6.4-3.5-9.3-13.3-16.2
		c-10.8-7.5-13.7-10.9-13.7-18.2c0-10.1,9.7-15.9,21.8-15.9c5,0,10.8,0.5,17.1,2l0,13.8h-3.4c-1.4-5.3-5.1-11.1-11.8-11.1
		c-5,0-8,3.1-8,7.9c0,5.1,5.5,8.3,15.1,15.6c10.1,7.6,11.8,12.7,11.8,18.3c0.1,13.8-12.7,18.3-24.5,18.4c-7,0-13.3-1.3-18.7-3.3
		L271.6,303.6z"/>
	<path class="st0" d="M344.1,229.6l0.1,38.4c5.3-6.2,14.2-10.9,24.3-10.9c13.9-0.1,17.7,8.8,17.7,21.8l0.1,26.9c0,3.3,0,5.2,0.5,7.6
		c0.5,2.3,4.9,2.7,9.2,3.1v3.7l-34.8,0.1v-3.8c3.5-0.4,7.7-0.9,8.2-3.2c0.4-2.4,0.4-4.3,0.4-7.6l0-23.7c0-8.6-1.1-17.2-10.8-17.2
		c-10.4,0-14.8,8.2-14.8,24.9l0,16.1c0,3.3,0,5.2,0.6,7.5c0.5,2.2,4.7,2.8,8.4,3.3v3.7l-35.1,0.1v-3.8c4.4-0.4,8.7-1.1,9.2-3.2
		c0.5-2.4,0.5-4.3,0.5-7.6l-0.1-60.8c0-3.3-0.7-8.1-6.2-8.1h-3.6v-3.8c12.5-0.4,20.5-1.9,25.9-3.9L344.1,229.6z"/>
	<path class="st0" d="M473.3,287L461,250.8h-0.2l-13.3,36.3L473.3,287z M474.6,320.2v-3.8c6.8,0,7.8-3.9,5.9-9.4l-5.1-14.5
		l-30.2,0.1l-5,14.7c-1.6,5.2,0.1,9.2,5.8,9.1l0,3.8l-24.2,0.1v-3.7c3.6,0,8-2.2,10.7-7.7c4.4-9.2,19.5-49.5,29.8-76.8l8.1,0
		c7.5,20.5,22.6,61.2,27.1,73c2.5,6.5,6.3,11.3,11.6,11.3c4.4,0,8.4-1.2,9-3.3c0.3-2.4,0.3-4.3,0.3-7.6l0-32.8
		c0-6.1-3.2-7.1-9.7-7.1V262c8.4-0.2,19.2-1.7,26-5.3l0.2,0.2l0.1,48.7c0.1,3.4,0,5.2,0.5,7.6c0.5,2.2,4.7,2.8,9.1,3.2l0.1,3.8
		L474.6,320.2z"/>
	<path class="st0" d="M525.6,231.9c5.3,0,9.1,4,9.2,9c-0.1,4.8-3.8,8.9-9.1,8.9c-5.1-0.1-9.1-3.8-9.1-8.8
		C516.5,235.9,520.5,231.9,525.6,231.9"/>
	<path class="st0" d="M596.3,321.4c-1.8-3.3-2.1-6.4-2.2-9.8l-8.1,5.9c-4.9,3-6.6,4.1-10.6,4.1c-19.6,0.1-28.7-17.4-28.7-32
		c-0.1-20.5,14.4-32.8,32.6-32.8c4.7,0,10.3,0.1,14.8,2v-14c-0.1-3.4-0.7-8.1-6.1-8.1h-3.6v-3.8c12.5-0.3,20.4-1.8,25.9-3.8l0.3,0.2
		l0.1,72.6c0,8.8,2.1,12.8,8.8,10.8l0.8,4L596.3,321.4z M594,268.8c-2.8-5.6-7.2-7.6-12.9-7.6c-11.4,0-17,10.8-17,25.3
		c0.1,12.3,5.6,25.7,17.5,25.7c6,0.1,12.5-4.8,12.5-12.3L594,268.8z"/>
	<path class="st1" d="M64.4,163.6l2.1,0.5c8.1,13.5,18.8,22.6,28.7,22.5c3.6,0,9.8-4.8,16.6-4.7c10.1,0.1,18,9,13.4,20l-1.3-1.4
		c3-5.6,0.2-17.4-12-17.4c-7.6,0-11.8,4.6-16.8,4.6c-12.8,0.1-23.7-13.4-29.3-22.6c-0.8,0.8-15.3,14.3-15.3,14.3
		c8.4,13.4,20.6,24,32.9,24c16.8,0,21.1-8.8,26.5-8.8c2.5,0,3.5,2.4,3.7,3.6l-1.3,0.5c-0.3-1.9-1.1-3-2.4-3c-4.9,0-8.9,9-26.4,9
		c-10.9,0.1-22.4-7.9-32.5-22.6l-0.8,0.9l-2.8-3.9L64.4,163.6z"/>
	<path class="st1" d="M33.9,303.2c5.8,9.8,11.2,16.1,11.2,21c0.1,2.2-0.3,2.9-1,2.9c-0.5,0.1-1.4-1.1-3.1-1.1c-2.2,0.1-4.1,1.5-4,4
		c0,3.1,2.8,4.7,6,4c-0.7,2,0.3,4.4,3.9,4.4c8.5-0.1,22.8-11.1,27.3-21.6l-1.8-0.5c-3.9,11-18.8,20.9-25.8,20.9
		c-3.2,0-3.2-2.9-2.1-4.8c-0.6,0.3-2.1,0.6-2.6,0.6c-2.4,0-3.5-1.5-3.5-3c0-1.7,1.2-2.8,2.3-2.8c1.8,0.1,2.7,1.4,3.7,1.4
		c1.5,0,2.2-1.4,2.2-4.4c-0.1-5.3-5.7-11.7-11.6-21.6L33.9,303.2z"/>
	<path class="st1" d="M40.2,195.4c4-5.7,8.2-10,11.4-13l-0.6-0.8c-3.3,3.3-7.4,7.8-11.4,13.3L40.2,195.4z"/>
	<path class="st1" d="M35.7,200.5c-8.3,12.8-15.6,30.1-15.6,50.9c0.1,20.1,4.2,32.9,10.5,45.8l0.8-0.9
		c-6.2-12.5-10.4-25.6-10.5-44.9c0-20.5,7.2-37.7,15.3-50.4L35.7,200.5z"/>
	<path class="st1" d="M61.5,194.3c-13.3,13.7-23.4,31.1-23.3,58.6c0,31.8,15.8,51.4,28.2,62.7l0.8-1.5c-17-13.6-27.7-36.1-27.8-61.2
		c-0.1-25.5,10.2-45.8,23.3-57.5L61.5,194.3z"/>
	<path class="st1" d="M108.2,204.1c3-5.2,5.2-7.5,9.9-7.5c4.1-0.1,7.3,2.9,7.3,7.4c1.7,2.4,0.9,6.3,0,9L87.2,319.9l-20.8-4.4
		l0.8-1.5l19.1,4.2l38-105.6c1-3.2,1.3-5.3,0-8.2c0-4.2-2.1-6.8-6.7-6.7c-5-0.1-6.7,3-8.9,6.8L108.2,204.1z"/>
	<path class="st1" d="M54.1,301.3l54.1-97.2c1-1.9,2-2.5,3.6-2.6c1.5,0.1,2.1,1.3,2.1,2.5c0,0.5-0.3,0.8-1.2,3.3L67.5,314.8l-1-0.2
		l45.6-107.5c0.7-1.9,1.1-2.5,1.1-3c0-1.1-0.7-1.9-1.5-1.9c-1.3,0.1-2,0.7-2.8,2.3l-54.3,97.3L54.1,301.3z"/>
	<path class="st1" d="M100.8,192.1c0.7,1,1.6,1.6,3.7,1.6c2.3,0,3.9-2.3,4.1-4.1c0.2,2.2,1.9,3.5,3.7,3.5c0.9,0,2.4-0.2,3.4-1
		c-0.2,0.2-0.5,1.4-0.5,2.1c0,1.3,1,2.4,2.5,3.1l4,1.1l-1.6-0.9c-1.9-0.6-3.9-1.4-3.8-3.3c0-1.5,0.5-3,1.6-4.1l-0.8-0.7
		c-0.9,1.6-2.5,2.8-4.4,2.8c-2,0-3.2-1.2-3-4.4l-1.2-0.1c-0.3,2.1-1.2,5.2-4,5.2c-1.8,0.1-3.2-0.7-3.6-3l-1.2,0.5
		c0.6,2.1-0.8,5.5-4.4,5.4c-3.5,0-4.1-2.6-3.4-3.9l-3-0.8c-0.4,1.4-2,2.6-3.9,2.7c-1.7,0-3.9-1.5-3.9-3.6c0-0.7,0.5-1.7,1.2-2.3
		l-2.5-1.7c-0.5,0.9-2,1.7-4.3,1.7c-1.7,0-3.8-1.9-3.7-4.1c0-1.1,0.5-1.9,1.5-2.9l-3.7-3.7c-0.5,0.6-1.5,1.5-3,1.5
		c-1.6,0-2.5-1.2-3.8-3.5c-0.3,0.5-2.9,3-3.6,3.5c2.1,1.3,3.1,2.1,3.1,3.9c0,1.1-0.5,2.1-1.7,2.9l4.3,4.5c0.5-0.7,1.9-1.6,3.3-1.6
		c3.3,0,4,4.7,2.4,5.9l4.4,2.6c0.6-1.2,1.8-2.5,3.6-2.5c2.1,0,3.4,2.5,3,4.6l3.3,0.4c0-2,1.6-3,3.2-3c1.2,0.1,3,1,3.4,2.9l0.9-0.4
		c-0.6-2.3-2.7-3.2-4.3-3.1c-1.6-0.1-3.4,0.6-4,2.6l-1.4-0.1c0.2-2-1.6-4.7-3.8-4.7c-1.9,0-3.3,0.8-4.1,2.1l-2.9-1.7
		c1.2-1.3,0.5-6.4-3.6-6.4c-1,0-2.3,0.4-3.1,1l-3.5-3.3c0.8-0.6,1.7-1.7,1.6-2.9c0.1-1.9-1.1-2.8-2.6-4l2.2-2
		c0.9,1.9,2.4,2.9,3.7,2.9c0.9,0,2.1-0.7,2.8-1.3L72,181c-0.6,0.8-1.2,1.8-1.2,2.9c0,2.2,2.1,4.9,4.7,4.8c1.3,0,3.5-0.5,4.5-1.7
		l0.9,0.8c-0.4,0.5-0.8,1.2-0.8,2.2c0,2.1,2.2,4.2,4.5,4.2c2.1,0,3.9-1.1,4.5-2.2l1.5,0.4c-0.4,2,1.9,4.1,4.6,4.1
		C98.9,196.4,100.5,193.8,100.8,192.1"/>
	<path class="st1" d="M66.2,173.4c0.4,0,1.2,0.4,1.3,1.2c0,0.5-0.3,0.7-0.7,0.8c-0.8-0.1-1.3-0.6-1.3-1.3
		C65.4,173.6,65.8,173.4,66.2,173.4"/>
	<path class="st1" d="M75.2,182.9c0.5-0.1,1.2,0.3,1.2,1.1c0,0.5-0.4,0.7-0.7,0.7c-0.6,0.1-1.3-0.4-1.3-1.2
		C74.3,183.1,74.7,182.8,75.2,182.9"/>
	<path class="st1" d="M85.1,189.3c0.5,0,1,0.1,1,1c0,0.5-0.3,0.8-0.8,0.8c-0.6,0-1.1-0.5-1.1-1.2C84.3,189.4,84.6,189.2,85.1,189.3"
		/>
	<path class="st1" d="M95.8,190.8c0.5,0,0.9,0.3,0.9,0.7c0,0.6-0.6,0.8-1,0.8c-0.3,0.1-0.9-0.2-0.9-0.7
		C94.8,191.1,95.2,190.8,95.8,190.8"/>
	<path class="st1" d="M104.1,188.1c0.6,0.1,0.9,0.3,1,0.7c0.1,0.7-0.3,0.9-1,0.9c-0.6,0.1-0.8-0.3-0.8-0.7
		C103.3,188.4,104,188.2,104.1,188.1"/>
	<path class="st1" d="M112.3,188.5c0-0.6,0.4-1,0.9-1c0.5,0,0.7,0.4,0.7,0.7c0,0.6-0.4,1.1-1,1C112.4,189.3,112.3,188.8,112.3,188.5
		"/>
	<path class="st1" d="M120,192.9c0.4,0,1.1,0.2,1.1,1c0.1,0.4-0.6,0.7-1,0.7c-0.5,0-1.1-0.3-1-0.8
		C119.1,193.2,119.7,192.9,120,192.9"/>
	<path class="st1" d="M58.4,181c0.5,0.1,0.9,0.6,0.9,1.3c0,0.5-0.4,0.8-0.8,0.8c-0.7,0-1-0.5-1.1-1C57.5,181.3,57.9,181.1,58.4,181"
		/>
	<path class="st1" d="M67.1,191.7c0.5,0,0.8,0.4,0.8,1c0,0.2-0.2,0.6-0.6,0.6c-0.6,0-1-0.4-0.9-0.8
		C66.2,191.9,66.7,191.7,67.1,191.7"/>
	<path class="st1" d="M77.8,197.7c0.5-0.1,0.9,0.3,0.9,0.7c0,0.5-0.4,0.6-0.9,0.6c-0.3,0-0.7-0.2-0.8-0.7
		C77.1,197.9,77.4,197.7,77.8,197.7"/>
	<path class="st1" d="M88,199.1c0.6-0.1,1,0.3,1,0.7c0,0.5-0.5,0.8-1,0.8c-0.4,0-0.8-0.4-0.8-0.8C87.2,199.4,87.6,199.1,88,199.1"/>
	<path class="st1" d="M58.1,313l-0.5,1c-2.9-1.9-6.2,1.6-3.2,4l-0.5,0.8c-3-2.2-5.3,1.6-2.6,3.9l-0.3,0.8c-4.4-3.5-1.1-7.2,1.6-6.2
		C50.9,314.3,54.3,311.2,58.1,313"/>
	<path class="st1" d="M60.4,320.3l-1.4-3.1l-9.8,12.8c6.4-0.7,12.4-5.1,16-9.7C63.7,320.8,61.7,320.7,60.4,320.3l0.6-1
		c1.4,0.3,3.4,0.4,5.1-0.1l0.3,0.5c-6,8.2-11.9,10.5-18.5,11.4l-0.2-0.4l10.8-14.7l0.6-0.3l1.8,3.6L60.4,320.3z"/>
	<path class="st1" d="M28,301.3c0.1,2.4,1.6,3.5,3.7,3.5c4.3-0.1,6.2-6.9,6.2-10.9c0-6.4-7.6-20.8-7.6-41.6
		C30.1,225.6,43,208.6,43,202.6c0-5.4-2.5-9-5.5-9c-2.7,0-4,1.6-4,3.7c0,3.9,7,4.8,6.1,14.7l0.9-2.6c-0.4-7.5-5.9-9.8-6-12.1
		c0.1-1.9,1.4-2.8,2.9-2.7c2.7,0,4.6,3.7,4.6,7.9c0.1,5.9-12.8,23.4-12.8,49.8c0.1,20.9,7.6,35,7.6,41.6c0,4.3-1.8,9.9-5,9.9
		c-1.9,0-2.7-1-2.7-2.5c-0.1-3.3,6.6-6.5,6.5-14.9l-0.6-1.9C35.3,294.6,28.1,297.5,28,301.3"/>
	<polygon class="st1" points="29.7,254.7 40.2,264.8 33.5,278 33.2,276.7 38.9,265 29.9,256.1 	"/>
	<polygon class="st1" points="32.6,231.2 39.8,243.8 29.7,254.7 29.9,253.4 38.7,243.7 32.4,232.7 	"/>
	<polygon class="st1" points="40.7,208.6 44.6,222.3 32.5,230.9 32.9,229.6 43.5,222 40.1,209.9 	"/>
	<path class="st1" d="M53.7,203.8L53.7,203.8l-0.9,0.2c-0.6,0.2-1.3,0.3-1.9,0.2c-2,0.1-4-1.3-5-4.6l-0.7,0.2
		c0.6,3.5,2.9,4.9,4.9,5.2l-9.2,3.3l-0.3,0.9l13-4.6l0.7-1.1C54.1,203.6,54,203.7,53.7,203.8"/>
	<path class="st1" d="M33.8,278.1c1.4,0.6,9.7,5,11.5,5.5c-1.2,2.9-3.6,13.3-4,14.2c1.4-1.2,3.3-2.3,6-2.4c0.9,0.1,2.1,0.2,2.9,0.4
		l0.3,0.7c-1.2-0.2-1.9-0.4-3.2-0.4c-2.4,0-5.1,1.4-6.9,3.8l-0.6-0.5c0.7-2.5,3.8-14.5,4.2-15.3c-1.7-0.6-9.4-5-10-5.2L33.8,278.1z"
		/>
	<path class="st1" d="M25.6,283.4c4.4-1.6,6.3,1.7,6.3,3.5c0,2.3-1.1,3.3-3.1,4.3l-0.5-1c1.6-0.6,2.7-1.3,2.7-3.3c0-1.9-1.9-4-5-2.6
		L25.6,283.4z"/>
	<path class="st1" d="M21.2,241.8c1.7,0.4,4.7,1.8,4.7,5.2c0,3.3-1.7,5.8-5.2,5.8l0-1c3.2,0.2,4.4-2.7,4.3-4.6
		c0.1-2.6-1.6-4.2-3.8-4.7V241.8z"/>
	<path class="st1" d="M33.5,204.7c1.7,0.9,2.8,2.1,2.8,4.2c0,2.5-1.9,4.1-4.2,4.1c-0.8,0-2-0.3-2.5-0.7l0.4-0.9
		c0.5,0.4,1.5,0.8,2.1,0.8c2.2,0,3.4-1.8,3.4-3.2c0-1.6-0.5-2.4-2.3-3.6L33.5,204.7z"/>
	<path class="st1" d="M53.4,194.7c0.1,2.3-1.6,3.6-3.7,3.7c-2.6-0.1-3.6-1.9-3.7-3.7l-0.5,0.2c0,2,1.3,4,4.4,4
		c1.6,0,4.5-0.9,4.5-4.1H53.4z"/>
	<path class="st1" d="M54.3,194.7c0-2.7-2.3-4.2-4.5-4.1c-1.9,0-4.4,1.2-4.4,4.3l0.5-0.2c0.1-2,1.8-3.5,3.8-3.5
		c2.1,0,3.8,1.2,3.7,3.6H54.3z"/>
	<path class="st1" d="M52.1,307.2c0,2.2-1.2,4.3-4.6,4.3c-2.8,0-5.2-2-5.1-5.3l-0.8-0.2c0.1,4.4,3.4,6.4,5.8,6.4
		c3.5,0,5.8-1.9,5.7-5.3H52.1z"/>
	<path class="st1" d="M53.1,307.2c0.1-3.6-2.6-6.1-6.3-6c-2.8-0.1-5.2,1.8-5.2,4.9l0.8,0.2c0-1.7,1-4.4,4.3-4.4
		c2.7,0,5.5,1.8,5.4,5.4H53.1z"/>
	<polygon class="st1" points="20.7,259.4 29.8,258.1 30,259 20.7,260.3 	"/>
	<polygon class="st1" points="24,279 33.3,276.8 33.5,277.7 24.2,280 	"/>
	<polygon class="st1" points="20.7,260.5 21.3,259.6 33,276.7 32.6,277.4 	"/>
	<polygon class="st1" points="22.2,235 31.2,236.8 30.9,237.7 22.1,236.1 	"/>
	<polygon class="st1" points="28.2,216.2 36.8,219.2 36.5,220 27.7,217.1 	"/>
	<polygon class="st1" points="21.8,235 36,219.3 36.5,220 22.2,235.6 	"/>
	<polygon class="st1" points="79,268.2 91.1,244.5 91.9,245 79.6,268.5 	"/>
	<polygon class="st1" points="89.2,238.6 103.6,227.5 103.2,228.4 88.6,239.9 	"/>
	<polygon class="st1" points="55.2,300.1 83.5,275.1 82.8,276.7 54.5,302 	"/>
	<polygon class="st1" points="68.1,312.1 73.3,267.5 72.1,269.8 66.8,314.4 	"/>
	<polygon class="st1" points="103.8,227.5 104.5,211.3 104,212.2 103.3,228.6 	"/>
	<path class="st1" d="M81.2,253.5c1.7,1.2,7.5,4.3,9.6,4.9l0.3-0.8c-2.1-0.5-7.9-3.6-9.5-4.9L81.2,253.5z"/>
	<path class="st1" d="M77.1,261c-0.3,2.5,0,6.1,2.5,7.1c2.3,0.9,7-0.8,7.7-2.1l-0.3,0.9c-1,1.7-5.7,2.7-7.9,1.9
		c-2.8-1.1-3.3-5.8-2.7-6.6L77.1,261z"/>
	<path class="st1" d="M85.2,246.4c1.1-1.8,4.7-2,5.7-1.5c2.8,1.2,3.6,4.7,2.7,6.8l0.8-1.7c0.7-2.2-0.8-5-3.1-5.9
		c-1.5-0.6-4.8-0.5-5.9,1.2L85.2,246.4z"/>
	<path class="st1" d="M55.5,302.9c1.9-1.7,6.1-2.4,8-0.9c3.2,2.8,2.5,7.7,1.2,10.6l-0.8-0.5c1.7-3.8,1.3-7.6-0.9-9.4
		c-1.8-1.5-5.6-0.4-7,0.9L55.5,302.9z"/>
	<path class="st1" d="M118.9,216.5c0,1.4-1.1,2.7-2.9,2.7c-1.6,0-2.8-1.1-2.8-2.8l0.7,0.1c0.1,1.2,1,1.9,2,1.9
		c1.4,0,2.3-0.7,2.3-1.9H118.9z"/>
	<path class="st1" d="M118.2,216.5c-0.1-1-1-1.9-2.1-2c-1.3,0-2.2,0.9-2.2,2l-0.7-0.1c0-1.3,1.2-2.6,2.9-2.6c1.5,0,2.8,1.3,2.8,2.8
		H118.2z"/>
	<path class="st1" d="M123.1,203.7c0,1.5-1.1,2.6-2.8,2.6c-1.7-0.1-2.9-1-2.9-2.7h0.7c0,1.2,1.1,2.1,2,2.1c1.5,0,2.4-0.9,2.3-1.9
		L123.1,203.7z"/>
	<path class="st1" d="M122.3,203.9c0-1.1-0.9-2.1-2.1-2.1c-1.3,0-2.2,1-2.2,1.9h-0.7c0-1.3,1.2-2.5,2.8-2.6c1.6,0.1,3,1.2,3,2.7
		L122.3,203.9z"/>
	<path class="st1" d="M111.9,208.8c0,1.3,0.7,2.2,1.8,2.3c1.4-0.1,2.2-1.1,2.2-2.2c0-1.1-0.7-2.2-1.8-2.2c-0.3,0-1,0.2-1.4,0.5
		l0.3-0.8c0,0,0.8-0.3,1-0.3c1.6,0,2.7,0.8,2.7,2.6c0,1.4-1,3-2.8,3c-1.4,0-1.8-0.8-2.3-2.1L111.9,208.8z"/>
	<path class="st1" d="M124.9,210.7c-0.2-0.8-1-1.4-1.8-1.4c-0.8,0-1.8,0.6-1.9,1.6c0,1.3,1.1,1.9,2,1.9c0.4,0,1.1-0.1,1.4-0.6
		l-0.1,0.9c-1.3,0.6-4.1,0.5-4.1-2.1c0-1.1,1-2.5,2.6-2.5c0.6-0.1,1.9,0.7,2.2,1.2L124.9,210.7z"/>
	<path class="st1" d="M99.9,266.5c-0.1,2.2-1.8,3.1-3.5,3.1c-1.6,0-2.9-1.2-2.9-3h0.8c0,1.1,0.9,2.1,2.2,2.2
		c1.2-0.1,2.6-0.9,2.6-2.3L99.9,266.5z"/>
	<path class="st1" d="M99,266.5c0-1.2-1-2.5-2.3-2.5c-1,0-2.5,0.8-2.5,2.6h-0.8c-0.1-2.1,1.3-3.3,3.4-3.3c1.6-0.1,3,1.1,3,3.2
		L99,266.5z"/>
	<path class="st1" d="M96.8,258.3c0,2.1-1.7,3.2-3.4,3.2c-1.6,0-2.9-1.3-2.8-3.1l0.8-0.1c-0.1,1.1,0.9,2.5,2.2,2.4
		c1.1,0,2.4-0.8,2.4-2.4L96.8,258.3z"/>
	<path class="st1" d="M96,258.3c0-1.1-0.9-2.4-2.4-2.3c-0.9-0.1-2.2,0.9-2.2,2.3l-0.8,0.1c-0.1-1.7,1.3-3.3,3.3-3.3
		c1.4,0,2.8,1.1,2.8,3.2L96,258.3z"/>
	<polygon class="st1" points="97.4,242.2 123.3,217.2 122.3,218.8 97.6,242.7 	"/>
	<polygon class="st1" points="111.7,249.4 112.3,248.8 110.2,212.8 109.6,214.4 	"/>
	<polygon class="st1" points="73,299.8 102.6,275.1 102.3,276.5 72.5,301.4 	"/>
	<polygon class="st1" points="90.8,307.1 91.6,306.6 87.5,266.1 86.8,267.7 	"/>
	<path class="st1" d="M106.4,248.7c0.8-0.9,1.1-1.8,1.1-2.7c0-1.7-1.1-3.4-3.5-3.4c-1.8,0-4,1.5-3.4,4.2l-0.8,0.1
		c-0.5-2.1,1.1-5.1,4.4-5.1c2.4,0,4.2,1.5,4.2,3.9c0,1-0.6,2.5-1.4,3.3L106.4,248.7z"/>
	<path class="st1" d="M84.4,306.8c1-0.9,1.6-2.1,1.6-2.9c0-2-1.2-3.9-3.9-3.9c-2.4,0-4.4,1.6-4.1,4.8l-1-0.1c-0.3-3,1.6-5.6,5.1-5.7
		c2.9,0,4.8,1.6,4.8,4.4c0,1.7-0.6,2.6-1.8,3.8L84.4,306.8z"/>
	<path class="st1" d="M99,272.5c-0.3,2.8-2,4.7-4.7,4.7c-2.2,0-4-1.5-4-4.4c0-1,0.6-2.3,1.3-2.9l0.7,0.5c-0.6,0.7-1,1.4-1,2.3
		c0,2,1,3.6,3.3,3.5c2.5,0,3.4-2.1,3.4-3.7L99,272.5z"/>
	<path class="st1" d="M81.8,311.1c0-1.6-1.4-2.9-3-2.9c-1.3,0-2.8,0.7-2.8,2.5l-0.8,0c-0.1-2,1.4-3.2,3.8-3.2c1.2,0,3.6,1.2,3.6,3.4
		L81.8,311.1z"/>
	<path class="st1" d="M82.6,311c0,1.9-1.3,3.4-3.8,3.4c-2.1,0-3.7-1.5-3.6-3.6l0.8,0c-0.1,1.5,1.2,2.9,2.8,2.9c2.2,0,3-1.4,3-2.5
		L82.6,311z"/>
	<path class="st1" d="M104,253.4c0-1.3-1-2.2-2.4-2.2c-1,0-2.1,0.5-2.1,2.3h-0.9c0-1.8,1.1-3.1,3.2-3.1c1.4,0,3.1,1,3.1,3.1
		L104,253.4z"/>
	<path class="st1" d="M104.9,253.4c0,2-1.7,2.9-3.4,2.9c-1.7,0-2.9-1.1-2.9-2.9h0.9c0,1.1,0.8,2.2,2.2,2.2c1.2,0,2.3-0.7,2.4-2.2
		L104.9,253.4z"/>
	<path class="st1" d="M101.3,262c-0.1-1.9,1.5-3.1,3.4-3.1c1.5,0,2.8,1,2.8,3h-0.8c0-1.1-0.9-2.3-2.3-2.3c-0.9,0-2.4,0.8-2.4,2.3
		L101.3,262z"/>
	<path class="st1" d="M107.6,261.8c0,2.1-1.4,3-3.3,3.1c-1.6,0.1-3.1-1.3-3-2.9l0.9-0.1c0,1.1,1,2.2,2.3,2.2
		c1.2-0.1,2.2-0.8,2.3-2.3H107.6z"/>
	<polygon class="st1" points="57.2,296.6 56.5,297.9 56.3,188.7 56.9,188.7 	"/>
	<polygon class="st1" points="63.7,284.9 62.9,286.3 62.7,195.1 63.5,195.1 	"/>
	<polygon class="st1" points="70.1,273.2 69.3,274.8 69.1,199.9 70,199.9 	"/>
	<polygon class="st1" points="76.6,261.6 75.8,263.2 75.7,202.9 76.5,202.9 	"/>
	<polygon class="st1" points="83.1,249.9 82.3,251.7 82.2,203.9 83,203.9 	"/>
	<polygon class="st1" points="89.6,238.4 88.7,240.2 88.6,203.6 89.5,203.6 	"/>
	<polygon class="st1" points="96,226.7 95.2,228.6 95.1,202.3 96,202.2 	"/>
	<polygon class="st1" points="102.4,215.1 101.6,217.1 101.6,198.7 102.3,198.7 	"/>
	<path class="st1" d="M67.8,406.8L60,391.8c-1.2-2.4-2.9-3.4-5.3-3.4H51v18.5h-6.6v-41.5h11.5c3.2,0,4.5,0.1,6.5,0.4
		c5.8,0.8,9.4,4.7,9.4,10.2c0,5.3-3.8,9.6-9.5,10.5c1.9,0.5,3,1.4,4,3.4l9.3,17.1H67.8z M62.8,371.8c-1.4-1.2-3.2-1.6-6.5-1.6H51
		v13.3H56c5.7,0,9-2.6,9-7C65,374.6,64.2,372.9,62.8,371.8"/>
	<path class="st1" d="M83.8,371.6c-2,0-3.6-1.6-3.6-3.6c0-2,1.6-3.6,3.6-3.6c2,0,3.6,1.6,3.6,3.6C87.3,370,85.8,371.6,83.8,371.6
		 M80.7,377.5h6v29.3h-6V377.5z"/>
	<path class="st1" d="M115.6,407.5c-3.1,0-5-1.8-5.4-4.7c-3.5,3.2-6.5,4.6-9.7,4.6c-4,0-7-3.1-7-7.3c0-5.6,5.4-9.6,16.3-11.9v-1.4
		c0-3.7-1-5-3.7-5c-2.5,0-5.2,1.2-9.2,3.9l-2.5-3.7c1.2-1,1.7-1.4,3.2-2.2c4.1-2.3,7-3.2,10.2-3.2s5.6,1.2,6.9,3.5
		c0.9,1.4,1.1,3.1,1.1,6.9v1.9v9v1.8c0,0.9,0.1,1.6,0.4,2.2c0.3,0.6,1,0.9,1.8,0.9c0.4,0,0.8-0.1,1.6-0.2l0.6,3.8
		C118.1,407.3,117.2,407.5,115.6,407.5 M109.8,392.3c-7,1.9-10.3,4.2-10.3,7.1c0,1.7,1.2,2.9,2.8,2.9c2.3,0,4.9-1.5,7.5-4.2V392.3z"
		/>
	<rect x="124.7" y="362.3" class="st1" width="6" height="44.5"/>
	<path class="st1" d="M149.1,407.5c-2.6,0-4.4-0.5-5.9-1.6c-0.8-0.6-1.4-1.5-1.7-2.4c-0.4-1.4-0.5-1.8-0.5-5.2v-16.5h-5v-4.2h5V369
		h6v8.5h7.7v4.2h-7.7v15.5c0,1.6,0.1,2.5,0.2,3.2c0.4,1.5,1.8,2.2,4.3,2.2c0.9,0,1.7-0.1,3.2-0.4v4.4
		C152.1,407.3,150.8,407.5,149.1,407.5"/>
	<path class="st1" d="M178.9,407.5c-3.1,0-5-1.8-5.4-4.7c-3.5,3.2-6.5,4.6-9.7,4.6c-4,0-7-3.1-7-7.3c0-5.6,5.4-9.6,16.3-11.9v-1.4
		c0-3.7-1-5-3.7-5c-2.5,0-5.2,1.2-9.2,3.9l-2.5-3.7c1.2-1,1.7-1.4,3.2-2.2c4.1-2.3,7-3.2,10.2-3.2c3.2,0,5.6,1.2,6.9,3.5
		c0.9,1.4,1.1,3.1,1.1,6.9v1.9v9v1.8c0,0.9,0.1,1.6,0.4,2.2c0.3,0.6,1,0.9,1.8,0.9c0.4,0,0.8-0.1,1.6-0.2l0.6,3.8
		C181.4,407.3,180.6,407.5,178.9,407.5 M173.2,392.3c-7,1.9-10.3,4.2-10.3,7.1c0,1.7,1.2,2.9,2.8,2.9c2.2,0,4.9-1.5,7.5-4.2V392.3z"
		/>
	<path class="st1" d="M193.8,407.5c-3.5,0-4.7-0.2-7.9-1.1l1-4.4c2.8,0.6,4,0.7,6.3,0.7c5,0,8-1.6,8-4.1c0-1.8-1.4-3-4.9-4.5
		c-4.7-1.9-5.9-2.7-7.5-4.2c-1.3-1.1-2-2.9-2-4.7c0-5.2,4.8-8.5,12.1-8.5c2.7,0,4.1,0.2,7.5,0.9l-1.1,4.4c-2.9-0.6-4.1-0.7-6.2-0.7
		c-3.7,0-6,1.3-6,3.3c0,1.6,1.6,2.9,5.4,4.4c6.5,2.4,9.1,5.1,9.1,9.2C207.7,403.9,202.4,407.5,193.8,407.5"/>
	<path class="st1" d="M250.4,406.8v-16.9c0-1.3-0.1-2.7-0.1-3.6c-0.2-2.7-1.6-4.1-4-4.1c-2.7,0-6,1.9-9.1,5.2v19.5h-6v-29.3h5.9v4.4
		c3.9-3.7,7.3-5.3,11.1-5.3c2.6,0,4.8,0.9,6.2,2.6c1.5,1.8,2,3.9,2,8.5v19.1H250.4z"/>
	<path class="st1" d="M284.4,407.5c-3.1,0-5-1.8-5.4-4.7c-3.5,3.2-6.5,4.6-9.7,4.6c-4,0-7-3.1-7-7.3c0-5.6,5.4-9.6,16.3-11.9v-1.4
		c0-3.7-1-5-3.7-5c-2.5,0-5.2,1.2-9.2,3.9l-2.5-3.7c1.2-1,1.7-1.4,3.2-2.2c4.1-2.3,7-3.2,10.2-3.2c3.2,0,5.6,1.2,6.9,3.5
		c0.9,1.4,1.1,3.1,1.1,6.9v1.9v9v1.8c0,0.9,0.1,1.6,0.4,2.2c0.3,0.6,1,0.9,1.8,0.9c0.4,0,0.8-0.1,1.6-0.2l0.6,3.8
		C286.9,407.3,286.1,407.5,284.4,407.5 M278.6,392.3c-7,1.9-10.3,4.2-10.3,7.1c0,1.7,1.2,2.9,2.8,2.9c2.2,0,4.9-1.5,7.5-4.2V392.3z"
		/>
	<path class="st1" d="M327.9,406.8v-17.7v-1.9c0-3.3-1.4-5-4.2-5c-2.9,0-6,1.7-9.5,5.4v19.3h-6v-44.5h6v19.5c2-1.7,2.8-2.3,4.3-3.1
		c2.4-1.4,4.8-2,7-2c1.9,0,3.7,0.5,5.1,1.5c2.4,1.7,3.3,3.8,3.3,8v20.6H327.9z"/>
	<path class="st1" d="M342.8,406.8l0.1-41.5h24.3v5.2h-17.7v12.2h16.8v5h-16.8v13.8h18.9v5.4H342.8z M351.3,362.2l12.3-5.4l-2.9-4.9
		l-11.4,6.9L351.3,362.2z"/>
	<path class="st1" d="M378.3,371.6c-2,0-3.6-1.6-3.6-3.6c0-2,1.6-3.6,3.6-3.6c2,0,3.6,1.6,3.6,3.6
		C381.9,370,380.3,371.6,378.3,371.6 M375.3,377.5h6v29.3h-6V377.5z"/>
	<path class="st1" d="M405.9,382.8c-1-0.4-1.4-0.4-1.9-0.4c-2.6,0-5.9,3.4-8.1,8.2v16.3h-6v-29.3h5.8v5.8c2.3-4.1,5.4-6.4,8.7-6.4
		c1.1,0,1.6,0.1,2.8,0.6L405.9,382.8z"/>
	<path class="st1" d="M423.1,407.6c-7.9,0-13.1-5.9-13.1-14.9c0-9.4,6-16.1,14.5-16.1c7.5,0,11.8,5.2,11.8,14.3v1.6h-19.7
		c0.1,6.5,2.8,10,7.6,10c1.8,0,3.7-0.4,5.6-1.3c1.2-0.6,2.1-1,4.4-2.6l2.5,3.6C432.9,405.5,427.6,407.6,423.1,407.6 M424.1,381
		c-3.6,0-6.5,2.9-7.3,7.6l13.5-0.3C430.1,383.7,427.8,381,424.1,381"/>
	<path class="st1" d="M463.3,407.5c-3.1,0-5-1.8-5.4-4.7c-3.5,3.2-6.5,4.6-9.7,4.6c-4,0-7-3.1-7-7.3c0-5.6,5.4-9.6,16.3-11.9v-1.4
		c0-3.7-1-5-3.7-5c-2.5,0-5.2,1.2-9.2,3.9l-2.5-3.7c1.2-1,1.7-1.4,3.2-2.2c4.1-2.3,7-3.2,10.2-3.2c3.2,0,5.6,1.2,6.9,3.5
		c0.9,1.4,1.1,3.1,1.1,6.9v1.9v9v1.8c0,0.9,0.1,1.6,0.4,2.2c0.3,0.6,1,0.9,1.8,0.9c0.4,0,0.8-0.1,1.6-0.2l0.6,3.8
		C465.8,407.3,465,407.5,463.3,407.5 M457.5,392.3c-7,1.9-10.3,4.2-10.3,7.1c0,1.7,1.2,2.9,2.8,2.9c2.2,0,4.9-1.5,7.5-4.2V392.3z"/>
	<path class="st1" d="M491.7,406.8v-16.9c0-1.3-0.1-2.7-0.1-3.6c-0.2-2.7-1.6-4.1-4-4.1c-2.7,0-6,1.9-9.1,5.2v19.5h-6v-29.3h5.9v4.4
		c3.9-3.7,7.3-5.3,11.1-5.3c2.6,0,4.8,0.9,6.2,2.6c1.5,1.8,2,3.9,2,8.5v19.1H491.7z"/>
	<path class="st1" d="M523,406.8v-16.9c0-1.3-0.1-2.7-0.1-3.6c-0.2-2.7-1.6-4.1-4-4.1c-2.7,0-6,1.9-9.1,5.2v19.5h-6v-29.3h5.9v4.4
		c3.9-3.7,7.3-5.3,11.1-5.3c2.6,0,4.8,0.9,6.2,2.6c1.5,1.8,2,3.9,2,8.5v19.1H523z"/>
	<path class="st1" d="M64.7,481c-13.1,0-22.2-8.7-22.2-21.2c0-12.8,10.1-22.1,23.9-22.1c4.8,0,6.9,0.4,12.2,2.3l-1.7,4.9
		c-4.4-1.5-6.2-1.9-9.9-1.9c-10.6,0-17.7,6.6-17.7,16.5c0,9.6,6.7,16.2,16.3,16.2c2.7,0,3.9-0.2,6.9-1.2v-14.4h6.5v17.7
		C72.8,480.5,70.2,481,64.7,481"/>
	<path class="st1" d="M98.9,480.7c-8,0-13.8-6.4-13.8-15.1c0-9.2,6.2-15.8,14.6-15.8c8,0,13.6,6.4,13.6,15.2
		C113.3,474,107.2,480.7,98.9,480.7 M99.1,454.8c-4.4,0-7.7,4.2-7.7,9.9c0,6.5,3.2,10.9,8,10.9c4.6,0,7.7-4,7.7-10
		C107,459.1,103.9,454.8,99.1,454.8"/>
	<polygon class="st1" points="131.9,480 125.8,480 114.1,450.7 120.8,450.7 129.2,473 138,450.7 144,450.7 	"/>
	<path class="st1" d="M158.6,480.8c-7.9,0-13.1-5.9-13.1-14.9c0-9.4,6-16.1,14.5-16.1c7.5,0,11.8,5.2,11.8,14.3v1.6H152
		c0.1,6.5,2.8,10,7.6,10c1.8,0,3.7-0.4,5.6-1.3c1.2-0.5,2-1,4.4-2.5l2.6,3.5C168.4,478.7,163,480.8,158.6,480.8 M159.5,454.2
		c-3.6,0-6.5,2.9-7.3,7.5l13.5-0.3C165.6,456.8,163.2,454.2,159.5,454.2"/>
	<path class="st1" d="M194.6,456c-1-0.4-1.4-0.4-1.9-0.4c-2.5,0-5.9,3.4-8.1,8.2V480h-6v-29.3h5.9v5.8c2.3-4.1,5.4-6.4,8.7-6.4
		c1.1,0,1.6,0.1,2.8,0.6L194.6,456z"/>
	<path class="st1" d="M219.6,480v-16.9c0-1.2-0.1-2.7-0.1-3.6c-0.2-2.7-1.6-4.1-4-4.1c-2.7,0-6,1.9-9.1,5.2V480h-6v-29.3h5.9v4.4
		c3.9-3.7,7.3-5.4,11.1-5.4c2.6,0,4.8,0.9,6.2,2.6c1.5,1.7,2,3.9,2,8.5V480H219.6z"/>
	<path class="st1" d="M269,480v-17.8c0-2.6,0-3.2-0.2-4.1c-0.3-1.7-1.5-2.7-3.1-2.7c-1.4,0-2.9,0.6-4.4,1.6
		c-1.7,1.2-3.1,2.4-3.9,3.5V480h-5.9v-17.4c0-2-0.1-3.3-0.2-4.1c-0.2-1.9-1.4-3.1-3.2-3.1c-2.4,0-5.8,2.1-8.4,5.1V480H234v-29.3h5.8
		v4.2c3.6-3.5,6.8-5.1,10.2-5.1c3.7,0,6,1.7,6.9,5.3c3.9-3.8,7-5.4,10.5-5.4c2,0,3.7,0.6,5,1.7c1.3,1.2,2.1,2.9,2.3,5
		c0.1,1.2,0.2,2.9,0.2,4.8V480H269z"/>
	<path class="st1" d="M294.7,480.8c-7.9,0-13.1-5.9-13.1-14.9c0-9.4,6-16.1,14.5-16.1c7.5,0,11.8,5.2,11.8,14.3v1.6h-19.8
		c0.1,6.5,2.8,10,7.6,10c1.8,0,3.7-0.4,5.6-1.3c1.2-0.5,2.1-1,4.4-2.5l2.6,3.5C304.5,478.7,299.1,480.8,294.7,480.8 M295.6,454.2
		c-3.6,0-6.5,2.9-7.3,7.5l13.5-0.3C301.7,456.8,299.4,454.2,295.6,454.2"/>
	<path class="st1" d="M333.9,480v-16.9c0-1.2-0.1-2.7-0.1-3.6c-0.2-2.7-1.6-4.1-4-4.1c-2.7,0-6,1.9-9.1,5.2V480h-6v-29.3h5.9v4.4
		c3.9-3.7,7.3-5.4,11.1-5.4c2.6,0,4.8,0.9,6.2,2.6c1.5,1.7,2,3.9,2,8.5V480H333.9z"/>
	<path class="st1" d="M357.1,480.6c-2.6,0-4.4-0.5-5.9-1.6c-0.8-0.6-1.4-1.5-1.8-2.4c-0.4-1.4-0.5-1.8-0.5-5.2v-16.5h-5.1v-4.2h5.1
		v-8.5h6v8.5h7.7v4.2h-7.7v15.5c0,1.6,0.1,2.5,0.2,3.2c0.4,1.5,1.8,2.2,4.3,2.2c0.9,0,1.8-0.1,3.2-0.4v4.4
		C360.1,480.5,358.8,480.6,357.1,480.6"/>
	<path class="st1" d="M397.4,480.7c-8,0-13.8-6.4-13.8-15.1c0-9.2,6.2-15.8,14.6-15.8c8,0,13.6,6.4,13.6,15.2
		C411.8,474,405.6,480.7,397.4,480.7 M397.5,454.8c-4.4,0-7.7,4.2-7.7,9.9c0,6.5,3.2,10.9,8,10.9c4.6,0,7.7-4,7.7-10
		C405.5,459.1,402.3,454.8,397.5,454.8"/>
	<path class="st1" d="M433.6,440c-1.7-0.4-2.4-0.4-3.6-0.4c-2.4,0-4.3,0.9-5.3,2.6c-0.6,1.1-0.9,2.6-0.9,5.4v3.2h7.7v4.2h-7.7v25h-6
		v-25h-5.1v-4.2h5.1v-3c0-3.9,0.4-6,1.6-8.1c1.6-3,5.4-4.8,10-4.8c2,0,3,0.2,5.4,0.9L433.6,440z"/>
	<rect x="454.6" y="438.5" class="st1" width="6.7" height="41.6"/>
	<path class="st1" d="M484.2,456c-1-0.4-1.4-0.4-1.9-0.4c-2.6,0-5.9,3.4-8.1,8.2V480h-6v-29.3h5.9v5.8c2.3-4.1,5.4-6.4,8.7-6.4
		c1,0,1.5,0.1,2.8,0.6L484.2,456z"/>
	<path class="st1" d="M499.1,480.8c-7.9,0-13.1-5.9-13.1-14.9c0-9.4,6-16.1,14.5-16.1c7.5,0,11.8,5.2,11.8,14.3v1.6h-19.8
		c0.1,6.5,2.8,10,7.6,10c1.8,0,3.7-0.4,5.6-1.3c1.2-0.5,2-1,4.4-2.5l2.6,3.5C508.9,478.7,503.5,480.8,499.1,480.8 M500,454.2
		c-3.6,0-6.5,2.9-7.3,7.5l13.5-0.3C506.1,456.8,503.8,454.2,500,454.2"/>
	<rect x="518.2" y="435.6" class="st1" width="6" height="44.5"/>
	<path class="st1" d="M553.1,480.7c-3,0-5-1.8-5.4-4.7c-3.5,3.2-6.5,4.6-9.6,4.6c-4,0-7.1-3.1-7.1-7.3c0-5.6,5.4-9.6,16.3-11.9V460
		c0-3.7-1-5.1-3.7-5.1c-2.5,0-5.2,1.2-9.2,3.9l-2.5-3.7c1.3-1,1.7-1.4,3.2-2.2c4.1-2.3,7-3.2,10.2-3.2c3.2,0,5.6,1.2,6.9,3.6
		c0.9,1.4,1.1,3.1,1.1,6.9v1.9v9v1.8c0,0.9,0.1,1.6,0.4,2.2c0.3,0.6,1,0.9,1.8,0.9c0.5,0,0.8-0.1,1.6-0.2l0.6,3.8
		C555.6,480.5,554.8,480.7,553.1,480.7 M547.3,465.5c-7,1.9-10.3,4.2-10.3,7.1c0,1.7,1.2,2.9,2.8,2.9c2.2,0,4.9-1.5,7.5-4.2V465.5z"
		/>
	<path class="st1" d="M581.4,480v-16.9c0-1.2-0.1-2.7-0.1-3.6c-0.2-2.7-1.6-4.1-4-4.1c-2.7,0-6.1,1.9-9.1,5.2V480h-6v-29.3h5.9v4.4
		c3.9-3.7,7.3-5.4,11.1-5.4c2.6,0,4.8,0.9,6.2,2.6c1.5,1.7,2,3.9,2,8.5V480H581.4z"/>
	<path class="st1" d="M614,480v-4.5c-0.6,0.5-1,1.1-1.3,1.3c-2.6,2.5-6.2,4-9.5,4c-6.8,0-11.5-5.9-11.5-14.6c0-9.6,5.4-16.4,13-16.4
		c3.8,0,6.4,1.4,9.2,4.9v-19.2h6V480H614z M613.9,461.1c-2.5-4.1-5.3-6.1-8.6-6.1c-4.1,0-7.2,4.4-7.2,10.2c0,6,2.9,10,7.2,10
		c3.3,0,6.2-1.7,8.7-5.2V461.1z"/>
</g>
</svg>
