<?xml version="1.0" encoding="utf-8"?>
<!-- Generator: Adobe Illustrator 19.2.1, SVG Export Plug-In . SVG Version: 6.00 Build 0)  -->
<svg version="1.1" id="layer" xmlns="http://www.w3.org/2000/svg" xmlns:xlink="http://www.w3.org/1999/xlink" x="0px" y="0px"
	 viewBox="0 0 652 652" style="enable-background:new 0 0 652 652;" xml:space="preserve">
<style type="text/css">
	.st0{fill:#ED1D24;}
	.st1{fill:#FFFFFF;}
</style>
<g>
	<path d="M137.6,211.5c1.2,0.8,2.6,1.2,4.4,1.2c2.5,0,4.5-1.3,4.5-4.1c0-3.9-9.2-4.4-9.2-9.7c0-3.2,2.8-5.2,6.3-5.2
		c1,0,2.6,0.1,3.9,0.7l-0.3,1.8c-0.9-0.5-2.3-0.8-3.7-0.8c-2.1,0-4.3,0.9-4.3,3.5c0,4,9.2,4,9.2,9.9c0,4-3.5,5.7-6.6,5.7
		c-2,0-3.5-0.4-4.5-0.9L137.6,211.5z"/>
	<path d="M164.1,201.4c-1-0.4-2.2-0.8-3.1-0.8c-3.5,0-5.5,2.6-5.5,6.1c0,3.3,2,6.1,5.3,6.1c1.1,0,2.2-0.3,3.3-0.7l0.2,1.7
		c-1.2,0.4-2.4,0.5-3.8,0.5c-4.7,0-7-3.6-7-7.7c0-4.5,2.9-7.7,7.2-7.7c1.7,0,3,0.4,3.5,0.6L164.1,201.4z"/>
	<path d="M169.5,192.5h1.8v9.4h0.1c0.8-1.6,2.4-2.8,4.6-2.8c3.9,0,5,2.6,5,6.2v8.8h-1.8v-8.7c0-2.5-0.5-4.7-3.5-4.7
		c-3.2,0-4.3,3-4.3,5.6v7.8h-1.8V192.5z"/>
	<polygon points="202.8,214.1 200.6,214.1 196.6,201.4 196.6,201.4 192.6,214.1 190.4,214.1 185.7,199.4 187.6,199.4 191.5,212.1 
		191.5,212.1 195.6,199.4 197.8,199.4 201.7,212.1 201.7,212.1 205.8,199.4 207.6,199.4 	"/>
	<path d="M221.2,205.7c0-2.6-1-5.1-3.7-5.1c-2.7,0-4.3,2.7-4.3,5.1H221.2z M222.1,213.6c-1.3,0.5-2.9,0.8-4.3,0.8
		c-4.8,0-6.7-3.3-6.7-7.7c0-4.5,2.5-7.7,6.2-7.7c4.1,0,5.8,3.3,5.8,7.3v0.9h-10c0,3.1,1.7,5.6,4.8,5.6c1.3,0,3.2-0.5,4.1-1.1V213.6z
		"/>
	<path d="M228.9,199.4h1.8v14.6h-1.8V199.4z M230.7,195.5h-1.8v-2.4h1.8V195.5z"/>
	<polygon points="236.2,212.6 245,201 236.5,201 236.5,199.4 247.1,199.4 247.1,201 238.3,212.5 247.1,212.5 247.1,214.1 
		236.2,214.1 	"/>
	<path d="M261.4,205.7c0-2.6-1-5.1-3.7-5.1c-2.7,0-4.3,2.7-4.3,5.1H261.4z M262.3,213.6c-1.3,0.5-2.9,0.8-4.3,0.8
		c-4.9,0-6.7-3.3-6.7-7.7c0-4.5,2.5-7.7,6.2-7.7c4.1,0,5.8,3.3,5.8,7.3v0.9h-10c0,3.1,1.7,5.6,4.8,5.6c1.3,0,3.2-0.5,4.1-1.1V213.6z
		"/>
	<path d="M269.1,202.7c0-1.6,0-2.2-0.1-3.3h1.8v2.8h0.1c0.7-1.6,1.9-3.2,3.8-3.2c0.4,0,0.9,0.1,1.3,0.2v1.9
		c-0.4-0.1-0.9-0.2-1.3-0.2c-2.9,0-3.7,3.2-3.7,5.9v7.2h-1.8V202.7z"/>
	<path d="M280.9,199.4h1.8v14.6h-1.8V199.4z M282.7,195.5h-1.8v-2.4h1.8V195.5z"/>
	<path d="M288.4,212c1.1,0.5,2.4,0.9,3.8,0.9c1.7,0,3.2-1,3.2-2.6c0-3.5-7-2.9-7-7.2c0-2.9,2.4-4,4.8-4c0.8,0,2.3,0.2,3.6,0.7
		l-0.2,1.6c-0.9-0.4-2.2-0.7-3.2-0.7c-1.9,0-3.2,0.6-3.2,2.4c0,2.7,7.2,2.4,7.2,7.2c0,3.1-2.9,4.2-5.1,4.2c-1.4,0-2.8-0.2-4.1-0.7
		L288.4,212z"/>
	<path d="M312.5,201.4c-1-0.4-2.2-0.8-3.1-0.8c-3.5,0-5.5,2.6-5.5,6.1c0,3.3,2,6.1,5.3,6.1c1.1,0,2.2-0.3,3.3-0.7l0.2,1.7
		c-1.2,0.4-2.4,0.5-3.8,0.5c-4.7,0-7-3.6-7-7.7c0-4.5,2.9-7.7,7.2-7.7c1.7,0,3,0.4,3.5,0.6L312.5,201.4z"/>
	<path d="M317.9,192.5h1.8v9.4h0.1c0.8-1.6,2.4-2.8,4.6-2.8c3.9,0,5,2.6,5,6.2v8.8h-1.8v-8.7c0-2.5-0.5-4.7-3.5-4.7
		c-3.2,0-4.3,3-4.3,5.6v7.8h-1.8V192.5z"/>
	<path d="M345.1,205.7c0-2.6-1-5.1-3.7-5.1c-2.7,0-4.3,2.7-4.3,5.1H345.1z M346,213.6c-1.3,0.5-2.9,0.8-4.3,0.8
		c-4.9,0-6.7-3.3-6.7-7.7c0-4.5,2.5-7.7,6.2-7.7c4.1,0,5.8,3.3,5.8,7.3v0.9h-10c0,3.1,1.7,5.6,4.8,5.6c1.3,0,3.2-0.5,4.1-1.1V213.6z
		"/>
	<polygon points="363.2,194 373,194 373,195.8 365.2,195.8 365.2,202.9 372.6,202.9 372.6,204.6 365.2,204.6 365.2,212.4 
		373.3,212.4 373.3,214.1 363.2,214.1 	"/>
	<path d="M379.6,199.4h1.8v14.6h-1.8V199.4z M381.4,195.5h-1.8v-2.4h1.8V195.5z"/>
	<path d="M393.6,212.9c3.2,0,4.3-3.5,4.3-6.1c0-2.7-1.1-6.1-4.3-6.1c-3.5,0-4.3,3.3-4.3,6.1C389.3,209.6,390.2,212.9,393.6,212.9
		 M399.8,214.1H398v-2.3h-0.1c-1,1.9-2.5,2.7-4.6,2.7c-4,0-6-3.3-6-7.7c0-4.4,1.7-7.7,6-7.7c2.9,0,4.3,2.1,4.6,2.8h0.1v-9.4h1.8
		V214.1z"/>
	<path d="M411.7,212.5c3.3,0,4.4-3.1,4.4-5.8c0-3.5-1-6.1-4.3-6.1c-3.4,0-4.3,3.3-4.3,6.1C407.5,209.6,408.7,212.5,411.7,212.5
		 M418,212.9c0,4.1-1.8,7.4-6.9,7.4c-1.9,0-3.7-0.5-4.4-0.8l0.1-1.8c1.1,0.6,2.7,1,4.3,1c4.7,0,5.1-3.4,5.1-7.5h-0.1
		c-1,2.1-2.6,2.9-4.5,2.9c-4.7,0-6.2-4.1-6.2-7.3c0-4.4,1.7-7.7,6-7.7c2,0,3.2,0.3,4.6,2h0.1v-1.7h1.8V212.9z"/>
	<path d="M433.5,205.7c0-2.6-1-5.1-3.7-5.1c-2.7,0-4.3,2.7-4.3,5.1H433.5z M434.4,213.6c-1.3,0.5-2.9,0.8-4.3,0.8
		c-4.9,0-6.7-3.3-6.7-7.7c0-4.5,2.5-7.7,6.2-7.7c4.1,0,5.8,3.3,5.8,7.3v0.9h-10c0,3.1,1.7,5.6,4.8,5.6c1.3,0,3.2-0.5,4.1-1.1V213.6z
		"/>
	<path d="M441.2,202.9c0-1.1,0-2.3-0.1-3.4h1.7v2.6h0.1c0.6-1.3,1.7-3,4.7-3c3.6,0,5,2.4,5,5.6v9.4h-1.8v-8.9c0-2.8-1-4.5-3.5-4.5
		c-3.3,0-4.3,2.9-4.3,5.3v8.1h-1.8V202.9z"/>
	<path d="M465.1,212.9c3.2,0,4.9-2.7,4.9-6.1c0-3.4-1.7-6.1-4.9-6.1c-3.2,0-4.9,2.7-4.9,6.1C460.3,210.2,462,212.9,465.1,212.9
		 M465.1,199.1c4.7,0,6.8,3.7,6.8,7.7c0,4-2.1,7.7-6.8,7.7c-4.7,0-6.8-3.7-6.8-7.7C458.3,202.8,460.4,199.1,465.1,199.1"/>
	<path d="M476.5,212c1.1,0.5,2.4,0.9,3.8,0.9c1.7,0,3.2-1,3.2-2.6c0-3.5-7-2.9-7-7.2c0-2.9,2.4-4,4.8-4c0.8,0,2.3,0.2,3.6,0.7
		l-0.2,1.6c-0.9-0.4-2.2-0.7-3.2-0.7c-1.9,0-3.2,0.6-3.2,2.4c0,2.7,7.2,2.4,7.2,7.2c0,3.1-2.9,4.2-5.1,4.2c-1.4,0-2.8-0.2-4.1-0.7
		L476.5,212z"/>
	<path d="M489.9,212c1.1,0.5,2.4,0.9,3.8,0.9c1.7,0,3.2-1,3.2-2.6c0-3.5-7-2.9-7-7.2c0-2.9,2.4-4,4.8-4c0.8,0,2.3,0.2,3.6,0.7
		l-0.2,1.6c-0.9-0.4-2.2-0.7-3.2-0.7c-1.9,0-3.2,0.6-3.2,2.4c0,2.7,7.2,2.4,7.2,7.2c0,3.1-2.9,4.2-5.1,4.2c-1.4,0-2.8-0.2-4.1-0.7
		L489.9,212z"/>
	<path d="M513.4,205.7c0-2.6-1-5.1-3.7-5.1c-2.7,0-4.3,2.7-4.3,5.1H513.4z M514.2,213.6c-1.3,0.5-2.9,0.8-4.3,0.8
		c-4.9,0-6.7-3.3-6.7-7.7c0-4.5,2.5-7.7,6.2-7.7c4.1,0,5.8,3.3,5.8,7.3v0.9h-10c0,3.1,1.7,5.6,4.8,5.6c1.3,0,3.2-0.5,4.1-1.1V213.6z
		"/>
	<path d="M521,202.9c0-1.1,0-2.3-0.1-3.4h1.7v2.6h0.1c0.6-1.3,1.7-3,4.7-3c3.6,0,5,2.4,5,5.6v9.4h-1.8v-8.9c0-2.8-1-4.5-3.5-4.5
		c-3.3,0-4.3,2.9-4.3,5.3v8.1H521V202.9z"/>
	<path d="M538.1,212c1.1,0.5,2.4,0.9,3.8,0.9c1.7,0,3.2-1,3.2-2.6c0-3.5-7-2.9-7-7.2c0-2.9,2.4-4,4.8-4c0.8,0,2.3,0.2,3.6,0.7
		l-0.2,1.6c-0.9-0.4-2.2-0.7-3.2-0.7c-1.9,0-3.2,0.6-3.2,2.4c0,2.7,7.2,2.4,7.2,7.2c0,3.1-2.9,4.2-5.1,4.2c-1.4,0-2.8-0.2-4.1-0.7
		L538.1,212z"/>
	<path d="M562.2,201.4c-1-0.4-2.2-0.8-3.1-0.8c-3.5,0-5.5,2.6-5.5,6.1c0,3.3,2,6.1,5.3,6.1c1.2,0,2.2-0.3,3.3-0.7l0.2,1.7
		c-1.2,0.4-2.4,0.5-3.8,0.5c-4.7,0-7-3.6-7-7.7c0-4.5,2.9-7.7,7.2-7.7c1.8,0,3,0.4,3.5,0.6L562.2,201.4z"/>
	<path d="M567.6,192.5h1.8v9.4h0.1c0.8-1.6,2.4-2.8,4.6-2.8c3.9,0,5,2.6,5,6.2v8.8h-1.8v-8.7c0-2.5-0.5-4.7-3.5-4.7
		c-3.2,0-4.3,3-4.3,5.6v7.8h-1.8V192.5z"/>
	<path d="M594.1,206.7h-0.5c-3.1,0-6.9,0.3-6.9,3.5c0,1.9,1.4,2.6,3,2.6c4.3,0,4.3-3.7,4.3-5.3V206.7z M594.3,211.7L594.3,211.7
		c-0.9,1.8-2.9,2.7-4.7,2.7c-4.2,0-4.8-2.8-4.8-4.1c0-4.9,5.2-5.1,9-5.1h0.3v-0.8c0-2.5-0.9-3.8-3.3-3.8c-1.5,0-3,0.3-4.3,1.2v-1.8
		c1.1-0.5,3-1,4.3-1c3.6,0,5.1,1.6,5.1,5.5v6.5c0,1.2,0,2.1,0.1,3.1h-1.8V211.7z"/>
	<path d="M603.7,201h-3v-1.6h3v-1.1c0-3.1,0.1-6.2,3.9-6.2c0.6,0,1.3,0.1,1.7,0.3l-0.1,1.6c-0.4-0.2-0.9-0.3-1.4-0.3
		c-2.5,0-2.2,2.7-2.2,4.4v1.3h3.3v1.6h-3.3v13.1h-1.8V201z"/>
	<path d="M620.6,201h-3.3v9.5c0,1.3,0.5,2.4,1.9,2.4c0.7,0,1.2-0.2,1.7-0.3l0.1,1.5c-0.4,0.2-1.3,0.4-2.2,0.4
		c-3.2,0-3.3-2.2-3.3-4.9V201h-2.9v-1.6h2.9v-3.5l1.8-0.6v4.2h3.3V201z"/>
	<path d="M151.9,235.9c-1.3-0.7-3.1-0.9-4.5-0.9c-5.2,0-8.1,3.7-8.1,8.6c0,5.1,2.8,8.6,8.1,8.6c1.3,0,3.3-0.2,4.5-0.9l0.1,1.7
		c-1.1,0.7-3.3,0.9-4.6,0.9c-6.3,0-10.1-4.2-10.1-10.4c0-6.1,3.9-10.4,10.1-10.4c1.2,0,3.6,0.2,4.6,0.7L151.9,235.9z"/>
	<path d="M165,252.5c3.2,0,4.9-2.7,4.9-6.1c0-3.4-1.7-6.1-4.9-6.1c-3.2,0-4.9,2.7-4.9,6.1C160.2,249.8,161.9,252.5,165,252.5
		 M165,238.7c4.7,0,6.8,3.7,6.8,7.7c0,4-2.1,7.7-6.8,7.7c-4.7,0-6.8-3.7-6.8-7.7C158.2,242.4,160.3,238.7,165,238.7"/>
	<path d="M177.5,242.5c0-1.1,0-2.3-0.1-3.4h1.7v2.6h0.1c0.6-1.3,1.7-3,4.7-3c3.6,0,5,2.4,5,5.6v9.4h-1.8v-8.9c0-2.8-1-4.5-3.5-4.5
		c-3.3,0-4.3,2.9-4.3,5.3v8.1h-1.8V242.5z"/>
	<path d="M197,240.6h-3v-1.6h3V238c0-3.1,0.1-6.2,3.9-6.2c0.6,0,1.3,0.1,1.7,0.3l-0.1,1.6c-0.4-0.2-0.9-0.3-1.4-0.3
		c-2.5,0-2.2,2.7-2.2,4.4v1.3h3.3v1.6h-3.3v13.1H197V240.6z"/>
	<path d="M213.5,233.4h2.3l-3.6,4.1h-1.3L213.5,233.4z M216.5,245.4c0-2.6-1-5.1-3.7-5.1c-2.7,0-4.3,2.7-4.3,5.1H216.5z
		 M217.4,253.3c-1.3,0.5-2.9,0.8-4.3,0.8c-4.9,0-6.7-3.3-6.7-7.7c0-4.5,2.5-7.7,6.2-7.7c4.1,0,5.8,3.3,5.8,7.3v0.9h-10
		c0,3.1,1.7,5.6,4.8,5.6c1.3,0,3.2-0.5,4.1-1.1V253.3z"/>
	<path d="M229.6,252.5c3.2,0,4.3-3.5,4.3-6.1c0-2.7-1.1-6.1-4.3-6.1c-3.5,0-4.3,3.3-4.3,6.1C225.3,249.2,226.2,252.5,229.6,252.5
		 M235.7,253.7h-1.8v-2.3h-0.1c-1,1.9-2.5,2.7-4.6,2.7c-4,0-6-3.3-6-7.7c0-4.4,1.7-7.7,6-7.7c2.9,0,4.3,2.1,4.6,2.8h0.1v-9.4h1.8
		V253.7z"/>
	<path d="M248.3,233.4h2.3l-3.6,4.1h-1.3L248.3,233.4z M251.3,245.4c0-2.6-1-5.1-3.7-5.1c-2.7,0-4.3,2.7-4.3,5.1H251.3z
		 M252.2,253.3c-1.3,0.5-2.9,0.8-4.3,0.8c-4.9,0-6.7-3.3-6.7-7.7c0-4.5,2.5-7.7,6.2-7.7c4.1,0,5.8,3.3,5.8,7.3v0.9h-10
		c0,3.1,1.7,5.6,4.8,5.6c1.3,0,3.2-0.5,4.1-1.1V253.3z"/>
	<path d="M259,242.3c0-1.6,0-2.2-0.1-3.3h1.8v2.8h0.1c0.7-1.6,1.9-3.2,3.8-3.2c0.4,0,0.9,0.1,1.3,0.2v1.9c-0.4-0.1-0.9-0.2-1.3-0.2
		c-2.9,0-3.7,3.2-3.7,5.9v7.2H259V242.3z"/>
	<path d="M279,246.3h-0.5c-3.1,0-6.9,0.3-6.9,3.5c0,1.9,1.4,2.6,3,2.6c4.2,0,4.3-3.7,4.3-5.3V246.3z M279.2,251.4L279.2,251.4
		c-0.9,1.8-2.9,2.7-4.7,2.7c-4.2,0-4.8-2.8-4.8-4.1c0-4.9,5.2-5.1,9-5.1h0.3V244c0-2.5-0.9-3.8-3.3-3.8c-1.5,0-3,0.3-4.3,1.2v-1.8
		c1.1-0.5,3-1,4.3-1c3.6,0,5.1,1.6,5.1,5.5v6.5c0,1.2,0,2.1,0.1,3.1h-1.8V251.4z"/>
	<path d="M293.7,240.6h-3.3v9.5c0,1.3,0.5,2.4,2,2.4c0.7,0,1.1-0.1,1.7-0.3l0.1,1.5c-0.4,0.2-1.3,0.4-2.2,0.4
		c-3.2,0-3.3-2.2-3.3-4.9v-8.6h-2.9v-1.6h2.9v-3.5l1.8-0.6v4.2h3.3V240.6z"/>
	<path d="M299.2,239.1h1.8v14.6h-1.8V239.1z M301,235.2h-1.8v-2.4h1.8V235.2z"/>
	<path d="M313.5,252.5c3.2,0,4.9-2.7,4.9-6.1c0-3.4-1.7-6.1-4.9-6.1c-3.2,0-4.9,2.7-4.9,6.1C308.6,249.8,310.3,252.5,313.5,252.5
		 M313.5,238.7c4.7,0,6.8,3.7,6.8,7.7c0,4-2.1,7.7-6.8,7.7c-4.7,0-6.8-3.7-6.8-7.7C306.6,242.4,308.7,238.7,313.5,238.7"/>
	<path d="M326,242.5c0-1.1,0-2.3-0.1-3.4h1.7v2.6h0.1c0.6-1.3,1.7-3,4.7-3c3.6,0,5,2.4,5,5.6v9.4h-1.8v-8.9c0-2.8-1-4.5-3.5-4.5
		c-3.3,0-4.3,2.9-4.3,5.3v8.1H326V242.5z"/>
	<path d="M353.3,251.6c1.1,0.5,2.4,0.9,3.8,0.9c1.7,0,3.2-1,3.2-2.6c0-3.5-7-2.9-7-7.2c0-2.9,2.4-4,4.8-4c0.8,0,2.3,0.2,3.6,0.7
		l-0.2,1.6c-0.9-0.4-2.2-0.7-3.2-0.7c-1.9,0-3.2,0.6-3.2,2.4c0,2.7,7.2,2.4,7.2,7.2c0,3.1-2.9,4.2-5.1,4.2c-1.4,0-2.8-0.2-4.1-0.7
		L353.3,251.6z"/>
	<path d="M379.2,250.3c0,1.1,0,2.3,0.1,3.4h-1.7v-2.6h-0.1c-0.6,1.3-1.7,3-4.7,3c-3.6,0-5-2.4-5-5.6v-9.4h1.8v8.9
		c0,2.8,1,4.5,3.5,4.5c3.3,0,4.3-2.9,4.3-5.3v-8.1h1.8V250.3z"/>
	<path d="M386,239.1h1.8v14.6H386V239.1z M387.8,235.2H386v-2.4h1.8V235.2z"/>
	<path d="M393.5,251.6c1.1,0.5,2.4,0.9,3.8,0.9c1.7,0,3.2-1,3.2-2.6c0-3.5-7-2.9-7-7.2c0-2.9,2.4-4,4.8-4c0.8,0,2.3,0.2,3.6,0.7
		l-0.2,1.6c-0.9-0.4-2.2-0.7-3.2-0.7c-1.9,0-3.2,0.6-3.2,2.4c0,2.7,7.2,2.4,7.2,7.2c0,3.1-2.9,4.2-5.1,4.2c-1.4,0-2.8-0.2-4.1-0.7
		L393.5,251.6z"/>
	<path d="M406.9,251.6c1.1,0.5,2.4,0.9,3.8,0.9c1.7,0,3.2-1,3.2-2.6c0-3.5-7-2.9-7-7.2c0-2.9,2.4-4,4.8-4c0.8,0,2.3,0.2,3.6,0.7
		l-0.2,1.6c-0.9-0.4-2.2-0.7-3.2-0.7c-1.9,0-3.2,0.6-3.2,2.4c0,2.7,7.2,2.4,7.2,7.2c0,3.1-2.9,4.2-5.1,4.2c-1.4,0-2.8-0.2-4.1-0.7
		L406.9,251.6z"/>
	<path d="M430.4,245.4c0-2.6-1-5.1-3.7-5.1c-2.7,0-4.3,2.7-4.3,5.1H430.4z M431.3,253.3c-1.3,0.5-2.9,0.8-4.3,0.8
		c-4.8,0-6.7-3.3-6.7-7.7c0-4.5,2.5-7.7,6.2-7.7c4.1,0,5.8,3.3,5.8,7.3v0.9h-10c0,3.1,1.7,5.6,4.8,5.6c1.3,0,3.2-0.5,4.1-1.1V253.3z
		"/>
	<path d="M151.9,275.5c-1.3-0.7-3.1-0.9-4.5-0.9c-5.2,0-8.1,3.7-8.1,8.6c0,5.1,2.8,8.6,8.1,8.6c1.3,0,3.3-0.2,4.5-0.9l0.1,1.7
		c-1.1,0.7-3.3,0.9-4.6,0.9c-6.3,0-10.1-4.2-10.1-10.4c0-6.1,3.9-10.4,10.1-10.4c1.2,0,3.6,0.2,4.6,0.7L151.9,275.5z"/>
	<path d="M165,292.1c3.2,0,4.9-2.7,4.9-6.1c0-3.4-1.7-6.1-4.9-6.1c-3.2,0-4.9,2.7-4.9,6.1C160.2,289.4,161.9,292.1,165,292.1
		 M165,278.4c4.7,0,6.8,3.7,6.8,7.7c0,4-2.1,7.7-6.8,7.7c-4.7,0-6.8-3.7-6.8-7.7C158.2,282,160.3,278.4,165,278.4"/>
	<path d="M177.5,282.1c0-1.1,0-2.3-0.1-3.4h1.7v2.6h0.1c0.6-1.3,1.7-3,4.7-3c3.6,0,5,2.4,5,5.6v9.4h-1.8v-8.9c0-2.8-1-4.5-3.5-4.5
		c-3.3,0-4.3,2.9-4.3,5.3v8.1h-1.8V282.1z"/>
	<path d="M197,280.3h-3v-1.6h3v-1.1c0-3.1,0.1-6.2,3.9-6.2c0.6,0,1.3,0.1,1.7,0.3l-0.1,1.6c-0.4-0.2-0.9-0.3-1.4-0.3
		c-2.5,0-2.2,2.7-2.2,4.4v1.3h3.3v1.6h-3.3v13.1H197V280.3z"/>
	<path d="M216.5,285c0-2.6-1-5.1-3.7-5.1c-2.7,0-4.3,2.7-4.3,5.1H216.5z M217.4,292.9c-1.3,0.5-2.9,0.8-4.3,0.8
		c-4.9,0-6.7-3.3-6.7-7.7c0-4.5,2.5-7.7,6.2-7.7c4.1,0,5.8,3.3,5.8,7.3v0.9h-10c0,3.1,1.7,5.6,4.8,5.6c1.3,0,3.2-0.5,4.1-1.1V292.9z
		"/>
	<path d="M229.6,292.1c3.2,0,4.3-3.5,4.3-6.1c0-2.7-1.1-6.1-4.3-6.1c-3.5,0-4.3,3.3-4.3,6.1C225.3,288.9,226.2,292.1,229.6,292.1
		 M235.7,293.3h-1.8V291h-0.1c-1,1.9-2.5,2.7-4.6,2.7c-4,0-6-3.3-6-7.7c0-4.4,1.7-7.7,6-7.7c2.9,0,4.3,2.1,4.6,2.8h0.1v-9.4h1.8
		V293.3z"/>
	<path d="M251.3,285c0-2.6-1-5.1-3.7-5.1c-2.7,0-4.3,2.7-4.3,5.1H251.3z M252.2,292.9c-1.3,0.5-2.9,0.8-4.3,0.8
		c-4.9,0-6.7-3.3-6.7-7.7c0-4.5,2.5-7.7,6.2-7.7c4.1,0,5.8,3.3,5.8,7.3v0.9h-10c0,3.1,1.7,5.6,4.8,5.6c1.3,0,3.2-0.5,4.1-1.1V292.9z
		"/>
	<path d="M259,282c0-1.6,0-2.2-0.1-3.3h1.8v2.8h0.1c0.7-1.6,1.9-3.2,3.8-3.2c0.4,0,0.9,0.1,1.3,0.2v1.9c-0.4-0.1-0.9-0.2-1.3-0.2
		c-2.9,0-3.7,3.2-3.7,5.9v7.2H259V282z"/>
	<path d="M279,286h-0.5c-3.1,0-6.9,0.3-6.9,3.5c0,1.9,1.4,2.6,3,2.6c4.2,0,4.3-3.7,4.3-5.3V286z M279.2,291L279.2,291
		c-0.9,1.8-2.9,2.7-4.7,2.7c-4.2,0-4.8-2.8-4.8-4.1c0-4.9,5.2-5.1,9-5.1h0.3v-0.8c0-2.5-0.9-3.8-3.3-3.8c-1.5,0-3,0.3-4.3,1.2v-1.8
		c1.1-0.5,3-1,4.3-1c3.6,0,5.1,1.6,5.1,5.5v6.5c0,1.2,0,2.1,0.1,3.1h-1.8V291z"/>
	<polygon points="286,291.8 294.8,280.3 286.3,280.3 286.3,278.7 296.9,278.7 296.9,280.3 288.1,291.8 296.9,291.8 296.9,293.4 
		286,293.4 	"/>
	<path d="M302.3,278.7h1.8v14.6h-1.8V278.7z M304.2,274.8h-1.8v-2.4h1.8V274.8z"/>
	<path d="M316.7,292.1c3.2,0,4.9-2.7,4.9-6.1c0-3.4-1.7-6.1-4.9-6.1c-3.2,0-4.9,2.7-4.9,6.1C311.8,289.4,313.5,292.1,316.7,292.1
		 M316.7,278.4c4.7,0,6.8,3.7,6.8,7.7c0,4-2.1,7.7-6.8,7.7c-4.7,0-6.8-3.7-6.8-7.7C309.8,282,311.9,278.4,316.7,278.4"/>
	<path d="M329.2,282.1c0-1.1,0-2.3-0.1-3.4h1.7v2.6h0.1c0.6-1.3,1.7-3,4.7-3c3.6,0,5,2.4,5,5.6v9.4h-1.8v-8.9c0-2.8-1-4.5-3.5-4.5
		c-3.3,0-4.3,2.9-4.3,5.3v8.1h-1.8V282.1z"/>
	<path d="M356.3,285c0-2.6-1-5.1-3.7-5.1c-2.7,0-4.3,2.7-4.3,5.1H356.3z M357.2,292.9c-1.3,0.5-2.9,0.8-4.3,0.8
		c-4.8,0-6.7-3.3-6.7-7.7c0-4.5,2.5-7.7,6.2-7.7c4.1,0,5.8,3.3,5.8,7.3v0.9h-10c0,3.1,1.7,5.6,4.8,5.6c1.3,0,3.2-0.5,4.1-1.1V292.9z
		"/>
	<path d="M373.8,290.8c1.2,0.8,2.6,1.2,4.4,1.2c2.5,0,4.5-1.3,4.5-4.1c0-3.9-9.2-4.4-9.2-9.7c0-3.2,2.8-5.2,6.3-5.2
		c1,0,2.6,0.1,3.9,0.7l-0.3,1.8c-0.9-0.5-2.3-0.8-3.7-0.8c-2.1,0-4.3,0.9-4.3,3.5c0,4,9.2,4,9.2,9.9c0,4-3.5,5.7-6.6,5.7
		c-1.9,0-3.5-0.4-4.5-0.9L373.8,290.8z"/>
	<polygon points="395.9,293.3 393.7,293.3 388.8,278.7 390.8,278.7 394.8,291.4 394.9,291.4 399.1,278.7 401,278.7 	"/>
	<path d="M405.8,278.7h1.8v14.6h-1.8V278.7z M407.6,274.8h-1.8v-2.4h1.8V274.8z"/>
	<polygon points="413,291.8 421.9,280.3 413.4,280.3 413.4,278.7 424,278.7 424,280.3 415.1,291.8 424,291.8 424,293.4 413,293.4 	
		"/>
	<polygon points="428,291.8 436.9,280.3 428.4,280.3 428.4,278.7 438.9,278.7 438.9,280.3 430.1,291.8 438.9,291.8 438.9,293.4 
		428,293.4 	"/>
	<path d="M453.3,285c0-2.6-1-5.1-3.7-5.1c-2.7,0-4.3,2.7-4.3,5.1H453.3z M454.2,292.9c-1.3,0.5-2.9,0.8-4.3,0.8
		c-4.9,0-6.7-3.3-6.7-7.7c0-4.5,2.5-7.7,6.2-7.7c4.1,0,5.8,3.3,5.8,7.3v0.9h-10c0,3.1,1.7,5.6,4.8,5.6c1.3,0,3.2-0.5,4.1-1.1V292.9z
		"/>
	<path d="M461,282c0-1.6,0-2.2-0.1-3.3h1.8v2.8h0.1c0.7-1.6,1.9-3.2,3.8-3.2c0.4,0,0.9,0.1,1.3,0.2v1.9c-0.4-0.1-0.9-0.2-1.3-0.2
		c-2.9,0-3.7,3.2-3.7,5.9v7.2H461V282z"/>
	<path d="M481,286h-0.5c-3.1,0-6.9,0.3-6.9,3.5c0,1.9,1.4,2.6,3,2.6c4.3,0,4.3-3.7,4.3-5.3V286z M481.2,291L481.2,291
		c-0.9,1.8-2.9,2.7-4.7,2.7c-4.2,0-4.8-2.8-4.8-4.1c0-4.9,5.2-5.1,9-5.1h0.3v-0.8c0-2.5-0.9-3.8-3.3-3.8c-1.5,0-3,0.3-4.3,1.2v-1.8
		c1.1-0.5,3-1,4.3-1c3.6,0,5.1,1.6,5.1,5.5v6.5c0,1.2,0,2.1,0.1,3.1h-1.8V291z"/>
	<path d="M151.9,315.2c-1.3-0.7-3.1-0.9-4.5-0.9c-5.2,0-8.1,3.7-8.1,8.6c0,5.1,2.8,8.6,8.1,8.6c1.3,0,3.3-0.2,4.5-0.9l0.1,1.7
		c-1.1,0.7-3.3,0.9-4.6,0.9c-6.3,0-10.1-4.2-10.1-10.4c0-6.1,3.9-10.4,10.1-10.4c1.2,0,3.6,0.2,4.6,0.7L151.9,315.2z"/>
	<path d="M165,331.8c3.2,0,4.9-2.7,4.9-6.1c0-3.4-1.7-6.1-4.9-6.1c-3.2,0-4.9,2.7-4.9,6.1C160.2,329,161.9,331.8,165,331.8 M165,318
		c4.7,0,6.8,3.7,6.8,7.7c0,4-2.1,7.7-6.8,7.7c-4.7,0-6.8-3.7-6.8-7.7C158.2,321.7,160.3,318,165,318"/>
	<path d="M177.5,321.8c0-1.1,0-2.3-0.1-3.5h1.7v2.6h0.1c0.6-1.3,1.7-3,4.7-3c3.6,0,5,2.4,5,5.6v9.4h-1.8v-8.9c0-2.8-1-4.5-3.5-4.5
		c-3.3,0-4.3,2.9-4.3,5.3v8.1h-1.8V321.8z"/>
	<path d="M197,319.9h-3v-1.6h3v-1.1c0-3.1,0.1-6.2,3.9-6.2c0.6,0,1.3,0.1,1.7,0.3l-0.1,1.6c-0.4-0.2-0.9-0.3-1.4-0.3
		c-2.5,0-2.2,2.7-2.2,4.4v1.3h3.3v1.6h-3.3V333H197V319.9z"/>
	<path d="M216.5,324.6c0-2.6-1-5.1-3.7-5.1c-2.7,0-4.3,2.7-4.3,5.1H216.5z M217.4,332.5c-1.3,0.5-2.9,0.8-4.3,0.8
		c-4.9,0-6.7-3.3-6.7-7.7c0-4.5,2.5-7.7,6.2-7.7c4.1,0,5.8,3.3,5.8,7.3v0.9h-10c0,3.1,1.7,5.6,4.8,5.6c1.3,0,3.2-0.5,4.1-1.1V332.5z
		"/>
	<path d="M229.6,331.8c3.2,0,4.3-3.5,4.3-6.1c0-2.7-1.1-6.1-4.3-6.1c-3.5,0-4.3,3.3-4.3,6.1C225.3,328.5,226.2,331.8,229.6,331.8
		 M235.7,333h-1.8v-2.3h-0.1c-1,1.9-2.5,2.7-4.6,2.7c-4,0-6-3.3-6-7.7c0-4.4,1.7-7.7,6-7.7c2.9,0,4.3,2.1,4.6,2.8h0.1v-9.4h1.8V333z
		"/>
	<path d="M251.3,324.6c0-2.6-1-5.1-3.7-5.1c-2.7,0-4.3,2.7-4.3,5.1H251.3z M252.2,332.5c-1.3,0.5-2.9,0.8-4.3,0.8
		c-4.9,0-6.7-3.3-6.7-7.7c0-4.5,2.5-7.7,6.2-7.7c4.1,0,5.8,3.3,5.8,7.3v0.9h-10c0,3.1,1.7,5.6,4.8,5.6c1.3,0,3.2-0.5,4.1-1.1V332.5z
		"/>
	<path d="M259,321.6c0-1.6,0-2.2-0.1-3.3h1.8v2.8h0.1c0.7-1.6,1.9-3.2,3.8-3.2c0.4,0,0.9,0.1,1.3,0.2v1.9c-0.4-0.1-0.9-0.2-1.3-0.2
		c-2.9,0-3.7,3.2-3.7,5.9v7.2H259V321.6z"/>
	<path d="M279,325.6h-0.5c-3.1,0-6.9,0.3-6.9,3.5c0,1.9,1.4,2.6,3,2.6c4.2,0,4.3-3.7,4.3-5.3V325.6z M279.2,330.6L279.2,330.6
		c-0.9,1.7-2.9,2.7-4.7,2.7c-4.2,0-4.8-2.8-4.8-4.1c0-4.9,5.2-5.1,9-5.1h0.3v-0.7c0-2.5-0.9-3.8-3.3-3.8c-1.5,0-3,0.3-4.3,1.2V319
		c1.1-0.5,3-1,4.3-1c3.6,0,5.1,1.6,5.1,5.5v6.5c0,1.2,0,2.1,0.1,3.1h-1.8V330.6z"/>
	<polygon points="286,331.5 294.8,319.9 286.3,319.9 286.3,318.3 296.9,318.3 296.9,319.9 288.1,331.4 296.9,331.4 296.9,333 
		286,333 	"/>
	<path d="M302.3,318.3h1.8V333h-1.8V318.3z M304.2,314.4h-1.8V312h1.8V314.4z"/>
	<path d="M322.4,329.5c0,1.1,0,2.3,0.1,3.5h-1.7v-2.6h-0.1c-0.6,1.3-1.7,3-4.7,3c-3.6,0-5-2.4-5-5.6v-9.4h1.8v8.9
		c0,2.8,1,4.5,3.5,4.5c3.3,0,4.3-2.9,4.3-5.3v-8.1h1.8V329.5z"/>
	<path d="M329.2,321.8c0-1.1,0-2.3-0.1-3.5h1.7v2.6h0.1c0.6-1.3,1.7-3,4.7-3c3.6,0,5,2.4,5,5.6v9.4h-1.8v-8.9c0-2.8-1-4.5-3.5-4.5
		c-3.3,0-4.3,2.9-4.3,5.3v8.1h-1.8V321.8z"/>
	<path d="M356.5,330.9c1.1,0.5,2.4,0.9,3.8,0.9c1.7,0,3.2-1,3.2-2.6c0-3.5-7-2.9-7-7.2c0-2.9,2.4-4,4.8-4c0.8,0,2.3,0.2,3.6,0.7
		l-0.2,1.6c-0.9-0.4-2.2-0.7-3.2-0.7c-1.9,0-3.2,0.6-3.2,2.4c0,2.7,7.2,2.4,7.2,7.2c0,3.1-2.9,4.2-5.1,4.2c-1.4,0-2.8-0.2-4.1-0.7
		L356.5,330.9z"/>
	<polygon points="376.1,333 374,333 369,318.3 371,318.3 375,331 375.1,331 379.3,318.3 381.2,318.3 	"/>
	<path d="M386,318.3h1.8V333H386V318.3z M387.8,314.4H386V312h1.8V314.4z"/>
	<polygon points="393.3,331.5 402.1,319.9 393.6,319.9 393.6,318.3 404.2,318.3 404.2,319.9 395.4,331.4 404.2,331.4 404.2,333 
		393.3,333 	"/>
	<path d="M409.6,321.6c0-1.6,0-2.2-0.1-3.3h1.8v2.8h0.1c0.7-1.6,1.9-3.2,3.8-3.2c0.4,0,0.9,0.1,1.3,0.2v1.9
		c-0.4-0.1-0.9-0.2-1.3-0.2c-2.9,0-3.7,3.2-3.7,5.9v7.2h-1.8V321.6z"/>
	<path d="M429.6,325.6h-0.5c-3.1,0-6.9,0.3-6.9,3.5c0,1.9,1.4,2.6,3,2.6c4.3,0,4.3-3.7,4.3-5.3V325.6z M429.8,330.6L429.8,330.6
		c-0.9,1.7-2.9,2.7-4.7,2.7c-4.2,0-4.8-2.8-4.8-4.1c0-4.9,5.2-5.1,9-5.1h0.3v-0.7c0-2.5-0.9-3.8-3.3-3.8c-1.5,0-3,0.3-4.3,1.2V319
		c1.1-0.5,3-1,4.3-1c3.6,0,5.1,1.6,5.1,5.5v6.5c0,1.2,0,2.1,0.1,3.1h-1.8V330.6z"/>
	<path d="M148.8,395.9c-1.3-0.5-2.7-0.9-4.1-0.9c-1.4,0-3.2,0.6-3.2,2.8c0,3.5,8.8,2,8.8,8.7c0,4.4-3.5,6.1-7.5,6.1
		c-2.2,0-3.2-0.3-5.1-0.8l0.4-3.6c1.4,0.7,3,1.2,4.5,1.2c1.5,0,3.6-0.8,3.6-2.6c0-3.8-8.8-2.2-8.8-8.9c0-4.5,3.5-6.1,7-6.1
		c1.7,0,3.3,0.2,4.8,0.7L148.8,395.9z"/>
	<polygon points="152.4,397.5 156.5,397.5 159.7,408.4 159.8,408.4 162.8,397.5 167.3,397.5 170.5,408.4 170.5,408.4 173.6,397.5 
		177.3,397.5 172.7,412.2 168.2,412.2 165,401 164.9,401 161.8,412.2 157.4,412.2 	"/>
	<path d="M180.1,397.5h3.8v14.8h-3.8V397.5z M180.1,391.1h3.8v3.7h-3.8V391.1z"/>
	<path d="M197.2,400.5c-1.2-0.4-2-0.6-3.4-0.6c-1,0-2.3,0.4-2.3,1.6c0,2.4,6.7,0.9,6.7,6.2c0,3.5-3.1,4.8-6.2,4.8
		c-1.5,0-3-0.3-4.4-0.6l0.2-3.2c1.2,0.6,2.5,1,3.8,1c1,0,2.5-0.4,2.5-1.8c0-2.9-6.7-0.9-6.7-6.3c0-3.2,2.8-4.6,5.8-4.6
		c1.8,0,3,0.3,4.2,0.5L197.2,400.5z"/>
	<path d="M210.4,400.5c-1.2-0.4-2-0.6-3.4-0.6c-1,0-2.3,0.4-2.3,1.6c0,2.4,6.7,0.9,6.7,6.2c0,3.5-3.1,4.8-6.2,4.8
		c-1.5,0-3-0.3-4.4-0.6l0.2-3.2c1.2,0.6,2.5,1,3.8,1c1,0,2.5-0.4,2.5-1.8c0-2.9-6.7-0.9-6.7-6.3c0-3.2,2.8-4.6,5.8-4.6
		c1.8,0,3,0.3,4.2,0.5L210.4,400.5z"/>
	<path d="M231.5,396.2L231.5,396.2l-3,8.3h5.9L231.5,396.2z M229.3,392.2h4.5l7.9,20h-4.4l-1.7-4.6h-8.1l-1.8,4.6h-4.2L229.3,392.2z
		"/>
	<path d="M254.1,404.7c0-2.5-1-4.6-3.2-4.6c-2.6,0-3.4,2.4-3.4,4.7c0,2,1.1,4.5,3.3,4.5C253.1,409.2,254.1,407.2,254.1,404.7
		 M257.9,397.5v13.3c0,4-1.6,7.8-7.8,7.8c-1.5,0-3.3-0.2-5.1-1l0.3-3.3c1.2,0.6,3.1,1.3,4.3,1.3c4.3,0,4.4-3.2,4.4-5.7H254
		c-0.7,1.3-2.4,2.4-4.6,2.4c-4.4,0-6-3.5-6-7.5c0-3.6,1.8-7.7,6.3-7.7c1.9,0,3.5,0.7,4.5,2.4h0.1v-2H257.9z"/>
	<path d="M271.6,403.4c-0.1-1.9-1-3.5-3.1-3.5c-2.2,0-3.2,1.5-3.4,3.5H271.6z M274.2,411.4c-1.4,0.8-3,1.2-5.1,1.2
		c-4.9,0-7.7-2.8-7.7-7.7c0-4.3,2.3-7.8,6.9-7.8c5.5,0,7,3.8,7,8.9h-10.2c0.2,2.4,1.8,3.7,4.2,3.7c1.9,0,3.5-0.7,4.9-1.5V411.4z"/>
	<path d="M278.7,397.5h3.6v2h0.1c1.2-1.7,2.8-2.4,4.9-2.4c3.5,0,5,2.5,5,5.8v9.3h-3.8v-7.9c0-1.8,0-4.2-2.5-4.2
		c-2.8,0-3.4,3-3.4,4.9v7.2h-3.8V397.5z"/>
	<path d="M306.3,400.6c-0.7-0.3-1.4-0.5-2.6-0.5c-2.4,0-3.9,1.9-3.9,4.7c0,2.7,1.3,4.8,4,4.8c1.1,0,2.3-0.4,3-0.7l0.2,3.2
		c-1.1,0.3-2.3,0.5-3.8,0.5c-4.9,0-7.3-3.3-7.3-7.8c0-4.3,2.5-7.7,7.1-7.7c1.6,0,2.7,0.2,3.7,0.5L306.3,400.6z"/>
	<path d="M316,408.2L316,408.2l3.6-10.8h3.9l-5.5,14.7c-1.2,3.3-2.1,6.5-6.1,6.5c-0.9,0-1.8-0.1-2.7-0.4l0.3-2.8
		c0.5,0.2,1,0.3,2,0.3c1.6,0,2.5-1.1,2.5-2.6l-5.7-15.5h4.3L316,408.2z"/>
	<path d="M336.1,400.3h-2.8v-2.8h2.8v-2.1c0-3,1.7-5,4.7-5c1,0,2.1,0.1,2.8,0.3l-0.3,3.2c-0.3-0.2-0.8-0.5-1.7-0.5
		c-1.3,0-1.7,1.1-1.7,2.3v1.8h3.4v2.8H340v12h-3.8V400.3z"/>
	<path d="M353.1,409.6c3,0,3.7-2.6,3.7-5.1c0-2.3-1.2-4.4-3.7-4.4c-2.5,0-3.7,2.2-3.7,4.4C349.4,406.9,350.2,409.6,353.1,409.6
		 M353.1,397.1c4.4,0,7.8,3,7.8,7.8c0,4.2-2.8,7.6-7.8,7.6c-4.9,0-7.7-3.4-7.7-7.6C345.4,400.1,348.7,397.1,353.1,397.1"/>
	<path d="M364.4,397.5h3.4v3.4h0.1c0.2-1.4,1.8-3.7,4.1-3.7c0.4,0,0.8,0,1.2,0.1v3.9c-0.3-0.2-1-0.3-1.7-0.3c-3.1,0-3.1,3.9-3.1,6
		v5.4h-3.8V397.5z"/>
	<path d="M388.7,409.1h2.2c3.4,0,6.6-2.5,6.6-6.9c0-4.4-3.2-6.9-6.6-6.9h-2.2V409.1z M384.6,392.2h5.5c6.1,0,11.6,2.1,11.6,10
		c0,8-5.4,10-11.6,10h-5.5V392.2z"/>
	<path d="M414.7,403.4c-0.1-1.9-1-3.5-3.1-3.5c-2.2,0-3.2,1.5-3.4,3.5H414.7z M417.3,411.4c-1.4,0.8-3,1.2-5.1,1.2
		c-4.9,0-7.7-2.8-7.7-7.7c0-4.3,2.3-7.8,6.9-7.8c5.5,0,7,3.8,7,8.9h-10.2c0.2,2.4,1.8,3.7,4.2,3.7c1.9,0,3.5-0.7,4.9-1.5V411.4z"/>
	<polygon points="420.2,397.5 424.4,397.5 428,408.2 428.1,408.2 431.7,397.5 435.5,397.5 430,412.2 425.7,412.2 	"/>
	<path d="M447.5,403.4c-0.1-1.9-1-3.5-3.1-3.5c-2.2,0-3.2,1.5-3.4,3.5H447.5z M450.1,411.4c-1.4,0.8-3,1.2-5.1,1.2
		c-4.9,0-7.7-2.8-7.7-7.7c0-4.3,2.3-7.8,6.9-7.8c5.5,0,7,3.8,7,8.9H441c0.2,2.4,1.8,3.7,4.2,3.7c1.9,0,3.5-0.7,4.9-1.5V411.4z"/>
	<rect x="454.7" y="390.7" width="3.8" height="21.5"/>
	<path d="M469.8,409.6c3,0,3.7-2.6,3.7-5.1c0-2.3-1.2-4.4-3.7-4.4c-2.5,0-3.7,2.2-3.7,4.4C466.1,406.9,466.9,409.6,469.8,409.6
		 M469.8,397.1c4.4,0,7.8,3,7.8,7.8c0,4.2-2.8,7.6-7.8,7.6c-4.9,0-7.7-3.4-7.7-7.6C462.1,400.1,465.5,397.1,469.8,397.1"/>
	<path d="M484.9,404.8c0,2.1,0.8,4.8,3.4,4.8c2.5,0,3.2-2.8,3.2-4.8c0-2-0.7-4.7-3.2-4.7C485.9,400.1,484.9,402.7,484.9,404.8
		 M481.1,397.5h3.7v2.1h0.1c0.9-1.4,2.3-2.4,4.6-2.4c4.5,0,6.2,3.6,6.2,7.7c0,4.1-1.7,7.8-6.3,7.8c-1.6,0-3-0.4-4.3-2h-0.1v7.7h-3.8
		V397.5z"/>
	<path d="M499,397.5h3.6v2.1h0.1c1.2-1.8,3-2.4,4.4-2.4c2.1,0,3.5,0.8,4.4,2.6c0.9-1.8,2.8-2.6,4.6-2.6c3.7,0,4.7,2.5,4.7,5.8v9.3
		h-3.9v-8.8c0-1.4,0-3.3-2.2-3.3c-2.6,0-2.9,3-2.9,5v7.2h-3.8v-8.8c0-1.4,0-3.3-2.2-3.3c-2.6,0-2.9,3-2.9,5v7.2H499V397.5z"/>
	<path d="M534.3,403.4c-0.1-1.9-1-3.5-3.1-3.5c-2.2,0-3.2,1.5-3.4,3.5H534.3z M536.8,411.4c-1.4,0.8-3,1.2-5.1,1.2
		c-4.9,0-7.7-2.8-7.7-7.7c0-4.3,2.3-7.8,6.9-7.8c5.5,0,7,3.8,7,8.9h-10.2c0.2,2.4,1.8,3.7,4.2,3.7c1.9,0,3.5-0.7,4.9-1.5V411.4z"/>
	<path d="M541.4,397.5h3.6v2h0.1c1.2-1.7,2.8-2.4,4.9-2.4c3.5,0,5,2.5,5,5.8v9.3h-3.8v-7.9c0-1.8,0-4.2-2.5-4.2
		c-2.8,0-3.4,3-3.4,4.9v7.2h-3.8V397.5z"/>
	<path d="M560.6,400.3h-2.8v-2.8h2.8v-3l3.8-1.2v4.2h3.4v2.8h-3.4v6.9c0,1.3,0.3,2.4,1.8,2.4c0.7,0,1.3-0.1,1.7-0.4l0.1,3
		c-0.8,0.2-1.7,0.3-2.8,0.3c-3,0-4.7-1.9-4.7-4.8V400.3z"/>
	<path d="M142.8,449.4c1.2,0,2.1-0.5,2.7-1.3c0.6-0.8,0.8-1.9,0.8-3h-1.7c-1.7,0-4.3,0.3-4.3,2.6
		C140.4,448.8,141.4,449.4,142.8,449.4 M138.3,437.9c1.5-0.7,3.5-1.1,5.1-1.1c4.5,0,6.4,1.9,6.4,6.2v1.9c0,1.5,0,2.6,0.1,3.7
		c0,1.1,0.1,2.2,0.2,3.3h-3.4c-0.1-0.8-0.1-1.7-0.2-2.2h-0.1c-0.9,1.6-2.8,2.5-4.6,2.5c-2.6,0-5.2-1.6-5.2-4.4
		c0-2.2,1.1-3.5,2.5-4.2c1.5-0.7,3.4-0.9,5-0.9h2.1c0-2.4-1.1-3.2-3.3-3.2c-1.6,0-3.3,0.6-4.6,1.6L138.3,437.9z"/>
	<path d="M154,437.1h3.6v2h0.1c1.2-1.7,2.8-2.4,4.9-2.4c3.5,0,5,2.5,5,5.8v9.3h-3.8V444c0-1.8,0-4.2-2.5-4.2c-2.8,0-3.4,3-3.4,4.9
		v7.2H154V437.1z"/>
	<path d="M178.3,449.2c2.5,0,3.4-2.7,3.4-4.8c0-2.1-1-4.7-3.5-4.7c-2.5,0-3.2,2.7-3.2,4.7C175.1,446.5,175.8,449.2,178.3,449.2
		 M181.9,450.2L181.9,450.2c-1.2,1.4-2.8,2-4.6,2c-4.5,0-6.2-3.7-6.2-7.8c0-4.1,1.7-7.7,6.2-7.7c1.9,0,3.3,0.7,4.4,2.1h0.1v-8.5h3.8
		v21.5h-3.7V450.2z"/>
	<path d="M213.3,451.6c-1.5,0.3-3,0.6-4.6,0.6c-6.5,0-11-3.2-11-10c0-6.9,4.2-10.7,11-10.7c1.3,0,3.1,0.3,4.5,0.8l-0.3,3.4
		c-1.5-0.9-2.9-1.1-4.3-1.1c-4.1,0-6.7,3.2-6.7,7.3c0,4.1,2.5,7.1,6.8,7.1c1.6,0,3.4-0.3,4.4-0.8L213.3,451.6z"/>
	<path d="M223.2,449.2c3,0,3.7-2.6,3.7-5.1c0-2.3-1.2-4.4-3.7-4.4c-2.5,0-3.7,2.2-3.7,4.4C219.5,446.6,220.2,449.2,223.2,449.2
		 M223.2,436.7c4.4,0,7.8,3,7.8,7.8c0,4.2-2.8,7.6-7.8,7.6c-4.9,0-7.7-3.4-7.7-7.6C215.4,439.7,218.8,436.7,223.2,436.7"/>
	<path d="M241.1,449.2c3,0,3.7-2.6,3.7-5.1c0-2.3-1.2-4.4-3.7-4.4c-2.5,0-3.7,2.2-3.7,4.4C237.4,446.6,238.2,449.2,241.1,449.2
		 M241.1,436.7c4.4,0,7.8,3,7.8,7.8c0,4.2-2.8,7.6-7.8,7.6c-4.9,0-7.7-3.4-7.7-7.6C233.4,439.7,236.8,436.7,241.1,436.7"/>
	<path d="M256.2,444.4c0,2.1,0.8,4.8,3.4,4.8c2.5,0,3.2-2.8,3.2-4.8c0-2-0.7-4.7-3.2-4.7C257.2,439.7,256.2,442.4,256.2,444.4
		 M252.3,437.1h3.7v2.1h0.1c0.9-1.4,2.3-2.4,4.6-2.4c4.5,0,6.2,3.6,6.2,7.7c0,4.1-1.7,7.8-6.3,7.8c-1.6,0-3-0.4-4.3-2h-0.1v7.7h-3.8
		V437.1z"/>
	<path d="M279.6,443c-0.1-1.9-1-3.5-3.1-3.5s-3.2,1.5-3.4,3.5H279.6z M282.2,451c-1.4,0.8-3,1.2-5.1,1.2c-4.9,0-7.7-2.8-7.7-7.7
		c0-4.3,2.3-7.8,6.9-7.8c5.5,0,7,3.8,7,8.9H273c0.2,2.4,1.8,3.7,4.2,3.7c1.9,0,3.5-0.7,4.9-1.5V451z"/>
	<path d="M286.8,437.1h3.4v3.4h0.1c0.2-1.4,1.7-3.7,4.1-3.7c0.4,0,0.8,0,1.2,0.1v3.9c-0.3-0.2-1-0.3-1.7-0.3c-3.1,0-3.1,3.9-3.1,6
		v5.4h-3.8V437.1z"/>
	<path d="M303.5,449.4c1.2,0,2.1-0.5,2.7-1.3c0.6-0.8,0.8-1.9,0.8-3h-1.7c-1.7,0-4.3,0.3-4.3,2.6
		C301.1,448.8,302.1,449.4,303.5,449.4 M299,437.9c1.5-0.7,3.5-1.1,5.1-1.1c4.5,0,6.4,1.9,6.4,6.2v1.9c0,1.5,0,2.6,0.1,3.7
		c0,1.1,0.1,2.2,0.2,3.3h-3.4c-0.1-0.8-0.1-1.7-0.2-2.2h-0.1c-0.9,1.6-2.8,2.5-4.6,2.5c-2.6,0-5.2-1.6-5.2-4.4
		c0-2.2,1.1-3.5,2.5-4.2c1.5-0.7,3.4-0.9,5-0.9h2.1c0-2.4-1.1-3.2-3.3-3.2c-1.6,0-3.3,0.6-4.6,1.6L299,437.9z"/>
	<path d="M316,439.9h-2.9v-2.8h2.9v-3l3.8-1.2v4.2h3.4v2.8h-3.4v6.9c0,1.3,0.3,2.4,1.8,2.4c0.7,0,1.4-0.1,1.7-0.4l0.1,3
		c-0.8,0.2-1.7,0.3-2.9,0.3c-3,0-4.7-1.9-4.7-4.8V439.9z"/>
	<path d="M326.4,437.1h3.8v14.8h-3.8V437.1z M326.4,430.7h3.8v3.7h-3.8V430.7z"/>
	<path d="M341.5,449.2c3,0,3.7-2.6,3.7-5.1c0-2.3-1.2-4.4-3.7-4.4c-2.5,0-3.7,2.2-3.7,4.4C337.8,446.6,338.6,449.2,341.5,449.2
		 M341.5,436.7c4.4,0,7.8,3,7.8,7.8c0,4.2-2.8,7.6-7.8,7.6c-4.9,0-7.7-3.4-7.7-7.6C333.8,439.7,337.1,436.7,341.5,436.7"/>
	<path d="M352.7,437.1h3.6v2h0c1.2-1.7,2.9-2.4,4.9-2.4c3.5,0,5,2.5,5,5.8v9.3h-3.8V444c0-1.8,0-4.2-2.5-4.2c-2.8,0-3.4,3-3.4,4.9
		v7.2h-3.8V437.1z"/>
	<path d="M390.2,435.5c-1.3-0.5-2.7-0.9-4.1-0.9c-1.4,0-3.2,0.6-3.2,2.8c0,3.5,8.8,2,8.8,8.7c0,4.4-3.5,6.1-7.5,6.1
		c-2.2,0-3.2-0.3-5.1-0.8l0.4-3.6c1.4,0.7,3,1.2,4.5,1.2c1.5,0,3.6-0.8,3.6-2.6c0-3.8-8.8-2.2-8.8-8.9c0-4.5,3.5-6.1,7-6.1
		c1.7,0,3.3,0.2,4.8,0.7L390.2,435.5z"/>
	<path d="M399.9,448.7h2.2c3.4,0,6.6-2.5,6.6-6.9c0-4.4-3.2-6.9-6.6-6.9h-2.2V448.7z M395.8,431.8h5.5c6.2,0,11.6,2.1,11.6,10
		c0,8-5.4,10-11.6,10h-5.5V431.8z"/>
	<path d="M431.6,451.6c-1.5,0.3-3,0.6-4.6,0.6c-6.5,0-11-3.2-11-10c0-6.9,4.2-10.7,11-10.7c1.3,0,3.1,0.3,4.5,0.8l-0.3,3.4
		c-1.5-0.9-2.9-1.1-4.3-1.1c-4.1,0-6.7,3.2-6.7,7.3c0,4.1,2.5,7.1,6.8,7.1c1.6,0,3.4-0.3,4.4-0.8L431.6,451.6z"/>
</g>
<g>
	<path class="st0" d="M102.8,193.7c0,0-15.3-6.6-40.8-6.6h0c-25.6,0-40.9,6.6-40.9,6.6s-1.4,29.4,4.4,46
		C35.8,268.9,62,277.1,62,277.1h0h0c0,0,26.2-8.2,36.4-37.4C104.2,223.1,102.8,193.7,102.8,193.7"/>
</g>
<g>
	<polygon class="st1" points="89.1,219 89.1,235.2 70.1,235.2 70.1,254.1 53.7,254.1 53.7,235.2 34.7,235.2 34.7,219 53.7,219 
		53.7,200.1 70.1,200.1 70.1,219 	"/>
</g>
</svg>
