<?xml version="1.0" encoding="utf-8"?>
<!-- Generator: Adobe Illustrator 25.4.0, SVG Export Plug-In . SVG Version: 6.00 Build 0)  -->
<svg version="1.1" id="Layer_1" xmlns="http://www.w3.org/2000/svg" xmlns:xlink="http://www.w3.org/1999/xlink" x="0px" y="0px"
	 viewBox="0 0 708.3 255.4" style="enable-background:new 0 0 708.3 255.4;" xml:space="preserve">
<style type="text/css">
	.st0{fill:#FFFFFF;}
</style>
<g id="logo-ilo">
	<g id="logo-ilo-in">
		<path class="st0" d="M354.3,75.4V29.2h7.9v46.2L354.3,75.4z"/>
		<path class="st0" d="M390.7,75.4V56c0-5.2-2.1-7.8-6.3-7.8c-4.6,0-6.9,2.6-6.9,7.7v19.5h-7.7V41.7h7.7v3.2c2.2-2.7,5.5-4.1,8.9-4
			c3.2-0.1,6.3,1.1,8.6,3.3c2.2,2.2,3.3,5.7,3.3,10.5v20.8H390.7z"/>
		<path class="st0" d="M415.1,76.2c-5.2,0-7.9-2.9-7.9-8.6V48.4h-5v-6.7h5V31.4l7.7-3.7v13.9h7.8v6.7H415V66c0,2.2,0.9,3.2,2.8,3.2
			c1.9,0,3.7-0.6,5.3-1.5l-0.9,6.9C420,75.7,417.6,76.2,415.1,76.2z"/>
		<path class="st0" d="M441.8,76.2c-4.8,0-8.6-1.6-11.4-4.7s-4.2-7.5-4.2-13c0-5.5,1.4-9.8,4.2-12.9c2.8-3.1,6.6-4.7,11.4-4.7
			c3.9-0.2,7.7,1.3,10.6,4c2.8,2.7,4.1,6.6,4.1,11.8c0,1.6-0.1,3.2-0.3,4.8h-22.4c0,2.2,0.9,4.2,2.5,5.7c1.5,1.4,3.4,2.2,5.5,2.2
			c2.8,0.1,5.5-1.2,7.1-3.5l4.9,5C450.8,74.4,446.8,76.2,441.8,76.2z M433.9,55h14.9c0-2.1-0.8-4-2.2-5.5c-1.3-1.2-3-1.9-4.8-1.9
			c-2-0.1-3.9,0.6-5.5,1.8C434.8,50.9,433.9,52.9,433.9,55z"/>
		<path class="st0" d="M461.8,75.4V41.7h7.7v3.5c1.2-2.7,3.9-4.5,6.9-4.3c2.3,0,4.5,0.8,6.3,2.3l-1.1,7.1c-1.7-1.2-3.7-1.8-5.7-1.8
			c-1.7,0-3.3,0.6-4.5,1.8c-1.2,1.2-1.9,3.3-1.9,6.2v18.9H461.8z"/>
		<path class="st0" d="M507.4,75.4V56c0-5.2-2.1-7.8-6.3-7.8c-4.6,0-6.9,2.6-6.9,7.7v19.5h-7.7V41.7h7.7v3.2c2.2-2.7,5.5-4.1,8.9-4
			c3.2-0.1,6.3,1.1,8.6,3.3c2.2,2.2,3.3,5.7,3.3,10.5v20.8H507.4z"/>
		<path class="st0" d="M541.3,75.4v-2.7c-2.4,2.4-5.6,3.7-9,3.5c-3.2,0.1-6.3-0.9-8.8-2.9c-2.3-2-3.4-4.7-3.4-8.3s1.3-6.3,3.9-8.3
			c2.7-1.9,6-2.9,9.3-2.8c2.8-0.1,5.5,0.5,8,1.8v-1.8c0-2.2-0.5-3.7-1.6-4.7c-1.4-1.1-3.2-1.6-5-1.5c-3.6,0-7.1,1.1-10,3.2l-2.4-6.3
			c5.3-3.3,11.7-4.4,17.8-3.3c1.4,0.4,2.8,0.9,4.1,1.7c1.5,0.9,2.7,2.3,3.3,4c0.9,2.1,1.3,4.4,1.2,6.7v21.6H541.3z M533.8,69.4
			c2.9,0,5.6-1.1,7.5-3.2v-4.3c-2.1-1-4.4-1.4-6.7-1.4c-1.7-0.1-3.5,0.3-5,1.1c-1.3,0.7-2,2-1.9,3.5c0,1.3,0.5,2.5,1.6,3.2
			C530.5,69.1,532.1,69.5,533.8,69.4z"/>
		<path class="st0" d="M565.4,76.2c-5.2,0-7.9-2.9-7.9-8.6V48.4h-5v-6.7h5V31.4l7.7-3.7v13.9h7.8v6.7h-7.8V66c0,2.2,1,3.2,2.8,3.2
			c1.9,0,3.7-0.6,5.3-1.5l-0.9,6.9C570.3,75.7,567.8,76.2,565.4,76.2z"/>
		<path class="st0" d="M585.2,35.7c-0.8,0.9-2,1.4-3.2,1.3c-2.5,0-4.6-2.1-4.6-4.6c0-1.2,0.5-2.4,1.3-3.2c0.9-0.9,2-1.3,3.3-1.3
			c2.5,0,4.5,2,4.6,4.5c0,0,0,0.1,0,0.1C586.5,33.6,586,34.8,585.2,35.7z M578,75.4V41.7h7.7v33.7H578z"/>
		<path class="st0" d="M606.8,76.2c-4.7,0-8.5-1.6-11.3-4.7c-2.8-3.1-4.2-7.4-4.2-12.9c0-5.5,1.4-9.8,4.2-13
			c2.8-3.2,6.5-4.7,11.3-4.7c4.8,0,8.5,1.6,11.3,4.7s4.2,7.5,4.2,13c0,5.5-1.4,9.8-4.2,12.9S611.6,76.2,606.8,76.2z M606.8,68.8
			c2.2,0.1,4.4-0.9,5.7-2.7c1.5-2.2,2.2-4.9,2.1-7.5c0.1-2.7-0.6-5.3-2.1-7.6c-1.3-1.8-3.5-2.9-5.7-2.8c-2.2-0.1-4.3,1-5.6,2.8
			c-1.5,2.2-2.3,4.9-2.2,7.5c-0.1,2.6,0.6,5.3,2.1,7.5C602.4,67.8,604.5,68.8,606.8,68.8z"/>
		<path class="st0" d="M648.7,75.4V56c0-5.2-2.1-7.8-6.3-7.8c-4.6,0-6.9,2.6-6.9,7.7v19.5h-7.7V41.7h7.7v3.2c2.2-2.7,5.5-4.1,8.9-4
			c3.2-0.1,6.3,1.1,8.6,3.3c2.2,2.2,3.3,5.7,3.3,10.5v20.8H648.7z"/>
		<path class="st0" d="M682.6,75.4v-2.7c-2.4,2.4-5.6,3.7-9,3.5c-3.2,0.1-6.3-0.9-8.8-2.9c-2.3-2-3.4-4.7-3.4-8.3s1.3-6.3,3.9-8.3
			c2.7-1.9,6-2.9,9.3-2.8c2.8-0.1,5.5,0.5,8,1.8v-1.8c0-2.2-0.5-3.7-1.6-4.7c-1.4-1.1-3.2-1.6-5-1.5c-3.6,0-7.1,1.1-10,3.2l-2.4-6.3
			c5.3-3.3,11.7-4.4,17.9-3.3c1.5,0.3,2.9,0.9,4.2,1.7c1.5,0.9,2.7,2.3,3.3,4c0.9,2.1,1.3,4.4,1.2,6.7v21.6H682.6z M675.1,69.4
			c2.9,0,5.6-1.1,7.5-3.2v-4.3c-2.1-1-4.4-1.4-6.7-1.4c-1.7-0.1-3.5,0.3-5,1.1c-1.2,0.7-2,2.1-1.9,3.5c0,1.3,0.5,2.5,1.6,3.2
			C671.9,69.1,673.5,69.5,675.1,69.4z"/>
		<path class="st0" d="M697.1,75.4v-44l7.7-3.6v47.6H697.1z"/>
		<path class="st0" d="M354,141.4V95.2h7.9v38.6h22.4v7.6H354z"/>
		<path class="st0" d="M408.8,141.4v-2.7c-2.4,2.4-5.6,3.7-9,3.5c-3.2,0.1-6.3-0.9-8.8-2.9c-2.3-2-3.4-4.7-3.4-8.3
			c0-3.6,1.3-6.3,3.9-8.3c2.7-1.9,6-2.9,9.3-2.8c2.8-0.1,5.5,0.5,8,1.8v-1.8c0-2.2-0.5-3.7-1.6-4.7c-1.4-1.1-3.2-1.6-5-1.4
			c-3.6,0-7.1,1.1-10,3.2l-2.4-6.3c5.3-3.3,11.7-4.4,17.9-3.3c1.5,0.3,2.9,0.9,4.2,1.7c1.5,0.9,2.7,2.3,3.3,4
			c0.9,2.1,1.3,4.4,1.2,6.7v21.7L408.8,141.4z M401.3,135.4c2.9,0,5.6-1.1,7.5-3.2v-4.3c-2.1-1-4.4-1.4-6.7-1.4
			c-1.7-0.1-3.5,0.3-5,1.1c-1.2,0.7-2,2-1.9,3.4c0,1.3,0.6,2.5,1.6,3.2C398.1,135.1,399.7,135.5,401.3,135.4z"/>
		<path class="st0" d="M438.4,142.2c-2.9,0.1-5.6-1.1-7.5-3.4v2.6h-7.7V97.2l7.7-3.5v16.4c1.9-2.2,4.7-3.4,7.6-3.3
			c3.9-0.1,7.7,1.7,10.1,4.8c2.6,3.2,3.9,7.5,3.9,12.9c0,5.6-1.3,10-3.8,13.1C446.2,140.6,442.4,142.4,438.4,142.2z M437.4,134.8
			c2.2,0.1,4.2-0.9,5.4-2.7c1.3-1.8,1.9-4.3,1.9-7.6s-0.6-5.9-1.9-7.7c-1.2-1.7-3.3-2.7-5.4-2.6c-2.6-0.1-5.1,1.1-6.5,3.3v14.1
			C432.3,133.7,434.8,135,437.4,134.8L437.4,134.8z"/>
		<path class="st0" d="M472,142.2c-4.7,0-8.5-1.6-11.3-4.7c-2.8-3.1-4.2-7.4-4.1-12.9c0-5.5,1.4-9.8,4.1-13
			c2.8-3.2,6.5-4.7,11.3-4.7c4.8,0,8.5,1.6,11.3,4.7c2.8,3.1,4.2,7.5,4.2,13c0,5.5-1.4,9.8-4.2,12.9
			C480.6,140.6,476.8,142.2,472,142.2z M472,134.8c2.2,0.1,4.4-0.9,5.7-2.7c1.5-2.2,2.2-4.9,2.1-7.5c0.1-2.7-0.6-5.4-2.1-7.6
			c-2.4-3.1-6.9-3.7-10-1.3c-0.5,0.4-0.9,0.8-1.3,1.3c-1.5,2.2-2.3,4.9-2.1,7.6c-0.2,2.7,0.6,5.3,2.1,7.5
			C467.7,133.8,469.8,134.9,472,134.8z"/>
		<path class="st0" d="M513.6,141.4v-3.2c-2.1,2.7-5.4,4.2-8.8,4c-3.2,0.1-6.3-1.1-8.6-3.3c-2.2-2.2-3.4-5.7-3.4-10.5v-20.6h7.7
			v19.3c0,5.2,2.1,7.9,6.3,7.9c4.5,0,6.8-2.6,6.8-7.7v-19.4h7.7v33.7H513.6z"/>
		<path class="st0" d="M528.5,141.4v-33.7h7.7v3.5c1.2-2.7,3.9-4.5,6.9-4.3c2.3,0,4.5,0.8,6.3,2.3l-1.1,7.1
			c-1.7-1.2-3.7-1.8-5.7-1.8c-1.7,0-3.3,0.6-4.5,1.8c-1.2,1.2-1.8,3.3-1.8,6.2v18.9L528.5,141.4z"/>
		<path class="st0" d="M372.6,208.2c-2.7,0-5.3-0.4-7.8-1.4c-2.2-0.8-4.1-2.1-5.8-3.7c-1.5-1.6-2.8-3.4-3.8-5.4
			c-1-2-1.8-4.2-2.2-6.4c-0.9-4.6-0.9-9.2,0-13.8c0.4-2.2,1.2-4.4,2.2-6.4c1-2,2.3-3.8,3.8-5.4c1.6-1.6,3.6-2.9,5.8-3.7
			c2.5-1,5.1-1.4,7.8-1.4c3.3-0.1,6.5,0.6,9.4,2.1c2.6,1.3,4.8,3.2,6.3,5.6c1.5,2.4,2.7,4.9,3.4,7.6c1.5,5.6,1.5,11.5,0,17.2
			c-0.7,2.7-1.9,5.3-3.4,7.6c-1.6,2.4-3.8,4.3-6.3,5.6C379.1,207.5,375.9,208.2,372.6,208.2z M372.6,200.6c2,0,3.9-0.5,5.6-1.5
			c1.6-1,2.9-2.4,3.8-4c0.9-1.6,1.6-3.4,2-5.2c0.4-1.8,0.7-3.7,0.7-5.6c0-1.9-0.2-3.9-0.7-5.8c-0.4-1.8-1.1-3.6-2-5.2
			c-0.9-1.6-2.2-3-3.8-3.9c-1.7-1-3.7-1.5-5.6-1.4c-2.6-0.1-5.2,0.9-7.1,2.7c-1.8,1.7-3.2,3.8-3.9,6.2c-0.7,2.4-1.1,4.9-1.1,7.5
			c0,1.9,0.2,3.9,0.7,5.7c0.4,1.8,1.1,3.6,2,5.2c0.9,1.6,2.2,3,3.8,3.9C368.7,200.1,370.6,200.6,372.6,200.6z"/>
		<path class="st0" d="M399.5,207.4v-33.7h7.7v3.5c1.2-2.7,3.9-4.5,6.9-4.3c2.3,0,4.5,0.8,6.3,2.3l-1.1,7.1
			c-1.7-1.2-3.7-1.8-5.8-1.8c-1.7,0-3.3,0.6-4.5,1.9c-1.2,1.2-1.8,3.3-1.9,6.2v18.9L399.5,207.4z"/>
		<path class="st0" d="M435.8,220.6l-4.1-6.2c4.6-0.3,7.8-1,9.6-2.1c1.8-1.1,2.8-3.1,2.7-5.2v-1.9c-2,2.1-4.8,3.2-7.7,3
			c-3.9,0.1-7.6-1.6-10.1-4.6c-2.6-3.1-3.9-7.4-3.9-13.1c0-5.5,1.3-9.8,3.9-12.9c2.4-3.1,6.2-4.8,10.1-4.7c2.8-0.1,5.6,0.9,7.6,2.9
			v-2h7.7V204c0,5.6-1.2,9.6-3.6,12.1S441.6,220.1,435.8,220.6z M437.6,200.8c2.5,0.1,5-1.1,6.3-3.3v-14c-1.4-2.1-3.8-3.4-6.3-3.3
			c-2.2-0.1-4.3,0.9-5.6,2.6c-1.3,1.8-2,4.3-2,7.7c-0.1,2.7,0.6,5.3,2,7.5C433.4,199.8,435.4,200.9,437.6,200.8z"/>
		<path class="st0" d="M478.1,207.4v-2.7c-2.4,2.4-5.6,3.7-9,3.5c-3.2,0.1-6.3-0.9-8.8-2.9c-2.3-2-3.4-4.7-3.4-8.3
			c0-3.6,1.3-6.3,3.9-8.3c2.7-1.9,6-2.9,9.3-2.8c2.8-0.1,5.5,0.5,8,1.8v-1.8c0-2.2-0.5-3.7-1.6-4.7c-1.4-1.1-3.2-1.6-5-1.4
			c-3.6,0-7.1,1.1-10,3.2l-2.4-6.3c5.4-3.3,11.7-4.4,17.9-3.3c1.5,0.3,2.9,0.9,4.2,1.7c1.5,0.9,2.7,2.3,3.3,4
			c0.9,2.1,1.3,4.4,1.2,6.7v21.7L478.1,207.4z M470.6,201.4c2.9,0,5.6-1.1,7.5-3.2v-4.4c-2.1-1-4.4-1.4-6.7-1.4
			c-1.7-0.1-3.5,0.3-5,1.1c-1.2,0.7-2,2-1.9,3.4c0,1.3,0.5,2.5,1.6,3.2C467.4,201.1,469,201.5,470.6,201.4z"/>
		<path class="st0" d="M513.3,207.4V188c0-5.2-2.1-7.8-6.3-7.9c-4.6,0-6.9,2.6-6.9,7.7v19.5h-7.7v-33.7h7.7v3.2
			c2.2-2.7,5.5-4.1,8.9-4c3.2-0.1,6.3,1.1,8.6,3.3c2.2,2.2,3.3,5.7,3.3,10.5v20.7L513.3,207.4z"/>
		<path class="st0" d="M535,167.7c-0.8,0.9-2,1.4-3.2,1.4c-2.5,0-4.6-2.1-4.6-4.6c0-1.2,0.5-2.4,1.3-3.2c0.9-0.9,2-1.3,3.3-1.3
			c2.5,0,4.5,2,4.6,4.5c0,0,0,0.1,0,0.1C536.3,165.6,535.9,166.8,535,167.7z M527.9,207.4v-33.7h7.7v33.7L527.9,207.4z"/>
		<path class="st0" d="M540.6,207.4v-6.2l17.7-20.7h-16.4v-6.9h25.9v5.9l-17.6,20.9h17.6v6.9H540.6z"/>
		<path class="st0" d="M593.1,207.4v-2.7c-2.4,2.4-5.6,3.7-9,3.5c-3.2,0.1-6.3-0.9-8.8-2.9c-2.3-2-3.4-4.7-3.4-8.3
			c0-3.6,1.3-6.3,3.9-8.3c2.7-1.9,6-2.9,9.3-2.8c2.8-0.1,5.5,0.5,8,1.8v-1.8c0-2.2-0.5-3.7-1.6-4.7c-1.4-1.1-3.2-1.6-5-1.4
			c-3.6,0-7.1,1.1-10,3.2l-2.4-6.3c5.4-3.3,11.7-4.4,17.9-3.3c1.5,0.3,2.9,0.9,4.2,1.7c1.5,0.9,2.7,2.3,3.3,4
			c0.9,2.1,1.3,4.4,1.2,6.7v21.7L593.1,207.4z M585.6,201.4c2.9,0,5.6-1.1,7.5-3.2v-4.4c-2.1-1-4.4-1.4-6.7-1.4
			c-1.7-0.1-3.5,0.3-5,1.1c-1.2,0.7-2,2-1.9,3.4c0,1.3,0.6,2.5,1.6,3.2C582.4,201.1,584,201.5,585.6,201.4L585.6,201.4z"/>
		<path class="st0" d="M617.2,208.2c-5.2,0-7.9-2.9-7.9-8.6v-19.1h-5v-6.7h5v-10.2l7.7-3.7v13.9h7.8v6.7h-7.8V198
			c0,2.2,0.9,3.2,2.8,3.2c1.9,0,3.7-0.6,5.3-1.5l-0.9,6.9C622.1,207.7,619.7,208.2,617.2,208.2z"/>
		<path class="st0" d="M637,167.7c-0.8,0.9-2,1.4-3.2,1.4c-2.5,0-4.6-2.1-4.6-4.6c0-1.2,0.5-2.4,1.4-3.2c0.9-0.9,2-1.3,3.3-1.3
			c2.5,0,4.5,2,4.6,4.5c0,0,0,0.1,0,0.1C638.3,165.6,637.9,166.8,637,167.7z M629.9,207.4v-33.7h7.7v33.7L629.9,207.4z"/>
		<path class="st0" d="M658.6,208.2c-4.7,0-8.5-1.6-11.3-4.7c-2.8-3.1-4.2-7.4-4.2-12.9c0-5.5,1.4-9.8,4.2-13
			c2.8-3.2,6.5-4.7,11.3-4.7c4.8,0,8.5,1.6,11.3,4.7s4.2,7.5,4.2,13c0,5.5-1.4,9.8-4.2,12.9C667.2,206.6,663.4,208.2,658.6,208.2z
			 M658.6,200.8c2.2,0.1,4.4-0.9,5.7-2.7c1.5-2.2,2.2-4.9,2.1-7.5c0.1-2.7-0.6-5.4-2.1-7.6c-2.4-3.1-6.9-3.7-10-1.3
			c-0.5,0.4-0.9,0.8-1.3,1.3c-1.5,2.2-2.3,4.9-2.1,7.6c-0.1,2.6,0.6,5.3,2.1,7.4C654.3,199.8,656.4,200.8,658.6,200.8z"/>
		<path class="st0" d="M700.6,207.4V188c0-5.2-2.1-7.8-6.3-7.9c-4.6,0-6.9,2.6-6.9,7.7v19.5h-7.7v-33.7h7.7v3.2
			c2.2-2.7,5.5-4.1,8.9-4c3.2-0.1,6.3,1.1,8.6,3.3c2.2,2.2,3.3,5.7,3.3,10.5v20.7L700.6,207.4z"/>
		<path class="st0" d="M71,67.6c-1.3,2.2-1.7,3.1-1.7,3.1c-1,1.9-3.3,2.8-5.4,2.1l-3.7-1.4c-2-0.8-4.2,0.3-5,2.2l-2.8,7.3
			c-0.7,2,0.3,4.2,2.2,5l3.7,1.4c2,0.8,3.2,3,2.7,5.2l-1.6,8c-0.4,2.2-2.3,3.7-4.5,3.7L51,104c-2.1-0.1-3.9,1.6-4,3.8l-0.3,7.8
			c-0.1,2.1,1.6,3.9,3.8,4l3.9,0.1c2.2,0.1,4,1.8,4.2,4l1.1,8c0.4,2.2-0.9,4.3-3,5l-3.8,1.2c-2,0.6-3.2,2.8-2.6,4.9l3.4,11.2l21-6.5
			C57,103.9,77.9,54.3,121.3,36.5C128,33.8,134.9,32,142,31l-4.9-21.5l-11.4,2.6c-2.1,0.5-3.4,2.6-2.9,4.7l0.9,3.9
			c0.4,2.2-0.7,4.3-2.8,5.1l-7.5,3.1c-2,0.9-4.4,0.2-5.6-1.7l-2.1-3.3c-1.1-1.8-3.5-2.4-5.4-1.2l-6.6,4.1c-1.8,1.1-2.4,3.5-1.2,5.4
			l2.1,3.3c1.1,1.9,0.7,4.3-1,5.8l-6.1,5.4c-1.6,1.5-4.1,1.6-5.8,0.2l-3-2.5c-1.7-1.4-4.1-1.1-5.5,0.6l-4.9,6
			c-1.3,1.7-1.1,4.1,0.6,5.5l3,2.5c1.7,1.4,2,3.9,0.9,5.7C72.7,64.5,72.2,65.4,71,67.6z"/>
		<path class="st0" d="M152,208c2.5,0,3.6-0.1,3.6-0.1c2.2-0.1,4.1,1.5,4.5,3.6l0.6,3.9c0.3,2.1,2.3,3.6,4.5,3.2l7.7-1.2
			c2.1-0.3,3.6-2.3,3.2-4.5l-0.6-3.9c-0.3-2.2,1-4.3,3.1-4.9l7.7-2.6c2.1-0.8,4.4,0.1,5.5,2l1.8,3.4c1,1.9,3.4,2.6,5.3,1.6l6.9-3.7
			c1.9-1,2.6-3.4,1.6-5.3l-1.9-3.5c-1-2-0.4-4.4,1.4-5.7l6.4-4.9c1.7-1.4,4.2-1.3,5.8,0.1l2.9,2.7c1.6,1.5,4,1.4,5.5-0.2l8-8.5
			l-16.2-14.9c-28.7,37.1-82.1,44-119.2,15.2c-5.7-4.4-10.8-9.5-15.2-15.2l-16.1,14.9l8,8.5c1.5,1.6,3.9,1.7,5.5,0.2l2.8-2.7
			c1.6-1.5,4.1-1.5,5.8-0.1l6.4,4.9c1.8,1.3,2.3,3.7,1.3,5.7l-1.8,3.5c-1,1.9-0.3,4.3,1.6,5.3l6.9,3.7c1.9,1,4.2,0.3,5.3-1.6
			l1.8-3.4c1.1-1.9,3.4-2.7,5.5-2l7.7,2.6c2.1,0.7,3.4,2.8,3.1,4.9l-0.6,3.9c-0.3,2.1,1.1,4.1,3.2,4.5l7.7,1.2
			c2.1,0.3,4.1-1.1,4.5-3.2l0.6-3.9c0.4-2.2,2.3-3.7,4.5-3.6C148.4,208,149.5,208,152,208z"/>
		<path class="st0" d="M233.1,67.6c-1.2-2.2-1.9-3.1-1.9-3.1c-1.2-1.9-0.8-4.3,0.9-5.7l3-2.5c1.7-1.4,1.9-3.8,0.6-5.5l-4.9-6
			c-1.4-1.7-3.8-1.9-5.5-0.6l-3,2.5c-1.7,1.3-4.2,1.3-5.8-0.2l-6.1-5.4c-1.7-1.4-2.1-3.8-1-5.8l2.1-3.3c1.1-1.8,0.6-4.2-1.2-5.4
			l-6.6-4.1c-1.8-1.1-4.2-0.6-5.4,1.2l-2.1,3.3c-1.2,1.8-3.6,2.5-5.6,1.7l-7.5-3.1c-2-0.8-3.2-3-2.8-5.1l0.9-3.9
			c0.5-2.1-0.8-4.2-2.9-4.7l-11.4-2.7L162.1,31c46.5,6.3,79.1,49.1,72.8,95.6c-1,7.1-2.8,14.1-5.6,20.8l21,6.5l3.4-11.2
			c0.6-2.1-0.5-4.2-2.6-4.9l-3.8-1.1c-2.1-0.7-3.4-2.8-3-5l1.1-8c0.3-2.2,2.1-3.9,4.2-4l3.9-0.1c2.1-0.1,3.8-1.9,3.8-4l-0.2-7.8
			c-0.1-2.1-1.9-3.8-4-3.8l-3.9,0.1c-2.2,0-4.1-1.6-4.5-3.7l-1.7-8c-0.5-2.2,0.7-4.3,2.7-5.2l3.7-1.3c2-0.8,3-3,2.3-5l-2.8-7.3
			c-0.8-2-3-3-5-2.2l-3.6,1.4c-2.1,0.7-4.4-0.2-5.4-2.1C234.8,70.8,234.4,69.8,233.1,67.6z"/>
		<path class="st0" d="M30.4,65.8l-0.1,0.2L30.4,65.8z"/>
		<path class="st0" d="M63.8,21.7l0.3,0.4c2.4-1.8,5.1-3.1,7.9-4c21.2-5.9,20.1-13.3,29.1-17.6L100.8,0c-2.2,1.4-4.8,2.2-7.5,2.2
			C68.5,2.5,70.4,17,63.8,21.7z"/>
		<path class="st0" d="M39.2,49.2l0.5,0.3c5-5.6,9.9-6.6,10.7-6.9C70,36.8,76.9,23.8,82.2,20.1L82,19.8c-7.3,5.2-16-0.1-30.7,15.7
			c-0.1,0.1-0.5-0.5-0.5-0.5c12-14.5,12.3-24.3,17.8-29.6l-0.3-0.3C33.4,25.9,48.8,37.3,39.2,49.2z"/>
		<path class="st0" d="M40.6,25.1C7.7,57.7,28.2,66,23,82.3l0.3,0.2c3-6.9,10.6-9.9,10.8-10C48.1,66,52.5,49.8,58,44.8l-0.3-0.3
			c-6.8,7.4-18,3.2-27.2,21.5c0,0.1-0.6-0.3-0.6-0.3c7.4-15.9,3.9-30.3,11-40.3C40.8,25.4,40.7,25.2,40.6,25.1z"/>
		<path class="st0" d="M16.7,125.6h0.5c-0.1-1.8-0.6-9.6,7.1-16.8c15.7-14.4,13-27.3,19.4-37.2l-0.5-0.3C38.2,79.7,20,89,19.3,102
			c-0.2,0-0.5,0-0.7-0.1c2.6-18.7-7.2-31.1-1.8-43c-0.2-0.1-0.3-0.2-0.5-0.3C-4.6,101.6,12.7,101,16.7,125.6z"/>
		<path class="st0" d="M24.7,166.3l0.5-0.2c-4.3-9.7,2.9-22.9,3.2-23.6c9.5-18.4,6.3-35,8.5-40.9l-0.5-0.1
			c-5.1,12.6-19.1,19.5-17,40.7c-0.2,0-0.5,0-0.7,0c-2.2-13.2-17.1-25.8-16.6-40.2H2C-7.3,153.2,19.2,152.8,24.7,166.3z"/>
		<path class="st0" d="M46,204.1l0.3-0.3c-5.4-6.5-7.6-15-6-23.3c4.4-25.5-3.8-30.1-4-41.6h-0.4c-0.4,12.9-13.6,27.4-1.6,45.4
			l-0.6,0.4C20.5,165.5,10,170.2,3.8,151l0,0c-0.2,0-0.4,0.1-0.5,0.1C12.6,207.3,37.5,190.3,46,204.1z"/>
		<path class="st0" d="M97.5,228.6l-0.1-0.5c-17.4,3.5-26.3,0.1-29.5-15.9c-4.4-22.5-19.7-31.1-21.5-40.1l0,0c-0.1,0-0.3,0-0.4,0.1
			l0,0c3.3,15.9-4.5,25.3,14.7,44.3l-0.5,0.4c-18.4-14.6-31-9.2-38.4-19.4c-0.1,0.1-0.2,0.2-0.3,0.3
			C44.3,235.8,68.8,237.9,97.5,228.6z"/>
		<path class="st0" d="M54.5,235.2l0.1-0.2c23.4,13.6,47.9-5.4,77.5-6.1c7.4-0.2,29.7,1.2,50.1,24.9l-5.4,1.6
			c-6.7-11.7-17.1-20.2-26.6-22.5c-27-6.7-27.5,18.4-57.4,18.8C70.6,251.9,55.4,236.1,54.5,235.2z"/>
		<path class="st0" d="M273.3,65.8l0.1,0.2L273.3,65.8z"/>
		<path class="st0" d="M273.3,65.8l0.1,0.2L273.3,65.8z"/>
		<path class="st0" d="M30.4,65.8l-0.1,0.2L30.4,65.8z"/>
		<path class="st0" d="M273.3,65.8l0.1,0.2L273.3,65.8z"/>
		<path class="st0" d="M239.9,21.7l-0.3,0.4c-2.4-1.8-5.1-3.1-7.9-4c-21.2-5.9-20.1-13.3-29.1-17.6l0.3-0.4c2.2,1.4,4.8,2.2,7.5,2.2
			C235.2,2.5,233.3,17,239.9,21.7z"/>
		<path class="st0" d="M264.6,49.2l-0.5,0.3c-5-5.6-9.9-6.6-10.7-6.9c-19.7-5.8-26.6-18.9-31.9-22.6l0.2-0.3
			c7.3,5.2,15.9-0.1,30.7,15.7c0.1,0.1,0.5-0.5,0.5-0.5c-12-14.5-12.3-24.3-17.8-29.6l0.3-0.3C270.3,25.9,255,37.3,264.6,49.2z"/>
		<path class="st0" d="M263.1,25.1C296,57.7,275.5,66,280.7,82.3l-0.3,0.2c-3-6.9-10.6-9.9-10.8-10c-13.9-6.4-18.3-22.7-23.9-27.6
			l0.3-0.3c6.8,7.4,18,3.2,27.2,21.5c0,0.1,0.6-0.3,0.6-0.3c-7.4-15.9-3.9-30.3-11-40.3C262.8,25.4,263,25.2,263.1,25.1z"/>
		<path class="st0" d="M287,125.6h-0.5c0.1-1.8,0.6-9.6-7.1-16.8c-15.6-14.4-12.9-27.3-19.4-37.2l0.5-0.3c5,8.5,23.2,17.8,23.9,30.8
			c0.2,0,0.5,0,0.7-0.1c-2.7-18.7,7.2-31.1,1.8-43c0.2-0.1,0.3-0.2,0.5-0.3C308.3,101.6,291,101,287,125.6z"/>
		<path class="st0" d="M279,166.3l-0.5-0.2c4.3-9.7-2.9-22.9-3.2-23.6c-9.5-18.4-6.3-35-8.5-40.9l0.5-0.1
			c5.1,12.6,19.1,19.5,16.9,40.7c0.2,0,0.5,0,0.7,0c2.2-13.2,17.1-25.8,16.7-40.2h0.2C311,153.2,284.5,152.8,279,166.3z"/>
		<path class="st0" d="M257.7,204.1l-0.4-0.3c5.4-6.5,7.6-15,6-23.3c-4.4-25.5,3.8-30.1,4-41.6h0.4c0.4,12.9,13.6,27.4,1.6,45.4
			l0.6,0.4c13.2-19.3,23.7-14.6,29.9-33.7l0,0c0.2,0,0.4,0.1,0.5,0.1C291.1,207.3,266.2,190.3,257.7,204.1z"/>
		<path class="st0" d="M206.2,228.6l0.1-0.5c17.4,3.5,26.3,0.1,29.4-15.9c4.4-22.5,19.7-31.1,21.5-40.1l0,0c0.1,0,0.3,0,0.4,0.1l0,0
			c-3.3,15.9,4.5,25.3-14.7,44.3l0.5,0.4c18.4-14.6,31.1-9.2,38.4-19.4c0.1,0.1,0.2,0.2,0.3,0.3
			C259.4,235.8,234.9,237.9,206.2,228.6z"/>
		<path class="st0" d="M249.2,235.2L249,235c-23.4,13.6-47.9-5.4-77.5-6.1c-7.4-0.2-29.7,1.2-50.1,24.9l5.4,1.6
			c6.8-11.7,17.1-20.2,26.6-22.5c27-6.7,27.5,18.4,57.4,18.8C233.1,251.9,248.3,236.1,249.2,235.2z"/>
		<path class="st0" d="M30.4,65.8l-0.1,0.2L30.4,65.8z"/>
		<path class="st0" d="M30.4,65.8l-0.1,0.2L30.4,65.8z"/>
		<path class="st0" d="M273.3,65.8l0.1,0.2L273.3,65.8z"/>
		<path class="st0" d="M188.3,66.5h-0.4c-10.9,0-21.5,7.1-26.7,18.8c-2.7,6-3.3,13.7-3.3,21.2s0.6,15.2,3.3,21.2
			c5.2,11.7,15.8,19.8,26.7,19.8h0.4c10.9,0,21.5-8,26.7-19.8c2.6-6,3.3-13.7,3.3-21.2s-0.6-15.2-3.3-21.2
			C209.7,73.5,199.2,66.5,188.3,66.5z M205.1,106.9c0,7-0.2,13.1-0.2,13.1c-0.4,5.7-0.5,11.5-3.2,15.4c-2.8,4.2-7.6,6.8-12.7,6.8
			l-0.2,0.1h-0.6l-0.2-0.1c-5.1,0-9.8-2.6-12.7-6.8c-2.6-3.9-2.8-9.7-3.2-15.4c0,0-0.2-6-0.2-12.9v-0.3c0-7,0.2-13.1,0.2-13.1
			c0.4-5.7,0.5-11.5,3.2-15.4c2.8-4.2,7.6-6.8,12.7-6.8l0.2-0.1h0.6l0.2,0.1c5.1,0,9.9,2.5,12.7,6.8c2.7,3.9,2.8,9.7,3.2,15.4
			c0,0,0.2,6,0.2,12.9V106.9z"/>
		<path class="st0" d="M196.5,150.8c0,0-2.1,5.6-6.1,9c-2.2,1.9-5.4,2.4-8,2.7l-26.9,1.3h-5.9c0,0-4.5-0.3-4.8-4.4V65
			c0.2-4.2,4.8-4.4,4.8-4.4h5.9v-5.5h-36v5.5h6c0,0,4.5,0.2,4.8,4.4v94.3c-0.2,4.2-4.8,4.4-4.8,4.4h-6v5.5h36l39,0.1l4.8-17.4v-0.6
			L196.5,150.8z"/>
		<path class="st0" d="M111.9,76.9c0.2-3.5,4-3.7,4-3.7h5v-4.6h-30v4.6h5c0,0,3.8,0.2,4,3.7v60.3c-0.2,3.5-4,3.7-4,3.7h-5v4.6h30
			v-4.6h-5c0,0-3.8-0.2-4-3.7V76.9z"/>
	</g>
</g>
</svg>
