<svg xmlns="http://www.w3.org/2000/svg" viewBox="0 0 59.77 59.87"><path d="M.33,0H59.44a.33.33,0,0,1,.33.33v59.2a.34.34,0,0,1-.33.34H.33A.34.34,0,0,1,0,59.53V.33A.33.33,0,0,1,.33,0Z" style="fill:#48773e;fill-rule:evenodd"/><path d="M21,9a2.5,2.5,0,0,1,0,.42,1.24,1.24,0,0,1-.15.38,1.62,1.62,0,0,1-.18.2,2.11,2.11,0,0,1-.22.17,1.69,1.69,0,0,1-.27.11.86.86,0,0,1-.28,0,1.25,1.25,0,0,1-.61-.14,1,1,0,0,1-.4-.36,1.38,1.38,0,0,1-.17-.41,2.54,2.54,0,0,1,0-.41V6.44a1.48,1.48,0,0,1,0-.38,1.14,1.14,0,0,1,.18-.37,1.12,1.12,0,0,1,.38-.33,1,1,0,0,1,.52-.14,1.18,1.18,0,0,1,.87.34,1.19,1.19,0,0,1,.35.88v.27h-.72V6.44a.54.54,0,0,0-.12-.36.42.42,0,0,0-.34-.14.42.42,0,0,0-.33.14.59.59,0,0,0-.11.36V9.23a.66.66,0,0,0,.1.26.4.4,0,0,0,.35.15.38.38,0,0,0,.34-.14,1.21,1.21,0,0,0,.1-.19,1,1,0,0,0,0-.18V8.87H21Z" style="fill:#fff"/><path d="M23.62,10.31H21.47V5.26h.72V9.58h1.43Z" style="fill:#fff"/><path d="M23.79,10.31V5.26h.71v5.05Z" style="fill:#fff"/><path d="M27.66,10.31V7.23l-.73,2.16h-.36l-.71-2.16v3.08h-.73V5.26h.68l1,2.69.94-2.69h.66v5.05Z" style="fill:#fff"/><path d="M28.51,10.31l1.13-5.05h.62l1.13,5.05h-.77l-.21-1.09h-.93l-.21,1.09Zm1.1-1.76h.68L30,6.71Z" style="fill:#fff"/><path d="M32.05,10.31V5.93H31.2V5.26h2.43v.67h-.87v4.38Z" style="fill:#fff"/><path d="M36.14,9.58v.73H34V5.26h2.16v.66H34.69v1.5H36V8.1H34.69V9.58Z" style="fill:#fff"/><path d="M18.32,17.27l1.13-5h.62l1.13,5h-.77l-.21-1.09h-.93l-.21,1.09Zm1.1-1.76h.68l-.34-1.83Z" style="fill:#fff"/><path d="M23.86,16a2.46,2.46,0,0,1,0,.41.84.84,0,0,1-.15.38,1,1,0,0,1-.17.2,1.37,1.37,0,0,1-.23.17l-.26.11a1,1,0,0,1-.28,0,1.29,1.29,0,0,1-.62-.14,1,1,0,0,1-.4-.36,1.33,1.33,0,0,1-.16-.41,2.5,2.5,0,0,1,0-.4V13.4a2.17,2.17,0,0,1,0-.38,1.14,1.14,0,0,1,.18-.37,1.07,1.07,0,0,1,.39-.33,1,1,0,0,1,.52-.14,1.17,1.17,0,0,1,.86.34,1.15,1.15,0,0,1,.35.88v.27h-.71V13.4A.52.52,0,0,0,23,13a.39.39,0,0,0-.33-.14.44.44,0,0,0-.34.14.61.61,0,0,0-.11.36v2.79a.69.69,0,0,0,.11.26.38.38,0,0,0,.34.15.37.37,0,0,0,.34-.14.7.7,0,0,0,.1-.19.9.9,0,0,0,0-.18v-.26h.71Z" style="fill:#fff"/><path d="M25.06,17.27V12.89h-.85v-.67h2.44v.67h-.87v4.38Z" style="fill:#fff"/><path d="M27,17.27v-5h.72v5Z" style="fill:#fff"/><path d="M28.5,12.7a1.33,1.33,0,0,1,.44-.38,1.14,1.14,0,0,1,.56-.14,1.16,1.16,0,0,1,.52.11,1.14,1.14,0,0,1,.41.31,1.09,1.09,0,0,1,.23.4,1.63,1.63,0,0,1,.06.45V16a1.62,1.62,0,0,1,0,.4,1,1,0,0,1-.18.38,1.09,1.09,0,0,1-.4.36,1.1,1.1,0,0,1-.57.15,1.34,1.34,0,0,1-.35,0,1.38,1.38,0,0,1-.3-.14.83.83,0,0,1-.26-.19,1,1,0,0,1-.17-.21,1.42,1.42,0,0,1-.13-.38,1.72,1.72,0,0,1,0-.33V13.45a1.64,1.64,0,0,1,0-.4,1.26,1.26,0,0,1,.17-.35Zm1.41.4a.45.45,0,0,0-.4-.22.49.49,0,0,0-.25.08.47.47,0,0,0-.18.16.64.64,0,0,0-.06.18.86.86,0,0,0,0,.15V16.1a.22.22,0,0,0,0,.08.53.53,0,0,0,.12.25.41.41,0,0,0,.37.16.48.48,0,0,0,.24-.06.34.34,0,0,0,.16-.15.47.47,0,0,0,.07-.17A.92.92,0,0,0,30,16V13.45a.91.91,0,0,0,0-.21.26.26,0,0,0-.07-.14Z" style="fill:#fff"/><path d="M33.19,17.27,32.06,14.2v3.07h-.72v-5H32l1.11,3.06V12.22h.72v5Z" style="fill:#fff"/><path d="M5.85,17.33V7.06L4.12,8.35V6.52L5.85,5.25H7.57V17.33Z" style="fill:#fff"/><path d="M14.05,14.56v.21c0,.09,0,.18,0,.29a3.14,3.14,0,0,1,0,.43,2.68,2.68,0,0,1-1,1.41,2.5,2.5,0,0,1-1.6.54A2.41,2.41,0,0,1,10.05,17a2.25,2.25,0,0,1-.83-.89L9,15.71A2.9,2.9,0,0,1,9,15.37c0-.11,0-.23-.06-.35V13.85h1.74v1a1.71,1.71,0,0,0,.19.53.69.69,0,0,0,.65.32.72.72,0,0,0,.67-.32,1.57,1.57,0,0,0,.2-.81V12.7a.92.92,0,0,0-.15-.52.61.61,0,0,0-.27-.26.67.67,0,0,0-.34-.09H11V10.28h.31c.72,0,1.08-.33,1.08-1V7.83a1.28,1.28,0,0,0,0-.36.47.47,0,0,0-.05-.16,1,1,0,0,0-.16-.22.76.76,0,0,0-.24-.18.71.71,0,0,0-.34-.07.8.8,0,0,0-.67.29,1.1,1.1,0,0,0-.21.7v.88H8.89V7.83a2.67,2.67,0,0,1,.74-1.91,2.44,2.44,0,0,1,1.88-.77,2.41,2.41,0,0,1,1.21.32,2.32,2.32,0,0,1,.86.76A2.65,2.65,0,0,1,14,7a3.35,3.35,0,0,1,.09.79V9.24A2,2,0,0,1,13,11a2.67,2.67,0,0,1,.8.83,2.22,2.22,0,0,1,.23,1.08Z" style="fill:#fff"/><path d="M31,26.64A27,27,0,0,0,8.4,38C18.3,52.59,42,53.87,52.3,38A25.29,25.29,0,0,0,31,26.64Zm-.51,2.18a5.9,5.9,0,0,1,1.12.08c.18.05.51.11.73.15a6.54,6.54,0,0,1,1.5.45,1,1,0,0,0,.35.12.39.39,0,0,1,.25.12.5.5,0,0,0,.28.12c.08,0,.15,0,.15.08s.1.12.21.16a1,1,0,0,1,.3.16c.05,0,.29.23.53.4a12.42,12.42,0,0,1,1.54,1.41,4.89,4.89,0,0,0,.4.56,3.17,3.17,0,0,1,.4.59.39.39,0,0,0,.1.19,7,7,0,0,1,.95,2.49c0,.55-.48.73-.83.31-.52-.61-1,.06-.57.77.08.12.08.19,0,.28a2.13,2.13,0,0,1-.93.48c-.22,0-.55.44-.61.81a1.4,1.4,0,0,0,.23,1c.12.1.18.49.08.49a4.56,4.56,0,0,1-.82-.6,3.14,3.14,0,0,1-.71-1.21c0-.14-.12-.34-.15-.45a.8.8,0,0,0-.75-.64c-.49,0-.62.14-.63.7a1.24,1.24,0,0,1-.16.69c-.19.26-.2.26-.42.08-.39-.32-.54-.42-.63-.42a.34.34,0,0,1-.19-.12A.46.46,0,0,0,31.9,38a1.43,1.43,0,0,1-1.12-.72,2.16,2.16,0,0,1-.18-.44,3.24,3.24,0,0,0-.83-.61,3,3,0,0,1-.46-.27c-.48-.31-.64-.3-.64.06,0,.2.11.35.64.86.7.67.84,1,.6,1.22a1.76,1.76,0,0,1-.77.39,4.89,4.89,0,0,1-.67-.61c-.46-.46-.65-.6-.79-.58s-.19.08-.21.25a.48.48,0,0,0,.07.32.42.42,0,0,1,.08.23c0,.25.69,1.11.9,1.11a.75.75,0,0,1,.27.18c.27.24.21.47-.24.92s-.34.37-.39,1A2.54,2.54,0,0,1,28,42a1.27,1.27,0,0,0-.13.34,1.53,1.53,0,0,1-.29.52.87.87,0,0,0-.24.48.65.65,0,0,1-.12.37.65.65,0,0,0-.12.26,1,1,0,0,1-.47.5.13.13,0,0,0-.11.09.74.74,0,0,1-.44.13c-.36,0-.41,0-.54-.16h0a1.36,1.36,0,0,1-.13-.72c0-.43,0-.55-.2-.74a1.13,1.13,0,0,1-.25-.42c0-.1-.05-.27-.08-.39A.48.48,0,0,0,24.6,42c-.15-.06-.28-.15-.28-.19a1.63,1.63,0,0,0-.32-.41c-.32-.33-.34-.34-.7-.29a1.36,1.36,0,0,0-.51.17.67.67,0,0,1-.41.12c-.23,0-.29,0-.41-.28a1.27,1.27,0,0,1-.14-.44,1.24,1.24,0,0,0-.12-.42A9,9,0,0,1,21.37,38c0-.72,0-.75.21-1.11a1.84,1.84,0,0,0,.25-.43c0-.08.56-.29.68-.25l.54.09a2.65,2.65,0,0,1,.68.2,1.2,1.2,0,0,0,.35.12.55.55,0,0,1,.28.12.7.7,0,0,0,.33.12c.1,0,.21,0,.23.07a.73.73,0,0,0,.34.12c.52.08,1.23-.36,1.23-.77a.59.59,0,0,0-.64-.55.58.58,0,0,1-.4-.12.58.58,0,0,0-.39-.12.65.65,0,0,1-.46-.17,1,1,0,0,0-1.06,0,.59.59,0,0,1-.34.14,1.11,1.11,0,0,0-.39.11,2.38,2.38,0,0,1-.61.17l-.38.05,0-.22c0-.21.07-.24.39-.28q1.07-.15,1.11-.48c0-.17.11-.27.54-.62a2.41,2.41,0,0,1,.51-.21,1.24,1.24,0,0,1,.95,0c.63.16.92.11,1.27-.23l.48-.43c.24-.21.26-.29.09-.43s-.68,0-.95.26a.61.61,0,0,1-.61.26c-.45,0-1-.25-1.1-.45-.12-.36.53-.67,1.54-.74a4.31,4.31,0,0,0,.87-.12,2.63,2.63,0,0,1,1.17-.12s-.16.14-.34.24-.34.19-.34.44,0,.28.15.3a2.56,2.56,0,0,0,1.14-.51,1.29,1.29,0,0,1,.4-.21.46.46,0,0,0,.23-.27c.07-.21.05-.26-.2-.47a1.28,1.28,0,0,1-.55-.9c0-.51-.11-.56-1.34-.61a6,6,0,0,1-.95-.06.52.52,0,0,0,.28-.13.33.33,0,0,1,.23-.12.6.6,0,0,0,.29-.12.61.61,0,0,1,.31-.12,1.87,1.87,0,0,0,.4-.12,3,3,0,0,1,.7-.2l.8-.16A6.94,6.94,0,0,1,30.48,28.82Zm-6.42,2.65c.29,0,.24.35-.09.6s-.61.27-.61.07A1.13,1.13,0,0,1,24.06,31.47ZM23.31,33h.14c.17,0,.13.08-.4.59s-.74.67-.74.51a2,2,0,0,1,.18-.48A1.11,1.11,0,0,1,23.31,33Zm15.92,4a.45.45,0,0,1,.17.14,4.47,4.47,0,0,1,0,2.18.21.21,0,0,1-.18-.1A1.57,1.57,0,0,1,39,37.7a.9.9,0,0,0,.12-.42C39.13,37.1,39.16,37,39.23,37ZM32.57,39c.07,0,.12,0,.12,0s0,.05-.12.08-.12,0-.12,0S32.5,39,32.57,39Zm5.07.93a.12.12,0,0,1,.08,0c.07,0,.1.08.08.11a.13.13,0,0,1-.22,0C37.51,40,37.56,39.89,37.64,39.88Zm-8.45.6c.09,0,0,.38-.09.6a2.73,2.73,0,0,0-.19.45c-.05.15-.07.09-.07-.27s0-.49.15-.62A.74.74,0,0,1,29.19,40.48Zm9.42,0c.09,0,.17.13.24.35a.63.63,0,0,1,0,.61,9.71,9.71,0,0,1-.6,1.16A3.08,3.08,0,0,0,38,43a.6.6,0,0,1-.14.2,1.58,1.58,0,0,0-.3.37c-.13.19-.26.34-.3.34s-.07.05-.07.12a.15.15,0,0,1-.14.13c-.83,0-1,0-1-.11s-.32-.18-.48,0a.51.51,0,0,1-.33.12c-.17,0-.2,0-.2-.22a.81.81,0,0,0-.12-.39,1.24,1.24,0,0,1-.12-.62,1.47,1.47,0,0,1,.57-1.22,4.61,4.61,0,0,1,1.42-.53,4.9,4.9,0,0,0,1.64-.62A.27.27,0,0,1,38.61,40.49Zm-3.22,4.67c.12,0,.2,0,.23.12s0,.14,0,.14l-.18.11a2.69,2.69,0,0,1-.38.2c-.13.05-.23.12-.23.15s-.1.08-.23.11a.64.64,0,0,0-.33.17.36.36,0,0,1-.22.11.91.91,0,0,0-.29.1,6.71,6.71,0,0,1-1.46.44,13.24,13.24,0,0,1-3.14.11h0a4.11,4.11,0,0,0-.6-.12c-.48-.07-.56-.13-.56-.45s.44-.72.64-.72a.68.68,0,0,0,.3-.13,4.89,4.89,0,0,1,2.78.26,1.16,1.16,0,0,0,.39.11,1,1,0,0,1,.37.11,1.52,1.52,0,0,0,.91.15,3.41,3.41,0,0,0,.51-.37A2.47,2.47,0,0,1,35.39,45.16Z" style="fill:#fff"/></svg>