<svg xmlns="http://www.w3.org/2000/svg" viewBox="0 0 80 80.13"><path d="M.45,0h79.1A.45.45,0,0,1,80,.45V79.68a.45.45,0,0,1-.45.45H.45A.45.45,0,0,1,0,79.68V.45A.45.45,0,0,1,.45,0Z" style="fill:#279b48;fill-rule:evenodd"/><path d="M26.65,13.21a1.61,1.61,0,0,1-.6.56,1.63,1.63,0,0,1-.79.2,1.69,1.69,0,0,1-1.3-.62,1.75,1.75,0,0,1-.27-.55,2.8,2.8,0,0,1-.06-.61V8.81a2.94,2.94,0,0,1,.05-.51,3.4,3.4,0,0,1,.38-.71,1.35,1.35,0,0,1,1.23-.5,1.5,1.5,0,0,1,.75.2,1.32,1.32,0,0,1,.54.47,1.33,1.33,0,0,1,.24.52,2.26,2.26,0,0,1,.06.53v.28h-1V8.81a.61.61,0,0,0,0-.14.41.41,0,0,0,0-.12.66.66,0,0,0-.15-.3.54.54,0,0,0-.47-.2.58.58,0,0,0-.53.21,1.21,1.21,0,0,0-.14.32,1.4,1.4,0,0,0,0,.23v3.55a.41.41,0,0,0,0,.12,1.29,1.29,0,0,0,.15.31.57.57,0,0,0,.52.21c.26,0,.43-.07.5-.21a1.5,1.5,0,0,0,.09-.18.43.43,0,0,0,0-.14.25.25,0,0,0,0-.12V11h-.77v-.85h1.73v2c0,.14,0,.26,0,.36a1.64,1.64,0,0,1,0,.25,1,1,0,0,1-.08.21c0,.06-.06.13-.1.2Z" style="fill:#fff"/><path d="M28,7.79a1.65,1.65,0,0,1,.58-.5,1.56,1.56,0,0,1,.75-.2,1.59,1.59,0,0,1,.69.16,1.46,1.46,0,0,1,.56.41,1.39,1.39,0,0,1,.3.54,2.29,2.29,0,0,1,.08.6v3.44a2.09,2.09,0,0,1-.06.53,1.4,1.4,0,0,1-.24.52,1.5,1.5,0,0,1-.54.48,1.49,1.49,0,0,1-.76.2,1.84,1.84,0,0,1-.47-.06,3,3,0,0,1-.41-.18,1.76,1.76,0,0,1-.34-.25,1.11,1.11,0,0,1-.22-.29,2,2,0,0,1-.18-.51,1.94,1.94,0,0,1,0-.44V8.8a1.81,1.81,0,0,1,.07-.54A1.46,1.46,0,0,1,28,7.79Zm1.87.53A.6.6,0,0,0,29.3,8a.7.7,0,0,0-.34.1.57.57,0,0,0-.24.22,1.13,1.13,0,0,0-.08.24,1.91,1.91,0,0,0,0,.2v3.55s0,.07,0,.11a.93.93,0,0,0,.16.33.6.6,0,0,0,.51.21.57.57,0,0,0,.32-.08.51.51,0,0,0,.21-.2.57.57,0,0,0,.09-.22,1,1,0,0,0,0-.26V8.8a1,1,0,0,0,0-.28.37.37,0,0,0-.1-.2Z" style="fill:#fff"/><path d="M32,7.79a1.65,1.65,0,0,1,.58-.5,1.56,1.56,0,0,1,.75-.2,1.59,1.59,0,0,1,.69.16,1.46,1.46,0,0,1,.56.41,1.39,1.39,0,0,1,.3.54,2.29,2.29,0,0,1,.08.6v3.44a2.09,2.09,0,0,1-.06.53,1.4,1.4,0,0,1-.24.52,1.5,1.5,0,0,1-.54.48,1.49,1.49,0,0,1-.76.2,1.84,1.84,0,0,1-.47-.06,3,3,0,0,1-.41-.18,1.76,1.76,0,0,1-.34-.25,1.11,1.11,0,0,1-.22-.29,1.72,1.72,0,0,1-.19-.51,2.85,2.85,0,0,1,0-.44V8.8a2.23,2.23,0,0,1,.06-.54A1.74,1.74,0,0,1,32,7.79Zm1.87.53A.62.62,0,0,0,33.38,8a.78.78,0,0,0-.35.1.61.61,0,0,0-.23.22,1.13,1.13,0,0,0-.08.24,1.91,1.91,0,0,0,0,.2v3.55s0,.07,0,.11a.93.93,0,0,0,.16.33.58.58,0,0,0,.51.21.57.57,0,0,0,.32-.08.51.51,0,0,0,.21-.2A.57.57,0,0,0,34,12.5a1,1,0,0,0,0-.26V8.8a1,1,0,0,0,0-.28.37.37,0,0,0-.1-.2Z" style="fill:#fff"/><path d="M37.42,7.16a1.53,1.53,0,0,1,1.12.46A1.49,1.49,0,0,1,39,8.73v3.51a1.68,1.68,0,0,1-.45,1.21,1.58,1.58,0,0,1-1.17.46H35.88V7.16Zm.63,5.08V8.73a.63.63,0,0,0-.21-.48.71.71,0,0,0-.49-.19h-.51V13h.48C37.81,13,38.05,12.76,38.05,12.24Z" style="fill:#fff"/><path d="M40.86,13.91V7.16h1V10H43V7.16h1v6.75H43v-3H41.81v3Z" style="fill:#fff"/><path d="M47.79,12.94v1H44.9V7.16h2.89V8H45.86v2h1.69V11H45.86v2Z" style="fill:#fff"/><path d="M47.94,13.91l1.51-6.75h.84l1.51,6.75h-1l-.27-1.45H49.24L49,13.91Zm1.47-2.35h.91L49.86,9.1Z" style="fill:#fff"/><path d="M55.19,13.91H52.3V7.16h1v5.78h1.92Z" style="fill:#fff"/><path d="M55.62,13.91V8.05H54.48V7.16h3.26v.89H56.58v5.86Z" style="fill:#fff"/><path d="M58.26,13.91V7.16h1V10h1.23V7.16h.95v6.75h-.95v-3H59.22v3Z" style="fill:#fff"/><path d="M23.19,23.23l1.51-6.76h.84l1.51,6.76H26l-.27-1.45H24.49l-.28,1.45Zm1.47-2.35h.91l-.45-2.46Z" style="fill:#fff"/><path d="M30,23.23l-1.51-4.11v4.11h-1V16.47h.92L30,20.57v-4.1h1v6.76Z" style="fill:#fff"/><path d="M33.51,16.47a1.53,1.53,0,0,1,1.12.47,1.49,1.49,0,0,1,.47,1.11v3.5a1.65,1.65,0,0,1-.45,1.21,1.56,1.56,0,0,1-1.17.47H32V16.47Zm.63,5.08v-3.5a.63.63,0,0,0-.21-.48.67.67,0,0,0-.49-.19h-.51v4.95h.48C33.9,22.33,34.14,22.07,34.14,21.55Z" style="fill:#fff"/><path d="M40.09,23.23l-.8-4.12-.78,4.12h-.89l-1-6.76h1l.48,4.09.78-4.09h.71l.8,4.09.48-4.09h1L41,23.23Z" style="fill:#fff"/><path d="M45.33,22.26v1H42.44V16.47h2.89v.89H43.4v2h1.69v.91H43.4v2Z" style="fill:#fff"/><path d="M48.58,23.23H45.7V16.47h1v5.79h1.91Z" style="fill:#fff"/><path d="M51.75,23.23H48.86V16.47h1v5.79h1.92Z" style="fill:#fff"/><path d="M54.91,16.47a1.49,1.49,0,0,1,.59.13,2.38,2.38,0,0,1,.61.46,1.35,1.35,0,0,1,.33,1v.51a1.12,1.12,0,0,1-.61,1.09,1.22,1.22,0,0,1,.61,1.13v.78a1.59,1.59,0,0,1-1.63,1.65H53.32V16.47Zm.58,2v-.41a.69.69,0,0,0-.19-.5.62.62,0,0,0-.48-.19h-.54v1.87h.57a.55.55,0,0,0,.48-.21A1,1,0,0,0,55.49,18.48Zm0,3.1V20.8a.69.69,0,0,0-.19-.51.62.62,0,0,0-.48-.19h-.54v2.17h.55a.61.61,0,0,0,.47-.19.74.74,0,0,0,.19-.5Z" style="fill:#fff"/><path d="M60.06,22.26v1h-2.9V16.47h2.9v.89H58.12v2h1.7v.91h-1.7v2Z" style="fill:#fff"/><path d="M60.49,23.23V16.47h1v6.76Z" style="fill:#fff"/><path d="M64.74,23.23l-1.5-4.11v4.11h-1V16.47h.92l1.49,4.1v-4.1h1v6.76Z" style="fill:#fff"/><path d="M69.19,22.52a1.81,1.81,0,0,1-.6.57,1.67,1.67,0,0,1-.8.2,1.65,1.65,0,0,1-.74-.18,1.59,1.59,0,0,1-.56-.45,1.91,1.91,0,0,1-.26-.54,2.9,2.9,0,0,1-.06-.62V18.13a2.94,2.94,0,0,1,0-.51,2.86,2.86,0,0,1,.37-.71,1.35,1.35,0,0,1,1.23-.5,1.65,1.65,0,0,1,.76.19,1.49,1.49,0,0,1,.54.48,1.61,1.61,0,0,1,.24.52,2.2,2.2,0,0,1,.06.53v.28h-1v-.28a.66.66,0,0,0,0-.15.49.49,0,0,0,0-.12,1,1,0,0,0-.15-.29.56.56,0,0,0-.48-.2.57.57,0,0,0-.52.21,1.19,1.19,0,0,0-.14.31,1.66,1.66,0,0,0,0,.24v3.55a.49.49,0,0,0,0,.12,1.51,1.51,0,0,0,.15.31.56.56,0,0,0,.51.21c.27,0,.43-.07.51-.21l.09-.18c0-.06,0-.1,0-.14a.5.5,0,0,0,0-.12V20.32h-.78v-.84h1.74v2c0,.15,0,.27,0,.37a1.64,1.64,0,0,1,0,.25,1.8,1.8,0,0,1-.08.21,1.74,1.74,0,0,1-.1.19Z" style="fill:#fff"/><path d="M15.83,19.2v.29c0,.12,0,.25,0,.39a4.58,4.58,0,0,1-.07.58,3.64,3.64,0,0,1-1.28,1.88,3.39,3.39,0,0,1-2.15.73,3.27,3.27,0,0,1-1.83-.58A3,3,0,0,1,9.37,21.3l-.25-.55L9,20.29c0-.14-.05-.3-.07-.46V18.26h2.32v1.33a2.17,2.17,0,0,0,.26.7.9.9,0,0,0,.87.43,1,1,0,0,0,.89-.43,2,2,0,0,0,.27-1.09V16.72a1.39,1.39,0,0,0-.19-.7.86.86,0,0,0-.37-.34.89.89,0,0,0-.45-.12l-.44,0h-.41v-2h.41c1,0,1.45-.45,1.45-1.36V10.2a2.14,2.14,0,0,0,0-.48.53.53,0,0,0-.07-.22,1.08,1.08,0,0,0-.22-.28A1,1,0,0,0,12.89,9a1.08,1.08,0,0,0-.46-.09,1.05,1.05,0,0,0-.89.38,1.43,1.43,0,0,0-.29.94v1.19H8.93V10.2a3.55,3.55,0,0,1,1-2.55A3.44,3.44,0,0,1,14.05,7a3,3,0,0,1,1.15,1,3.37,3.37,0,0,1,.51,1.08,4.59,4.59,0,0,1,.12,1.06v1.89a2.64,2.64,0,0,1-1.37,2.39,3.4,3.4,0,0,1,1.06,1.11A2.8,2.8,0,0,1,15.83,17Z" style="fill:#fff"/><path d="M14.55,52.54H27.77l4.65-10.18,2.32,15.55L40.28,48l3.34,18.88L54.34,31.45l4.95,10.19" style="fill:none;stroke:#fff;stroke-linecap:round;stroke-linejoin:round;stroke-width:3.4000000953674316px"/><path d="M61,58.32s3.64-3.71,5.48-5.54a3.53,3.53,0,0,0,1-2.47c0-1.82-.79-4.25-3.5-4.25a4.57,4.57,0,0,0-3,1.64.37.37,0,0,1-.63,0,4.54,4.54,0,0,0-3-1.64c-2.71,0-3.5,2.43-3.5,4.25a3.49,3.49,0,0,0,1,2.47c1.83,1.83,5.47,5.54,5.47,5.54.2.21.36.21.59,0Z" style="fill:#fff;fill-rule:evenodd"/></svg>