<svg xmlns="http://www.w3.org/2000/svg" viewBox="0 0 59.77 59.87"><path d="M.33,0H59.44a.33.33,0,0,1,.33.33v59.2a.34.34,0,0,1-.33.34H.33A.34.34,0,0,1,0,59.53V.33A.33.33,0,0,1,.33,0Z" style="fill:#02558b;fill-rule:evenodd"/><path d="M19,10.31V5.26h1.2a.94.94,0,0,1,.43.1,1.13,1.13,0,0,1,.36.24,1.07,1.07,0,0,1,.25.35.88.88,0,0,1,.11.39v.8a1.2,1.2,0,0,1-.1.47A1.34,1.34,0,0,1,21,8a1.09,1.09,0,0,1-.38.25,1.13,1.13,0,0,1-.45.09h-.44v2Zm1.53-2.82a.24.24,0,0,0,.09-.14,1,1,0,0,0,0-.19V6.41a.45.45,0,0,0-.13-.34.44.44,0,0,0-.35-.15h-.43V7.63h.37a.82.82,0,0,0,.24,0,.44.44,0,0,0,.19-.12Z" style="fill:#fff"/><path d="M24,9.58v.73H21.81V5.26H24v.66H22.52v1.5h1.27V8.1H22.52V9.58Z" style="fill:#fff"/><path d="M24.18,10.31l1.13-5.05h.62l1.13,5.05h-.77l-.21-1.09h-.93l-.21,1.09Zm1.1-1.76H26l-.33-1.84Z" style="fill:#fff"/><path d="M29.68,9a2.5,2.5,0,0,1,0,.42.88.88,0,0,1-.15.38,1,1,0,0,1-.17.2l-.23.17a1.56,1.56,0,0,1-.26.11,1,1,0,0,1-.28,0,1.31,1.31,0,0,1-.62-.14,1.09,1.09,0,0,1-.4-.36,1.33,1.33,0,0,1-.16-.41,2.54,2.54,0,0,1,0-.41V6.44a1.48,1.48,0,0,1,0-.38,1.14,1.14,0,0,1,.18-.37A1.12,1.12,0,0,1,28,5.36a1,1,0,0,1,.52-.14,1.16,1.16,0,0,1,1.21,1.22v.27H29V6.44a.54.54,0,0,0-.12-.36.43.43,0,0,0-.34-.14.42.42,0,0,0-.33.14.54.54,0,0,0-.12.36V9.23a.69.69,0,0,0,.11.26.4.4,0,0,0,.35.15.38.38,0,0,0,.34-.14A1,1,0,0,0,29,9.31a.9.9,0,0,0,0-.18V8.87h.71Z" style="fill:#fff"/><path d="M32.36,9.58v.73H30.2V5.26h2.16v.66H30.91v1.5h1.27V8.1H30.91V9.58Z" style="fill:#fff"/><path d="M32.71,10.84V9.59h.73v.72Z" style="fill:#fff"/><path d="M36.73,9.8a1.24,1.24,0,0,1-.42.4,1.15,1.15,0,0,1-.56.15,1.25,1.25,0,0,1-.54-.12,1.49,1.49,0,0,1-.45-.34l.56-.46a.54.54,0,0,0,.41.19c.21,0,.34,0,.39-.16a.72.72,0,0,0,.09-.24.81.81,0,0,0,0-.16V5.26h.71V9a2,2,0,0,1,0,.5A1,1,0,0,1,36.73,9.8Z" style="fill:#fff"/><path d="M39.77,9.78a1.4,1.4,0,0,1-.42.42,1.17,1.17,0,0,1-.58.15,1.1,1.1,0,0,1-.31,0l-.29-.11a2.49,2.49,0,0,1-.24-.17.94.94,0,0,1-.16-.2,2.39,2.39,0,0,1-.15-.37,1.87,1.87,0,0,1,0-.34V5.26h.72v4l0,.07a.52.52,0,0,0,.11.21.4.4,0,0,0,.34.14.36.36,0,0,0,.32-.16.6.6,0,0,0,.12-.36V5.26h.72V9.12a1.27,1.27,0,0,1,0,.34,1,1,0,0,1-.13.32Z" style="fill:#fff"/><path d="M41.14,9.05v.22a.7.7,0,0,0,.12.22.42.42,0,0,0,.37.15.64.64,0,0,0,.28-.06.47.47,0,0,0,.19-.18.3.3,0,0,0,0-.15.78.78,0,0,0,0-.14V8.62a.48.48,0,0,0-.06-.26.83.83,0,0,0-.27-.21l-.52-.22a1.46,1.46,0,0,1-.61-.42,1.2,1.2,0,0,1-.25-.8V6.48a1.25,1.25,0,0,1,.34-.89,1.15,1.15,0,0,1,.86-.37,1.18,1.18,0,0,1,.88.36,1.29,1.29,0,0,1,.35.9v.23h-.72V6.48a.34.34,0,0,0,0-.1.22.22,0,0,0,0-.08.16.16,0,0,0,0-.09L42,6.08a.4.4,0,0,0-.35-.15.44.44,0,0,0-.36.16.58.58,0,0,0-.14.39v.29a.55.55,0,0,0,0,.25.65.65,0,0,0,.24.18l.18.09L42,7.4a1.48,1.48,0,0,1,.64.43,1.12,1.12,0,0,1,.29.81v.41a1.78,1.78,0,0,1,0,.44,1.64,1.64,0,0,1-.31.53,1.31,1.31,0,0,1-1.83-.09,1.51,1.51,0,0,1-.3-.88V8.87h.74Z" style="fill:#fff"/><path d="M43.82,10.31V5.93H43V5.26H45.4v.67h-.86v4.38Z" style="fill:#fff"/><path d="M45.79,10.31V5.26h.72v5.05Z" style="fill:#fff"/><path d="M49.44,9a2.5,2.5,0,0,1,0,.42.88.88,0,0,1-.15.38,1.51,1.51,0,0,1-.17.2l-.23.17-.26.11a1,1,0,0,1-.28,0,1.29,1.29,0,0,1-.62-.14,1.09,1.09,0,0,1-.4-.36,1.33,1.33,0,0,1-.16-.41,2.54,2.54,0,0,1,0-.41V6.44a2.17,2.17,0,0,1,0-.38,1.14,1.14,0,0,1,.18-.37,1.07,1.07,0,0,1,.39-.33,1,1,0,0,1,.52-.14,1.17,1.17,0,0,1,.86.34,1.15,1.15,0,0,1,.35.88v.27h-.71V6.44a.5.5,0,0,0-.13-.36.39.39,0,0,0-.33-.14.44.44,0,0,0-.34.14.59.59,0,0,0-.11.36V9.23a.69.69,0,0,0,.11.26.38.38,0,0,0,.34.15.37.37,0,0,0,.34-.14.7.7,0,0,0,.1-.19.9.9,0,0,0,0-.18V8.87h.71Z" style="fill:#fff"/><path d="M52.15,9.58v.73H50V5.26h2.16v.66H50.71v1.5H52V8.1H50.71V9.58Z" style="fill:#fff"/><path d="M18.71,17.27l1.13-5h.63l1.13,5h-.78l-.2-1.09h-.93l-.22,1.09Zm1.1-1.76h.68l-.34-1.83Z" style="fill:#fff"/><path d="M23.81,17.27,22.69,14.2v3.07H22v-5h.68l1.12,3.06V12.22h.72v5Z" style="fill:#fff"/><path d="M26.17,12.22a1.16,1.16,0,0,1,.84.35,1.11,1.11,0,0,1,.35.83V16a1.21,1.21,0,0,1-.34.9,1.17,1.17,0,0,1-.87.35H25v-5Zm.47,3.8V13.4a.49.49,0,0,0-.15-.36.55.55,0,0,0-.37-.14h-.38v3.7h.35c.37,0,.55-.2.55-.58Z" style="fill:#fff"/><path d="M29.34,16v.13s0,.06,0,.09a.87.87,0,0,0,.11.22.45.45,0,0,0,.38.15.64.64,0,0,0,.28-.06.42.42,0,0,0,.19-.18.3.3,0,0,0,.05-.15.78.78,0,0,0,0-.14v-.49a.44.44,0,0,0-.06-.25.72.72,0,0,0-.27-.22,5.27,5.27,0,0,0-.52-.21,1.58,1.58,0,0,1-.62-.43,1.25,1.25,0,0,1-.24-.8v-.23a1.27,1.27,0,0,1,.34-.89,1.15,1.15,0,0,1,.86-.37,1.16,1.16,0,0,1,.88.37,1.25,1.25,0,0,1,.35.89v.23h-.72v-.23s0-.07,0-.1a.22.22,0,0,0,0-.08.31.31,0,0,0,0-.09,1.17,1.17,0,0,0-.08-.13.4.4,0,0,0-.35-.15.44.44,0,0,0-.36.16.55.55,0,0,0-.14.39v.3a.55.55,0,0,0,0,.24.84.84,0,0,0,.25.18l.18.09.31.11a1.48,1.48,0,0,1,.64.43,1.16,1.16,0,0,1,.29.81V16a1.93,1.93,0,0,1-.05.45,1.84,1.84,0,0,1-.31.52,1.31,1.31,0,0,1-1.83-.09,1.51,1.51,0,0,1-.3-.88v-.18h.73Z" style="fill:#fff"/><path d="M32.14,17.27V12.89h-.85v-.67h2.43v.67h-.87v4.38Z" style="fill:#fff"/><path d="M34,17.27v-5H35.3a1.11,1.11,0,0,1,.83.35,1.15,1.15,0,0,1,.35.85v.47A1.21,1.21,0,0,1,35.89,15l.76,2.31h-.76l-.68-2.16h-.45v2.16Zm1.61-3a.66.66,0,0,0,.09-.19.85.85,0,0,0,0-.23v-.47a.58.58,0,0,0-.13-.38.46.46,0,0,0-.36-.15h-.51v1.58h.5a.53.53,0,0,0,.38-.16Z" style="fill:#fff"/><path d="M37.11,12.7a1.21,1.21,0,0,1,.43-.38,1.16,1.16,0,0,1,.56-.14,1.13,1.13,0,0,1,.52.11,1.1,1.1,0,0,1,.42.31,1.06,1.06,0,0,1,.22.4,1.63,1.63,0,0,1,.06.45V16a1.64,1.64,0,0,1,0,.4,1.42,1.42,0,0,1-.18.38,1.17,1.17,0,0,1-.4.36,1.11,1.11,0,0,1-.58.15,1.27,1.27,0,0,1-.34,0,1.46,1.46,0,0,1-.31-.14,1,1,0,0,1-.42-.4,1.51,1.51,0,0,1-.14-.38,3.25,3.25,0,0,1,0-.33V13.45a1.64,1.64,0,0,1,0-.4,1.29,1.29,0,0,1,.18-.35Zm1.4.4a.45.45,0,0,0-.39-.22.52.52,0,0,0-.26.08.38.38,0,0,0-.17.16.64.64,0,0,0-.06.18,1,1,0,0,0,0,.15V16.1a.22.22,0,0,0,0,.08.66.66,0,0,0,.12.25.43.43,0,0,0,.38.16.48.48,0,0,0,.24-.06.39.39,0,0,0,.16-.15.7.7,0,0,0,.06-.17.92.92,0,0,0,0-.19V13.45a.91.91,0,0,0,0-.21.26.26,0,0,0-.07-.14Z" style="fill:#fff"/><path d="M41.78,17.27,40.66,14.2v3.07h-.72v-5h.68l1.12,3.06V12.22h.72v5Z" style="fill:#fff"/><path d="M45.16,16.74a1.21,1.21,0,0,1-.45.42,1.18,1.18,0,0,1-.59.15,1.24,1.24,0,0,1-1-.46,1.29,1.29,0,0,1-.2-.41,2.19,2.19,0,0,1,0-.46V13.46a2.43,2.43,0,0,1,0-.38,2.31,2.31,0,0,1,.28-.53,1,1,0,0,1,.92-.37,1.15,1.15,0,0,1,.57.14,1.06,1.06,0,0,1,.4.35,1.34,1.34,0,0,1,.18.39,1.75,1.75,0,0,1,0,.4v.21h-.71v-.21s0-.08,0-.11a.28.28,0,0,0,0-.09.53.53,0,0,0-.11-.22.41.41,0,0,0-.36-.15.42.42,0,0,0-.39.16.91.91,0,0,0-.1.23.9.9,0,0,0,0,.18v2.65s0,.06,0,.09a.85.85,0,0,0,.11.23.42.42,0,0,0,.39.16c.19,0,.32-.05.37-.16a.88.88,0,0,0,.07-.13.26.26,0,0,0,0-.11.29.29,0,0,0,0-.09v-1H44v-.63h1.29v1.78l0,.19a.77.77,0,0,1-.07.16s0,.09-.07.14Z" style="fill:#fff"/><path d="M19,24.23V19.18h.72v5.05Z" style="fill:#fff"/><path d="M22.12,24.23,21,21.16v3.07h-.73V19.18H21l1.11,3.06V19.18h.73v5.05Z" style="fill:#fff"/><path d="M23.83,23v.13a.28.28,0,0,0,0,.09.62.62,0,0,0,.11.22.44.44,0,0,0,.38.15.67.67,0,0,0,.28-.06.49.49,0,0,0,.18-.17.64.64,0,0,0,.06-.16.71.71,0,0,0,0-.14v-.49a.44.44,0,0,0-.06-.25.72.72,0,0,0-.27-.22L24,21.86a1.51,1.51,0,0,1-.62-.43,1.18,1.18,0,0,1-.25-.8V20.4a1.28,1.28,0,0,1,.35-.89,1.2,1.2,0,0,1,1.73,0,1.21,1.21,0,0,1,.35.89v.23h-.72V20.4a.34.34,0,0,0,0-.1v-.08l0-.09L24.73,20a.41.41,0,0,0-.36-.15A.5.5,0,0,0,24,20a.6.6,0,0,0-.14.39v.3a.54.54,0,0,0,.05.24.89.89,0,0,0,.24.19l.18.08.31.11a1.61,1.61,0,0,1,.65.43,1.16,1.16,0,0,1,.28.81V23a1.47,1.47,0,0,1,0,.45,1.62,1.62,0,0,1-.31.52,1.06,1.06,0,0,1-.88.33,1.08,1.08,0,0,1-.95-.42A1.57,1.57,0,0,1,23.1,23v-.18h.73Z" style="fill:#fff"/><path d="M26.59,24.23V19.85h-.86v-.67h2.44v.67H27.3v4.38Z" style="fill:#fff"/><path d="M28.52,24.23V19.18h.72v5.05Z" style="fill:#fff"/><path d="M30.46,24.23V19.85h-.85v-.67H32v.67h-.86v4.38Z" style="fill:#fff"/><path d="M34.62,23.7a1.33,1.33,0,0,1-.43.42,1.1,1.1,0,0,1-.57.15,1.17,1.17,0,0,1-.32,0L33,24.12a1.56,1.56,0,0,1-.25-.17.55.55,0,0,1-.15-.2,1.3,1.3,0,0,1-.15-.37,1.87,1.87,0,0,1,0-.34V19.18h.72v4a.82.82,0,0,0,.12.21.39.39,0,0,0,.34.14A.35.35,0,0,0,34,23.4a.59.59,0,0,0,.11-.36V19.18h.73V23a2,2,0,0,1,0,.35,1.2,1.2,0,0,1-.13.31Z" style="fill:#fff"/><path d="M36,24.23V19.85H35.1v-.67h2.44v.67h-.87v4.38Z" style="fill:#fff"/><path d="M37.89,24.23V19.18h.72v5.05Z" style="fill:#fff"/><path d="M39.45,19.66a1.24,1.24,0,0,1,.44-.38,1.11,1.11,0,0,1,.56-.14,1.19,1.19,0,0,1,.52.11,1.27,1.27,0,0,1,.41.31,1.05,1.05,0,0,1,.23.41,1.51,1.51,0,0,1,.06.44V23a1.62,1.62,0,0,1-.05.4,1,1,0,0,1-.18.38,1.09,1.09,0,0,1-.4.36,1.1,1.1,0,0,1-.57.15,1.34,1.34,0,0,1-.35,0,1.73,1.73,0,0,1-.31-.14,1.14,1.14,0,0,1-.25-.18,1.09,1.09,0,0,1-.17-.22,1.42,1.42,0,0,1-.13-.38,1.61,1.61,0,0,1,0-.33V20.41a1.62,1.62,0,0,1,.05-.4,1,1,0,0,1,.17-.35Zm1.4.4a.44.44,0,0,0-.39-.21.54.54,0,0,0-.26.07.53.53,0,0,0-.17.16.64.64,0,0,0-.06.18.86.86,0,0,0,0,.15v2.73a.77.77,0,0,0,.12.25.43.43,0,0,0,.38.16.48.48,0,0,0,.24-.06.34.34,0,0,0,.16-.15.71.71,0,0,0,.07-.16,1.21,1.21,0,0,0,0-.2V20.41a1.1,1.1,0,0,0,0-.21.29.29,0,0,0-.08-.14Z" style="fill:#fff"/><path d="M44.05,24.23l-1.12-3.07v3.07h-.72V19.18h.68L44,22.24V19.18h.72v5.05Z" style="fill:#fff"/><path d="M45.8,23v.13a.28.28,0,0,0,0,.09.87.87,0,0,0,.11.22.44.44,0,0,0,.38.15.67.67,0,0,0,.28-.06.53.53,0,0,0,.19-.17.58.58,0,0,0,0-.16.71.71,0,0,0,0-.14v-.49a.44.44,0,0,0-.06-.25.72.72,0,0,0-.27-.22,4,4,0,0,0-.51-.21,1.51,1.51,0,0,1-.62-.43,1.23,1.23,0,0,1-.25-.8V20.4a1.28,1.28,0,0,1,.35-.89,1.2,1.2,0,0,1,1.73,0,1.21,1.21,0,0,1,.36.89v.23h-.73V20.3s0-.05,0-.08l0-.09L46.7,20a.41.41,0,0,0-.36-.15A.5.5,0,0,0,46,20a.59.59,0,0,0-.13.39v.3a.55.55,0,0,0,0,.24.89.89,0,0,0,.24.19l.18.08.31.11a1.61,1.61,0,0,1,.65.43,1.16,1.16,0,0,1,.29.81V23a1.44,1.44,0,0,1-.06.45,1.75,1.75,0,0,1-.3.52,1.08,1.08,0,0,1-.89.33,1.09,1.09,0,0,1-1-.42,1.57,1.57,0,0,1-.29-.88v-.18h.73Z" style="fill:#fff"/><path d="M6.46,17.33V7.06L4.73,8.35V6.52L6.46,5.25H8.17V17.33Z" style="fill:#fff"/><path d="M14.54,11.15a1.29,1.29,0,0,1,.18.52,3.13,3.13,0,0,1,.06.67v2.31a3.81,3.81,0,0,1-.09.82,4,4,0,0,1-.54,1.12,2.15,2.15,0,0,1-1.77.85,3.19,3.19,0,0,1-1.48-.34,2.32,2.32,0,0,1-.92-.85,3.7,3.7,0,0,1-.32-.85,4.38,4.38,0,0,1-.06-.75v-1.9c0-.26,0-.45,0-.56a1.94,1.94,0,0,1,.13-.46l2.4-6.48h1.94l-1.94,5.07a2,2,0,0,1,.77-.13h.16a1.92,1.92,0,0,1,1.46,1Zm-1.64.92a.86.86,0,0,0-.72-.36.7.7,0,0,0-.61.29,1.17,1.17,0,0,0-.22.75v1.9a1.54,1.54,0,0,0,.18.72.74.74,0,0,0,.67.32h.11a.61.61,0,0,0,.61-.32,1.71,1.71,0,0,0,.14-.72v-1.9a2,2,0,0,0,0-.38.61.61,0,0,0-.13-.3Z" style="fill:#fff"/><path d="M43.49,26.82c-1.36,0-1.57.78-1.6,1.69C43.26,28.52,43.47,27.73,43.49,26.82ZM39.82,27c-.79,1.11-.27,1.73.47,2.28C41.08,28.2,40.55,27.58,39.82,27Zm-1.6,1.67c-.78,1.11-.25,1.73.48,2.27C39.49,29.87,39,29.25,38.22,28.71Zm3.16.21a.18.18,0,0,0-.12,0,10,10,0,0,0-2.51,3.21,5.39,5.39,0,0,0-.28.86c-.71-.71-1-1.46-1.89-1.45-2.2,0-3.34,3.46-6.4,3.48-4.33,0-4-5.21-12.11-5.25,4.87,3.89-.07,7.48,7.14,10.24-3.06.58-3.13,3.19-7.17,1.9,1.89.73,3.92,3.1,7.7,3.24V48c-4.31-.13-8.49-.3-8.49-.3v1.8s10.06-.43,15.12-.43a13.83,13.83,0,0,1,3.66.51v1.14a.75.75,0,0,0,.75.75H41a.75.75,0,0,0,.76-.75V46.55a.76.76,0,0,0-.76-.76H36.78a.76.76,0,0,0-.75.76v1.12a13.83,13.83,0,0,1-3.66.51c-1.14,0-2.54,0-4-.06v-3c7.38-.85,7.12-5.56,7.1-6.64-.09-3.57,1.58-4.34,2.9-4.54a5.43,5.43,0,0,0,.42,2.32.19.19,0,0,0,.24.1.18.18,0,0,0,.1-.23h0a5,5,0,0,1-.4-2.22c.32,0,.62,0,.83-.07a3.14,3.14,0,0,1-.77-.46,5.13,5.13,0,0,1,.31-1,9.47,9.47,0,0,1,2.41-3.08.18.18,0,0,0,0-.25A.27.27,0,0,0,41.38,28.92Zm1,.73a2,2,0,0,0-1.18.69c1,.94,1.69.5,2.33-.15A1.58,1.58,0,0,0,42.42,29.65ZM41,31.39a2.13,2.13,0,0,0-1.14.46c.8,1.11,1.56.81,2.31.3A1.45,1.45,0,0,0,41,31.39ZM36.28,43.72a.76.76,0,0,0-.76.75v.16a.75.75,0,0,0,.76.75h5.23a.75.75,0,0,0,.76-.75v-.16a.76.76,0,0,0-.76-.75Zm-8.76,1.44V48.1l-.94,0V45.2Zm-11.77,2A.76.76,0,0,0,15,48v1.28a.75.75,0,0,0,.76.75H16a.74.74,0,0,0,.75-.75V48A.75.75,0,0,0,16,47.2Zm20.53,4.61a.75.75,0,0,0-.76.75v.16a.76.76,0,0,0,.76.75h5.23a.76.76,0,0,0,.76-.75v-.16a.75.75,0,0,0-.76-.75Z" style="fill:#fff;fill-rule:evenodd"/></svg>