<svg xmlns="http://www.w3.org/2000/svg" viewBox="0 0 80 80.13"><path d="M.45,0h79.1A.45.45,0,0,1,80,.45V79.68a.45.45,0,0,1-.45.45H.45A.45.45,0,0,1,0,79.68V.45A.45.45,0,0,1,.45,0Z" style="fill:#eb1c2d;fill-rule:evenodd"/><path d="M25.31,13.91l-1.5-4.1v4.1h-1V7.16h.92l1.49,4.09V7.16h1v6.75Z" style="fill:#fff"/><path d="M27.26,7.79a1.65,1.65,0,0,1,.58-.5,1.59,1.59,0,0,1,.75-.2,1.67,1.67,0,0,1,.7.16,1.5,1.5,0,0,1,.55.41,1.39,1.39,0,0,1,.3.54,1.94,1.94,0,0,1,.08.6v3.44a2.09,2.09,0,0,1-.06.53,1.4,1.4,0,0,1-.24.52,1.58,1.58,0,0,1-1.3.68,1.7,1.7,0,0,1-.46-.06,2.65,2.65,0,0,1-.42-.18,1.76,1.76,0,0,1-.34-.25,1.39,1.39,0,0,1-.22-.29,2,2,0,0,1-.18-.51,2.85,2.85,0,0,1,0-.44V8.8A2.23,2.23,0,0,1,27,8.26,1.46,1.46,0,0,1,27.26,7.79Zm1.87.53A.6.6,0,0,0,28.61,8a.74.74,0,0,0-.34.1.49.49,0,0,0-.23.22A.78.78,0,0,0,28,8.6a1.91,1.91,0,0,0,0,.2v3.55s0,.07,0,.11a.84.84,0,0,0,.17.33.69.69,0,0,0,.82.13.51.51,0,0,0,.21-.2.84.84,0,0,0,.1-.22,1.84,1.84,0,0,0,0-.26V8.8a1.52,1.52,0,0,0,0-.28A.51.51,0,0,0,29.13,8.32Z" style="fill:#fff"/><path d="M22.84,23.23V16.47h1.6a1.48,1.48,0,0,1,.58.13,1.58,1.58,0,0,1,.48.33,1.39,1.39,0,0,1,.33.46,1.1,1.1,0,0,1,.14.52V19a1.6,1.6,0,0,1-.46,1.12,1.77,1.77,0,0,1-.5.34,1.54,1.54,0,0,1-.61.12h-.59v2.66Zm2-3.77a.4.4,0,0,0,.12-.19A1,1,0,0,0,25,19V18a.63.63,0,0,0-.18-.46.56.56,0,0,0-.46-.19h-.58v2.29h.5a1.39,1.39,0,0,0,.32,0A.63.63,0,0,0,24.88,19.46Z" style="fill:#fff"/><path d="M27.11,17.11a1.58,1.58,0,0,1,.58-.51,1.74,1.74,0,0,1,.75-.19,1.66,1.66,0,0,1,.7.15,1.52,1.52,0,0,1,.55.42,1.33,1.33,0,0,1,.3.54,1.9,1.9,0,0,1,.08.6v3.43a2.17,2.17,0,0,1-.06.54,1.44,1.44,0,0,1-.24.51,1.58,1.58,0,0,1-.53.49,1.55,1.55,0,0,1-.77.2,1.7,1.7,0,0,1-.46-.06,2.65,2.65,0,0,1-.42-.18,2.18,2.18,0,0,1-.34-.26A1.17,1.17,0,0,1,27,22.5a1.92,1.92,0,0,1-.18-.5,3,3,0,0,1,0-.45V18.12a2.17,2.17,0,0,1,.06-.54A1.37,1.37,0,0,1,27.11,17.11Zm1.88.53a.61.61,0,0,0-.53-.28.63.63,0,0,0-.34.1.53.53,0,0,0-.23.21.75.75,0,0,0-.08.24.82.82,0,0,0,0,.21v3.55a.45.45,0,0,0,0,.11.91.91,0,0,0,.16.33.58.58,0,0,0,.5.21.66.66,0,0,0,.32-.08A.72.72,0,0,0,29,22a1.71,1.71,0,0,0,.09-.22,1.87,1.87,0,0,0,0-.27V18.12a1.75,1.75,0,0,0,0-.29.5.5,0,0,0-.1-.19Z" style="fill:#fff"/><path d="M32,23.23l-1.38-6.76h1l.78,4.69.8-4.69h1l-1.41,6.76Z" style="fill:#fff"/><path d="M37.68,22.26v1H34.79V16.47h2.89v.89H35.74v2h1.7v.91h-1.7v2Z" style="fill:#fff"/><path d="M38.14,23.23V16.47h1.69a1.51,1.51,0,0,1,1.12.47,1.53,1.53,0,0,1,.46,1.14v.62a1.58,1.58,0,0,1-.79,1.43l1,3.1h-1l-.91-2.9H39.1v2.9Zm2.14-4a.53.53,0,0,0,.13-.26,1.46,1.46,0,0,0,0-.31v-.62a.72.72,0,0,0-.18-.51.6.6,0,0,0-.48-.2H39.1v2.11h.68a.66.66,0,0,0,.5-.21Z" style="fill:#fff"/><path d="M42.79,23.23V17.37H41.65v-.9h3.26v.9H43.75v5.86Z" style="fill:#fff"/><path d="M46.33,23.23V20.32L45,16.47h1l.78,2.64.8-2.64h1l-1.34,3.85v2.91Z" style="fill:#fff"/><path d="M11.47,22.92V9.17L9.15,10.9V8.44l2.32-1.69h2.29V22.92Z" style="fill:#fff"/><path d="M17.28,38.3a2.23,2.23,0,0,1-2.23,2.23h0a2.22,2.22,0,0,1-2.22-2.23h0a2.21,2.21,0,0,1,2.22-2.22h0a2.22,2.22,0,0,1,2.23,2.22Z" style="fill:#fff;fill-rule:evenodd"/><path d="M36.12,39.53a2.23,2.23,0,0,1-2.23,2.23h0a2.23,2.23,0,1,1,2.23-2.23Z" style="fill:#fff;fill-rule:evenodd"/><path d="M48.59,39.53a2.22,2.22,0,0,1-2.22,2.23h0a2.23,2.23,0,1,1,2.22-2.23Z" style="fill:#fff;fill-rule:evenodd"/><path d="M66.07,38.35a2.23,2.23,0,1,1-4.45,0h0a2.21,2.21,0,0,1,2.22-2.22h0A2.22,2.22,0,0,1,66.07,38.35Z" style="fill:#fff;fill-rule:evenodd"/><path d="M25.77,49.49A1.78,1.78,0,1,1,24,47.71h0a1.78,1.78,0,0,1,1.78,1.78Z" style="fill:#fff;fill-rule:evenodd"/><path d="M57.28,49.49a1.78,1.78,0,1,1-1.78-1.78h0a1.78,1.78,0,0,1,1.78,1.78Z" style="fill:#fff;fill-rule:evenodd"/><path d="M63.4,51.94v9.11a1.15,1.15,0,1,1-2.3,0V45.1a.39.39,0,1,0-.78,0v5.37a.85.85,0,1,1-1.68,0V43.93a2.46,2.46,0,0,1,2.5-2.5h5.41a2.46,2.46,0,0,1,2.5,2.5v6.54a.85.85,0,1,1-1.68,0V45.1a.4.4,0,1,0-.79,0V61.05a1.15,1.15,0,1,1-2.29,0V51.94C64.29,51.44,63.4,51.42,63.4,51.94Z" style="fill:#fff;fill-rule:evenodd"/><path d="M12.27,41.43a2.45,2.45,0,0,0-2.49,2.5v6.54a.92.92,0,0,0,.44.87l-2,10.12A.4.4,0,1,0,9,61.6l1.86-10.2a.9.9,0,0,0,.61-.93V45.1a.4.4,0,1,1,.79,0V61.05a1.15,1.15,0,1,0,2.29,0V51.94c0-.52.89-.5.89,0v9.11a1.15,1.15,0,1,0,2.3,0V45.1a.39.39,0,1,1,.78,0v5.37a.85.85,0,1,0,1.68,0V43.93a2.46,2.46,0,0,0-2.5-2.5Z" style="fill:#fff;fill-rule:evenodd"/><path d="M33.5,54.66v6.45a1.12,1.12,0,1,1-2.23,0V54.66H29.14l2.42-8.59a.35.35,0,0,0-.69-.16l-1.47,4.7c-.35,1.11-1.84.71-1.45-.57L29.8,44a1.8,1.8,0,0,1,1.68-1.23h4.73A1.8,1.8,0,0,1,37.89,44L39.74,50c.39,1.28-1.1,1.68-1.45.57l-1.47-4.7a.35.35,0,0,0-.69.16l2.42,8.59H36.42v6.45a1.12,1.12,0,1,1-2.23,0V54.66Z" style="fill:#fff;fill-rule:evenodd"/><path d="M46,54.66v6.45a1.11,1.11,0,1,1-2.22,0V54.66H41.68l2.42-8.59a.35.35,0,0,0-.69-.16l-1.47,4.7c-.34,1.11-1.84.71-1.44-.57L42.35,44A1.8,1.8,0,0,1,44,42.73h4.72A1.81,1.81,0,0,1,50.44,44L52.29,50c.39,1.28-1.1,1.68-1.45.57l-1.47-4.7a.35.35,0,0,0-.69.16l2.42,8.59H49v6.45a1.12,1.12,0,1,1-2.23,0V54.66Z" style="fill:#fff;fill-rule:evenodd"/><path d="M55.92,58.58v2.68a.79.79,0,1,0,1.57,0v-6.4c0-.34.36-.35.49,0L58.8,57c.28.74,1.13.43.83-.33l-1.63-4a1,1,0,0,0-1-.63H54a1,1,0,0,0-.95.63l-1.63,4c-.31.76.55,1.07.83.33l.82-2.16c.13-.33.49-.32.49,0v6.4a.79.79,0,1,0,1.56,0V58.58a.4.4,0,0,1,.79,0Z" style="fill:#fff;fill-rule:evenodd"/><path d="M23.66,58.74v2.74a.72.72,0,1,1-1.43,0v-3h-1l.86-3.13a2,2,0,0,0-.23-1.56l-1.49-2.64a.6.6,0,0,1,1-.67l1.09,1.75c.16.26.37.23.61.23h2.05c.24,0,.44,0,.61-.23l1.09-1.75a.6.6,0,0,1,1,.67l-1.49,2.64a2.07,2.07,0,0,0-.24,1.56L27,58.46H26v3a.72.72,0,1,1-1.43,0V58.74A.44.44,0,1,0,23.66,58.74Z" style="fill:#fff;fill-rule:evenodd"/></svg>