<svg xmlns="http://www.w3.org/2000/svg" viewBox="0 0 115.2 90"><path d="M35.24,57.47c3.14,1,4.71-.57,4.53-2.23s-2.32-.71-2.81-2.18c-.14-.42-.27-.81-.35-1.12C36,49.46,35,48.72,34.24,46.68c-.37-1-.71-1.35-1.81-1.37a2.18,2.18,0,0,0-1,.24,3,3,0,0,0-1.57,3.2c.42,1.66,1.16,3.93,2,6.28.32.94,2.55,2.13,3.39,2.44Z" style="fill:#e49428"/><path d="M35.55,56.53c2.53,1,5.11-1.06,3.81-2.23l-1.83-1.71a1.48,1.48,0,0,1-.4-.64c-.56-1.72-1.08-2.46-1.67-4.36A2.4,2.4,0,0,0,33,45.75a2.45,2.45,0,0,0-2.19,2.82,45.13,45.13,0,0,0,1.73,5.7c.36,1,2.07,1.88,3,2.26Z" style="fill:#ebf5fd"/><path d="M33.6,50.21c1.61.3,8.19.9,8.89.92L39,46.47l-4.86-.41a2.61,2.61,0,0,0-1.72.48,2.11,2.11,0,0,0-.5,2.44,2.32,2.32,0,0,0,1.72,1.23Z" style="fill:#f3a984"/><path d="M.25,57.52c-1,2,1.23,3.81,2.05,4,2,.38,3.59-2.36,4.54-3.42a56.5,56.5,0,0,0,3.77-5,1.61,1.61,0,0,0,.14-2.27,2.29,2.29,0,0,0-.75-.69,2.82,2.82,0,0,0-3.25.39c-1.8,1.59-5,4.28-6.5,7Z" style="fill:#e49428"/><path d="M1.07,57.93a2.5,2.5,0,0,0,.62,3.22,2,2,0,0,0,2.07.24c2.64-1.27,4.84-4.63,7.1-7.4a2.38,2.38,0,0,0,0-3,2.14,2.14,0,0,0-3-.29,31.52,31.52,0,0,0-6.8,7.23Z" style="fill:#ebf5fd"/><path d="M11.12,34.76c-.48,5.19.21,6.27.81,7.53,1.45,3.05,4.09,6.12,5.84,9,1.33,2.18,10.71-1.08,9.43-3.53C26.14,45.37,25,41.92,25,41.92s4.68,2.42,6.88,3.49,9-4.47,7.48-6.56c-.92-1.27-5.25-4.66-6.83-6.14-.63-.59-21.21-.16-21.42,2Z" style="fill:#1e2dbe"/><path d="M38.86,38.94c-1.14-1-7.25,5.24-6.3,6.18,0,0,5.66,4.26,7,5.06,1.83,1.06,3.94,1.6,6.11-.42,1.94-1.81,2.38-4.43-6.85-10.82Z" style="fill:#fbbd9e"/><path d="M27.59,71.9a5.9,5.9,0,0,1-.71-3.63,9.39,9.39,0,0,0,.32-1.63,14.75,14.75,0,0,0-.74-3.24,13.3,13.3,0,0,1-.1-2.89c0-3.86-2-7.48-2.17-11.33a36.67,36.67,0,0,1,.27-4.31,36.48,36.48,0,0,0,0-5.82c-.05-.73-5.95.77-6.44,1.87-.35.77,0,2,.19,2.76.29,1.46.73,2.89.9,4.38.12,1.08.11,2.17.23,3.25.29,2.77,1.42,5.38,2.11,8.08a25.76,25.76,0,0,1,.69,4.08,2.71,2.71,0,0,1-.07,1.17,3.38,3.38,0,0,1-.78,1c-3.21,3.51-4.85,3.64-4.85,4.21-.07,1.1,1.89.11,2.9-.59-.87.65-1.36,1-2,1.53-1.12.82.74,1.59,3.39-.59-.7.79-1.41,1.66-2.16,2.42s.58,1.41,1.75.47a5.75,5.75,0,0,0,1.39-1.3l-1.17,1.71c-.89,1.29,1.1,1.68,2.54-1,.41-.78.85-1.78,1.54-2a.49.49,0,0,1,.66.4c.15,1.46,1.53,3.45,2.83,2.67.49-.37-.26-1.2-.51-1.64Z" style="fill:#fbbd9e"/><path d="M52.62,64.46a6,6,0,0,1-2.26-1.73,4.18,4.18,0,0,0,2.09.76c.35-.05.57-.27.42-.59s-1.81-1.09-2.21-1.41a17.29,17.29,0,0,1-3.22-4.9,28.7,28.7,0,0,1-.24-5.13,20.07,20.07,0,0,0-1-7.12c-.25-.64-2-9.23-2-10.23l-5.77,1.8L40,40.28c.28.79.56,1.58.79,2.39.92,3.15,1.12,6.47,2,9.62.46,1.6,1.11,3.25.81,4.9-.1.57-.32,1.12-.43,1.7-.32,1.71.11,3.65,0,5.22-.07.59-.39,1.13-.51,1.71v.37c.09.39.86.36,1.19.13a2.38,2.38,0,0,0,.89-2.17c0-.26.06-1.57.31-1.42.84.49,1.79,2.77,4.68,4.46,1.09.64,1.71.2,1.75-.17,1.43.41,1.42-.61,1.1-1.24a.71.71,0,0,0,.09-1.32Z" style="fill:#fbbd9e"/><path d="M20.93,36.91c5.51-.33,12.33-2.89,14.44-4.28.57-.19,1.1.46,1.1.46l2,7.53c.39,1.44,8.52-.31,8.17-1.87C44,27.43,44.6,24,38.4,21.3c-4.44-1.92-6.76-2.71-10.14-2.05a56.89,56.89,0,0,0-10,3.09c-2.87,1.31-4.3,3.85-6.55,9.61A28.32,28.32,0,0,0,11,35.21c0,2.41,5,2,10,1.7Z" style="fill:#fa3c4b"/><path d="M17.49,44.3c.16,1.32,8.4,1,8.23-.61-.27-5.13-.55-8.91-.81-10.67-.51-3.59-8.56-3.87-8.2,1.22.22,3,.4,6.91.78,10.06Z" style="fill:#fa3c4b"/><path d="M26.92,48.19c-1.2-1.79-9,1.57-8.42,3.25.15.4,1.16,2.22,1.42,2.68a4,4,0,0,0-1.59-1c-.77-.33-7-1.77-8.11-2.16-1.85-.66-2.82,3-1.71,3.6,3.17,1.61,13,7.87,14.53,8.63s6.31,2.19,8.11-1.48c1.28-2.6-4.23-13.55-4.23-13.55Z" style="fill:#fbbd9e"/><path d="M30.72,22.52c-10.6,1-6.6,9.55,0,9.25,5.52-.26,8.79-10.1,0-9.25Z" style="fill:#fbbd9e"/><path d="M26.22,24.78c-1.29,3,3.63,6.85,6.46,5.47s4.25-6.17,4-6.37a13.89,13.89,0,0,0-4.51-3.22c-1.48-.59-3.35-1.14-3.76.17a10.42,10.42,0,0,1-2.24,4Z" style="fill:#f3a984"/><path d="M27,11.11a5.61,5.61,0,0,0-1.49,1.8,6.43,6.43,0,0,0-.15,4.29,36.84,36.84,0,0,0,2.53,6.38,11.6,11.6,0,0,0,1.2,2.22,9.59,9.59,0,0,0,5,3,4.15,4.15,0,0,0,1.7.26C37.07,29,37.4,27.59,38,26.64c.36-.58.89-1,1.25-1.62,1.15-1.89.42-3.5.85-4.48s.48-.57.38-1.71a18.14,18.14,0,0,0-2.33-7.76c-2.22-4-8.13-2.49-11.12,0Z" style="fill:#fbbd9e"/><path d="M31.76,18.3A1.94,1.94,0,0,0,30.18,20c0,.39.1.71-.28,1a.89.89,0,0,1-1.16-.17c-.29-.3-1.15-1.5-2.07-1.69-.49-.1-.48,1.95-.85,1.36a10.76,10.76,0,0,1-1.38-5.68c-.05-4.2,3.41-7.16,6.41-6.05,3.34-2.18,8.62-.46,10.16,3.59a4.92,4.92,0,0,1-.79,4.86c-1.28,1.24-5.77.62-8.46,1.08Z" style="fill:#724a2f"/><path d="M26.06,19.12c-1.68.25-1,2.34-.07,3.36.71.82,3.08,2.42,3.33,1.86.51-1.11-1-5.56-3.26-5.22Z" style="fill:#fbbd9e"/><polygon points="109.54 55.69 107.12 50.56 112.77 51.03 115.2 56.16 109.54 55.69 109.54 55.69" style="fill:#ffbd76"/><polygon points="106.69 59.82 104.26 54.69 107.12 50.56 109.54 55.69 106.69 59.82 106.69 59.82" style="fill:#ca8429"/><polygon points="112.34 60.28 106.69 59.82 109.54 55.69 115.2 56.16 112.34 60.28 112.34 60.28" style="fill:#e4a255"/><path d="M97.06,48.37a5.31,5.31,0,0,1,3.46.46,8.14,8.14,0,0,0-.34-2c-.14-.49-.51-.85-1.7-1a6,6,0,0,0-1.12,0c-1.3.12-2.19.6-2.32,1.14a9.76,9.76,0,0,0-.41,2.59,6,6,0,0,1,2.43-1.21Z" style="fill:#e49428"/><path d="M95.85,51a4.3,4.3,0,0,1,.05-3.63c.18-.45,1.45-.79,2.47-.7s1.94.52,2,1.08a31.55,31.55,0,0,1,.18,4.43c-.29.25-1.27-.53-2-.51-1.06,0-2.4-.15-2.71-.67Z" style="fill:#ebf5fd"/><path d="M95.12,68.92A3.33,3.33,0,0,0,98,71.14a4.63,4.63,0,0,0,3.49-1c.76-.66.4-2.42.59-3.94.3-2.51,1.47-2.94-1.39-14.75l-.52-2c-.29-.9-3.18-1.38-3-.29,0,.67.24,2.72.18,3.39a5.77,5.77,0,0,1-1.93,3.63,13.81,13.81,0,0,1-2.41,1.74c-1,.61-1.25.7-.91,1.91a87.34,87.34,0,0,0,3,9.11Z" style="fill:#fbbd9e"/><path d="M83.88,74.33c-.13-1.64-.73-4.43-.75-6.88A7.47,7.47,0,0,0,83,65.61v.31a5.59,5.59,0,0,1-1.93,3.82,5.68,5.68,0,0,1-4,1.34c-.14,1.65-.21,2.16-.24,3.16-.11,3,7,3.4,7,.81l.07-.72Z" style="fill:#e49428"/><path d="M77.91,64.17a4.27,4.27,0,0,0-.44,1.9c-.4,5.2-.49,5.55-.54,7.08-.11,3,7.11,3.25,7,.82-.09-1.54-.66-5-.68-7.6a4,4,0,0,0-.5-2.59c-.76-.89-2.09-.7-3.29-.63a2,2,0,0,0-1.52,1Z" style="fill:#ebf5fd"/><path d="M99.84,57c-.38-4.55-.57-8.5-2.79-12.5-.67-1.21-1.41-3.56-2.24-4.67-.34-.45-18.38,1.37-18.38,1.37a22,22,0,0,0-.29,5.55,58.94,58.94,0,0,0,2.12,7.73c.73,2.35,8.5,3.37,9,.58a32.2,32.2,0,0,1,1.07-4.42c1,2.67,1.7,5,2.72,7.7s9,.82,8.78-1.34Z" style="fill:#1e2dbe"/><path d="M75.91,42.85c-.41,5.38,20.55,3.8,20.19-.21-.25-2.73-2.56-5.19-1.44-10.75,1.46-7.3,6.2-12-.53-13.62-4.94-1.2-10.86-1.67-15.56.32-2.31,1-1.53,3.31-1.58,5.6a177.8,177.8,0,0,1-1.08,18.66Z" style="fill:#fa3c4b"/><path d="M114.61,54.08c-.16-1.14-1.24-4.36-2.51-5.41s-3.15-1.2-3.83-2.62a4,4,0,0,1-.29-1.24q-.58-4.44-1.26-8.88a16.85,16.85,0,0,0-.7-3.24,17.83,17.83,0,0,0-2.25-4l-1.51-2.18-4.4,2.88a11.7,11.7,0,0,1,2,3.17c.17.49.28,1,.41,1.49a56.37,56.37,0,0,0,3,7.52,39,39,0,0,1,2.41,8c-.18,1.63-1.24,4-.29,5.72.35.64.86.48,1.07,0a3.13,3.13,0,0,0,.17-.86c.46-2.92,4.93-3.39,6.27,0,.17.43.34,1,.79,1.06s1.09-.38.92-1.53Z" style="fill:#fbbd9e"/><path d="M73.45,32l-2.75-.15c-1.56,5.44-4.93,10.27-6.12,15.81-.61,2.8-.65,5.77-1.84,8.39C61.88,58,61,58.68,60,60.46a7.51,7.51,0,0,0-1,2.3c-.19.92-.41,1.83-.61,2.75a.88.88,0,0,0,.09.84.86.86,0,0,0,.63.18l.18.62a.43.43,0,0,0,.56.21c.64-.19.52.25,1.15.14.19,0,.33-.2.53-.21s.26.1.45,0c.6-.17.68-.84.8-1.44A7.69,7.69,0,0,1,64,63c2.21-3.92,3.42-8.32,5.36-12.37.66-1.39,1.41-2.74,2-4.15C72.53,43.8,73.19,41,74.3,38.3a48.63,48.63,0,0,1,2.4-4.72A11.57,11.57,0,0,0,73.45,32Z" style="fill:#fbbd9e"/><path d="M74.61,21.39c-1,1.11-4.69,8.54-5.42,10.23-.89,2.06,5.62,5.68,7.43,4.25a71,71,0,0,0,3.18-6.71c3.67-8,1.3-14.72-5.19-7.77Z" style="fill:#fa3c4b"/><path d="M92.93,25.42a54.65,54.65,0,0,0,4.5,6.22c1.38,1.54,6.59-2.07,7-4.39a1.07,1.07,0,0,0-.27-.88c-1.79-2.14-4.77-5.18-4.77-5.18-4.56-4.81-10.3-2.52-6.44,4.23Z" style="fill:#fa3c4b"/><path d="M87,53.93c-.76-1.85-4.92-2.47-6.64-1.65-1.28.63-2,1.13-1.77,2.37l.14,1a2.35,2.35,0,0,1-.31,1.13c-.67,1.63-.18,3.47.07,5.22s.28,2.46.28,2.46c0,1.28,3.21,1.54,3.52.51.87-2.86.94-2.78,2.46-4.66a6.75,6.75,0,0,0,1.61-3.17c.43-1.34.94-2.49.64-3.23Z" style="fill:#fbbd9e"/><path d="M85.07,17.83c-7.26.5-4.08,6.29,1.47,6.29s8.41-7-1.47-6.29Z" style="fill:#fbbd9e"/><path d="M90.48,16.4c-2.36.07-5,0-7.47-.19-.08,3.15-.46,4-.39,4.39.17.88,1.49,1.79,3.22,2.11s4.21-.32,4.31-1.84a20.1,20.1,0,0,1,.33-4.47Z" style="fill:#f3a984"/><path d="M82.45,6.51a34.16,34.16,0,0,0-.59,7.72c0,5.29,4,10.28,8.85,4.36a18.43,18.43,0,0,0,4.22-8c.57-2.38.95-5.47-2-7.29-5-3-9.55-.77-10.46,3.2Z" style="fill:#fbbd9e"/><path d="M93.68,13.05A11.85,11.85,0,0,0,92,15.75c-.13,1.1.68,1.31,1.81,0,3.13-3.6,1.26-4.63-.14-2.71Z" style="fill:#fbbd9e"/><path d="M82.41,10.44c-.29-2.49-2.64-3-1.43,2.68.44,2.09,1.66,1.38,1.69-.67l-.26-2Z" style="fill:#fbbd9e"/><path d="M93.68,14l.24-.23c2.75-3.87,3.59-8.46,1.78-10.57C92.65-.39,89.59,1,89.59,1S88.09-1,85.14.65c-1.77,1-2.56,3.33-2.91,5.58a11.5,11.5,0,0,0,0,4.76,12.35,12.35,0,0,1,.53-2.77.66.66,0,0,1,1-.37,19.47,19.47,0,0,0,4.61,2,18.16,18.16,0,0,0,5,.46,1,1,0,0,1,1,1.12,19.88,19.88,0,0,1-.6,2.53Z" style="fill:#230050"/><polygon points="49.55 79.64 44.64 76.8 49.55 73.96 54.46 76.8 49.55 79.64 49.55 79.64" style="fill:#ffbd76"/><polygon points="49.55 84.65 44.64 81.82 44.64 76.8 49.55 79.64 49.55 84.65 49.55 84.65" style="fill:#ca8429"/><polygon points="54.46 81.82 49.55 84.65 49.55 79.64 54.46 76.8 54.46 81.82 54.46 81.82" style="fill:#e4a255"/><polygon points="65.2 76.28 60.29 73.45 65.2 70.61 70.11 73.45 65.2 76.28 65.2 76.28" style="fill:#ffbd76"/><polygon points="65.2 81.3 60.29 78.46 60.29 73.45 65.2 76.28 65.2 81.3 65.2 81.3" style="fill:#ca8429"/><polygon points="70.11 78.46 65.2 81.3 65.2 76.28 70.11 73.45 70.11 78.46 70.11 78.46" style="fill:#e4a255"/><polygon points="36.75 71.5 31.84 68.67 36.75 65.83 41.67 68.67 36.75 71.5 36.75 71.5" style="fill:#ffbd76"/><polygon points="36.75 76.52 31.84 73.69 31.84 68.67 36.75 71.5 36.75 76.52 36.75 76.52" style="fill:#ca8429"/><polygon points="41.67 73.69 36.75 76.52 36.75 71.5 41.67 68.67 41.67 73.69 41.67 73.69" style="fill:#e4a255"/><polygon points="41.32 82.42 36.4 79.59 41.32 76.75 46.23 79.59 41.32 82.42 41.32 82.42" style="fill:#ffbd76"/><polygon points="41.32 87.44 36.4 84.61 36.4 79.59 41.32 82.42 41.32 87.44 41.32 87.44" style="fill:#ca8429"/><polygon points="46.23 84.61 41.32 87.44 41.32 82.42 46.23 79.59 46.23 84.61 46.23 84.61" style="fill:#e4a255"/><polygon points="63.28 81.95 58.36 79.11 63.28 76.27 68.19 79.11 63.28 81.95 63.28 81.95" style="fill:#ffbd76"/><polygon points="63.28 86.97 58.36 84.13 58.36 79.11 63.28 81.95 63.28 86.97 63.28 86.97" style="fill:#ca8429"/><polygon points="68.19 84.13 63.28 86.97 63.28 81.95 68.19 79.11 68.19 84.13 68.19 84.13" style="fill:#e4a255"/><polygon points="90.92 84.98 86.01 82.14 90.92 79.31 95.83 82.14 90.92 84.98 90.92 84.98" style="fill:#ffbd76"/><polygon points="90.92 90 86.01 87.16 86.01 82.14 90.92 84.98 90.92 90 90.92 90" style="fill:#ca8429"/><polygon points="95.83 87.16 90.92 90 90.92 84.98 95.83 82.14 95.83 87.16 95.83 87.16" style="fill:#e4a255"/></svg>