<?xml version="1.0" encoding="utf-8"?>
<!-- Generator: Adobe Illustrator 25.4.0, SVG Export Plug-In . SVG Version: 6.00 Build 0)  -->
<svg version="1.1" id="Layer_1" xmlns="http://www.w3.org/2000/svg" xmlns:xlink="http://www.w3.org/1999/xlink" x="0px" y="0px"
	 viewBox="0 0 113.4 113.4" style="enable-background:new 0 0 113.4 113.4;" xml:space="preserve">
<style type="text/css">
	.st0{fill:#05D2D2;}
	.st1{fill:#FB636F;}
	.st2{fill:#9EF2F2;}
</style>
<path class="st0" d="M90.1,79.1c-7,0-12.7-5.7-12.7-12.7c0-7,5.7-12.7,12.7-12.7c7,0,12.7,5.7,12.7,12.7c0,0,0,0,0,0
	C102.9,73.4,97.2,79.1,90.1,79.1"/>
<path class="st0" d="M23.2,79.1c-7,0-12.7-5.7-12.7-12.8c0-7,5.7-12.7,12.7-12.7c7,0,12.7,5.7,12.7,12.7S30.3,79.1,23.2,79.1
	C23.3,79.1,23.3,79.1,23.2,79.1"/>
<path class="st1" d="M68.4,28.2L55.9,40.7c-1.3,1.3-3.4,1.3-4.7,0c0,0,0,0,0,0L45,34.5c-1.3-1.3-1.3-3.4,0-4.7s3.4-1.3,4.7,0
	l3.9,3.9l10.1-10.2c1.3-1.3,3.4-1.3,4.7,0S69.7,26.9,68.4,28.2L68.4,28.2 M78.8,8.9c-4.2,0-8-2.4-9.8-6.1l-0.5-0.9
	C68,0.7,66.8,0,65.5,0H47.8c-1.3,0-2.4,0.7-3,1.8l-0.5,0.9c-1.9,3.7-5.7,6.1-9.8,6.1c-1.8,0-3.3,1.5-3.3,3.3v19
	c0,15.2,10,28.6,24.5,32.9c0.3,0.1,0.6,0.1,1,0.1c0.3,0,0.7,0,1-0.1c14.5-4.4,24.5-17.8,24.5-32.9v-19C82.2,10.3,80.7,8.8,78.8,8.9"
	/>
<path class="st2" d="M103.7,80.1c-7.5,7.4-19.7,7.4-27.2,0c-1.9,1.3-3.5,2.9-4.9,4.8l1.8,1.6c5.5,4.8,8.7,11.8,8.7,19.2v7.8h27.9
	c1.8,0,3.3-1.5,3.3-3.3l0,0V99C113.4,91.5,109.8,84.5,103.7,80.1"/>
<path class="st2" d="M9.7,80.1C3.6,84.5,0,91.5,0,99v11.1c0,1.8,1.5,3.3,3.3,3.3h27.9v-7.8c0-7.3,3.2-14.3,8.7-19.2l1.8-1.6
	c-1.4-1.8-3-3.4-4.9-4.8C29.3,87.6,17.2,87.6,9.7,80.1"/>
<path class="st2" d="M69.1,91.5c-6.5,6.8-17.4,7.1-24.2,0.6c-0.2-0.2-0.4-0.4-0.6-0.6c-4.1,3.6-6.4,8.7-6.4,14.2v7.8h37.6v-7.8
	C75.5,100.2,73.2,95,69.1,91.5"/>
<path class="st0" d="M56.7,90.1c-5.8,0-10.5-4.7-10.5-10.5c0-5.8,4.7-10.5,10.5-10.5s10.5,4.7,10.5,10.5c0,0,0,0,0,0
	C67.2,85.4,62.5,90.1,56.7,90.1"/>
</svg>
