<svg xmlns="http://www.w3.org/2000/svg" viewBox="0 0 66.59 120"><path d="M1.4,112.35a1,1,0,0,0,1-1V49c0-2,1.7-4.61,3.72-5.78l2.59-1.49a1,1,0,0,0-1-1.79l-2.59,1.5C2.46,43,.37,46.33.37,49v62.29a1,1,0,0,0,1,1Z" style="fill:#230050"/><path d="M64.72,81.42c1,.73,1.5,2.18,1.87,3.87a6.29,6.29,0,0,1-2.78,3.32l-3.09,4.24a7.91,7.91,0,0,1-3.53,2.4,10.62,10.62,0,0,1-4.36.08,4.55,4.55,0,0,1-3.23-2.52c.35-1.2,2-2.58,4.16-3.87l3-3.6.13-3.78,5.5-2.62,2.35,2.48Z"/><path d="M31.19,47.4c0,6.89,2.06,14.49,5.39,22.53.07.17.14.33.22.49a15.2,15.2,0,0,0,5,5.25c4.42,3.2,10.39,6,14,9.92,3.21,1.19,8.92-1.19,8.92-4.67A47.12,47.12,0,0,0,59,74.07a63.09,63.09,0,0,0-9.62-7.44l-4-14.8L31.19,47.4" style="fill:#3264c8"/><path d="M32.45,57.44A47.55,47.55,0,0,1,31.35,51l0,0a48.48,48.48,0,0,0,1.08,6.39" style="fill:#90bfdd"/><path d="M42.52,75l5.59-12.41.08-.07.09,0,1.13,4.17A63.09,63.09,0,0,1,59,74.07L46.29,71.59,42.52,75M33.7,62c-.47-1.53-.9-3-1.25-4.54a48.48,48.48,0,0,1-1.08-6.39c.3.16.6.33.92.49a24.53,24.53,0,0,0,3.26,5.68C34.63,59.61,35,58.6,33.7,62" style="fill:#1e2dbe"/><path d="M28.33,110.29a12.69,12.69,0,0,1-.89,5.52,4.52,4.52,0,0,1-2.12,1.4,5.41,5.41,0,0,1-2.62,2.45c-2.91,1.1-8.26-.63-9-3a8.86,8.86,0,0,1,4.14-3.82l3.64-3.52,1.12-4,6.17,1.47-.39,3.57Z"/><path d="M20.59,108.38c1.13,2.56,3.81,3.5,8.18,2.61q1-2.26,1.95-4.57c.41-1,.82-2,1.22-3l0,0A191.85,191.85,0,0,0,38.28,84.4l9.83-21.82.08-.07c5.77-3.62,6-8.37,5.36-12.92l.5-2.18.76-3.3L56,39l.19-1.74L31.11,44c-.37,4.83,1.48,9.28,4.44,13.19-1,2.58-.46,1.2-2.18,5.63l-.09.22c-.84,2.26-1.63,4.51-2.35,6.77A109.48,109.48,0,0,0,27.78,81.7l-7.19,26.68" style="fill:#82afdc"/><path d="M31.94,103.37l4.78-20.2C41.05,71.3,43.77,60.29,40.81,54c.72.09,1.45.16,2.19.2l.42,0a10.59,10.59,0,0,0,4.14-1c.79-.29,1.72-.67,2.85-1.16a1.34,1.34,0,0,0,.56-.48l.42-.19c.73-.28.58-1.2.33-2.13,0-.24.07-.48.09-.7l2.24-1.11-.5,2.18h0a23.41,23.41,0,0,1,.24,3.12c0,3.54-1.14,7-5.6,9.8l-.08.07L42.52,75l-.42.92L38.28,84.4A191.85,191.85,0,0,1,32,103.33l0,0" style="fill:#5a87cd"/><path d="M28.89,12.86c-2.63.66-6.46,8.16-10.68,14.58A72,72,0,0,1,4.14,39.16c-1.43,1.58-.3,7,4,5.32,6.72-3.57,12.46-4.8,15.33-8.76l6.4-8.28-1-14.58Z" style="fill:#d2fbfb"/><path d="M.67,47.16,0,45.09l1-3.41,1.67-1.26,1.91-.53c1.24.2,1.87,1.09,1.88,2.67L6.06,45,4.13,46.88c-.87,1.4-1.41.89-1.3.1l1-1.91-1.22-.5-1,.39-.94,2.2Z" style="fill:#ffb294"/><path d="M29.75,50c2.8,2.14,7.64,3.85,13.25,4.18,3.29.2,6.27-2,8.39-2.81,1.15-.45.11-2.45,0-3.6-.14-1.32-.26-3-.35-3.79L51,40.54l-.09-4.29c-.83-12.81,1.15-14.8-1.8-17.48-4.2-3.82-8.62-5.93-12.19-5.93l-7,.65c-2.15,2-3.77,6.31-3.93,10.21,0,0,2.69,16.63,2.48,20.41,0,.56.05,2.18,0,3.31A3.23,3.23,0,0,0,29.75,50" style="fill:#e02f36;stroke:#fb636f;stroke-miterlimit:10"/><path d="M37.5,11.26l4.26,3.39c2.13,6.51-3.21,9.19-6.69,12.82l-2-5.69-5.05,1,1.86-9.27,7.66-2.23" style="fill:#fff"/><path d="M32,20.77a1.84,1.84,0,0,0,1.05,1c4.33,1.27,7.87-3.66,7.38-6.57s-.64-4.62-.64-4.62L31.4,12.65s-.09.79-.13,1.9c-.09,1.88-.06,4.7.71,6.22" style="fill:#ffb294"/><path d="M33.35,21.22A2.41,2.41,0,0,1,32,20.77h0A12,12,0,0,1,31.23,16c0-.5,0-1,0-1.41l7.29-.78s-1.26,7.45-5.21,7.45" style="fill:#ff9775"/><path d="M39.12,12s-.91,3.62-2.53,5.19a9.79,9.79,0,0,1-5.19,2.39A2.59,2.59,0,0,1,29,18.84c-.64-.75-1-7.64-1-7.64a20.53,20.53,0,0,1,.38-4.95C28.82,4.07,30.62-.47,37,.4a5.62,5.62,0,0,1,5.15,5.06c.32,2.15-1.4,6-1.4,6L39.12,12Z" style="fill:#ffb294"/><path d="M40.63,12.31l-2.85,1.18-.23-1.81c0-.86-.3-2.12-1.17-2-1.44.11-4.08.59-6.21-.45a4.22,4.22,0,0,1-2.38-2.36c-1-3.92,4.15-6.95,8-6.82A7.08,7.08,0,0,1,43,6.37a6.73,6.73,0,0,1-2.32,5.94Z" style="fill:#f2f2f2"/><path d="M40.13,9.44a1,1,0,0,1,1.27.19,1,1,0,0,1,.16.75,2.84,2.84,0,0,1-.26.74c-.2.4-.43.8-.67,1.19a1.44,1.44,0,0,1-.8.72c-.37.09-.81.35-1,0a3,3,0,0,1-.11-1.56,3,3,0,0,1,1.42-2.05Z" style="fill:#ffb294"/><polyline points="50.93 38.64 50.91 37.48 51.83 38.4 50.93 38.64" style="fill:#dbb8ba"/><path d="M51.57,48.64a6,6,0,0,1-.19-.89c-.14-1.32-.26-3-.35-3.79L51,40.54l0-1.9.9-.24.69.68L52.09,43c0,.94-.15,2.81-.19,4.3,0,.33,0,.78-.09,1.26l-.24.12" style="fill:#1d5b8a"/><path d="M47.56,53.18C48.83,52.64,50,52,51,51.54a1.34,1.34,0,0,1-.56.48c-1.13.49-2.06.87-2.85,1.16m4.16-4-.15-.58.24-.12c0,.22-.05.46-.09.7" style="fill:#104477"/><path d="M43.33,54.11c-.74,0-1.5-.08-2.52-.15C45.19,48.37,45,39.15,43.57,30.2l7.34,7.28,0,1.16,0,1.9L51,44c.09.83.21,2.47.35,3.79a6,6,0,0,0,.19.89l.15.58A5.82,5.82,0,0,1,51,51.54c-1,.44-2.14,1.1-3.41,1.64a11.43,11.43,0,0,1-4.23.93" style="fill:#c8303c"/><path d="M55.44,57.39l-.53,3.25a9.92,9.92,0,0,1,1.15,4.84c-.16.79-.59,1.17-1.26,1.15l-.44,1.17a1,1,0,0,1-1.43.18,1.86,1.86,0,0,1-1.88.5l-1.21.84-2.4.64c-.82-.08-1.14-.74-.3-1.19l2-1.27.07-2.15-1.18-.69-.52,1-.46.94c-.49.87-1.36.83-1.32.09l.47-2.67a8.59,8.59,0,0,1,3.45-3.64l.93-3.95,4.84.93Z" style="fill:#ffb294"/><path d="M49.23,19.34c3.69,3.65,9,15.52,9.17,23.55l-3,17.39c-.93,1.86-4.52,1.65-6.31-.55l.36-15.55-5.87-14c-1.07-6.14,3.3-11.93,5.66-10.86Z" style="fill:#d2fbfb"/><path d="M38.66,12.52a5.76,5.76,0,0,1-.18,3.5s-.89,3.34-2.91,4.93a15.46,15.46,0,0,1-5.17,2.52c-3.86.38-3.18-2.54-2.74-5.43.24-1.53.5-4.27.5-4.27,1.59,0,3.68,1.07,5.93,2.5a1.61,1.61,0,0,0,1.83,0A4,4,0,0,0,37.47,13a6.24,6.24,0,0,0-.18-2.71l1.37,2.23Z" style="fill:#f2f2f2"/><path d="M31.85,16.55a1.73,1.73,0,0,1,.54,1.18.65.65,0,0,1-.34.62,1,1,0,0,1-.58,0,.78.78,0,0,1-.55-.42L31,17.6c-.07-.25-.41-.32-.61-.45l-.16-.06c-.09,0-.09.15-.13.24s-.36.16-.55,0a1.29,1.29,0,0,1-.46-.93,1.1,1.1,0,0,1,.31-.85.49.49,0,0,1,.24-.14.92.92,0,0,1,.28,0,3.94,3.94,0,0,1,2,1.1Z" style="fill:#ffb294"/></svg>