<svg xmlns="http://www.w3.org/2000/svg" viewBox="0 0 230.35 221.08"><defs><style>.a{fill:#2fb8c5;}.b{fill:#f9b000;}.c{fill:#e24c1a;}.d{fill:#6a4731;}.e{fill:#6b3d2c;}.f{fill:#a863a5;}.g{fill:#a74a24;}.h{fill:#534731;}.i{fill:#a13027;}.j{fill:#543530;}.k{fill:#a02c22;}.l{fill:#54332d;}.m{fill:#006891;}.n{fill:#00687b;}.o{fill:#155337;}.p{fill:#2e3630;}.q{fill:#2c3932;}.r{fill:#2e3a32;}.s{fill:#253d64;}.t{fill:#303332;}.u{fill:#303331;}.v{fill:#30322f;}</style></defs><path class="a" d="M115.17,98.45l-20.5-6.66V20.51a20.51,20.51,0,1,1,41,0V91.79l-20.51,6.66"/><path class="b" d="M173.7,221.08a20.51,20.51,0,0,1-16.62-8.46l-41.9-57.7,12.67-17.46,20.51-6.65,41.91,57.71a20.51,20.51,0,0,1-16.57,32.56"/><path class="c" d="M82,130.81l-67.81-22a20.51,20.51,0,1,1,12.67-39l67.81,22v21.56L82,130.81"/><path class="d" d="M94.66,113.35V91.79l20.51,6.66-5.88,1.91a21.35,21.35,0,0,0-2.72,1,20.41,20.41,0,0,0-3.4,2h0a20.3,20.3,0,0,0-3,2.71,19.29,19.29,0,0,0-1.8,2.25l-3.65,5"/><path class="e" d="M106.57,101.39a21.8,21.8,0,0,1,2.71-1l-.23.08a20.74,20.74,0,0,0-2.48,1m-8.26,7a19.29,19.29,0,0,1,1.8-2.25,21.55,21.55,0,0,0-1.66,2l-.14.2"/><path class="f" d="M56.65,221.08a20.51,20.51,0,0,1-16.57-32.56L82,130.81l20.51,6.65,12.67,17.46-41.9,57.7a20.51,20.51,0,0,1-16.62,8.46"/><path class="g" d="M115.17,154.92,102.5,137.46l5.9,1.92a20.1,20.1,0,0,0,2.91.78,20.61,20.61,0,0,0,3.86.37h0a20.16,20.16,0,0,0,3.81-.36,20.78,20.78,0,0,0,3-.79l5.9-1.92-12.68,17.46"/><path class="h" d="M111.31,140.16a20.1,20.1,0,0,1-2.91-.78l.25.08a20,20,0,0,0,2.66.7m7.68,0a20,20,0,0,0,2.69-.7l.27-.09a19.23,19.23,0,0,1-3,.79"/><path class="i" d="M102.5,137.46,82,130.81l12.68-17.46v6.18a20,20,0,0,0,.14,3,20.66,20.66,0,0,0,.91,4,20.6,20.6,0,0,0,3.13,5.92l3.65,5"/><path class="j" d="M103.17,103.37a21.51,21.51,0,0,1,3.4-2l-.61.3a20.44,20.44,0,0,0-2.79,1.68m0,0h0m-8.5,16.15v-6.19l3.65-5a20.71,20.71,0,0,0-3.65,11.21M97.25,130a20,20,0,0,1-1.53-3.47A20.37,20.37,0,0,0,97,129.46c.1.18.19.36.29.53"/><path class="k" d="M95.72,126.52a20.66,20.66,0,0,1-.91-4c0,.21.06.43.1.65a19.72,19.72,0,0,0,.81,3.35m12.68,12.86-5.9-1.91-3.65-5a20.6,20.6,0,0,0,9.55,6.94m6.78,1.15h0a19.89,19.89,0,0,0,3.16-.25l.66-.11a20.08,20.08,0,0,1-3.81.36"/><path class="l" d="M106,101.69l.61-.3a19.52,19.52,0,0,1,2.48-1l-.21.07a19.76,19.76,0,0,0-2.88,1.18M95.72,113.52a20,20,0,0,1,2.59-5.18l.14-.2a20.51,20.51,0,0,0-2.73,5.38M97,129.46a20.89,20.89,0,0,1-2.06-6.29,21.58,21.58,0,0,0,.76,3.18,22.1,22.1,0,0,0,1.3,3.11m11.68,10-.24-.08a20.44,20.44,0,0,1-5.24-2.74,20.78,20.78,0,0,0,5.48,2.82m9.69.82a20.38,20.38,0,0,0,3.18-.76l.17-.05a20,20,0,0,1-2.69.7l-.66.11"/><path class="m" d="M148.36,130.81l-12.67-17.46V91.79l67.81-22a20.51,20.51,0,1,1,12.67,39l-67.81,22"/><path class="n" d="M135.68,113.35l-3.64-5a19.84,19.84,0,0,0-1.84-2.29,19.37,19.37,0,0,0-2.77-2.49,20.91,20.91,0,0,0-3.72-2.2,19.72,19.72,0,0,0-2.65-1l-5.88-1.91,20.5-6.66v21.56"/><path class="o" d="M127.85,137.46l3.65-5a21.4,21.4,0,0,0,1.57-2.39,20.68,20.68,0,0,0,1.64-3.76,21.34,21.34,0,0,0,.83-3.77,20,20,0,0,0,.14-3v-6.19l12.68,17.46-20.51,6.65"/><path class="o" d="M127.43,103.56a20.45,20.45,0,0,0-3.05-1.88l-.67-.32a20.56,20.56,0,0,1,3.72,2.2m8.25,16a20.52,20.52,0,0,0-3.64-11.2l3.64,5v6.19m-2.61,10.51.32-.61a20.32,20.32,0,0,0,1.32-3.14,21.62,21.62,0,0,1-1.64,3.75"/><path class="p" d="M131.5,132.44l.14-.2a21.1,21.1,0,0,0,1.43-2.19,20.52,20.52,0,0,1-1.57,2.39"/><path class="p" d="M131.64,132.24l.13-.17a19.09,19.09,0,0,0,1.62-2.64c-.1.21-.21.42-.32.61a20.22,20.22,0,0,1-1.43,2.2"/><path class="q" d="M109.29,100.36l5.88-1.91,5.89,1.91a20.29,20.29,0,0,0-5.87-.85h0a20.29,20.29,0,0,0-5.87.85m-6.12,3h0m-3.06,2.71a20.67,20.67,0,0,1,3-2.7,19.79,19.79,0,0,0-2.57,2.2c-.17.17-.33.33-.48.5"/><path class="p" d="M109.05,100.44l.23-.08a20.77,20.77,0,0,1,5.88-.86h0a20.52,20.52,0,0,0-6.12.94m-10.6,7.7a19.07,19.07,0,0,1,1.66-2c.15-.17.31-.33.48-.5a21,21,0,0,0-2,2.37l-.13.18"/><path class="p" d="M135.53,122.52a19.15,19.15,0,0,0,.16-2.73v-.26a20.05,20.05,0,0,1-.16,3"/><path class="p" d="M135.68,119.79a20.51,20.51,0,0,0-1-6.21,20.2,20.2,0,0,1,1,6v.25"/><path class="q" d="M130.2,106.05l-.45-.47a20.1,20.1,0,0,0-2.32-2,20.58,20.58,0,0,1,2.77,2.49"/><path class="p" d="M129.75,105.58a20.42,20.42,0,0,0-5.37-3.89,19.6,19.6,0,0,1,3.05,1.87,20.1,20.1,0,0,1,2.32,2"/><path class="r" d="M122,139.38a20.75,20.75,0,0,0,9.55-6.94l-3.65,5-5.9,1.91m-6.78,1.15a20.7,20.7,0,0,1-3.86-.37l.63.11a19.63,19.63,0,0,0,3.23.26h0"/><path class="r" d="M121.69,139.47a21.06,21.06,0,0,0,5.68-3,20.69,20.69,0,0,1-5.42,2.87l-.26.09m-9.75.8-.63-.11a20.14,20.14,0,0,1-2.67-.7l.2.06a21.51,21.51,0,0,0,3.1.75"/><path class="r" d="M134.71,126.29a20.23,20.23,0,0,0,.73-3.12c0-.22.07-.44.1-.65a21.34,21.34,0,0,1-.83,3.77"/><path class="r" d="M133.4,129.44a21.12,21.12,0,0,0,1.28-3.09,20.24,20.24,0,0,0,.76-3.19,20.48,20.48,0,0,1-.73,3.14,22.43,22.43,0,0,1-1.31,3.14"/><path class="s" d="M132,108.34l-.14-.2a21.25,21.25,0,0,0-1.7-2.09,19.84,19.84,0,0,1,1.84,2.29"/><path class="r" d="M134.65,113.58a20.63,20.63,0,0,0-2.75-5.44l.14.2a20.54,20.54,0,0,1,2.61,5.24"/><path class="s" d="M123.71,101.36a19.11,19.11,0,0,0-2.42-.92l-.23-.08a21.18,21.18,0,0,1,2.65,1"/><path class="r" d="M124.38,101.68a20.77,20.77,0,0,0-2.87-1.17l-.22-.07a19.11,19.11,0,0,1,2.42.92l.67.32"/><path class="t" d="M94.81,122.51a21.25,21.25,0,0,1-.15-3v.26a24.66,24.66,0,0,0,.15,2.72m4,9.93a19.1,19.1,0,0,1-1.6-2.45,18.46,18.46,0,0,0,1.44,2.23l.16.22"/><path class="u" d="M121.29,100.44a20.45,20.45,0,0,0-6.11-.94h0a20.65,20.65,0,0,1,5.87.86l.23.08m-20.71,5.15a20.57,20.57,0,0,1,2.58-2.2v0a21.73,21.73,0,0,1,2.79-1.68,20.93,20.93,0,0,0-2.84,1.73,21.34,21.34,0,0,0-2.54,2.17m31.32,2.55-.13-.18a21.14,21.14,0,0,0-2-2.38c.16.16.31.31.45.47a19.89,19.89,0,0,1,1.7,2.09M94.66,119.79v-.26a20.62,20.62,0,0,1,1.06-6,20.88,20.88,0,0,0-1.06,6.27m4,12.43A18.46,18.46,0,0,1,97.25,130c-.1-.17-.19-.35-.28-.53a20.39,20.39,0,0,0,1.61,2.61l.11.15"/><path class="v" d="M135.45,123.17a21.86,21.86,0,0,0,.23-3.16v-.22a20.72,20.72,0,0,1-.14,2.73l-.09.65m-40.55,0-.09-.65a19.21,19.21,0,0,1-.14-2.73V120a21.86,21.86,0,0,0,.23,3.16m32.47,13.33a21,21,0,0,0,4.28-4.25l-.15.19a20.36,20.36,0,0,1-4.13,4.06m-24.21.14a20.42,20.42,0,0,1-4.31-4.2l-.16-.21a20.54,20.54,0,0,0,4.47,4.41m12,3.89a19.63,19.63,0,0,1-3.23-.26,20.21,20.21,0,0,0,3.23.26,19.43,19.43,0,0,0,3.16-.25,19.89,19.89,0,0,1-3.16.25"/><path class="v" d="M115.17,140.53a20.21,20.21,0,0,1-3.23-.26,19.16,19.16,0,0,1-3.1-.75l-.19-.06a20.49,20.49,0,0,1-10-7.24l-.11-.15A19.72,19.72,0,0,1,97,129.46a20,20,0,0,1-1.3-3.11,20.43,20.43,0,0,1-.77-3.18,21.83,21.83,0,0,1-.23-3.15v-.23a20.26,20.26,0,0,1,1-6.27,20.51,20.51,0,0,1,2.73-5.38l.13-.18a22,22,0,0,1,2-2.37,20.45,20.45,0,0,1,2.54-2.17,20,20,0,0,1,2.84-1.73,21,21,0,0,1,2.88-1.19l.21-.06a20.39,20.39,0,0,1,12.24,0l.21.06a21.7,21.7,0,0,1,2.88,1.18,20.49,20.49,0,0,1,7.39,6.28l.13.18a20.48,20.48,0,0,1,3.78,11.65V120a21.83,21.83,0,0,1-.23,3.15,20.43,20.43,0,0,1-.77,3.18,21.12,21.12,0,0,1-1.28,3.09,22,22,0,0,1-1.63,2.63l-.12.18a21,21,0,0,1-4.28,4.25,20.51,20.51,0,0,1-5.68,3l-.18.06a19.93,19.93,0,0,1-6.34,1"/></svg>