<svg xmlns="http://www.w3.org/2000/svg" viewBox="0 0 154.43 120"><path d="M2.8,88.6H2.69a1,1,0,0,1-.91-1.13L5.5,52.58a1,1,0,0,1,2,.22L3.82,87.68a1,1,0,0,1-1,.92Z" style="fill:#def0f5"/><path d="M24.59,89.11a1,1,0,0,1-1-.91L19.45,52.86a1,1,0,1,1,2-.24L25.61,88a1,1,0,0,1-.9,1.14Z" style="fill:#def0f5"/><path d="M14.18,80.63a18,18,0,0,0-8.85,2.09c-2.06,1.19-3.2,2.67-3.2,4.18s1.14,3,3.2,4.17a17.88,17.88,0,0,0,8.85,2.1A17.9,17.9,0,0,0,23,91.07c2.06-1.18,3.19-2.67,3.19-4.17s-1.13-3-3.19-4.18a18,18,0,0,0-8.85-2.09Zm0,13.32a18.91,18.91,0,0,1-9.25-2.19C2.62,90.42,1.35,88.7,1.35,86.9S2.62,83.38,4.93,82a18.8,18.8,0,0,1,9.25-2.2A18.79,18.79,0,0,1,23.42,82C25.73,83.38,27,85.1,27,86.9s-1.28,3.52-3.59,4.86A18.9,18.9,0,0,1,14.18,94Z" style="fill:#def0f5"/><path d="M4,101.44H3.92A1,1,0,0,1,3,100.32L6.52,62.76a1,1,0,0,1,2,.2L5,100.51a1,1,0,0,1-1,.93Z" style="fill:#ebf5fd"/><path d="M23.27,101.72a1,1,0,0,1-1-1l-3.06-38.1a1,1,0,1,1,2-.17l3.06,38.11a1,1,0,0,1-.94,1.1Z" style="fill:#ebf5fd"/><path d="M23.38,63.26c-5.35,3.09-14,3.09-19.37,0-2.67-1.55-4-3.57-4-5.59v3.66c0,2,1.34,4,4,5.59C9.36,70,18,70,23.38,66.92c2.67-1.54,4-3.56,4-5.59V57.67c0,2-1.34,4-4,5.59Z" style="fill:#049393"/><path d="M21.4,62.12A17.07,17.07,0,0,1,6,62.12c-4.25-2.46-4.25-6.44,0-8.9a17,17,0,0,1,15.41,0c4.26,2.46,4.26,6.44,0,8.9Zm2-10C18,49,9.36,49,4,52.08c-2.67,1.54-4,3.56-4,5.59s1.34,4,4,5.59c5.35,3.09,14,3.09,19.37,0,2.67-1.55,4-3.57,4-5.59s-1.34-4.05-4-5.59Z" style="fill:#def0f5"/><path d="M21.4,53.22A17,17,0,0,0,6,53.22c-4.25,2.46-4.25,6.44,0,8.9a17.07,17.07,0,0,0,15.41,0c4.26-2.46,4.26-6.44,0-8.9Z" style="fill:#05bdbd"/><polygon points="50.73 43.94 48.21 42.49 50.73 41.04 53.24 42.49 50.73 43.94 50.73 43.94" style="fill:#d2fbfb"/><polygon points="50.73 80.16 48.21 78.71 48.21 42.49 50.73 43.94 50.73 80.16 50.73 80.16" style="fill:#ebf5fd"/><polygon points="50.73 80.16 53.24 78.71 53.24 42.49 50.73 43.94 50.73 80.16 50.73 80.16" style="fill:#d2fbfb"/><polygon points="75.16 29.83 72.65 28.38 75.16 26.93 77.67 28.38 75.16 29.83 75.16 29.83" style="fill:#d2fbfb"/><polygon points="75.16 66.05 72.65 64.6 72.65 28.38 75.16 29.83 75.16 66.05 75.16 66.05" style="fill:#aedae6"/><polygon points="75.16 66.05 77.67 64.6 77.67 28.38 75.16 29.83 75.16 66.05 75.16 66.05" style="fill:#05bdbd"/><polygon points="119.73 83.78 117.22 82.33 119.73 80.88 122.24 82.33 119.73 83.78 119.73 83.78" style="fill:#d2fbfb"/><polygon points="119.73 120 117.22 118.55 117.22 82.33 119.73 83.78 119.73 120 119.73 120" style="fill:#ebf5fd"/><polygon points="119.73 120 122.24 118.55 122.24 82.33 119.73 83.78 119.73 120 119.73 120" style="fill:#d2fbfb"/><polygon points="144.17 69.67 141.66 68.22 144.17 66.77 146.68 68.22 144.17 69.67 144.17 69.67" style="fill:#d2fbfb"/><polygon points="144.17 105.89 141.66 104.44 141.66 68.22 144.17 69.67 144.17 105.89 144.17 105.89" style="fill:#ebf5fd"/><polygon points="144.17 105.89 146.68 104.44 146.68 68.22 144.17 69.67 144.17 105.89 144.17 105.89" style="fill:#d2fbfb"/><polygon points="122.52 89.52 39.68 41.17 71.59 22.57 154.43 70.92 122.52 89.52 122.52 89.52" style="fill:#05bdbd"/><polygon points="122.52 93.81 39.68 45.46 39.68 41.17 122.52 89.52 122.52 93.81 122.52 93.81" style="fill:#049393"/><polygon points="122.52 93.81 154.43 75.22 154.43 70.92 122.52 89.52 122.52 93.81 122.52 93.81" style="fill:#025454"/><path d="M95.64,31.05a4.14,4.14,0,1,1-8.28,0c0-2.28,3.65-5.81,3.65-5.81s4.63,3.53,4.63,5.81Z" style="fill:#feb30f"/><path d="M104.68,33.76c0,4.06-3.22,6.75-5.51,6.75a4.14,4.14,0,0,1,0-8.28c2.29,0,5.51-.75,5.51,1.53Z" style="fill:#feb30f"/><path d="M82.62,18.05s-2.87,5.86-.84,9.46,1.08,12.8,1.08,12.8L84.53,57a14.89,14.89,0,0,0,4.55,1.32A25,25,0,0,0,92.56,56s-2.76-6.59-2.88-8,1.44-9,0-9.94-1.07-5.63-1.07-5.63,2-18.19-6-14.36Z" style="fill:#3264c8"/><path d="M86.45,48.06s-20,9.27-20.13,14.57,4.63,8.87,6,11a50.61,50.61,0,0,1,4.1,9.8c.13,1.2-2.92,7-3.57,8.35s-2.49,3-1.59,4.9c1.19,2.52,2.78,1.72,5.43-.53S78,90.84,80,89.78s3.57-2.51,1.45-5.3c-1.33-1.75-1.59-3.57-1.06-6.09s1.2-9-.79-11.65-2.91-2.92-2.91-2.92S98.23,57.07,95.06,52.7s-3.85-8.21-8.61-4.64Z" style="fill:#f2b3a7"/><path d="M94.53,52.57s-17.09,10.72-17.22,16,3.84,9.1,5.16,11.22S85.87,90.09,86,91.28s-2.49,7-3.14,8.3-3.71,2.39-1.72,3,3,1.46,5.69-.8S89,96.8,91,95.74s2.65-2.43.53-5.87c-1.16-1.88-.66-3-.13-5.52s1.19-9-.8-11.65-2.91-2.92-2.91-2.92S109.23,63,106.05,58.66,99.29,49,94.53,52.57Z" style="fill:#f2b3a7"/><path d="M92.79,20.44l1.2-1s7.3,1.92,9.34,4.91,1.55,15.8,4.19,20.47,3.64,6.84,2.75,11.38C109,62.94,87.64,69.78,87.64,69.78s-1-3.45-6.23-6.33a107.91,107.91,0,0,0-12.17-5.4s8.31-6.12,11.6-8c3.09-1.74,10.5-4.79,10.5-4.79a4.88,4.88,0,0,0-2.73-4.37c-2.88-1.43-6-3.83-6.47-5.74s3.47-14.25,3.47-14.25l7.18-.48Z" style="fill:#1e2dbe"/><path d="M106.33,58.82l1.79-2s1.44.53,1.73.33.72.58.19.78a3.92,3.92,0,0,1-1.54,0,7.81,7.81,0,0,1-1.16,1.78c-.53.48-1-.87-1-.87Z" style="fill:#f2b3a7"/><path d="M107.39,58.58l1.79-2s1.44.52,1.73.33.73.58.19.77a3.73,3.73,0,0,1-1.54,0,7.81,7.81,0,0,1-1.16,1.79c-.53.48-1-.87-1-.87Z" style="fill:#f2b3a7"/><path d="M108.6,58.63l1.78-2s1.45.53,1.74.34.72.58.19.77a3.73,3.73,0,0,1-1.54,0,8,8,0,0,1-1.16,1.79c-.53.48-1-.87-1-.87Z" style="fill:#f2b3a7"/><path d="M103.05,61.67s-1,2.89-.1,3a5.85,5.85,0,0,0,2.85-.06c.87-.39,3.33-.48,3.81-1.06s1-1.65,1.21-1.84c.48-.38,2-1.35,2-1.35s-.11-1.12-2-.11c-.65.35-1.5.72-1.5.72s1.55-.69,1.55-1.27-3.13-2-4-1.11c-1.5,1.42-3.76,3.09-3.76,3.09Z" style="fill:#f2b3a7"/><path d="M87.49,3.9s.48-.15.93-1.19S91,.82,93.15.28c2.4-.61,5.62-.89,4.56,6.82-.51,3.74-1.24,7.79-.62,7.75s.33,1-1.52.09.48-5.93-4-8.33-4.44-2.69-4.44-2.69l.32,0Z" style="fill:#7f2543"/><path d="M84.55,22.31s3,2.44,3.19,3.34-1.62,6.39-.87,7.54,6-6.06,7.25-9.31.6-3.44.6-3.44a8.78,8.78,0,0,1-2.56-3.65c-.51-1.92-7.61,5.52-7.61,5.52Z" style="fill:#f69d81"/><path d="M95.45,10.38A7.71,7.71,0,0,0,80.6,7.93h0s-1.27,2.59-1.2,3.92.61.66.39,2-1.05,1.9.16,4,1.63,4,1.86,4.18-.19,1,3.52.16a14.69,14.69,0,0,0,7.29-4.09A9.07,9.07,0,0,0,94,15.31a7.72,7.72,0,0,0,1.45-4.93Z" style="fill:#f2b3a7"/><path d="M83.67,5.32c0,.51-1.81,3,.91,4.43s2.44.68,3.54,2.18.77,5.41.77,5.41S90,13.05,91.81,14s-.23,5.43-.23,5.43,5.35-3.94,4.37-9-2-5.8-4-6.8-7.16-2.36-10,.84c-3.39,3.78-2.05,5.7-2.05,5.7l3.82-4.88Z" style="fill:#7f2543"/><path d="M91.14,13.38c0-.05.56-1.36,1.16-1a2.11,2.11,0,0,1,.88,2.2C93,15.66,92.55,17,91.83,17s-.93.12-1.34-.42a1.4,1.4,0,0,1-.21-1.18l.86-2Z" style="fill:#ffeceb"/><path d="M90.85,13.49s.56-1.35,1.17-1a2.13,2.13,0,0,1,.88,2.19c-.15,1.06-.64,2.38-1.36,2.4s-1,.13-1.34-.41A1.57,1.57,0,0,1,90,15.51l.86-2Z" style="fill:#f2b3a7"/><path d="M91.43,13.79s.25.62.34.89a1.29,1.29,0,0,1,.06.94,2.35,2.35,0,0,1-.27.37,9.5,9.5,0,0,0-.12-1.51,1.48,1.48,0,0,1,0-1.1c.17-.32.3-.72.6-.37a1.82,1.82,0,0,1,.51,1.41,3,3,0,0,1-.52,1.69,2.1,2.1,0,0,1-.7.48,1.77,1.77,0,0,0,.94-1.14c.12-.77.15-1.94-.09-2.14s-.27-.23-.29.06.17.7,0,.57-.25-.53-.37-.36-.07.21-.07.21Z" style="fill:#f69d81"/><path d="M91.32,15.05l-.26-.59c-.13,0-.15,0-.23.24s-.08.29-.28.24-.34-.21-.16.06.21,0,.5.16.21.45.4.47.07-.41,0-.53l0,0Z" style="fill:#f69d81"/><path d="M99.5,23.79s-2.88,5.87-.84,9.46,1.08,12.81,1.08,12.81l1.67,16.64A14.89,14.89,0,0,0,106,64a25.77,25.77,0,0,0,3.47-2.28c-.9-1.89-4.2-9.61-2.87-8,.93,1.11,1.44-9,0-9.93s-1.08-5.63-1.08-5.63,2-18.2-6-14.37Z" style="fill:#3264c8"/><path d="M109.84,59.61l1.78-2s1.45.53,1.74.34.72.58.19.77a3.92,3.92,0,0,1-1.54,0,7.81,7.81,0,0,1-1.16,1.78c-.53.48-1-.87-1-.87Z" style="fill:#f2b3a7"/><polygon points="18.48 98.07 18.22 98.48 14.79 98.28 15.4 97.34 18.48 98.07 18.48 98.07"/><path d="M14.22,95.3c-.15.26.75-.57,1-.17l.22,2.21-.61.94L14,96.73a1.09,1.09,0,0,1-.11-.91,1.82,1.82,0,0,1,.32-.52Z" style="fill:#96242d"/><path d="M15,94.15l-.77,1.16a13.34,13.34,0,0,1,1.52,3.13c.23,1.1,1.17,5.2,2.33,6.85,1.69,2.4,6.34,3.13,6.77,2.72s-.54-1.51-1-2.42a16.2,16.2,0,0,1-1.06-5c0-1,0-3.15-1-3.21a34.6,34.6,0,0,0-3.57.21s-1.51-2.83-1.47-3.72,3.43,3.09,3.43,3.09-4.5-3.84-5.21-2.76Z" style="fill:#96242d"/><path d="M15,94.15,14.4,95s.36.54.72,1.22h0a8.31,8.31,0,0,1,.8,1.91c.07.34.18,1,.35,1.76a14.52,14.52,0,0,0,2,5.09c1.62,2.07,4.85,2.3,5.93,2.66a.7.7,0,0,0,.86-.4c.31-.8-.24-1.28-.6-2A9.15,9.15,0,0,1,23,102.54a12.52,12.52,0,0,1-.22-2,7.78,7.78,0,0,0-.23-2.44c-.15-.44-.38-.75-.75-.77h-.72c-1.17,0-2.85.21-2.85.21s-1.51-2.83-1.47-3.72c0-.74,3.27,3.45,3.39,3.18l0-.08s-3.59-4.5-4.28-3.85A6.59,6.59,0,0,0,15,94.15Z" style="fill:#230101"/><path d="M15.89,93.07l0,.2a8.3,8.3,0,0,1-.74,2.94h0a8.31,8.31,0,0,1,.8,1.91c.07.34.18,1,.35,1.76a3.05,3.05,0,0,1,2.46,1,3.1,3.1,0,0,0,2.89,1.42.6.6,0,0,0,.53-.48s-.12-4-.65-4.31l-.16-.18h-.28c-1.17,0-2.85.21-2.85.21s-1.51-2.83-1.47-3.72c0-.74,3.27,3.45,3.39,3.18l0-.08s-3.59-4.5-4.28-3.85Z" style="fill:#380808"/><path d="M22.21,98.41s.28,3.13.4,3.7a.5.5,0,0,0,.37.43,12.52,12.52,0,0,1-.22-2,7.78,7.78,0,0,0-.23-2.44,1.77,1.77,0,0,0-.32.31Z" style="fill:#380808"/><polygon points="21.41 101.78 21.48 101.8 22.71 101.88 22.82 101.85 22.87 101.74 22.8 101.6 22.73 101.57 21.5 101.49 21.34 101.64 21.41 101.78 21.41 101.78" style="fill:#96242d"/><polygon points="21.42 100.79 21.49 100.81 22.72 100.89 22.88 100.75 22.82 100.61 22.74 100.58 21.51 100.5 21.35 100.65 21.42 100.79 21.42 100.79" style="fill:#96242d"/><polygon points="21.43 99.8 21.51 99.83 22.73 99.91 22.89 99.76 22.83 99.62 22.75 99.59 21.53 99.52 21.36 99.66 21.43 99.8 21.43 99.8" style="fill:#96242d"/><polygon points="21.44 98.81 21.52 98.84 22.74 98.92 22.85 98.88 22.91 98.77 22.84 98.63 22.76 98.61 21.54 98.53 21.37 98.67 21.44 98.81 21.44 98.81" style="fill:#96242d"/><path d="M34.29,23.76V21.69s3.35.16,4,5.9,0,16.28,0,16.28,5.1,3.51,6.38,3.83,4.47.8,4.47.8a12.56,12.56,0,0,0-3,2.08,4.38,4.38,0,0,0-.8,2.47s-8.94-.88-11.65-2.15-5.75-5.43-4-12.77a111.82,111.82,0,0,1,4.63-14.37Z" style="fill:#ebf5fd"/><polygon points="42.73 91.66 42.73 92.16 39.68 93.92 39.68 92.78 42.73 91.66 42.73 91.66"/><path d="M37.52,91.7c0,.3.32-.92.72-.69l1.44,1.76v1.15L38.14,93a1.15,1.15,0,0,1-.61-.72,2.08,2.08,0,0,1,0-.61Z" style="fill:#96242d"/><path d="M37.5,90.29v1.43A8.7,8.7,0,0,0,40,93c1.13.21,4.52,4.23,6.39,5.11,5.89,2.76,6.48.07,6.44-.17A5.48,5.48,0,0,0,50.5,95.1c-1.13-.66-2.17-2.87-2.71-3.73s-1.78-2.71-2.66-2.2a35.56,35.56,0,0,0-2.93,2.2S39.31,89.79,38.84,89a6.06,6.06,0,0,1-.61-1.94,11.46,11.46,0,0,0-.73,3.23Z" style="fill:#96242d"/><path d="M37.5,90.29v1s.61.27,1.3.64h0c.64.35,1.6.09,2,.49.25.25.87,1,1.45,1.62,1.29,1.27,2.86,3.06,4.17,3.63,4.43,1.91,5.77,1.64,6.2,0,.25-1-1.48-2.82-2.37-3.34-.66-.38-.57-.51-1.38-1.37a7.54,7.54,0,0,1-1.08-1.61,8.34,8.34,0,0,0-1.58-2,1,1,0,0,0-1.08-.23l-.38.24-.24.17c-1,.69-2.31,1.79-2.31,1.79S39.31,89.79,38.84,89a6,6,0,0,1-.6-1.85v-.09a15,15,0,0,0-.54,1.78,7.6,7.6,0,0,0-.19,1.45Z" style="fill:#230101"/><path d="M37.69,88.84l.09.19a8.5,8.5,0,0,1,1,2.93h0c.64.35,1.6.08,2,.49s.9,1.09,1.45,1.62a2.22,2.22,0,0,1,2.26-.15,3.18,3.18,0,0,0,3.28-.42.6.6,0,0,0,.18-.71s-2.34-3.32-3-3.32l-.24-.06-.24.17c-1,.69-2.31,1.79-2.31,1.79S39.31,89.79,38.84,89a6,6,0,0,1-.6-1.85v-.09a15,15,0,0,0-.54,1.78Z" style="fill:#380808"/><path d="M46.11,89.85s2,2.52,2.42,2.94a.52.52,0,0,0,.56.16,12.09,12.09,0,0,1-1.3-1.58,8.34,8.34,0,0,0-1.58-2,1.58,1.58,0,0,0-.1.45Z" style="fill:#380808"/><polygon points="47.32 93.19 47.4 93.16 48.49 92.55 48.57 92.45 48.55 92.33 48.41 92.25 48.34 92.27 47.24 92.89 47.18 93.11 47.32 93.19 47.32 93.19" style="fill:#96242d"/><polygon points="46.77 92.33 46.85 92.31 47.95 91.69 48.01 91.47 47.87 91.39 47.79 91.42 46.69 92.04 46.63 92.25 46.77 92.33 46.77 92.33" style="fill:#96242d"/><polygon points="46.23 91.48 46.31 91.46 47.4 90.84 47.46 90.62 47.32 90.54 47.24 90.56 46.15 91.18 46.09 91.4 46.23 91.48 46.23 91.48" style="fill:#96242d"/><polygon points="45.68 90.63 45.76 90.61 46.85 89.99 46.93 89.89 46.91 89.77 46.77 89.69 46.69 89.71 45.6 90.33 45.54 90.55 45.68 90.63 45.68 90.63" style="fill:#96242d"/><path d="M27.48,45c-.2-.35,20.51,7.69,17.9,16.75-1.38,4.8,1.23,27.17,1.23,27.17s-3,3.13-5.38,1.92c-4.82-2.48-3.69-5.07-3.69-5.07s-5.08-11.7-3.6-17.11c.54-2-1.1-3.83-1.55-8.15-1.52-14.65-19.11-1.75-16.9-10,.91-3.36,12-5.5,12-5.5Z" style="fill:#96242d"/><path d="M25.34,44s-.68,5.54.24,5.49,6.08-.87,6.08-.87,11.78,19.84,3.43,27.51c-3.65,3.35-12,22.26-12,22.26s-5.91-.41-7.44-2.56c-3.12-4.42,4.24-16.51,8-20.61,1.38-1.49,6.42-9.74,6.42-9.74s-14-16.75-8.18-23.06C24.27,39.86,25.34,44,25.34,44Z" style="fill:#96242d"/><path d="M25.27,70.85c6.17.72,8.21-6.92,8.21-6.92L19.11,54,29.83,40V39.3l-.95-1c-1.78-1.85-2.54-5.05-5.41-6.69-3.82-2.2,4.65-12.63,4.67-12.69-.58.24-8.62.54-16.76,12.21C5.88,39,4,49.52,4,54.33c0,4.14,18.8,14.16,21.31,16.52Z" style="fill:#ebf5fd"/><path d="M23.59,34.22C32,45.07,7.71,48.35,9.47,51.45c2.28,4,19.61,7.07,22.48,14.75a119.69,119.69,0,0,1,14.63-8.28c-4.89-6.27-13.76-10.45-13.65-11,1-4.66,7.42-11,2.72-22.47-3.11-7.6-3.6-5.38-7.67-3.94s-8.36,8.57-4.39,13.72Z" style="fill:#d2fbfb"/><path d="M37,21.49s-5.15,2.88-4.74,3.72c1.09,2.17,0,2.33-1.55,2.95a6.27,6.27,0,0,1-6.68-2.49c-2.08-2.82.14-3.46.62-4.82.38-1.07,3.58-.79,3.58-2.78S37,21.49,37,21.49Z" style="fill:#b54747"/><path d="M26.16,12.33A7.72,7.72,0,0,1,40.88,9.08h0s1.4,2.52,1.4,3.85-.58.7-.29,2,1.16,1.85.06,4S40.65,23,40.42,23.23s.25,1-3.5.34a14.69,14.69,0,0,1-7.52-3.7,8.73,8.73,0,0,1-1.52-2.7,7.62,7.62,0,0,1-1.72-4.84Z" style="fill:#c35753"/><path d="M41.49,10.3s5.58-3.44-5.76-6.86c-4.1-1.23-9.28,1.24-11,6.22s4.49,10.28,4.49,10.28,1.17-3.74,3.18-3.74,6.09-3.06,7.09-4C40,11.57,40,8.9,40,8.9l1.52,1.4Z" style="fill:#173a48"/><path d="M31.17,15.93S30.54,14.61,30,15a2.13,2.13,0,0,0-.76,2.24c.21,1,.77,2.34,1.48,2.33s.94.07,1.32-.49a1.44,1.44,0,0,0,.15-1.2l-1-2Z" style="fill:#e27676"/><path d="M31.46,16c0-.05-.63-1.33-1.22-.92a2.16,2.16,0,0,0-.76,2.25c.21,1.05.77,2.34,1.48,2.32s.94.08,1.32-.48a1.4,1.4,0,0,0,.15-1.2l-1-2Z" style="fill:#c35753"/><path d="M30.9,16.35s-.22.64-.3.91a1.35,1.35,0,0,0,0,.95,2.74,2.74,0,0,0,.29.36,10.85,10.85,0,0,1,0-1.53,1.46,1.46,0,0,0-.07-1.1c-.19-.3-.34-.7-.62-.33a1.81,1.81,0,0,0-.43,1.44,3,3,0,0,0,.61,1.66,2.19,2.19,0,0,0,.72.44,1.75,1.75,0,0,1-1-1.09c-.17-.76-.25-1.93,0-2.14s.26-.25.28,0-.12.71.08.57.22-.54.35-.38.08.2.08.2Z" style="fill:#96242d"/><path d="M31.08,17.62l.23-.61c.13,0,.15,0,.24.23s.1.28.29.22.33-.23.17.05-.22,0-.5.19-.18.46-.37.49-.09-.41,0-.53l0,0Z" style="fill:#96242d"/><polygon points="56.39 53.53 33.11 59.92 50.03 50.19 73.31 43.79 56.39 53.53 56.39 53.53" style="fill:#bedcfa"/><path d="M50.09,48.26l2.39-.16s1.76,1,2.79.64,1.76.32-.15,1-5.19.48-6.23,1S45,53.37,45,53.37s.56-3.51,2-4.15a16.27,16.27,0,0,1,3.11-1Z" style="fill:#b54747"/><path d="M34.29,53.85,40,50.42s5.91,2.15,7.58,1.91,3-.32,3-.32a1.52,1.52,0,0,1-1.12,1.44c-1.2.48-5,.32-5,.32a2.85,2.85,0,0,1-.88,1.36c-.72.63-2.15,1.75-3.19,1.35s-4.63.08-4.87.08-3.27-.32-1.27-2.71Z" style="fill:#c35753"/><path d="M14,41.16s4.3,11.49,7.66,14S36.4,56.36,36.4,56.36s3.83-2.27.36-4.55c-1.13-.74-10.53-1.91-10.53-1.91s-1.86-12.67-4.55-15.08C14.61,28.47,14,41.16,14,41.16Z" style="fill:#e7f5f7"/><path d="M28.14,18.89s-4.87-2.06-6.24,5.29C21.43,26.69,27,31.29,27,31.29l2.44-.2-1.09,2.22s3.87,5.15,3.87,6,.8-7-2.11-9.92c-2.36-2.36-4.34-2.44-4.66-4.89s2.7-5.65,2.7-5.65Z" style="fill:#05d2d2"/><path d="M32.34,24.87l1.29-1.59A15.8,15.8,0,0,1,34.9,28c.06.51-.93,1.35-1,1.88s1.13-.54,1,0c-1,3.53-2.57,8.61-2.57,8.61s.77-8.22.56-9.92-.56-3.66-.56-3.66Z" style="fill:#05d2d2"/></svg>