<svg xmlns="http://www.w3.org/2000/svg" viewBox="0 0 162.14 260.84"><path d="M34.51,6.31a5.67,5.67,0,0,1,5.72,3.55,5.58,5.58,0,0,1-1,5.49,4.59,4.59,0,0,1-.11,2.75c-.39,1-1.31,2.22-2,2.17C36.25,20.2,35.19,17.65,34.51,6.31Z" style="fill:#283b40"/><path d="M63.18,46.16l14.87,8.49a.85.85,0,0,1,.32,1.14.84.84,0,0,1-1.14.31L72.6,53.46l-1,1.81a.36.36,0,0,1-.49.13.35.35,0,0,1-.14-.49l1-1.81-.6-.35-1,1.81a.35.35,0,0,1-.49.14.36.36,0,0,1-.14-.5l1-1.81L70.12,52l-1,1.82a.36.36,0,0,1-.49.13.36.36,0,0,1-.14-.5l1-1.81-.61-.34-1,1.81a.36.36,0,0,1-.49.13.35.35,0,0,1-.14-.49l1-1.81-.61-.35-1,1.81a.35.35,0,0,1-.49.14.36.36,0,0,1-.14-.5l1-1.81-.61-.35-1,1.81a.37.37,0,0,1-.64-.36l1-1.81-.61-.35-1,1.82a.37.37,0,0,1-.5.13.36.36,0,0,1-.14-.49l1-1.82-.61-.34-1,1.81a.37.37,0,0,1-.5.14.38.38,0,0,1-.14-.5l1-1.81-.61-.35-1,1.81a.36.36,0,0,1-.5.14.37.37,0,0,1-.13-.5l1-1.81.65-1.13v0A.37.37,0,0,1,63.18,46.16Z" style="fill:#82afdc"/><path d="M73.3,56.2c-.52-2,.72-4.68,2.29-5,.5-.11.85.06,3.66,1.83,3.1,2,3.51,2.26,3.89,3,.49.94,1,2.74.23,3.67C81.75,61.55,74.29,60,73.3,56.2Z" style="fill:#b57a64"/><path d="M50.64,74.28a27.26,27.26,0,0,0,5.27,4.81,28,28,0,0,0,13.27,4.8L74,76.34,58.42,66.5Z" style="fill:#b57a64"/><path d="M22.68,241.14c-.42,2.09-.84,4.17-1.25,6.26a32.6,32.6,0,0,0,4,1.67c8.87,3.06,17.48,1.72,17.54.84,0-.59-3.76-.45-8.35-3.34a21.3,21.3,0,0,1-4.8-4.18Z" style="fill:#1e2dbe"/><path d="M9.32,242.18a26.29,26.29,0,0,0-.84,4.8,27.65,27.65,0,0,0,0,4.18,11.74,11.74,0,0,0,4,1.25,11.88,11.88,0,0,0,6.47-1A18.31,18.31,0,0,1,16.63,247a17.86,17.86,0,0,1-1-5Z" style="fill:#1e2dbe"/><path d="M10.13,126l-1.86,5.45c-.28,2.58-.67,6.37-1,11-1.57,19.53-1.14,33.61-.8,48.22.28,11.45.64,28.71.91,51.65A8,8,0,0,0,11.85,244a8.16,8.16,0,0,0,5.4-1.67q2.17-14.64,4.19-29.59,4.18-31.22,7.39-61.34l.87,39.75c-2.08,8.33-4,17.41-5.57,27.19-1.35,8.38-2.29,16.35-2.93,23.82a12.18,12.18,0,0,0,4.47,1.42,12.57,12.57,0,0,0,5.85-.74q3.93-11,7.69-22.78,4.34-13.6,7.86-26.5a303,303,0,0,0,2.54-33.63c.2-10.17-.13-19.66-.78-28.34-.59-2.06-1.18-4.13-1.76-6.19Z" style="fill:#230050"/><path d="M29.54,150.47A34.53,34.53,0,0,0,32.61,147l.1-.13v-.24c0-.84-.07-1.68-.13-2.52,0-.42-.08-.84-.12-1.26,0-.17,0-.41,0-.61l-.05-.64a32.7,32.7,0,0,0-.7-5.07,31.46,31.46,0,0,0-.44,5.1v.64c0,.22,0,.4,0,.66,0,.42.05.85.1,1.27.08.85.16,1.7.28,2.55l.1-.37A31.16,31.16,0,0,0,29.54,150.47Z" style="fill:#151f85"/><path d="M27.9,151.29c.1-.25-2.82-1.72-5.25-2.62-3.37-1.26-7.12-1.92-7.2-1.64C15.3,147.55,27.7,151.78,27.9,151.29Z" style="fill:#151f85"/><path d="M31.6,151a15.89,15.89,0,0,1,5.17-2.66c2-.59,4.48-.89,4.54-.62S39.63,148.69,31.6,151Z" style="fill:#151f85"/><path d="M9.53,123.92c-.16,1.67-.32,3.34-.47,5a50.7,50.7,0,0,0,7.36,2.5c13.14,3.38,24.82.76,31.78-1.56l-.63-5.33Z" style="fill:#151f85"/><path d="M29.66,43.31a17.51,17.51,0,0,1,10.74,1c3.49,1.63,5.36,4.18,7,6.33a190.35,190.35,0,0,0,13.72,16,14.33,14.33,0,0,1-1.92,3.92,15.78,15.78,0,0,1-8.38,5.92,74.5,74.5,0,0,1-7.35-7.66A75.54,75.54,0,0,1,29.66,43.31Z" style="fill:#05d2d2"/><path d="M8.27,107.32c0,5.87-.11,11.74-.2,17.56a44.69,44.69,0,0,0,24.69,5.34,43.84,43.84,0,0,0,15.62-4.3A231.21,231.21,0,0,0,48,92.63c-.11-1.33-.22-2.63-.36-3.94-.06-.66-.12-1.32-.2-2s-.14-1.29-.21-1.92-.15-1.33-.24-2-.16-1.29-.25-1.93-.18-1.32-.28-2-.17-1.29-.27-1.93-.2-1.31-.31-2a231.11,231.11,0,0,0-7-30.33,29.4,29.4,0,0,0-30.9,4.8q.21,14.3.28,28.78v4c0,.66,0,1.33,0,2v5.9c0,.66,0,1.31,0,2Q8.34,99.68,8.27,107.32Z" style="fill:#05d2d2"/><path d="M14.62,45.28c.51.93,1.23,2.17,2.15,3.6,3.19,4.93,7,10.85,10.19,10.3.76-.13,2.22-.77,3.54-4.35q3.47,2.7,4.58,1.94,2-1.35-3.55-13.84a24.4,24.4,0,0,0-4.87-.57A25.36,25.36,0,0,0,14.62,45.28Z" style="fill:#05bdbd"/><path d="M15.06,23.1A91.66,91.66,0,0,1,16.7,33.3a90.8,90.8,0,0,1,.43,12.23c6.18,6.69,11.66,10.42,13.79,9,2.36-1.55,0-9.06-.6-11q-.24-8.1-.49-16.21Z" style="fill:#a16c59"/><path d="M13.39,25.72c.58,2.49,1.37,5.94,4.34,8.9s8.75,6.13,14.45,3.84a12,12,0,0,0,7-7.9c.48-1.93,0-2.4-.83-8.49-1-7.87-.38-8.55-1.6-10.73a12.63,12.63,0,0,0-8.71-6c-5.55-1-10.6,2.2-13.19,5.84C11.22,16.3,12.59,22.22,13.39,25.72Z" style="fill:#b57a64"/><path d="M15.74,22.31a3.88,3.88,0,0,0-4.33.6c-1.42,1.52-.67,4.24.88,5.55a4.71,4.71,0,0,0,3.71.89C15.91,27,15.83,24.65,15.74,22.31Z" style="fill:#b57a64"/><path d="M55.34,87.6a96.59,96.59,0,0,1-11.44,5,99.34,99.34,0,0,1-26.32,5.72,67.59,67.59,0,0,1-16-39.13,12.6,12.6,0,0,1,4.12-7.78A12.21,12.21,0,0,1,11.4,48.7,117.46,117.46,0,0,0,23.07,84.86c4.59,0,9.57-.21,14.88-.69s10.5-1.22,15.1-2.06Q54.21,84.85,55.34,87.6Z" style="fill:#b57a64"/><path d="M14.26,45.9a16,16,0,0,0-9.95,4.59A16.15,16.15,0,0,0,.88,56.22c-1.62,4.58-.72,8.57.45,13.5a54.15,54.15,0,0,0,5.5,14,19,19,0,0,0,8.23-2.06,18.82,18.82,0,0,0,6.18-5c-1-3-2-6.21-3-9.61A140.75,140.75,0,0,1,14.26,45.9Z" style="fill:#05d2d2"/><path d="M88.28,63.73a22,22,0,0,1,3.55,7.52c2,8.2-2.59,11.43-.42,19.41,1.14,4.19,3.26,6.42,2.09,9.6a8.11,8.11,0,0,1-3.55,4,37.46,37.46,0,0,0-4.6-4.18A36.94,36.94,0,0,0,77,95.25a52,52,0,0,1,.84-8.35A54.25,54.25,0,0,1,88.28,63.73Z" style="fill:#26343d"/><path d="M131.33,156.41h-42a2.24,2.24,0,0,1-2.24-2.24h0a2.24,2.24,0,0,1,2.24-2.24h42a2.24,2.24,0,0,1,2.24,2.24h0A2.24,2.24,0,0,1,131.33,156.41Z" style="fill:#748ea8"/><rect x="141.27" y="232.35" width="3.76" height="13.6" transform="translate(-78.29 69.89) rotate(-21.7)" style="fill:#8ea1b8"/><path d="M52.81,188.11H49.44v16.17c1.12-.05,2.25-.11,3.37-.14Z" style="fill:#8ea1b8"/><ellipse cx="122.78" cy="214.21" rx="19.94" ry="32.35" style="fill:#cedced;opacity:0.6000000000000001"/><path d="M122.51,252c-14.49,0-26.28-16.79-26.28-37.42s11.79-37.42,26.28-37.42S148.8,194,148.8,214.59,137,252,122.51,252Zm0-71.5c-12.48,0-22.63,15.29-22.63,34.08s10.15,34.08,22.63,34.08,22.64-15.29,22.64-34.08S135,180.51,122.51,180.51Z" style="fill:#bedcfa"/><path d="M118.3,254.8c-15.86,0-28.77-18.27-28.77-40.72s12.91-40.72,28.77-40.72,28.77,18.27,28.77,40.72S134.16,254.8,118.3,254.8Zm0-77c-13.18,0-23.9,16.27-23.9,36.26s10.72,36.26,23.9,36.26,23.9-16.27,23.9-36.26S131.48,177.82,118.3,177.82Z" style="fill:#025454"/><path d="M141.79,231.94H105.55A1.54,1.54,0,0,1,104,230.4h0a1.54,1.54,0,0,1,1.54-1.55h36.24a1.54,1.54,0,0,1,1.54,1.55h0A1.54,1.54,0,0,1,141.79,231.94Z" style="fill:#8ea1b8"/><rect x="43.75" y="103.77" width="47.39" height="16.88" rx="4.33" style="fill:#151f85"/><rect x="47.68" y="103.77" width="47.39" height="16.88" rx="4.33" style="fill:#151f85"/><rect x="83.11" y="170.63" width="3.11" height="14.04" style="fill:#b4c7db"/><rect x="56.33" y="170.63" width="3.11" height="14.04" style="fill:#b4c7db"/><rect x="42.67" y="123.46" width="50.84" height="49.99" rx="5.25" style="fill:#151f85"/><rect x="47.45" y="123.46" width="50.84" height="49.99" rx="5.25" style="fill:#151f85"/><rect x="60.83" y="125.06" width="1.12" height="46.34" style="fill:#151f85"/><rect x="86.3" y="125.06" width="1.12" height="46.34" style="fill:#151f85"/><rect x="44.36" y="183.55" width="66.85" height="7.95" rx="2.76" style="fill:#151f85"/><path d="M147.62,239.64H116.47A7,7,0,0,1,110.3,235L96.65,194.36c-.86-2.56.52-4.62,3.07-4.62h31.15a7,7,0,0,1,6.17,4.62L150.69,235C151.55,237.57,150.17,239.64,147.62,239.64Z" style="fill:#151f85"/><path d="M151.37,239.64H120.21A7.05,7.05,0,0,1,114,235l-13.65-40.65c-.85-2.56.52-4.62,3.07-4.62h31.16a7,7,0,0,1,6.17,4.62L154.44,235C155.29,237.57,153.92,239.64,151.37,239.64Z" style="fill:#151f85"/><path d="M80.24,95.46q1,6.21,1.94,12.53,3.15,21.24,5.22,41.54c2.62.54,5.34,1,8.14,1.46a157.59,157.59,0,0,0,29.86,1.67,6.46,6.46,0,0,0,2.71-4.38,6.36,6.36,0,0,0-1.25-4.59L99.3,139.3a124.29,124.29,0,0,0-2.92-17.53C92,103.77,87.32,99.58,85.05,98A20,20,0,0,0,80.24,95.46Z" style="fill:#96242d"/><path d="M52.81,214v-9.82c-1.12,0-2.25.09-3.37.14v11.36a1.69,1.69,0,0,0,1.69,1.69H98.9V214Z" style="fill:#8ea1b8"/><path d="M127.29,199a80.65,80.65,0,0,0,1.25,9.6,81.64,81.64,0,0,0,12.3,29.63,27.74,27.74,0,0,0,6.68,1c2.66.08,8.95-.12,9.4-2.09.09-.4.15-1.81-4.8-4.59q-1.41-4.91-2.72-10c-2.38-9.31-4.29-18.3-5.83-26.91Z" style="fill:#d2fbfb"/><path d="M133.39,226.46a52.92,52.92,0,0,0,.71-7.12A53.49,53.49,0,0,0,132,202.86l-4.11.92q1.38,5.33,2.71,10.84Q132.1,220.62,133.39,226.46Z" style="fill:#9ef2f2"/><path d="M108.49,200.68a66.63,66.63,0,0,0,1.25,9.6,71.14,71.14,0,0,0,12.11,27.35,24.11,24.11,0,0,0,7.09,1.67c4.12.33,10.24-.28,10.65-2.3.12-.57-.07-2-5.22-4.8-.26-2.77-.6-5.63-1-8.56a164.18,164.18,0,0,0-6.26-26.51Z" style="fill:#d2fbfb"/><path d="M63.53,155.17c-.73,2.32-1.69,5.66-2.58,9.75-1.64,7.58-2.42,11.37-1.18,14.26,1.46,3.42,5.07,5.29,16.15,8.14a220.46,220.46,0,0,0,27.56,5.22,47.13,47.13,0,0,0,4.8,15,44.45,44.45,0,0,0,7.51.42c6.61-.19,11.53-1.81,17.64-3.87a115.49,115.49,0,0,0,12.22-4.9,67.71,67.71,0,0,0-1.67-8.56,66.14,66.14,0,0,0-2.72-8.14,182.77,182.77,0,0,0-18-10.44A184.39,184.39,0,0,0,94.92,160.6Z" style="fill:#049393"/><path d="M74.67,94.21c-3.25-.14-7.7.22-11,3.1-6.5,5.69-3,17.86-2.18,40.53a227.64,227.64,0,0,1-.41,23.59l-1.05,5.43a77.85,77.85,0,0,0,45.2-3.13l-4.7-5q-1.29-4.84-2.5-10c-1.29-5.48-2.38-10.8-3.3-15.92a15,15,0,0,0,3.13-9.6c-.24-3.41-1.81-4.52-5.27-10.22-6.1-10.07-5.34-13.63-10.22-16.5A17.37,17.37,0,0,0,74.67,94.21Z" style="fill:#fa3c4b"/><path d="M68.13,99.53l5,8.67,7.2-1.67h5.74a48.06,48.06,0,0,0-2.4-5.43c-2.06-4-3.09-6-5.11-7.31-2.94-1.91-8.1-2.68-10.13,0C66.91,95.81,67.89,98.85,68.13,99.53Z" style="fill:#96242d"/><path d="M64.89,113.47c.51,2.67,1,5.54,1.26,8.61a99.47,99.47,0,0,1,.31,15.81q19.59,5.55,19.42,6.27t-24.12-4.23Q63.34,126.7,64.89,113.47Z" style="fill:#96242d"/><ellipse cx="149.45" cy="250.74" rx="5.24" ry="8.62" style="fill:#17212e"/><ellipse cx="147.94" cy="250.74" rx="5.24" ry="8.62" style="fill:#27384f"/><path d="M149.45,250.7c0,2.15-.85,3.89-1.89,3.89s-1.9-1.74-1.9-3.89.85-3.9,1.9-3.9S149.45,248.54,149.45,250.7Z" style="fill:#8ea1b8"/><path d="M152.05,242.58l-2.38.38a5.6,5.6,0,0,0-3,.16,6.27,6.27,0,0,0-3.63,3.63,5.84,5.84,0,0,1,2.39-4.66A5.62,5.62,0,0,1,152.05,242.58Z" style="fill:#8ea1b8"/><path d="M88.46,156.41h-42a2.24,2.24,0,0,1-2.24-2.24h0a2.24,2.24,0,0,1,2.24-2.24h42a2.24,2.24,0,0,1,2.24,2.24h0A2.24,2.24,0,0,1,88.46,156.41Z" style="fill:#748ea8"/><path d="M65.69,96.71a11.11,11.11,0,0,0-4.8,1.47c-4.18,2.47-5.51,7.35-6.27,10.64-3.18,13.91-5.09,39-5.21,40.71,2.62.54,5.33,1,8.14,1.46a157.45,157.45,0,0,0,29.85,1.67,6.39,6.39,0,0,0,2.71-4.38,6.31,6.31,0,0,0-1.25-4.59L63,139.51q.84-6.78,1.46-14C65.29,115.41,65.66,105.78,65.69,96.71Z" style="fill:#fa3c4b"/><path d="M66.86,77.65a82.65,82.65,0,0,1,2.06,9.68,83.28,83.28,0,0,1,.9,9Q78.55,107.1,80.48,106q1.67-.94-1.63-10.54,1-6.72,2-13.44Z" style="fill:#f2a488"/><polygon points="108.61 247.68 112.12 246.37 92.44 193.81 45.65 193.81 45.65 197.56 89.84 197.56 108.61 247.68" style="fill:#8ea1b8"/><ellipse cx="113.28" cy="252.22" rx="5.24" ry="8.62" style="fill:#17212e"/><ellipse cx="111.76" cy="252.22" rx="5.24" ry="8.62" style="fill:#27384f"/><path d="M113.28,252.17c0,2.16-.85,3.9-1.9,3.9s-1.89-1.74-1.89-3.9.84-3.89,1.89-3.89S113.28,250,113.28,252.17Z" style="fill:#8ea1b8"/><path d="M115.87,244.06l-2.38.37a5.74,5.74,0,0,0-3,.17,6.23,6.23,0,0,0-3.62,3.62,5.83,5.83,0,0,1,2.38-4.65A5.61,5.61,0,0,1,115.87,244.06Z" style="fill:#8ea1b8"/><ellipse cx="55.8" cy="215.32" rx="19.94" ry="32.35" style="fill:#ebf5fd;opacity:0.6000000000000001"/><path d="M55.2,255.91c-15.87,0-28.77-18.26-28.77-40.72s12.9-40.71,28.77-40.71S84,192.74,84,215.19,71.06,255.91,55.2,255.91Zm0-77c-13.18,0-23.9,16.27-23.9,36.26S42,251.45,55.2,251.45s23.9-16.26,23.9-36.26S68.38,178.93,55.2,178.93Z" style="fill:#025454"/><path d="M50.89,253.13c-14.5,0-26.29-16.79-26.29-37.43s11.79-37.42,26.29-37.42,26.28,16.79,26.28,37.42S65.38,253.13,50.89,253.13Zm0-71.5c-12.48,0-22.63,15.28-22.63,34.07s10.15,34.08,22.63,34.08S73.52,234.5,73.52,215.7,63.37,181.63,50.89,181.63Z" style="fill:#bedcfa"/><path d="M55.2,214.93c0,2.87-1.67,5.2-3.73,5.2s-3.74-2.33-3.74-5.2,1.67-5.19,3.74-5.19S55.2,212.07,55.2,214.93Z" style="fill:#8ea1b8"/><path d="M159.92,243.59H116.47a2.21,2.21,0,0,1-2.22-2.22h0a2.21,2.21,0,0,1,2.22-2.22h43.45a2.22,2.22,0,0,1,2.22,2.22h0A2.22,2.22,0,0,1,159.92,243.59Z" style="fill:#151f85"/><path d="M155.25,236.59c.15-.83-2.21-2.32-4.59-2.3-2.65,0-5,1.89-4.81,2.71C146.25,238.45,155,238.08,155.25,236.59Z" style="fill:#fabea8"/><path d="M138.76,236.59c.15-.83-2.22-2.32-4.6-2.3-2.64,0-5,1.89-4.8,2.71C129.76,238.45,138.48,238.08,138.76,236.59Z" style="fill:#fabea8"/><path d="M86.5,144.78a4.29,4.29,0,0,1,3.6.32c.77.43,1,.87,2.35,2.81,2,2.86,2.15,2.61,2.51,3.45.18.42,1.37,3.25,0,5.32-1.78,2.67-6.78,2.51-7.36,1.25-.23-.48.19-1.18.62-1.72-.4-.48-1-1.17-1.56-2-1.3-1.84-2-2.76-2.19-3.76C84,148.55,84.55,145.69,86.5,144.78Z" style="fill:#fabea8"/><path d="M125.8,144.93a4.29,4.29,0,0,1,3.6.32c.77.43,1,.87,2.35,2.81,2.05,2.86,2.15,2.61,2.51,3.45.18.42,1.37,3.25,0,5.32-1.78,2.67-6.78,2.51-7.36,1.26-.23-.49.19-1.18.62-1.73-.4-.48-1-1.17-1.56-2-1.3-1.84-2-2.76-2.19-3.76C123.32,148.7,123.85,145.84,125.8,144.93Z" style="fill:#fabea8"/><path d="M65.21,77.61c.49,2.39,1.16,5.7,3.93,8.61s8.21,6.06,13.71,4a11.42,11.42,0,0,0,6.9-7.39c.51-1.83,0-2.29-.59-8.13-.8-7.54-.15-8.17-1.27-10.28a12,12,0,0,0-8.18-5.95C74.44,57.44,69.54,60.33,67,63.74,63.37,68.56,64.53,74.25,65.21,77.61Z" style="fill:#fabea8"/><path d="M73.66,61.64a9.5,9.5,0,0,0-4,3.34c-2.74,4.24-.6,9.7.83,14.82,2.83,10.16,4.37,24.43.84,26.31-1.33.7-4.2.11-11.28-7.31q-1.67,1.68-3.34,3.34a36.91,36.91,0,0,0,2.51-9c1.31-9-1.65-12.28-.42-20.46.55-3.65,1.41-9.4,5.85-13.16,6.72-5.7,16.79-2.72,18.16-2.29,3.72,1.16,6.45,3.68,6.89,6.68a6.38,6.38,0,0,1-.21,2.71c-3-.75-6.13-1.64-9.4-2.71Q76.76,62.83,73.66,61.64Z" style="fill:#26343d"/><path d="M71.78,120.3l8.77-2.08-3.55,4Z" style="fill:#96242d"/><path d="M49.63,83.77a3.74,3.74,0,0,1,.81-2.32c.73-.85,1.41-.66,3.8-1.6a21,21,0,0,0,3.68-1.69c.92-.56,1.57-1.08,1.87-.86s0,1.24-.08,1.37a4.18,4.18,0,0,1-2.2,2.18c.92-.18,1.85-.35,2.82-.51s1.72-.28,2.55-.39a3.11,3.11,0,0,1,1.43-.82,3.24,3.24,0,0,1,2.12.2A3.56,3.56,0,0,1,67.9,80a3.73,3.73,0,0,1,.77.82l-1.21,1L67,82.91a10.8,10.8,0,0,0-1.55.87,14.09,14.09,0,0,0-2,1.62c-1.09,1-2.3,1.19-4.18,1.61-2.1.47-4.57,1.08-7.79,1.94Z" style="fill:#b57a64"/><path d="M13.68,22a2.73,2.73,0,0,0,2.29.23c1.82-.8,2.33-4.77,1-10a22.7,22.7,0,0,0,5.49.81,23.49,23.49,0,0,0,10.76-2.41c3.32,2.79,4.25,2.32,4.46,2.18.65-.45.22-2.48-.68-6.53-.8-3.6-1.12-4-1.38-4.34C33.46-.55,28.55.57,27.53.82A7,7,0,0,0,23.75,0a7.64,7.64,0,0,0-5.49,3.43A9.67,9.67,0,0,0,12.88,6.2a10,10,0,0,0-2.63,7.44A4,4,0,0,0,8.88,17,3.79,3.79,0,0,0,11.17,20,1.94,1.94,0,0,0,10.59,22C11,22.63,12.34,22.9,13.68,22Z" style="fill:#283b40"/></svg>