<?xml version="1.0" encoding="utf-8"?>
<!-- Generator: Adobe Illustrator 25.4.0, SVG Export Plug-In . SVG Version: 6.00 Build 0)  -->
<svg version="1.1" id="Layer_1" xmlns="http://www.w3.org/2000/svg" xmlns:xlink="http://www.w3.org/1999/xlink" x="0px" y="0px"
	 viewBox="0 0 113.5 113.4" style="enable-background:new 0 0 113.5 113.4;" xml:space="preserve">
<style type="text/css">
	.paper {fill:#230050;}
	.st1 {fill:#9EF2F2;}
	.st2 {fill:#FA3C4B;}
</style>
<g>

		<rect x="67.2" y="54.4" transform="matrix(0.7071 -0.7071 0.7071 0.7071 -23.8847 70.8573)" class="paper" width="12.7" height="19.8"/>
	<polygon class="st1" points="56.6,62.4 56.6,62.4 56.6,62.4 	"/>
	<path class="paper" d="M75,79.9C75,79.9,74.9,79.9,75,79.9l-17-17c-0.4-0.4-0.9-0.5-1.4-0.5c-0.5,0-1,0.2-1.3,0.5l-5.7,5.7
		c-0.7,0.7-0.7,1.9,0,2.6c0,0,0,0,0,0l17,17c0.7,0.7,1.9,0.7,2.7,0c0,0,0,0,0,0l5.7-5.7C75.7,81.8,75.7,80.7,75,79.9z"/>
	<path class="paper" d="M79.2,39.7c-0.5,0-1,0.2-1.3,0.6l-5.7,5.7c-0.7,0.7-0.7,1.9,0,2.7l17,17c0.7,0.7,1.9,0.7,2.7,0l5.7-5.7
		c0.7-0.7,0.7-1.9,0-2.7l-17-17C80.2,39.9,79.7,39.7,79.2,39.7z"/>
	<polygon class="st1" points="79.2,39.7 79.2,39.7 79.2,39.7 	"/>
	<path class="st2" d="M77.4,98.3v-1.9c0-1-0.8-1.9-1.9-1.9c0,0,0,0,0,0H49c-1,0-1.9,0.8-1.9,1.9c0,0,0,0,0,0v1.9H77.4z"/>
	<path class="st1" d="M43.4,99.1v-2.7c0-3.1,2.5-5.6,5.6-5.7h14.7L46.9,73.9c-2.2-2.2-2.2-5.8,0-8l5.7-5.7c1-1,2.4-1.6,3.9-1.6
		c0.9,0,1.9,0.2,2.7,0.7l9.4-9.4c-1.1-2.2-0.7-4.9,1-6.7l5.6-5.6c2.1-2.1,5.5-2.2,7.8-0.2V18.9H69.8c-3.1,0-5.6-2.5-5.7-5.7V0H5.7
		C2.5,0,0,2.5,0,5.7v102c0,3.1,2.5,5.7,5.7,5.7h32.4c-0.2-0.6-0.4-1.2-0.4-1.9v-3.8C37.8,104,40,100.6,43.4,99.1z M51,83.2
		c1,0,1.9,0.8,1.9,1.9c0,1-0.8,1.9-1.9,1.9H28.3c-1,0-1.9-0.8-1.9-1.8s0.8-1.9,1.8-1.9H51z M13.1,83.2h8.1c1,0,1.9,0.8,1.9,1.9
		c0,1-0.8,1.9-1.9,1.9h-8c-1,0-1.9-0.8-1.9-1.8C11.3,84,12.1,83.2,13.1,83.2z M13.2,75.6c-1,0-1.9-0.8-1.9-1.9c0-1,0.8-1.9,1.9-1.9
		c0,0,0,0,0,0h28.3c1,0,1.9,0.8,1.9,1.9c0,1-0.8,1.9-1.9,1.9H13.2z M11.3,62.4c0-1,0.8-1.9,1.9-1.9h15.1c1,0,1.9,0.8,1.9,1.9
		c0,1-0.8,1.9-1.9,1.9c0,0,0,0,0,0H13.2C12.2,64.2,11.3,63.4,11.3,62.4z M35.8,60.5h7.6c1,0,1.9,0.8,1.9,1.9c0,1-0.8,1.9-1.9,1.9
		h-7.6c-1,0-1.9-0.8-1.9-1.9C34,61.3,34.8,60.5,35.8,60.5z M58.8,52.9c-0.1,0-0.2,0-0.3,0H13.2c-1,0-1.9-0.9-1.8-2
		c0-0.9,0.8-1.7,1.7-1.8h45.4c1-0.1,1.9,0.7,2,1.7S59.8,52.8,58.8,52.9z M66.1,41.6C66.1,41.6,66.1,41.6,66.1,41.6H27.8
		c-1,0-1.9-0.8-1.9-1.8c0-1,0.8-1.9,1.8-1.9H66c1,0,1.9,0.8,1.9,1.9C67.9,40.7,67.1,41.6,66.1,41.6z M24,15.1h30.7
		c1,0,1.9,0.8,1.9,1.9c0,1-0.8,1.9-1.9,1.9H24c-1,0-1.9-0.8-1.9-1.9C22.2,16,23,15.1,24,15.1z M13.1,26.5h56.7c1,0,1.9,0.8,1.9,1.9
		s-0.8,1.9-1.9,1.9H13.2c-1,0-1.9-0.8-1.9-1.8C11.3,27.4,12.1,26.5,13.1,26.5z M13.1,37.8h7.6c1,0,1.9,0.8,1.9,1.9
		c0,1-0.8,1.9-1.9,1.9h-7.5c-1,0-1.9-0.8-1.9-1.8C11.3,38.7,12.1,37.8,13.1,37.8z M37.7,98.3C37.7,98.3,37.7,98.3,37.7,98.3H13.2
		c-1,0-1.9-0.8-1.9-1.8c0-1,0.8-1.9,1.8-1.9h24.6c1,0,1.9,0.8,1.9,1.9C39.6,97.4,38.8,98.3,37.7,98.3z"/>
	<path class="st1" d="M69.7,15.1c0,0,0.1,0,0.1,0h12.1l-14-14v12.1C67.9,14.2,68.7,15.1,69.7,15.1z"/>
	<path class="st2" d="M77.3,102.1H47.2c-3.1,0-5.6,2.5-5.7,5.7v3.8c0,1,0.8,1.9,1.9,1.9h37.7c1,0,1.9-0.9,1.9-1.9v-3.8
		C83,104.6,80.5,102.1,77.3,102.1z"/>
	<path class="st1" d="M77.6,85.3l-5.4,5.5h3.3c3.1,0,5.6,2.6,5.6,5.7v2.7c0.7,0.3,1.3,0.7,1.9,1.1V88l-4-5.1
		C78.8,83.8,78.3,84.6,77.6,85.3z"/>
	<path class="paper" d="M110.8,89.4L86.9,70.2l-7.3,7.4l19.1,23.9c3.1,3.9,8.9,3.5,12.2,0.1C114.2,98.3,114.6,92.5,110.8,89.4z"/>
</g>
</svg>
