<svg xmlns="http://www.w3.org/2000/svg" viewBox="0 0 59.77 59.87"><path d="M.33,0H59.44a.33.33,0,0,1,.33.33v59.2a.34.34,0,0,1-.33.34H.33A.34.34,0,0,1,0,59.53V.33A.33.33,0,0,1,.33,0Z" style="fill:#e11484;fill-rule:evenodd"/><path d="M19.29,10.18v-5h1.27a1.14,1.14,0,0,1,.84.34,1.16,1.16,0,0,1,.34.85V6.8a1.18,1.18,0,0,1-.59,1.07l.77,2.31h-.77L20.47,8H20v2.16Zm1.61-3A.51.51,0,0,0,21,7a.93.93,0,0,0,0-.24V6.33A.51.51,0,0,0,20.89,6a.43.43,0,0,0-.36-.15H20V7.38h.5a.49.49,0,0,0,.38-.16Z" style="fill:#fff"/><path d="M24.39,9.46v.72H22.23v-5h2.16V5.8H22.94V7.29h1.27V8H22.94V9.46Z" style="fill:#fff"/><path d="M25.88,5.14a1.18,1.18,0,0,1,1.19,1.17V8.93a1.22,1.22,0,0,1-.34.91,1.16,1.16,0,0,1-.87.34H24.73v-5Zm.47,3.79V6.31A.45.45,0,0,0,26.2,6a.51.51,0,0,0-.37-.15h-.38v3.7h.35c.37,0,.55-.19.55-.58Z" style="fill:#fff"/><path d="M30,9.66a1.21,1.21,0,0,1-.43.41,1,1,0,0,1-.57.16,1.19,1.19,0,0,1-.32-.05,1.36,1.36,0,0,1-.28-.11,1.53,1.53,0,0,1-.25-.16A.69.69,0,0,1,28,9.7a1.2,1.2,0,0,1-.15-.37,1.79,1.79,0,0,1,0-.34V5.14h.72v4a.82.82,0,0,0,.12.21.39.39,0,0,0,.34.13.37.37,0,0,0,.32-.15A.62.62,0,0,0,29.42,9V5.14h.73V9a2,2,0,0,1,0,.35,1.27,1.27,0,0,1-.13.32Z" style="fill:#fff"/><path d="M33.06,8.91a2.58,2.58,0,0,1,0,.42,1.11,1.11,0,0,1-.15.37,1.12,1.12,0,0,1-.18.21,1.25,1.25,0,0,1-.22.16,1.19,1.19,0,0,1-.26.11,1,1,0,0,1-.28.05,1.38,1.38,0,0,1-.62-.14,1,1,0,0,1-.4-.37,1.33,1.33,0,0,1-.17-.4,2.63,2.63,0,0,1,0-.41V6.31a2,2,0,0,1,0-.37,1.14,1.14,0,0,1,.18-.37,1.2,1.2,0,0,1,.39-.34,1.07,1.07,0,0,1,.52-.14,1.2,1.2,0,0,1,1.21,1.22v.27h-.72V6.31A.51.51,0,0,0,32.22,6a.39.39,0,0,0-.34-.15.4.4,0,0,0-.33.15.56.56,0,0,0-.11.35v2.8a.62.62,0,0,0,.1.25.4.4,0,0,0,.35.15.37.37,0,0,0,.34-.13.71.71,0,0,0,.1-.2.87.87,0,0,0,0-.18V8.75h.72Z" style="fill:#fff"/><path d="M35.77,9.46v.72H33.61v-5h2.16V5.8H34.32V7.29h1.27V8H34.32V9.46Z" style="fill:#fff"/><path d="M37.26,5.14a1.18,1.18,0,0,1,1.19,1.17V8.93a1.22,1.22,0,0,1-.34.91,1.15,1.15,0,0,1-.87.34H36.12v-5Zm.48,3.79V6.31A.46.46,0,0,0,37.58,6a.5.5,0,0,0-.37-.15h-.38v3.7h.36c.36,0,.55-.19.55-.58Z" style="fill:#fff"/><path d="M19.4,17.15v-5h.72v5Z" style="fill:#fff"/><path d="M22.55,17.15l-1.12-3.07v3.07h-.72v-5h.68l1.12,3.06V12.1h.72v5Z" style="fill:#fff"/><path d="M25.84,16.42v.73H23.67v-5h2.17v.66H24.39v1.49h1.27v.69H24.39v1.48Z" style="fill:#fff"/><path d="M26.37,16.75a.93.93,0,0,1-.24-.4,2.31,2.31,0,0,1-.05-.49V13.35a1.3,1.3,0,0,1,.35-.92,1.16,1.16,0,0,1,.89-.38,1.19,1.19,0,0,1,.85.36,1.12,1.12,0,0,1,.36.84v2.61a2.33,2.33,0,0,1,0,.32.83.83,0,0,1-.06.21l.47.4-.4.48-.45-.36a1.23,1.23,0,0,1-.8.27,1.18,1.18,0,0,1-.5-.12,1.23,1.23,0,0,1-.4-.31Zm1.2-1.08.24.19V13.35a.64.64,0,0,0-.14-.41.48.48,0,0,0-.8.08.58.58,0,0,0-.06.17s0,.09,0,.16v2.56a.59.59,0,0,0,.13.39.5.5,0,0,0,.57.13l-.33-.28Z" style="fill:#fff"/><path d="M31.29,16.62a1.3,1.3,0,0,1-.43.41,1,1,0,0,1-.57.16,1.12,1.12,0,0,1-.32,0,1.48,1.48,0,0,1-.29-.12,1.43,1.43,0,0,1-.24-.16,1,1,0,0,1-.16-.21,2.05,2.05,0,0,1-.15-.37,1.72,1.72,0,0,1,0-.34V12.1h.73v4a.7.7,0,0,0,.11.21.4.4,0,0,0,.34.13.37.37,0,0,0,.33-.15.67.67,0,0,0,.11-.37V12.1h.72V16a1.9,1.9,0,0,1,0,.35,1.27,1.27,0,0,1-.13.32Z" style="fill:#fff"/><path d="M31.74,17.15l1.13-5h.63l1.13,5h-.78l-.2-1.09h-.94l-.21,1.09Zm1.1-1.76h.68l-.34-1.84Z" style="fill:#fff"/><path d="M37.16,17.15H35v-5h.72v4.32h1.44Z" style="fill:#fff"/><path d="M37.31,17.15v-5H38v5Z" style="fill:#fff"/><path d="M39.34,17.15V12.77h-.85V12.1h2.44v.67h-.87v4.38Z" style="fill:#fff"/><path d="M41.16,17.15v-5h.71v5Z" style="fill:#fff"/><path d="M44.65,16.42v.73H42.49v-5h2.16v.66H43.2v1.49h1.27v.69H43.2v1.48Z" style="fill:#fff"/><path d="M45.56,15.89v.22a.59.59,0,0,0,.12.21.42.42,0,0,0,.37.15.64.64,0,0,0,.28-.06.4.4,0,0,0,.19-.17.33.33,0,0,0,0-.16.69.69,0,0,0,0-.13v-.49a.48.48,0,0,0-.06-.26.83.83,0,0,0-.27-.22,5.27,5.27,0,0,0-.52-.21,1.39,1.39,0,0,1-.61-.43,1.16,1.16,0,0,1-.25-.8v-.22a1.25,1.25,0,0,1,.34-.89,1.16,1.16,0,0,1,.86-.38,1.18,1.18,0,0,1,.88.37,1.29,1.29,0,0,1,.35.9v.22h-.72v-.22a.31.31,0,0,0,0-.1.19.19,0,0,0,0-.08.16.16,0,0,0,0-.09l-.09-.13a.4.4,0,0,0-.35-.15.44.44,0,0,0-.36.16.56.56,0,0,0-.14.39v.29a.54.54,0,0,0,0,.24.56.56,0,0,0,.24.19l.18.08.31.12a1.48,1.48,0,0,1,.64.43,1.09,1.09,0,0,1,.29.81v.41a1.84,1.84,0,0,1-.05.44,1.64,1.64,0,0,1-.31.53,1.31,1.31,0,0,1-1.83-.09,1.53,1.53,0,0,1-.3-.88v-.18h.74Z" style="fill:#fff"/><path d="M5.88,17.05V6.78L4.15,8.08V6.24L5.88,5H7.6V17.05Z" style="fill:#fff"/><path d="M11.78,17.09a2.49,2.49,0,0,1-2.21-2.24V7.08a2.37,2.37,0,0,1,1.24-1.91,3.34,3.34,0,0,1,1.39-.3,3.8,3.8,0,0,1,.93.11,4.2,4.2,0,0,1,1,.84,2.45,2.45,0,0,1,.54,1.26v7.74a2.52,2.52,0,0,1-1.87,2.25H12.5c-.06,0-.3,0-.72,0ZM12,15.36a1,1,0,0,0,1-.72V7.35a2.94,2.94,0,0,0-.23-.55,1,1,0,0,0-.6-.24.62.62,0,0,0-.5.24,1.47,1.47,0,0,0-.31.55V14.6A1,1,0,0,0,12,15.36Z" style="fill:#fff"/><path d="M24.41,32.22V36H35.8V32.22Zm0,7v3.86H35.8V39.25Zm5.68-17.33-5.65,5.65H35.75Zm-10,10-5.64,5.64,5.64,5.65Zm20.05,0V43.16l5.6-5.6ZM24.54,47.68l5.54,5.53,5.53-5.53Z" style="fill:#fff;fill-rule:evenodd"/></svg>