<svg xmlns="http://www.w3.org/2000/svg" viewBox="0 0 59.77 59.87"><path d="M.33,0H59.44a.33.33,0,0,1,.33.33v59.2a.34.34,0,0,1-.33.34H.33A.34.34,0,0,1,0,59.53V.33A.33.33,0,0,1,.33,0Z" style="fill:#ef402b;fill-rule:evenodd"/><path d="M20,9.87a1.18,1.18,0,0,1-.44.42,1.21,1.21,0,0,1-1.15,0A1.19,1.19,0,0,1,18,10a1.17,1.17,0,0,1-.19-.41,2,2,0,0,1,0-.45V6.58a1.69,1.69,0,0,1,0-.38,2.12,2.12,0,0,1,.28-.53A1,1,0,0,1,19,5.3a1.19,1.19,0,0,1,.56.14,1.09,1.09,0,0,1,.4.36.86.86,0,0,1,.18.39,1.6,1.6,0,0,1,.05.39v.21h-.72V6.58a.31.31,0,0,0,0-.1V6.39a.7.7,0,0,0-.12-.22A.4.4,0,0,0,19,6q-.3,0-.39.15a1.09,1.09,0,0,0-.11.24.91.91,0,0,0,0,.17V9.32a1.24,1.24,0,0,0,.12.24.42.42,0,0,0,.38.16.41.41,0,0,0,.38-.16l.07-.14,0-.1a.28.28,0,0,0,0-.09v-1h-.58V7.59h1.3V9.11c0,.1,0,.19,0,.27s0,.13,0,.18l-.06.16a1.09,1.09,0,0,1-.08.15Z" style="fill:#fff"/><path d="M23.07,9.67v.72H20.9v-5h2.17V6H21.62V7.5h1.26v.69H21.62V9.67Z" style="fill:#fff"/><path d="M25.18,10.39,24.05,7.33v3.06h-.72v-5H24L25.13,8.4V5.35h.72v5Z" style="fill:#fff"/><path d="M27.5,5.35a1.14,1.14,0,0,1,.84.34,1.13,1.13,0,0,1,.35.83V9.14a1.24,1.24,0,0,1-.34.91,1.16,1.16,0,0,1-.87.34H26.35v-5ZM28,9.14V6.52a.45.45,0,0,0-.15-.35A.51.51,0,0,0,27.45,6h-.38v3.7h.35c.37,0,.55-.19.55-.58Z" style="fill:#fff"/><path d="M31.35,9.67v.72H29.19v-5h2.16V6H29.9V7.5h1.27v.69H29.9V9.67Z" style="fill:#fff"/><path d="M31.72,10.39v-5H33a1.1,1.1,0,0,1,.83.34,1.17,1.17,0,0,1,.35.85V7a1.18,1.18,0,0,1-.6,1.07l.77,2.31h-.77L32.9,8.23h-.46v2.16Zm1.6-3a.34.34,0,0,0,.09-.19.56.56,0,0,0,0-.23V6.54a.55.55,0,0,0-.13-.37A.46.46,0,0,0,33,6h-.52V7.59H33a.47.47,0,0,0,.37-.16Z" style="fill:#fff"/><path d="M20,16.63v.72H17.81v-5H20V13H18.53v1.49h1.26v.69H18.53v1.48Z" style="fill:#fff"/><path d="M20.53,17a.91.91,0,0,1-.23-.4,1.77,1.77,0,0,1-.06-.49V13.56a1.28,1.28,0,0,1,.35-.92,1.21,1.21,0,0,1,1.74,0,1.12,1.12,0,0,1,.36.84v2.61a2.33,2.33,0,0,1,0,.32.83.83,0,0,1-.06.21l.47.4-.4.48-.45-.36a1.21,1.21,0,0,1-.8.27,1.11,1.11,0,0,1-.49-.12,1.27,1.27,0,0,1-.41-.31Zm1.2-1.08.24.19V13.56a.64.64,0,0,0-.14-.41.43.43,0,0,0-.37-.17.5.5,0,0,0-.27.07.46.46,0,0,0-.16.18,1.2,1.2,0,0,0-.06.17v2.72a.67.67,0,0,0,.12.39.5.5,0,0,0,.57.13l-.33-.28Z" style="fill:#fff"/><path d="M25.57,16.83a1.21,1.21,0,0,1-.43.41,1,1,0,0,1-.57.16,1.19,1.19,0,0,1-.32,0,1.36,1.36,0,0,1-.28-.11,1.43,1.43,0,0,1-.24-.16.73.73,0,0,1-.16-.21,1.2,1.2,0,0,1-.15-.37,1.79,1.79,0,0,1,0-.34V12.31h.72v4a.82.82,0,0,0,.12.21.39.39,0,0,0,.34.13.37.37,0,0,0,.32-.15.62.62,0,0,0,.11-.37V12.31h.73v3.85a2,2,0,0,1,0,.35,1.27,1.27,0,0,1-.13.32Z" style="fill:#fff"/><path d="M25.89,17.35l1.13-5h.63l1.13,5H28l-.2-1.08h-.93l-.22,1.08ZM27,15.6h.68l-.34-1.84Z" style="fill:#fff"/><path d="M31.31,17.35H29.15v-5h.73v4.32h1.43Z" style="fill:#fff"/><path d="M31.51,17.35v-5h.72v5Z" style="fill:#fff"/><path d="M33.48,17.35V13h-.85v-.67h2.43V13h-.87v4.37Z" style="fill:#fff"/><path d="M36.12,17.35V15.18l-1-2.87h.75l.59,2,.6-2h.76l-1,2.87v2.17Z" style="fill:#fff"/><path d="M9.75,9.35a1.82,1.82,0,0,1,.9.26,1.86,1.86,0,0,1,.69.59,1.88,1.88,0,0,1,.3.72,3.21,3.21,0,0,1,.09.78v2.7a6.73,6.73,0,0,1,0,.69,2.8,2.8,0,0,1-.2.75,2.08,2.08,0,0,1-.88.94,2.61,2.61,0,0,1-1.48.45A2.42,2.42,0,0,1,8,16.94a2.55,2.55,0,0,1-.87-.73,2.64,2.64,0,0,1-.41-.89,3.56,3.56,0,0,1-.11-.92v-.3H8.34v.66A.52.52,0,0,0,8.4,15a1,1,0,0,0,.14.25.94.94,0,0,0,.26.2.84.84,0,0,0,.37.07.69.69,0,0,0,.65-.27,1.17,1.17,0,0,0,.18-.41,2,2,0,0,0,0-.35v-2.7a.55.55,0,0,0,0-.18.52.52,0,0,0-.05-.22.46.46,0,0,0-.15-.23.81.81,0,0,0-.61-.29.85.85,0,0,0-.85.65H6.79V5.05h4.94v1.6H8.34V9.9a2,2,0,0,1,1.41-.55Z" style="fill:#fff"/><path d="M25.33,33.36v2.37h9V33.36Zm0,3.68v2.49h9V37ZM36,22.81v2.58h3.07l-3.27,3.27A9.74,9.74,0,1,0,28.54,46v2.86H25.47V51.7h3.07v2.8h2.85V51.7h3V48.83h-3V45.92a9.72,9.72,0,0,0,6.38-15.2L41,27.48v2.83h2.65v-7.5Zm-6.21,6.42a7.09,7.09,0,1,1-7.09,7.09h0A7.09,7.09,0,0,1,29.81,29.23Z" style="fill:#fff;fill-rule:evenodd"/></svg>