<svg xmlns="http://www.w3.org/2000/svg" viewBox="0 0 59.77 59.87"><path d="M.33,0H59.44a.33.33,0,0,1,.33.33v59.2a.34.34,0,0,1-.33.34H.33A.34.34,0,0,1,0,59.53V.33A.33.33,0,0,1,.33,0Z" style="fill:#8f1838;fill-rule:evenodd"/><path d="M17.28,5.27a1.14,1.14,0,0,1,.83.35,1.1,1.1,0,0,1,.36.83V9.07a1.3,1.3,0,0,1-.34.91,1.18,1.18,0,0,1-.88.34H16.13V5.27Zm.47,3.8V6.45a.43.43,0,0,0-.16-.35A.5.5,0,0,0,17.22,6h-.37v3.7h.35C17.57,9.65,17.75,9.46,17.75,9.07Z" style="fill:#fff"/><path d="M21.25,9.6v.72H19.09V5.27h2.16v.67H19.8V7.43h1.27v.69H19.8V9.6Z" style="fill:#fff"/><path d="M23.89,9.05a2.37,2.37,0,0,1,0,.41.84.84,0,0,1-.15.38.79.79,0,0,1-.17.2,1.37,1.37,0,0,1-.23.17l-.26.11a1,1,0,0,1-.28,0,1.29,1.29,0,0,1-.62-.15.94.94,0,0,1-.4-.36,1.28,1.28,0,0,1-.16-.4,2.73,2.73,0,0,1,0-.41V6.45a1.48,1.48,0,0,1,0-.38,1.25,1.25,0,0,1,.18-.37,1,1,0,0,1,.38-.33,1.1,1.1,0,0,1,.52-.14,1.18,1.18,0,0,1,.87.35,1.15,1.15,0,0,1,.34.87v.27h-.71V6.45a.51.51,0,0,0-.12-.35A.41.41,0,0,0,22.72,6a.4.4,0,0,0-.33.15.51.51,0,0,0-.12.35v2.8a.66.66,0,0,0,.11.25.39.39,0,0,0,.35.15c.17,0,.28,0,.33-.13a.71.71,0,0,0,.1-.2.82.82,0,0,0,0-.18V8.88h.71Z" style="fill:#fff"/><path d="M26.54,9.6v.72H24.38V5.27h2.16v.67H25.09V7.43h1.27v.69H25.09V9.6Z" style="fill:#fff"/><path d="M28.81,10.32,27.69,7.26v3.06H27V5.27h.69l1.11,3.06V5.27h.73v5.05Z" style="fill:#fff"/><path d="M30.51,10.32V6h-.85V5.27h2.43V6h-.87v4.37Z" style="fill:#fff"/><path d="M35.61,10.32,35,7.25l-.58,3.07h-.67L33,5.27h.77l.36,3.06.58-3.06h.54l.59,3.06.36-3.06H37l-.7,5.05Z" style="fill:#fff"/><path d="M37.45,5.75a1.24,1.24,0,0,1,.44-.38,1.25,1.25,0,0,1,.56-.14,1.31,1.31,0,0,1,.52.11,1.27,1.27,0,0,1,.41.31,1.13,1.13,0,0,1,.23.41,1.51,1.51,0,0,1,.06.44V9.07a1.56,1.56,0,0,1-.05.4,1,1,0,0,1-.18.39,1.09,1.09,0,0,1-.4.36,1.1,1.1,0,0,1-.57.15,1.34,1.34,0,0,1-.35,0,1.69,1.69,0,0,1-.31-.13,1.64,1.64,0,0,1-.25-.19.87.87,0,0,1-.17-.22,1.42,1.42,0,0,1-.13-.38,1.55,1.55,0,0,1,0-.33V6.5a1.62,1.62,0,0,1,.05-.4,1,1,0,0,1,.17-.35Zm1.4.4a.44.44,0,0,0-.39-.21.47.47,0,0,0-.25.07.57.57,0,0,0-.18.16.64.64,0,0,0-.06.18.86.86,0,0,0,0,.15V9.15a.28.28,0,0,0,0,.09.58.58,0,0,0,.12.25.43.43,0,0,0,.37.15.48.48,0,0,0,.24-.06.34.34,0,0,0,.16-.15.43.43,0,0,0,.07-.16,1.15,1.15,0,0,0,0-.2V6.5a1.1,1.1,0,0,0,0-.21.29.29,0,0,0-.08-.14Z" style="fill:#fff"/><path d="M40.28,10.32V5.27h1.27a1.11,1.11,0,0,1,.83.35,1.17,1.17,0,0,1,.35.85v.47A1.18,1.18,0,0,1,42.13,8l.77,2.31h-.77l-.67-2.16H41v2.16Zm1.61-3A.56.56,0,0,0,42,7.17a.8.8,0,0,0,0-.23V6.47a.55.55,0,0,0-.13-.37A.46.46,0,0,0,41.52,6H41V7.52h.51a.49.49,0,0,0,.38-.16Z" style="fill:#fff"/><path d="M45.07,10.32l-.81-2.25-.4.75v1.5h-.71V5.27h.72V7.6L45,5.27h.71l-1,2,1.16,3Z" style="fill:#fff"/><path d="M46.56,10.32l1.13-5.05h.63l1.13,5.05h-.78l-.2-1.08h-.94l-.21,1.08Zm1.1-1.75h.68L48,6.73Z" style="fill:#fff"/><path d="M51.66,10.32,50.54,7.26v3.06h-.72V5.27h.68l1.12,3.06V5.27h.72v5.05Z" style="fill:#fff"/><path d="M54,5.27a1.15,1.15,0,0,1,.84.35,1.09,1.09,0,0,1,.35.83V9.07a1.29,1.29,0,0,1-.33.91,1.18,1.18,0,0,1-.88.34H52.85V5.27Zm.48,3.8V6.45a.43.43,0,0,0-.16-.35A.5.5,0,0,0,53.94,6h-.38v3.7h.36C54.29,9.65,54.47,9.46,54.47,9.07Z" style="fill:#fff"/><path d="M18.29,16.56v.72H16.13v-5h2.16v.66H16.85v1.49h1.26v.69H16.85v1.48Z" style="fill:#fff"/><path d="M20.91,16a1.62,1.62,0,0,1,0,.41.8.8,0,0,1-.15.38.79.79,0,0,1-.17.2,1.06,1.06,0,0,1-.23.17,1,1,0,0,1-.26.11.92.92,0,0,1-.28,0,1.44,1.44,0,0,1-.62-.14.93.93,0,0,1-.39-.37,1.12,1.12,0,0,1-.17-.4,2.63,2.63,0,0,1,0-.41v-2.6a1.48,1.48,0,0,1,0-.38,1.21,1.21,0,0,1,.18-.36,1,1,0,0,1,.38-.34,1.1,1.1,0,0,1,.52-.14,1.18,1.18,0,0,1,.87.35,1.15,1.15,0,0,1,.35.87v.27h-.72v-.27a.51.51,0,0,0-.12-.35.41.41,0,0,0-.34-.15.4.4,0,0,0-.33.15.51.51,0,0,0-.11.35v2.8a.62.62,0,0,0,.1.25.4.4,0,0,0,.35.15.37.37,0,0,0,.34-.13,1,1,0,0,0,.09-.2.74.74,0,0,0,0-.18v-.26h.72Z" style="fill:#fff"/><path d="M21.65,12.71a1.21,1.21,0,0,1,.43-.38,1.25,1.25,0,0,1,.56-.14,1.27,1.27,0,0,1,.52.11,1.17,1.17,0,0,1,.41.31,1.13,1.13,0,0,1,.23.41,1.51,1.51,0,0,1,.06.44V16a1.22,1.22,0,0,1-.05.4,1,1,0,0,1-.18.39,1.09,1.09,0,0,1-.4.36,1.1,1.1,0,0,1-.57.15,1.27,1.27,0,0,1-.34,0,1.44,1.44,0,0,1-.31-.13,1.74,1.74,0,0,1-.26-.19,1.18,1.18,0,0,1-.17-.22,1.31,1.31,0,0,1-.13-.38,1.62,1.62,0,0,1,0-.33V13.46a1.64,1.64,0,0,1,0-.4,1.17,1.17,0,0,1,.18-.35Zm1.4.4a.46.46,0,0,0-.4-.21.47.47,0,0,0-.25.07.44.44,0,0,0-.17.16.64.64,0,0,0-.06.18,1,1,0,0,0,0,.15v2.66a.25.25,0,0,0,0,.08.58.58,0,0,0,.12.25.43.43,0,0,0,.37.16.41.41,0,0,0,.25-.07.36.36,0,0,0,.15-.15.43.43,0,0,0,.07-.16,1,1,0,0,0,0-.2V13.46a.91.91,0,0,0,0-.21.26.26,0,0,0-.07-.14Z" style="fill:#fff"/><path d="M26.28,17.28l-1.12-3.06v3.06h-.72v-5h.68l1.12,3v-3H27v5Z" style="fill:#fff"/><path d="M27.62,12.71a1.24,1.24,0,0,1,.44-.38,1.25,1.25,0,0,1,.56-.14,1.31,1.31,0,0,1,.52.11,1.27,1.27,0,0,1,.41.31,1.13,1.13,0,0,1,.23.41,1.51,1.51,0,0,1,.06.44V16a1.56,1.56,0,0,1-.05.4,1,1,0,0,1-.18.39,1.09,1.09,0,0,1-.4.36,1.1,1.1,0,0,1-.57.15,1.34,1.34,0,0,1-.35,0,1.69,1.69,0,0,1-.31-.13,1.64,1.64,0,0,1-.25-.19.87.87,0,0,1-.17-.22,1.31,1.31,0,0,1-.13-.38,1.55,1.55,0,0,1,0-.33V13.46a1.62,1.62,0,0,1,.05-.4,1.13,1.13,0,0,1,.17-.35Zm1.4.4a.44.44,0,0,0-.39-.21.56.56,0,0,0-.43.23.64.64,0,0,0-.06.18.86.86,0,0,0,0,.15V16.2a1,1,0,0,0,.12.25.47.47,0,0,0,.38.16.4.4,0,0,0,.24-.07.34.34,0,0,0,.16-.15.43.43,0,0,0,.07-.16,1.15,1.15,0,0,0,0-.2V13.46a1.1,1.1,0,0,0,0-.21.29.29,0,0,0-.08-.14Z" style="fill:#fff"/><path d="M32.89,17.28V14.21l-.72,2.15H31.8l-.71-2.15v3.07h-.72v-5H31l1,2.69.94-2.69h.67v5Z" style="fill:#fff"/><path d="M34,17.28v-5h.72v5Z" style="fill:#fff"/><path d="M37.73,16a2.37,2.37,0,0,1,0,.41.8.8,0,0,1-.15.38.79.79,0,0,1-.17.2,1.06,1.06,0,0,1-.23.17,1,1,0,0,1-.26.11.92.92,0,0,1-.28,0,1.44,1.44,0,0,1-.62-.14.93.93,0,0,1-.39-.37,1.12,1.12,0,0,1-.17-.4,2.63,2.63,0,0,1,0-.41v-2.6a1.48,1.48,0,0,1,0-.38,1.21,1.21,0,0,1,.18-.36,1,1,0,0,1,.38-.34,1.1,1.1,0,0,1,.52-.14,1.18,1.18,0,0,1,.87.35,1.15,1.15,0,0,1,.34.87v.27H37v-.27a.51.51,0,0,0-.12-.35.41.41,0,0,0-.34-.15.4.4,0,0,0-.33.15.51.51,0,0,0-.11.35v2.8a.62.62,0,0,0,.1.25.4.4,0,0,0,.35.15.37.37,0,0,0,.34-.13,1,1,0,0,0,.09-.2.74.74,0,0,0,0-.18v-.26h.71Z" style="fill:#fff"/><path d="M41.31,16.76a1.18,1.18,0,0,1-.44.42,1.21,1.21,0,0,1-.6.15,1.29,1.29,0,0,1-.56-.14,1.24,1.24,0,0,1-.41-.33,1.2,1.2,0,0,1-.2-.41,2.07,2.07,0,0,1,0-.46V13.47a1.69,1.69,0,0,1,0-.38,1.82,1.82,0,0,1,.28-.53,1,1,0,0,1,.91-.37,1.23,1.23,0,0,1,.57.14,1.09,1.09,0,0,1,.4.36,1.14,1.14,0,0,1,.18.39,1.61,1.61,0,0,1,0,.39v.21h-.71v-.21a.31.31,0,0,0,0-.1.22.22,0,0,0,0-.09.48.48,0,0,0-.11-.22.4.4,0,0,0-.35-.15q-.3,0-.39.15a1.09,1.09,0,0,0-.11.24.88.88,0,0,0,0,.17v2.65s0,.07,0,.09a1.24,1.24,0,0,0,.12.24.42.42,0,0,0,.38.16.41.41,0,0,0,.38-.16.73.73,0,0,0,.06-.14.22.22,0,0,0,0-.1.29.29,0,0,0,0-.09v-1h-.58v-.63h1.29v1.79q0,.11,0,.18l-.06.16a1.09,1.09,0,0,1-.08.15Z" style="fill:#fff"/><path d="M42,17.28v-5h1.26a1.11,1.11,0,0,1,.84.34,1.17,1.17,0,0,1,.35.85v.47a1.18,1.18,0,0,1-.6,1.07l.77,2.31h-.77l-.68-2.16h-.45v2.16Zm1.6-3a.34.34,0,0,0,.09-.19.8.8,0,0,0,0-.23v-.47a.55.55,0,0,0-.12-.37.47.47,0,0,0-.37-.15h-.51v1.57h.51a.47.47,0,0,0,.37-.16Z" style="fill:#fff"/><path d="M45.05,12.71a1.16,1.16,0,0,1,.44-.38,1.21,1.21,0,0,1,.55-.14,1.27,1.27,0,0,1,.52.11,1.21,1.21,0,0,1,.42.31,1.1,1.1,0,0,1,.22.41,1.51,1.51,0,0,1,.06.44V16a1.59,1.59,0,0,1,0,.4,1.34,1.34,0,0,1-.18.39,1.17,1.17,0,0,1-.4.36,1.1,1.1,0,0,1-.57.15,1.29,1.29,0,0,1-.35,0,1.69,1.69,0,0,1-.31-.13,1.74,1.74,0,0,1-.26-.19.82.82,0,0,1-.16-.22,1.39,1.39,0,0,1-.14-.38,2.92,2.92,0,0,1,0-.33V13.46a1.64,1.64,0,0,1,0-.4,1.46,1.46,0,0,1,.18-.35Zm1.4.4a.46.46,0,0,0-.39-.21.51.51,0,0,0-.26.07.44.44,0,0,0-.17.16.64.64,0,0,0-.06.18,1,1,0,0,0,0,.15v2.66s0,.05,0,.08a1,1,0,0,0,.12.25.45.45,0,0,0,.38.16.4.4,0,0,0,.24-.07.39.39,0,0,0,.16-.15.64.64,0,0,0,.06-.16,1,1,0,0,0,0-.2V13.46a.91.91,0,0,0,0-.21.26.26,0,0,0-.07-.14Z" style="fill:#fff"/><path d="M50.22,17.28l-.6-3.07L49,17.28h-.67l-.73-5h.77l.36,3,.58-3h.54l.59,3,.36-3h.76l-.7,5Z" style="fill:#fff"/><path d="M52.61,17.28V12.91h-.85v-.67H54.2v.67h-.87v4.37Z" style="fill:#fff"/><path d="M54.55,17.28v-5h.72v2.15h.92V12.24h.71v5h-.71V15h-.92v2.25Z" style="fill:#fff"/><path d="M11.36,14.57v.12a2.14,2.14,0,0,1-.18.83,2.9,2.9,0,0,1-.51.81,2.7,2.7,0,0,1-.77.6,2.17,2.17,0,0,1-1,.23H8.87a2.54,2.54,0,0,1-.76-.11,3.14,3.14,0,0,1-.68-.28,3.44,3.44,0,0,1-.54-.4,1.71,1.71,0,0,1-.35-.49,3.22,3.22,0,0,1-.28-.83,3.91,3.91,0,0,1-.06-.68V12.26a1.92,1.92,0,0,1,.87-1.59A2.1,2.1,0,0,1,6.2,8.89V7.26a1.82,1.82,0,0,1,.13-.7,4.5,4.5,0,0,1,.65-1,2.19,2.19,0,0,1,1.85-.66,2.31,2.31,0,0,1,1,.21,3.8,3.8,0,0,1,1,.8,2.14,2.14,0,0,1,.56,1.58V9a1.93,1.93,0,0,1-.87,1.66,2,2,0,0,1,.87,1.71Zm-2.56-8a.91.91,0,0,0-.89.88V9a1.23,1.23,0,0,0,.22.72.77.77,0,0,0,.65.29.75.75,0,0,0,.65-.27A1.23,1.23,0,0,0,9.65,9V7.46a.87.87,0,0,0-.26-.61A.74.74,0,0,0,8.8,6.58Zm0,4.76a.85.85,0,0,0-.65.27.9.9,0,0,0-.24.65v2.11a1.32,1.32,0,0,0,.22.77.84.84,0,0,0,.7.29.62.62,0,0,0,.63-.31,1.39,1.39,0,0,0,.19-.75V12.26a.9.9,0,0,0-.24-.65.73.73,0,0,0-.61-.27Z" style="fill:#fff"/><path d="M44.11,21.93H44L39.1,23.26a.27.27,0,0,0-.12.46L40,24.79,29.51,35.33l-4.19-4.19a1,1,0,0,0-1.42,0L15.43,39.6,16.86,41l7.75-7.74,4.19,4.19a1,1,0,0,0,1.43,0L41.47,26.22l1.12,1.11a.22.22,0,0,0,.2.08.27.27,0,0,0,.26-.2l1.32-4.93a.28.28,0,0,0-.26-.35Zm-2.64,7.14-6.64,6.65V52a.76.76,0,0,0,.77.77h5.65A.77.77,0,0,0,42,52V29.62ZM24.41,36.33l-7.19,7.19V52a.76.76,0,0,0,.77.77h5.65a.76.76,0,0,0,.77-.77Zm8.8,1-3,3a1,1,0,0,1-1.43,0L26,37.54V52a.77.77,0,0,0,.77.77h5.65a.76.76,0,0,0,.77-.77Z" style="fill:#fff"/><path d="M44.11,21.93H44L39.1,23.26a.27.27,0,0,0-.12.46L40,24.79,29.51,35.33l-4.19-4.19a1,1,0,0,0-1.42,0L15.43,39.6,16.86,41l7.75-7.74,4.19,4.19a1,1,0,0,0,1.43,0L41.47,26.22l1.12,1.11a.22.22,0,0,0,.2.08.27.27,0,0,0,.26-.2l1.32-4.93a.28.28,0,0,0-.26-.35Z" style="fill:#fff"/></svg>