<svg xmlns="http://www.w3.org/2000/svg" viewBox="0 0 215.88 171.23"><path d="M198.71,91.13h16.66v4.4h-5.86v19.09h-4.88V95.53h-5.92Zm-38.17.09h15v4.13H165.22v5.35h9.17v4.12h-9.17v5.5h10.34v4.3h-15Zm17.9,0v23.4h4.77V100.7l9.42,13.92h3.92V91.22H192v13.43l-9.37-13.43Zm-98.91,0h4.82v19.15H94v4.25H79.53Zm-17.86,0h15v4.13H66.35v5.35h9.17v4.12H66.35v5.5H76.69v4.3h-15Zm137.05-34h16.44v4.53H203.84v5.85h10v4.51h-10v6h11.32v4.7H198.72Zm-18.15,0h5.2V78.16h10.48v4.7H180.57Zm-21.68,0V82.86h10.85c4.22,0,8.24-1.81,8.25-7,0-4.9-3-5.54-4.14-6.31,1.73-1.41,3-2.6,3-5.69,0-1.81-1.05-6.6-7.76-6.6ZM164,61.77h4.27c4.41,0,4.55,5.85.33,5.85H164Zm0,10.36h5.36c4.33,0,4.49,6,.36,6H164ZM111.51,57.24V82.86h5.23V67.62l10.31,15.24h4.3V57.24h-5V72L116.14,57.24ZM102.2,82.86V57.24h5.19V82.86Zm42.94-18.22,2.83,8h-5.61Zm-2.44-7.4-9.32,25.62h5.41l1.94-5.56h8.89l2,5.56h5.27l-9-25.62Zm-56.95,0L76.43,82.86h5.42l1.94-5.56h8.89l2,5.56h5.27l-9-25.62Zm2.45,7.4,2.82,8h-5.6Zm-27.67-7.4H78.7V62H72.31V82.86H67V62H60.53Zm-.83,2.7L56.64,64s-2.83-2.43-5.43-2.43c-1.44,0-3,.74-3,2,0,5.25,11.81,3,11.81,12,0,3.87-2.47,7.64-9,7.64a13.22,13.22,0,0,1-9.24-3.85l3.26-3.83s3.64,3.1,6.49,3.1c1.38,0,3.16-.65,3.26-2.63.23-4.77-11.88-2.56-11.88-11.64,0-4.14,3.1-7.66,8.58-7.66a12.25,12.25,0,0,1,8.19,3.23ZM39.64,91.22h5.21l4.89,15.61L55,91.22h4.92L52,114.62h-4.6Zm-16.18,0h15v4.13H28.14v5.35h9.17v4.12H28.14v5.5H38.48v4.3h-15Zm-21.37,0v23.4h8.42c13,0,15.1-23.4-1.1-23.4Zm4.78,4.31H8.66c10.37,0,8.43,14.84,1.24,14.84h-3Zm13.8-20.82V57.24h5V73.51a4.7,4.7,0,1,0,9.38,0V57.24h5.09V74.71c0,12-19.46,12-19.46,0ZM17.9,59.94,14.84,64S12,61.57,9.42,61.57c-1.45,0-3,.74-3,2,0,5.25,11.81,3,11.81,12,0,3.87-2.47,7.64-9,7.64A13.26,13.26,0,0,1,0,79.37l3.26-3.83s3.65,3.1,6.49,3.1c1.39,0,3.17-.65,3.26-2.63.23-4.77-11.87-2.56-11.87-11.64,0-4.14,3.09-7.66,8.58-7.66a12.24,12.24,0,0,1,8.18,3.23Zm100,31.28v23.4h4.89v-7.09H126c11.37,0,10.57-16.31.38-16.31Zm4.89,4.31h2.79c4.72,0,5.39,7.67,0,7.67h-2.82Zm13.41,19.09V91.22h5.16l5.2,9.41,5.29-9.41h5v23.4h-4.7V99.92l-5.59,9.7L141,99.92v14.7ZM104.65,90.75c-6.86,0-10.72,5.35-10.7,12.58s4,11.93,10.8,11.83,10.35-5.08,10.45-11.83S111.51,90.75,104.65,90.75Zm0,4.78c3.63,0,5.62,3.54,5.57,7.65s-1.94,7.14-5.51,7.2-5.69-2.8-5.7-7.2,2-7.65,5.64-7.65Z" style="fill:#00aeef"/><path d="M179.19,155.86l9.62-.31s-.56,7.47,8.88,7.47c3.88,0,8.39-1.8,8.39-5.75,0-2.62-1.18-3.59-4-4.84-3.3-1.48-5.19-1.9-8.26-3.11-2.71-1.08-7.61-2-10.9-6a13,13,0,0,1-3.2-8.25c0-5.74,4.47-15.5,17.46-15.5,17.27,0,17.52,13.72,17.52,13.72l-9.74.31s.15-5.52-7.41-5.52c-5.67,0-7.9,2.75-7.9,5.39,0,3.39,1.52,4.07,3.49,5.21a28.8,28.8,0,0,0,7,2.39c1.19.3,6.17,1.64,8.33,2.88,2.69,1.54,7.41,4.35,7.41,12.67,0,5.1-4.16,14.58-18.37,14.58-19.83,0-18.32-15.37-18.32-15.37ZM117.73,120.1l-18.27,50h10.66l3.49-10.59h18.13l3.54,10.59H146l-17.87-50Zm4.87,12.08,6.49,19.39H116.22Zm25.64,37.93v-49.2h9.69v40.36h19v8.84ZM48.23,135s-4-15.34-22.06-15.34c-16.06,0-24.77,12.76-24.76,26.12,0,15.77,12.63,25.44,24.21,25.44,24.59,0,24.15-27.29,24.15-27.54H27.1v8.19H39s-1.51,10.66-12.51,10.66c-10.08,0-14.78-8.82-14.78-16.94,0-11.46,6.33-17.12,14.1-17.12,10.2,0,12.32,7.33,12.32,7.33Z" style="fill:#4f91cd"/><path d="M100,136.38l-9.58,4.3a14,14,0,0,1,1.1,3.9l10.41-1.35A24.37,24.37,0,0,0,100,136.38Z" style="fill:#c31f33;fill-rule:evenodd"/><path d="M94.84,129l-7.38,7.47a14,14,0,0,1,2.44,3.24l9.22-5A24.27,24.27,0,0,0,94.84,129Z" style="fill:#279b48;fill-opacity:0.9990707635879517;fill-rule:evenodd"/><path d="M87.41,124l-4.18,9.63a13.59,13.59,0,0,1,3.44,2.14l6.79-8a24.38,24.38,0,0,0-6-3.75Z" style="fill:#d3a029;fill-rule:evenodd"/><path d="M78.67,122l-.42,10.49a13.81,13.81,0,0,1,4,.75l3.43-9.92A24.15,24.15,0,0,0,78.67,122Z" style="fill:#eb1c2d;fill-rule:evenodd"/><path d="M69.79,123.28l3.4,9.94a13.93,13.93,0,0,1,4-.74L76.79,122a24.6,24.6,0,0,0-7,1.3Z" style="fill:#183668;fill-rule:evenodd"/><path d="M62,127.69l6.76,8a13.79,13.79,0,0,1,3.45-2.13L68,124A24.55,24.55,0,0,0,62,127.69Z" style="fill:#02558b;fill-rule:evenodd"/><path d="M56.29,134.63l9.21,5.05A13.77,13.77,0,0,1,68,136.45L60.59,129A24.79,24.79,0,0,0,56.29,134.63Z" style="fill:#5dbb46;fill-opacity:0.9993153214454651;fill-rule:evenodd"/><path d="M53.5,143.15l10.4,1.39a14,14,0,0,1,1.12-3.9l-9.57-4.33A24.34,24.34,0,0,0,53.5,143.15Z" style="fill:#007dbc;fill-rule:evenodd"/><path d="M54,152.11l10.21-2.47a14.07,14.07,0,0,1-.37-4L53.32,145A24.52,24.52,0,0,0,54,152.11Z" style="fill:#48773e;fill-rule:evenodd"/><path d="M57.64,160.29l8.62-6a14,14,0,0,1-1.8-3.63l-10,3.24A24.54,24.54,0,0,0,57.64,160.29Z" style="fill:#cf8d2a;fill-rule:evenodd"/><path d="M64,166.59l5.88-8.69a14.22,14.22,0,0,1-3-2.74l-8.14,6.63A24.25,24.25,0,0,0,64,166.59Z" style="fill:#f99d26;fill-rule:evenodd"/><path d="M72.24,170.17l2.35-10.24a13.81,13.81,0,0,1-3.78-1.47l-5.2,9.13a24.36,24.36,0,0,0,6.63,2.58Z" style="fill:#e11484;fill-rule:evenodd"/><path d="M81.21,170.53l-1.52-10.39a14.09,14.09,0,0,1-4,0l-1.55,10.39a24.62,24.62,0,0,0,7.12,0Z" style="fill:#f36d25;fill-rule:evenodd"/><path d="M89.69,167.63l-5.16-9.15a13.59,13.59,0,0,1-3.78,1.46l2.3,10.25a24.57,24.57,0,0,0,6.64-2.56Z" style="fill:#8f1838;fill-rule:evenodd"/><path d="M96.56,161.86l-8.12-6.66a13.62,13.62,0,0,1-3,2.72l5.85,8.72a24.46,24.46,0,0,0,5.27-4.78Z" style="fill:#fdb713;fill-opacity:0.9899309873580933;fill-rule:evenodd"/><path d="M100.88,154l-10-3.27a13.64,13.64,0,0,1-1.81,3.62l8.6,6a24.54,24.54,0,0,0,3.19-6.37Z" style="fill:#00aed9;fill-rule:evenodd"/><path d="M102.06,145.1l-10.48.55a14.07,14.07,0,0,1-.38,4l10.19,2.5a24.2,24.2,0,0,0,.67-7.09Z" style="fill:#ef402b;fill-rule:evenodd"/><path d="M107.86,0A19.6,19.6,0,0,0,99,2.12l.21.42A19.26,19.26,0,0,1,107.62.48V4.07a15.73,15.73,0,0,0-6.78,1.65l.22.42a15.2,15.2,0,0,1,6.56-1.58V7.81A11.89,11.89,0,0,0,102.57,9h0a11.76,11.76,0,0,0-3.09,2.16l-2.3-2.31a15.58,15.58,0,0,1,3.89-2.74l-.22-.42h0a16,16,0,0,0-4,2.83L94.3,6a20,20,0,0,1,4.89-3.48L99,2.09a20.05,20.05,0,0,0-9,9h0A19.86,19.86,0,0,0,88,19.89a20.44,20.44,0,0,0,.79,5.61l.48-.12a19.3,19.3,0,0,1-.79-5.26H92a15.65,15.65,0,0,0,.68,4.38l.47-.12a15.94,15.94,0,0,1-.67-4.27h3.25a13.16,13.16,0,0,0,.11,1.42,2,2,0,0,0-.43.09l-.1.33c-.22,0-.36.41-.36.41-.18.06-.33.29-.27.35s-.1.08-.1.08v.45l-.09.15,0,.48c.12,0,.1.23.1.23-.21,0-.16.29-.16.29l-.42.15-.09.12-.52,0-.14.15h0c0-.14-.08-.27-.13-.4l-.47.12a.57.57,0,0,0,0,.14h-.59l0-.09-.21,0,0-.23-.31,0-.06.12-.32,0c0,.21-.33.51-.37.42s-.26-.3-.15-.35.36-.08.36-.08v-.15l-.75,0-.08.12-.31,0v.32l-.14,0c-.1.06,0,.29,0,.29.15.14,0,.36,0,.36s.09.35.09.35c.16,0-.09.16-.09.16a.33.33,0,0,0,.16.26.2.2,0,0,0,.08.31l0,.35.15.08v.23l.08.15h.33v-.49c-.28-.32.24-.41.26-.29s.25.18.25.18c0,.31.38.49.48.19s.18-.13.24,0a2.85,2.85,0,0,0,.45.49h.3l0,.29c.34,0,.44,0,.58.49a.88.88,0,0,0,.52.59l.28,0c0-.25.27,0,.27.17s.55.59.55.59l.54.12.1.08c.34.43.69.83,1.06,1.22L94,33.49a19.5,19.5,0,0,1-4.72-8.11l-.47.12a20,20,0,0,0,5,8.51,19.59,19.59,0,0,0,5.5,3.89l.24-.42a19.44,19.44,0,0,1-5.22-3.65l2.54-2.54a15.89,15.89,0,0,0,4.45,3.05l.24-.42a15.42,15.42,0,0,1-4.35-3l.47-.47a.42.42,0,0,1,0,.17c0,.3.18.24.18.24l1.15,0,.4-.35,1,0c.52,0,.21-.73.1-.73a.3.3,0,0,1-.06-.26,12.28,12.28,0,0,0,2.63,1.55l.25-.42a11.76,11.76,0,0,1-3-1.84l-.54-.51,2.52-2.52a8,8,0,0,0,2.79,1.71h0c.28.1.57.18.86.26,0,.05-.07.08-.06.11s-.16.2-.16.2l-.18.06-.12.18-.24.09,0,.42-.12.09v.18l-.14,0v.1l-.21,0,.12.31.16.08c.28,0,.16.39.16.39l.15,0,.09.23.16.33c.06.24.24.18.32.17s.16.24.16.24l.8,0s0,.09.09.12a3.21,3.21,0,0,0,.67.05v.36a11.45,11.45,0,0,1-4.24-.9l-.25.42a12.21,12.21,0,0,0,4.49,1v3.25a15.49,15.49,0,0,1-6.11-1.37l-.24.43a15.92,15.92,0,0,0,6.35,1.42v3.59a19.17,19.17,0,0,1-8.11-1.87l-.24.42a20,20,0,0,0,17.57-.19,20.05,20.05,0,0,0,9-9.09h0a19.9,19.9,0,0,0-3.86-22.77,19.64,19.64,0,0,0-6.65-4.4h0A19.64,19.64,0,0,0,107.86,0Zm.25.48a19.15,19.15,0,0,1,7,1.41h0A19.39,19.39,0,0,1,121.44,6l-2.15,2.15a.37.37,0,0,1-.21,0c-.15-.06.06-.21.06-.21V7.8L119,7.67s-.34,0-.36,0a2.91,2.91,0,0,1-.09-.33l0-.35-.15-.06,0-.12-.22,0V6.57l-.12,0-.12-.06,0-.24-.44,0L117.3,6l-.15-.25-.51,0-.12-.12-.21,0-.14-.06-.06.1-.39,0,0,.12a2.26,2.26,0,0,1-.7.06c-.4-.2-.77-.41-1.18-.58l-.17.45a8.24,8.24,0,0,1,.94.47c0,.07,0,.12-.09.12s-.06.27-.06.27a2.26,2.26,0,0,1,.33,0c.09,0,.09.23.09.23.3,0,.42.39.38.5s.13.09.13.09a1.85,1.85,0,0,1,0,.42c0,.08.27.14.34.26a.73.73,0,0,1-.1.56c-.06,0,.16.08.15.18s.06,0,.08.17.06.51.06.51l.28,0c0-.27.56-.28.64-.24a1.21,1.21,0,0,1,.6.77c0,.12-.21.15-.21.15v.13l-.7.7c-.08,0-.15-.07-.18,0s-.07-.42-.07-.42.19-.12.27-.06-.68-1-.85-.92-.52-.09-.5-.29-.73-.79-.73-.79-.24-.16-.28,0-.12.2,0,.26.1-.09.25,0,.39.33.3.45a.54.54,0,0,1-.22.16l.15.16h.21l0,.35a.81.81,0,0,1,.3.27.39.39,0,0,1,0,.22,14.16,14.16,0,0,0-1.4-.93.41.41,0,0,0,0-.11c0-.15.15-.21.26,0l.21,0,0-.18L114,8.85h-.22s0,.15-.16.09a.54.54,0,0,0-.18-.06c-.11,0-.09.21-.06.32-.32-.16-.63-.3-1-.44h0a12,12,0,0,0-4.35-.89V6c.14,0,.2,0,.21-.1s0-.09.16-.12,0-.26-.15-.24a.25.25,0,0,1-.22-.07V4.56a15,15,0,0,1,5.54,1.12l.17-.45a15.72,15.72,0,0,0-5.72-1.14Zm3.36.86-.2.12-.13-.08-.06.11.16.09,0,0,0,0,.22-.14Zm.91.49-.15.13-.1-.11-.08.08.14.15,0,0,0,0,.21-.16ZM93,1.93c-2,.78-4.15,1.58-5.44,3.63-.76,1.2-.87,2.62-1.46,3.86a26.71,26.71,0,0,0,3.33-3A28.36,28.36,0,0,1,93,1.93Zm29.7,0a28.24,28.24,0,0,1,3.57,4.44,26.73,26.73,0,0,0,3.34,3.05c-.59-1.25-.71-2.66-1.46-3.86-1.31-2-3.45-2.85-5.45-3.63Zm-11.78.26c-.08,0-.17.05-.18.08s-.14.1-.14.1l-.46,0c0,.12-.28.2-.3.12h0c0-.18-.31.23,0,.3a1,1,0,0,0,.52,0l.06-.12,1,0a.44.44,0,0,0,.12-.2s.25-.09.34,0,0-.29-.08-.24a1.22,1.22,0,0,1-.3,0h-.37c0-.07-.08-.09-.17-.08Zm-1.72.41-.27.1-.28.18-.3,0-.16.18.64.06.12.21.46,0,.31.3c.26.08.32,0,.15-.18h0l-.26-.27V3l-.09-.08-.08-.29ZM87.62,4.65A5.54,5.54,0,0,0,85,6.42c-1.59,1.77-1.46,4.39-1.24,6.72a10.94,10.94,0,0,1,0,2.06,7.4,7.4,0,0,1,2.21-2.63C88,11,90.25,9,90.29,6.31c-.69,1.92-2.78,2.72-4.17,4a6.34,6.34,0,0,0-1.63,2.4l0,0c.17-.77.5-1.46.73-2.21.58-2,.47-4.47,2.45-5.83Zm40.49,0c2,1.36,1.86,3.79,2.46,5.83.22.74.55,1.44.73,2.21l-.05,0a6.45,6.45,0,0,0-1.63-2.4c-1.39-1.31-3.48-2.1-4.17-4,0,2.67,2.31,4.7,4.39,6.26a7.45,7.45,0,0,1,2.21,2.64,9,9,0,0,1-.05-2.07c.22-2.33.35-5-1.24-6.72a5.58,5.58,0,0,0-2.65-1.77Zm-10.92.4c-.15,0-.39.11-.37.23a.31.31,0,0,0,.27.24l.3.1s.37.45.36.23a.81.81,0,0,0-.42-.75.26.26,0,0,0-.14,0Zm-6.29.26-.09.18.11,0,.09-.19Zm.37.19s-.12.14-.2.19l.23.12a.26.26,0,0,1,.26.19c0,.06.22,0,.22,0l0-.14-.15-.21-.15-.1s-.23,0-.23-.08Zm-.2.19c-.1-.05-.16-.07,0,0Zm-.67-.06v.12h.17l.12.2.1-.06-.15-.23v0h0a1.34,1.34,0,0,1-.2,0Zm-4.64.51c-.11,0-.21,0-.21.06a.7.7,0,0,0,.19.23s.3,0,.32.08.22.09.24,0,.1-.18-.08-.18-.15-.1-.21-.17-.14-.05-.25-.05Zm16,.21a19.29,19.29,0,0,1,4.13,6.29h0a19.5,19.5,0,0,1,1.4,7h-3.59a15.84,15.84,0,0,0-1.11-5.62c-.1-.26-.21-.51-.33-.76,0-.11.1-.22.23-.19s.06-.44.06-.44-.28-.21-.27-.31-.27-.3-.26-.38-.27-.24-.24-.33-.15-.3-.15-.3l-.3-.29,0-.18-.24,0-.48-.59,0-.17-.14,0V9.84l-.15-.09-.22,0-.44-.48,0-.23h-.22l0-.35Zm-10.91,0v.18l.22,0L111,6.38ZM94,6.35,96.49,8.9A15.89,15.89,0,0,0,92,19.69H88.43a19.26,19.26,0,0,1,2-8.33h0a19.25,19.25,0,0,1,3.54-5Zm17.89,1s0,0,0,0,.09.06.12.19,0,.32.21.36.22.08.24.16.24.09.24.09l.16.09.48.41V8.46s0-.16-.12-.16-.27-.12-.24-.2-.34-.16-.34-.16-.34-.33-.21-.29.06-.14.06-.14a2.28,2.28,0,0,1-.31,0c-.06,0,0-.21,0-.21a1,1,0,0,0-.22,0Zm-11,.15-.08.08.12.12.08-.08ZM83.4,8.29c-.05,0-.08,0-.12.05a9.57,9.57,0,0,0-2.3,6c0,2.92,1.68,5,1.89,7.69.43-2.85,2.83-4.88,4.07-7.41a9.79,9.79,0,0,0,.92-3.17A3.36,3.36,0,0,1,87,12.74c-1.62,1.53-3.51,3-3.88,5.21a7.23,7.23,0,0,1-.16.93c-.08,0-.08-.05-.1-.07l.2-2.69c.2-2.61-1.19-5.52.33-7.83Zm48.93,0c1.52,2.31.13,5.22.32,7.85l.21,2.68s0,.1-.1.07c-.08-.3-.12-.62-.17-.93-.36-2.16-2.27-3.67-3.88-5.21a3.41,3.41,0,0,1-.84-1.24,9.81,9.81,0,0,0,.92,3.16c1.24,2.52,3.63,4.55,4.07,7.41.2-2.74,1.88-4.77,1.88-7.68a9.54,9.54,0,0,0-2.29-6.05s-.08-.07-.12-.06Zm-24.71,0v3.59a8.15,8.15,0,0,0-3.16.75l.21.42h0a7.78,7.78,0,0,1,3-.7v3.27a3.9,3.9,0,0,0-1.22.25h0l0-.23.09-.06-.15-.06-.12.16,0,.18-.21,0V16h-.14v.12a4.21,4.21,0,0,0-.82.58l-2.31-2.31a7.86,7.86,0,0,1,2-1.35l-.22-.42a7.89,7.89,0,0,0-2.1,1.43l-2.54-2.53a11.52,11.52,0,0,1,7.81-3.22Zm.49,0a11.76,11.76,0,0,1,4.17.86,8.4,8.4,0,0,1,1,.5l.06,0A11.57,11.57,0,0,1,115,10.74h0a.29.29,0,0,0,.18.21h.09l.2.16v.17c.14,0,.36.13.4.26l-2.5,2.51A8.28,8.28,0,0,0,111,12.48a8.14,8.14,0,0,0-2.87-.61Zm-11.28.93,2.31,2.31a12.84,12.84,0,0,0-2.28,3.31h0a12.39,12.39,0,0,0-1.11,4.84H92.5A15.43,15.43,0,0,1,96.83,9.22Zm20.52,1.55c.28.17.5.54.46.62s.24.06.24.06c0-.37.39-.25.4-.13l.09.39.09.18.15.15.22,0,.06.12.26,0a2.22,2.22,0,0,1,.24.3c0,.06.33,0,.4.06s.21.09.22.19a1.11,1.11,0,0,0,.14.26s.25.06.27.15.12.26.12.26l.21.17,0,.18.22,0,.06.24.36,0,.21-.14.17-.11c.07.17.14.34.2.51a15.26,15.26,0,0,1,1.08,5.42H120a10.64,10.64,0,0,0-.16-1.7c0-.08,0-.16,0-.18s.06-.35.06-.35a.41.41,0,0,0,0-.33.41.41,0,0,1,.08-.42l-.15-.09-.16,0-.12,0c0-.13-.07-.25-.12-.38h0l.1,0v-.12l-.15,0c0-.09-.06-.17-.08-.26l0-.42-.14-.1,0-.16-.15-.06.08-.26-.14-.29h-.21c-.1-.2-.19-.39-.3-.57l.08,0,.16,0,0-.22-.18-.12-.06-.24s-.21,0-.2.15a.05.05,0,0,1,0,.06q-.21-.33-.45-.66s0,0,0,0,0-.23-.1-.26-.15,0-.18-.21a.32.32,0,0,0-.21-.2l-.06-.24L117,12c-.09-.09-.16-.18-.25-.28l.08-.23a.19.19,0,0,1-.15-.1Zm1.29,3.11Zm-14.2-2.63-.07.1.12.1.07-.1Zm-.46.09,0,.23h.3c.12,0-.1-.15-.1-.15S104,11.45,104,11.34Zm13.36,0h-.12l0,.19.12,0Zm-17.88.5L102,14.41a7.8,7.8,0,0,0-1.33,1.88c-.08,0-.17,0-.19.09s-.33.12-.33.12l0,.08-.21,0,0,.12-.24,0,.61,0c.15,0-.06.35-.16.33l-.28,0-.09.1h-.27l-.12.17-.39,0s-.22.19-.2.25,0,.24-.1.24-.18.18-.15.24-.12.27-.12.27l0,.2-.12,0v.55l-.25.16v.24l-.1.12H96.22a11.56,11.56,0,0,1,1.06-4.6,12,12,0,0,1,2.18-3.18Zm16.76,0a1.13,1.13,0,0,0,.19.19.22.22,0,0,0,.11.05l.19.21,0,.07c0,.22.11.16.22.14l.1.12c0,.13,0,.33.23.3h0c.25.35.49.72.71,1.08v0h0a1.62,1.62,0,0,1,.1.18.25.25,0,0,0-.07.09l-.33,0v.32l-.16.06,0,.21.21,0s0,.25.07.15.56,0,.51.26.51.37.45.69l.1,0c.1.28.18.57.25.85l0,.07.07.06c.06.25.12.51.16.76s-.06.44-.19.5,0,.06,0,.06l0,.44c.06.21.16.1.22,0l.1-.12c0,.3,0,.62.06.93h-2.43a.33.33,0,0,0,0-.06l.1-.29.34-.09,0-.27-.19,0s.21-.37.31-.37a7.22,7.22,0,0,0,.82,0,1.16,1.16,0,0,0,.18-.43c0-.06.16-.08.22-.09a.8.8,0,0,0,.24-.27c0-.08-.1-.59-.18-.51a.59.59,0,0,1-.27.12l-.06.23-.1.09a.33.33,0,0,1,0,.2c0,.15-.2.23-.2.23l-.09.1a4.83,4.83,0,0,1-.54,0c-.18-.08-.06-.33.06-.3s0-.35,0-.35l.15,0s0-.36.09-.36,0-.12-.1-.18-.18-.27-.26-.24a2.59,2.59,0,0,1-.4,0l-.06.12-.22,0s0,.15,0,.2-.58.45-.38-.06l.06-.12v-.18l-.36,0s-.19-.06-.19-.14a1,1,0,0,0,0-.18l-.42-.47-.51-.06,0-.1-.3,0-.13-.05a7.59,7.59,0,0,0-.46-.65.43.43,0,0,1,0,0c0-.07-.24-.38-.36-.4a1.85,1.85,0,0,1-.14-.14Zm2,.25s0,0,0,.06.09.12.06.23a.13.13,0,0,0,.12.18.41.41,0,0,1,.22.09.43.43,0,0,1,.2.18l.21-.06s0-.21-.06-.15-.15-.14-.22-.12-.12-.08-.21-.18-.06-.12-.15-.18-.09-.06-.12-.05Zm-10.08.2a7.66,7.66,0,0,1,2.68.58A7.87,7.87,0,0,1,113,14.41l-.14.13c-.06-.06-.27-.11-.27-.18s-.21-.18-.19-.06-.14.18-.18.14-.15.12-.15.12,0,.15.08.17.34-.08.36,0a.45.45,0,0,0,0,.11l-.8.8h-.21c-.06.18-.33,0-.26-.15a.42.42,0,0,0,.08-.21l-.09,0-.13.23c-.27,0-.36.16-.3.27s-.08,0-.12.12,0,.14.15.2-.06.06,0,.16.17.05.21.06l-.16.16a.6.6,0,0,1-.3,0,.1.1,0,0,1-.06.08,4.47,4.47,0,0,0-1.07-.64c.06,0,.17,0,.22-.18a2.6,2.6,0,0,0,.12-.59s-.32,0-.34.08-.21.16-.21.16-.16.06-.1.15-.12.12-.12.12a.8.8,0,0,1,0,.11,3.6,3.6,0,0,0-1-.17Zm10.68.69-.24,0c.06.08.18.14.18.23s0,.14.08.15.21,0,.25.09a1.06,1.06,0,0,1,0,.35c0,.08,0,.21.12.21s.12,0,.12.08.12-.23.12-.23a1.07,1.07,0,0,1-.18-.27s-.1-.29-.1-.32-.14-.09-.2-.1a.81.81,0,0,1-.17-.22Zm-1.91.09-.21,0,0,.12.2,0Zm.12.14v.1h.12v-.1Zm-.16.2a.33.33,0,0,1-.36.08s0,.39-.16.47h-.27a1.49,1.49,0,0,0,.12.17c.06.06.2.18.06.27s0,.06,0,.06,0,.42-.2.36-.25.23-.25.3.72.11.61,0,.08-.2.08-.2l.58,0c.1,0,.19,0,.12-.12s-.24-.08-.24-.08a.7.7,0,0,1-.46-.06c-.21-.12,0-.16.09-.16s.22-.14.14-.24,0-.29,0-.21.22.12.27.06a.27.27,0,0,0-.1-.3c-.09-.06.18-.09.1-.2a.58.58,0,0,1-.15-.23Zm.4.61v.15h.12v-.15Zm.27.08-.06.12.11.06.06-.12Zm2,.16s0,.25,0,.28-.1.12-.16.18.12.15.12.21,0,.36,0,.36.14.06.15.15,0,.24.06.26.18.1.15.18a.78.78,0,0,0,0,.25l.09.18.15.09s.06-.48,0-.5-.06-.31-.06-.31.09-.38-.06-.38,0-.21-.15-.27,0-.35-.08-.42,0-.18-.15-.24,0,0,0,0Zm-4.89.39-.2,0v.12l.2,0Zm-3,0h-.12l-.33,0,0,.15.21,0s.1.08.1.14.15.13.22.13a1,1,0,0,0,.3-.16s.1-.29,0-.27-.24.15-.26,0-.06-.09-.12-.09Zm-9.2,0,2,2h-.19c-.09.18-.28,0-.28,0s-.33,0-.33,0c0,.23-.38-.1-.38-.1l-.71-.51c-.39-.36-1,.1-1,.21s-.12.16-.26.13a8.51,8.51,0,0,1,1.2-1.67Zm7.92,0-.12,0,0,.18.12,0Zm.65,0-.45,0V15l.45,0Zm-3.77,0V15h.16v-.13Zm1,0,0,.12.15,0v-.12Zm.26.06v.12l.15,0V15Zm-1.63,0v.12l.14,0,0-.12Zm3.31,0-.06,0,0,.12.06,0Zm4.87.05-.06.14.11.05.06-.15Zm-1.5,0,.22,0,.28.36-.25,0-.16,0-.3,0a.83.83,0,0,0-.37.44c-.13.27-.43,0-.43-.2l.53-.53h.1a3.66,3.66,0,0,0,.38,0Zm-4.78,0v.12h.15v-.12Zm-2,0,0,.12.16,0,0-.12-.15,0Zm0,.17-.12,0,0,.12.12,0Zm2.38,0h-.12v.14H109Zm6.32.06-.22,0c-.09,0-.08.1,0,.21l.25,0s.18-.08.14-.14-.08-.05-.17-.05Zm-1.34.12a2.44,2.44,0,0,0,.22.31.23.23,0,0,0,0,.2c.06.3.15.42,0,.42a.22.22,0,0,1-.24-.16s-.16-.06-.16,0-.06.24,0,.32-.08.21-.14.15-.22-.24-.19-.3-.27-.45,0-.51,0-.24.1-.29l.15-.08h.16Zm-33.53.07a10.06,10.06,0,0,0-.61,2.18,12.39,12.39,0,0,0,.51,5.69c.66,2.2,2.8,3.76,3.9,5.78l.14.12A7.85,7.85,0,0,1,84.46,26a47.68,47.68,0,0,0,1.37-5,14.67,14.67,0,0,0,.36-4.14,6.55,6.55,0,0,1-.75,2c-1.46,2.26-3,4.92-1.93,7.8,0,0-.06.07-.1,0a21.82,21.82,0,0,1-.77-3c-.71-2.71-2.79-5-2.19-8.09Zm54.83,0c.6,3.12-1.47,5.38-2.18,8.08a21.47,21.47,0,0,1-.77,3s-.08,0-.1-.05c1-2.87-.47-5.52-1.93-7.79a6.41,6.41,0,0,1-.75-2,14.68,14.68,0,0,0,.36,4.15c.31,1.73.89,3.35,1.36,5a7.84,7.84,0,0,1,.08,3.31l.14-.12c1.09-2,3.24-3.58,3.89-5.78a12.25,12.25,0,0,0,.52-5.69,12.51,12.51,0,0,0-.62-2.17Zm-27.45.53,0,.49-.21-.07h-.15l-.06-.13-.12,0v.45l.12.09.1.1.2,0,0,.24.51,0,.06.1.3,0,.58.59,0,.19-.09.06c0,.14-.27.06-.27.06v.12l.15,0,.14.09.21-.35c.21-.15.32.06.33.18s-.09.09-.09.09v.29l.12,0a.24.24,0,0,1-.09.39l-.06.2a.25.25,0,0,1-.27.15l-.09.12-.24.06.47.06c0-.17.17-.21.23-.12a.46.46,0,0,1,.06.23l.12,0,0,.23.12,0v.65l.14.16c.25-.1.25.06.12.14s0,.45,0,.45l-.1.1v.17l-.12.08v.23a.55.55,0,0,0-.51,0c-.18-.12-.56-.08-.56,0s-.15.2-.15.2l-.15.16c.1.2-.09.23-.09.23v.38l-.24.23v.37l-.38,0a3.81,3.81,0,0,1-2.52-1,.07.07,0,0,0,0,0,.4.4,0,0,1,.27-.18l.06-.15.54,0c0-.23.31-.15.31,0s.2,0,.2,0l.15-.23h.21l0-.25.09-.06v-.36a.37.37,0,0,0,.28-.41l.09-.1,0-.14c-.16-.06-.08-.21,0-.17s-.15-.18-.15-.18-.22-.12-.22-.12h-.3v-.29l0-.27-.3-.14-.22.2,0,.29v.18l-.21,0,0,.56-.16.06,0,.2-.21.06-.22.06-.09.24-.15.1-.09.24-.09.58a3.92,3.92,0,0,1-.69-1,1.52,1.52,0,0,0,0-.28c-.18-.08-.08-.36.12-.12s-.12-.49-.12-.49l-.15-.15-.21,0a3.08,3.08,0,0,1,0-.61,2.09,2.09,0,0,1,0-.25.09.09,0,0,1,.12,0l.13.09.18.15,0,.12-.12.06,0,.17.06.23h.15a.34.34,0,0,1,.61-.12l.12-.29c-.28-.15,0-.37.07-.27s.27-.27.27-.27.14.19,0-.06a.24.24,0,0,1,.09-.36c0-.24.27-.2.27-.2l0-.33-.27,0c-.06.29-.31,0-.19,0a1,1,0,0,0,.25-.18v-.18l.12,0,0-.2h.3l.27-.12.06-.1.28,0,.4-.36,0-.15c-.24,0,0-.19,0-.19l0-.3H107l0-.43a2.63,2.63,0,0,1,.84-.12Zm12.23,1.19,0,.16h.13l0-.17Zm-.07.54-.06.12.1.06.07-.12Zm-20.85.81a.49.49,0,0,1,.32.1l.28,0a.36.36,0,0,1,.15.15,3.77,3.77,0,0,0,0,.57l0,.09a.44.44,0,0,0-.05.15H99l-.22,0c-.24-.15-.12-.68-.12-.68a.74.74,0,0,1,.5-.33Zm7,.39,0,.1H106l0,.17h.12l0,.12-.09.08,0,.1-.16,0-.36.35,0,.16-.09.15-.12.3-.43,0-.08.37.06.3.36.14,0-.2.12-.06,0-.21.09-.14.12-.15,0-.17.2-.12.24,0,.1-.13,0-.24v-.18l.08-.12.24-.1v-.38h-.12l0-.15Zm12.61.12,0,.12.22,0,0-.12Zm-.5.17-.06,0-.14.08-.14-.08-.06.09.16.1,0,0h0l.12-.07v0l.11-.05,0-.1Zm1.75.86h3.26a15.45,15.45,0,0,1-1.44,6.26h0a15.43,15.43,0,0,1-2.89,4.19l-.09-.08c0-.23,0-.52,0-.52l-.1-.1,0-.51c.08-.26-.39-.65-.42-.56s-.31,0-.31.09-.15.49-.08.63,0,0,0,0l-1.27-1.27a11.91,11.91,0,0,0,2.33-3.46,12.33,12.33,0,0,0,1-4.7Zm3.74,0h3.59a19.25,19.25,0,0,1-1.94,8.2h0a19.33,19.33,0,0,1-3.58,5.12l-2.54-2.54a15.91,15.91,0,0,0,3-4.3h0A15.94,15.94,0,0,0,123.71,20.16Zm-7,0h2.82a11.61,11.61,0,0,1-3.21,7.78,8.39,8.39,0,0,0-.14-.86L116,27l0-.5h-.22l-.36.47,0,.14-.21-.21.11-.11,0-.24.15-.12v-.2l.12,0,0-.45.09,0v-1l-.3-.29c0,.1-.34.1-.34.1s-.08.14-.14.14.08.18,0,.3-.2.12-.2.12l-.31.09-.08.09H114l0-.18s.06-.08.1-.12l.25-.07.21-.1.09-.2c0-.21.27-.18.27-.18s.46-.39.48-.57.19-.69.46-.69h.52c.21-.08.15-.35.15-.35l.26,0,0,.15s.36,0,.4,0,.12-.2.22-.14.42-.15.42-.15.52-.08.52-.08l.06-.18s-.34-.47-.4-.47-.39-.29-.42-.19c-.33-.08-.3-.53-.3-.53l-.13-.29c0-.17-.3-.5-.36-.47s-.17-.17-.15-.25Zm-20.43,0h1.41v.11l-.3.32,0,.33-.19.06,0,.15-.09.42.21,0c.1,0,.08.27,0,.3s-.3.13-.18.21-.33.06-.33-.06-.24-.23-.3-.18-.09,0-.12-.1a13.83,13.83,0,0,1-.13-1.58Zm2.08,0h.09l.1,0,.28,0,0,0h1l.08.52-.27.23a.25.25,0,0,0,0,.47c.16,0,.1.41-.15.15-.36,0,.21.32,0,.24.36.18.28-.16.28-.16l.18-.14a8.07,8.07,0,0,0,.31,1.17h0a8.28,8.28,0,0,0,1.72,2.8L99.45,28c-.17-.17-.32-.35-.47-.53a2.38,2.38,0,0,1,.11-.26c.26-.16-.06-.42-.06-.42a1,1,0,0,0-.15-.53.72.72,0,0,1-.26-.71v-.33c-.3-.29.12-.33.12-.33a.33.33,0,0,0-.1-.42l0-.26-.33,0,0-1-.73-1c-.15,0,0-.29,0-.29.18-.09,0-.35,0-.35l0-.44.43,0,.09-.16h.21l0-.53c.06-.14.13-.18.19-.19Zm5,0h.23c0,.14,0,.29,0,.42l-.12,0,0-.09-.06.23H103l0-.24.22-.06.09-.12Zm6,.28s-.07,0-.1.09v.27a2.66,2.66,0,0,0,.39.51c.1.06.27-.08.16-.15-.31-.2-.28-.47-.37-.65s0-.07-.08-.07Zm-10.5.18,0,.14h.1a2.14,2.14,0,0,1,0,1s-.24,0-.28-.1-.14.27-.06.33.37,0,.39.23.18-.14.18-.14V20.67Zm9.65.41-.36.26c.18,0,.21.21.22.29s0-.29.12-.26,0-.29,0-.29Zm-8,.16a.78.78,0,0,1,.36.38,3.57,3.57,0,0,0,.8,0,1,1,0,0,1,.3.5c.22-.29.69,0,.34.15.32.2.32.39.32.39.27-.09.27.12.27.18a2,2,0,0,0,.08-.3c-.3-.23.4-.31.21.09l-.12.18.2.16,0,.47c.45,0,.32-.59.32-.59l.21,0c0-.18.14-.08.14-.08-.09-.48.1-.69.22-.76a4,4,0,0,0,.58.83l-2.31,2.31a7.56,7.56,0,0,1-1.59-2.59,6.51,6.51,0,0,1-.36-1.31Zm18.2.48c-.17,0-.38.11-.32.19s.33.09.4.1.16.06.09-.18A.18.18,0,0,0,118.61,21.67ZM99.5,22a.07.07,0,0,0-.08.08h0a.08.08,0,1,0,.16,0S99.55,22,99.5,22Zm-.22.27-.3.21-.21-.12v.48l.33.43.12-.29,0-.19-.15-.06,0-.3.12,0Zm7.44.51-.19,0,0,.29.12.09.22.06s.3-.08.32-.32l-.46,0Zm2.53.16c.17,0,.14.41.12.54l-.36.14v-.45l.21-.23Zm-4.25.24a4.26,4.26,0,0,0,2.5,1.08h0s-.07.18,0,.22.06,0,.11.09l-.05.11c-.07-.1-.12.07-.07.12s-.11,0-.11.07,0,.1,0,.13,0,0-.07.09.25.06.25.06-.06-.12,0-.12h0v.21l-.08,0v.15l-.16,0,.14.16h.11v.36c0,.27-.66.09-.72,0l0,.36-.12,0,0,.25,0,.35.22,0V27l.54,0,.11-.11v.4l-.36,0-.16.08-.06-.12h-.16l-.09.13a7.42,7.42,0,0,1-1.39-.34h0a7.38,7.38,0,0,1-2.7-1.63Zm-19.16.19c.27,1.78-.43,3.35-.59,5a7.62,7.62,0,0,0,.65,3.91,5.76,5.76,0,0,1,.53,1,7,7,0,0,1-1.24-1.64c-1.68-2.72-5.2-4.48-5.44-7.8a10.27,10.27,0,0,0,.5,4.34,10.18,10.18,0,0,0,3.5,4.4c1.56,1.24,3.42,2.19,4.85,3.28a17.61,17.61,0,0,1-.92-2.1c-.86-3.4-.39-7.32-1.84-10.44Zm44,0c-1.46,3.12-1,7-1.82,10.41a15.71,15.71,0,0,1-.92,2.1c1.43-1.08,3.29-2,4.85-3.27a10.47,10.47,0,0,0,3.51-4.4,10.3,10.3,0,0,0,.49-4.34c-.24,3.31-3.76,5.08-5.44,7.8a7.08,7.08,0,0,1-1.24,1.64,6.64,6.64,0,0,1,.53-1,7.6,7.6,0,0,0,.65-3.9c-.18-1.67-.89-3.24-.62-5Zm-17.52.08s.09,0,.07.09,0,.27,0,.27c.27-.24.49,0,.46.08s.15.13.25.07.21.18.18.3-.4.09-.43,0-.08-.08-.12,0a.3.3,0,0,1-.26.06l-.09-.09s0,0,0-.07-.06,0-.11,0l-.18-.18c0-.12,0-.29,0-.34s.12-.12.2-.12Zm-13.06.07-.15,0,0,.17.15,0Zm25.11.18a.5.5,0,0,0-.24.09l.07.09a.34.34,0,0,1,.2-.06h0l.12,0s0-.08-.06-.09Zm-25,.21a.08.08,0,0,0-.09.08.09.09,0,0,0,.09.09.08.08,0,0,0,.08-.09A.09.09,0,0,0,99.37,23.86Zm10,.09a.3.3,0,0,0,0,.11l.1,0-.19.14-.15.18-.21-.06-.24,0-.08-.15-.15,0,0,.29-.1.12-.24.24c.25,0,.08.14,0,.2V24.2a4.8,4.8,0,0,0,.76-.11l0,0h.18V24a1.08,1.08,0,0,0,.3-.08Zm-9.87.33a.08.08,0,0,0-.08.08h0a.08.08,0,1,0,.16,0A.08.08,0,0,0,99.5,24.28Zm7.59.06c-.1,0-.18.31-.23.39s0,.17.13.15.15-.06.23-.07.11-.13.14-.26a.25.25,0,0,0,0-.19s-.07.13-.19,0l0,0Zm-8,.17-.17,0v.15l.17,0Zm12.09,0h.15l0,.1.62.06h0c.25.14.12.32,0,.36a.62.62,0,0,1-.22,0l0,.08-.52,0,0,.2a.29.29,0,0,0-.3.39.33.33,0,0,1,0,.26l.22.1.27-.08c0-.21.22-.25.39-.37s.42.23.34.39,0,0,0,.05a9,9,0,0,1-1,.57h0a7.42,7.42,0,0,1-1.68.58h0l-.21-.06,0-.31c0-.2-.42-.2-.4-.06s-.71.06-.72.06v-.55l.2-.22.46-.1c0-.2.24,0,.24,0,.21,0,.25.12.25.12l.26,0c.22.06.09.08.1.17s.12.08.12.08l0-.27.12,0-.12-.15-.22-.09-.24-.1c-.16-.23,0-.18.2-.16h.27a2.28,2.28,0,0,1,.3.51c0,.1.14.12.14.12l.19,0,.06.14h.18l.06.12h.36l0-.18-.34-.06,0-.2-.24-.06c-.08-.35.06-.45.16-.29l.12,0,0-.3.15,0,0-.42-.12,0V24.9l.51,0a.61.61,0,0,1,0-.41Zm14.54.93-.11.06s0,.06,0,.09a.11.11,0,0,0,0,.09.07.07,0,0,0,.08,0l0-.12s0,0,0,0v0a.46.46,0,0,0,0-.13Zm-.12.23-.12,0c0,.13.07.25.07.26l.11-.05a1.49,1.49,0,0,0-.06-.23Zm-9.42.12v.39h.14v-.39Zm-4.34.1-.16.09.06.11.16-.09Zm13.09.28c0,.09,0,.21.1.23l0-.13h0a.11.11,0,0,1,0-.1Zm-16.1.21v0Zm16,0a.29.29,0,0,0-.14.08c-.12.07-.07.38,0,.3s.17,0,.18-.23,0-.15,0-.15Zm-12.5.16.47.24c.06.09.33.06.33.06l.08.1a.34.34,0,0,1,.27.1c.09.12.62,0,.62,0l.15.12.22.09h.37l.23.23a2.12,2.12,0,0,1-1.15.06,3.54,3.54,0,0,0-.48-.24s-.33-.27-.39-.18-.34-.1-.34,0-.26-.15-.26-.15l-.4-.14.3-.06-.05-.2s0,0,0,0Zm-2.9.06-.15.11.06.06.06.1.15-.23ZM90.59,27.75V28h.16v.27h.12l0-.3-.16-.06v-.1Zm29.35.11V28h.19v-.17Zm-.17.42,0,.12,0,0,0,.11a.08.08,0,0,0,0,0l.08.08a.21.21,0,0,0-.08-.37Zm-3.51.36.89.88c0,.15-.19.23-.26.19s.1.09.15.18a.11.11,0,0,0,.2,0,.86.86,0,0,0,0-.24l.41.41c0,.11-.11.2-.08.27h0l.18.09,0,.35a.93.93,0,0,0,.68.1l.08.08a14.45,14.45,0,0,1-2.43,1.92v-.19c.37-.27.39-.74,0-.77s-.15-.31.1-.35l.14-.07V31.3l.46-.42v-.33l-1-.83c-.21-.07-.22-.33-.15-.57s.35-.32.53-.51Zm-24.66.05.14.36.08.18.16.23.22.21.08-.15-.14-.3L92,29.13l-.09-.29ZM87.67,29c1.22,2.44.69,5.58,2.27,7.88a10.73,10.73,0,0,0,1.82,2l0,0a8.11,8.11,0,0,1-1.63-1.11c-2.77-2.31-6.94-2.6-8.6-6.36.45,2.75,2.64,5.2,5,6.74s5.12,1.31,7.61,2.13c-2.31-1.86-2.66-4.65-3.68-7.1A18.37,18.37,0,0,0,87.67,29Zm40.4,0a17.26,17.26,0,0,0-2.79,4.22c-1,2.44-1.38,5.23-3.69,7.09,2.49-.82,5.38-.66,7.62-2.12s4.54-4,5-6.75c-1.65,3.76-5.82,4-8.59,6.36A7.71,7.71,0,0,1,124,38.89l0,0a12.72,12.72,0,0,0,1.83-2c1.58-2.33,1.06-5.47,2.28-7.91Zm-31.52.88a.69.69,0,0,1,.45.29.37.37,0,0,0,.13.16l-.3.3L96.28,30h.09C96.41,29.91,96.48,29.86,96.55,29.86ZM108.46,31a.68.68,0,0,1,.33.1.68.68,0,0,0,.52.06l.22.26a11.18,11.18,0,0,1-1.42.12v-.48a.58.58,0,0,1,.35-.06Zm10.44.29,2.54,2.54a19.47,19.47,0,0,1-4.83,3.44,19.16,19.16,0,0,1-8.5,2.09V35.77a15.53,15.53,0,0,0,4.26-.65l.35.11.1.33.16,0,.12-.09.48,0,.24-.23.27,0,1.9-1.61a17.42,17.42,0,0,0,2.91-2.25Zm-9.13.59,0,.1.34.1.24.06.08.35.19,0,.06.23c.21.16-.06.51-.06.51v.44l.15.09,0,.17.26.26.31,0,.49.53a14.9,14.9,0,0,1-3.76.53V32a11.41,11.41,0,0,0,1.68-.15Zm-4.86.33-.12.09-.06.05.06,0,.15.1.07-.1-.07-.06.06-.05Zm1.43,1.46,0,.11.12.06,0,0,.08.08.1-.1.06-.06-.07,0Zm-10.16,1,.15.24,0,.18.2.06.09.12.14-.08L96.7,35l-.27-.23Zm-4.54.23c1.51,2,1.94,5,4.69,6a8.18,8.18,0,0,1,1.47.49,3.9,3.9,0,0,1-1.49-.2c-3.54-.73-7.88.23-10.54-2.79a9.05,9.05,0,0,0,5.09,4.2c3.09,1,6.32-.12,9.22-.84.42-.11.93-.07,1.32-.22a8.86,8.86,0,0,1-4.44-2,46.09,46.09,0,0,0-5.32-4.67Zm32.44,0a47.74,47.74,0,0,0-5.31,4.67,9,9,0,0,1-4.44,2,13,13,0,0,0,1.32.22c2.91.73,6.13,1.86,9.22.84a9.26,9.26,0,0,0,5.09-4.2c-2.66,3-7,2.06-10.54,2.81a4.16,4.16,0,0,1-1.49.19,7.57,7.57,0,0,1,1.46-.48c2.76-1,3.18-4,4.69-6ZM104.94,41.5c-2.72,0-5.16,1.32-7.54,2.31a7.65,7.65,0,0,1-7-.6A7.91,7.91,0,0,0,94,45.62a8.32,8.32,0,0,0,7.34-1.1c1.49-1,2.77-2.3,4.55-2.3a5,5,0,0,1,.94.09,21.52,21.52,0,0,0-6.52,4.45,8.1,8.1,0,0,0,1.14,1c2-2,4.21-4.24,6.45-5.16,2.23.91,4.47,3.12,6.44,5.16a10.47,10.47,0,0,0,1.15-1,21.69,21.69,0,0,0-6.53-4.45,5,5,0,0,1,.94-.09c1.78,0,3.06,1.35,4.55,2.3a8.35,8.35,0,0,0,7.34,1.1,8,8,0,0,0,3.53-2.41,7.71,7.71,0,0,1-7,.6c-2.39-1-4.82-2.31-7.54-2.31a10,10,0,0,0-2.92.46,10,10,0,0,0-3-.46Z" style="fill:#00aeef"/></svg>