<svg xmlns="http://www.w3.org/2000/svg" viewBox="0 0 59.77 59.87"><path d="M.33,0H59.44a.33.33,0,0,1,.33.33v59.2a.34.34,0,0,1-.33.34H.33A.34.34,0,0,1,0,59.53V.33A.33.33,0,0,1,.33,0Z" style="fill:#d3a029;fill-rule:evenodd"/><path d="M17.26,10.39V9.75L18.62,6H17.36V5.35h2.06v.58L18.08,9.67h1.34v.72Z" style="fill:#fff"/><path d="M22.19,9.67v.72H20v-5h2.16V6H20.75V7.5H22v.69H20.75V9.67Z" style="fill:#fff"/><path d="M22.56,10.39v-5h1.27a1.14,1.14,0,0,1,.84.34,1.16,1.16,0,0,1,.34.85V7a1.2,1.2,0,0,1-.59,1.07l.77,2.31h-.77l-.68-2.16h-.45v2.16Zm1.61-3a.56.56,0,0,0,.09-.19.8.8,0,0,0,0-.23V6.54a.51.51,0,0,0-.13-.37A.45.45,0,0,0,23.8,6h-.51V7.59h.5a.49.49,0,0,0,.38-.16Z" style="fill:#fff"/><path d="M25.66,5.82a1.21,1.21,0,0,1,.43-.38,1.25,1.25,0,0,1,.56-.14,1.27,1.27,0,0,1,.52.11,1.31,1.31,0,0,1,.42.31,1.1,1.1,0,0,1,.22.41,1.51,1.51,0,0,1,.06.44V9.14a1.59,1.59,0,0,1,0,.4,1.34,1.34,0,0,1-.18.39,1.17,1.17,0,0,1-.4.36,1.14,1.14,0,0,1-.58.15,1.27,1.27,0,0,1-.34,0,1.44,1.44,0,0,1-.31-.13,1.74,1.74,0,0,1-.26-.19.82.82,0,0,1-.16-.22,1.39,1.39,0,0,1-.14-.38,2.92,2.92,0,0,1,0-.33V6.57a1.64,1.64,0,0,1,0-.4,1.46,1.46,0,0,1,.18-.35Zm1.4.4A.46.46,0,0,0,26.67,6a.51.51,0,0,0-.26.07.44.44,0,0,0-.17.16.64.64,0,0,0-.06.18,1,1,0,0,0,0,.15V9.23a.25.25,0,0,0,0,.08.58.58,0,0,0,.12.25.44.44,0,0,0,.38.16.48.48,0,0,0,.24-.06.49.49,0,0,0,.16-.16.64.64,0,0,0,.06-.16,1,1,0,0,0,0-.2V6.57a.91.91,0,0,0,0-.21.26.26,0,0,0-.07-.14Z" style="fill:#fff"/><path d="M17.41,17.35v-5h.72v2.15h.92V12.31h.71v5h-.71V15.1h-.92v2.25Z" style="fill:#fff"/><path d="M22.73,16.83a1.21,1.21,0,0,1-.43.41,1,1,0,0,1-.57.16,1.19,1.19,0,0,1-.32,0,1.36,1.36,0,0,1-.28-.11,1.43,1.43,0,0,1-.24-.16.59.59,0,0,1-.16-.21,1.2,1.2,0,0,1-.15-.37,1.79,1.79,0,0,1,0-.34V12.31h.72v4a.82.82,0,0,0,.12.21.39.39,0,0,0,.34.13.37.37,0,0,0,.32-.15.62.62,0,0,0,.11-.37V12.31h.73v3.85a2,2,0,0,1,0,.35,1.27,1.27,0,0,1-.13.32Z" style="fill:#fff"/><path d="M25.2,17.35l-1.12-3.06v3.06h-.73v-5H24l1.11,3.06V12.31h.73v5Z" style="fill:#fff"/><path d="M28.66,16.83a1.18,1.18,0,0,1-.44.42,1.21,1.21,0,0,1-1.15,0,1.19,1.19,0,0,1-.42-.33,1.21,1.21,0,0,1-.19-.4,2.16,2.16,0,0,1-.05-.46V13.54a1.55,1.55,0,0,1,0-.37,2,2,0,0,1,.28-.54,1,1,0,0,1,.92-.37,1.19,1.19,0,0,1,.56.14,1.09,1.09,0,0,1,.4.36.86.86,0,0,1,.18.39,1.6,1.6,0,0,1,.05.39v.21h-.72v-.21a.31.31,0,0,0,0-.1v-.09a.7.7,0,0,0-.12-.22.4.4,0,0,0-.35-.15c-.2,0-.33,0-.39.16a.89.89,0,0,0-.11.23.91.91,0,0,0,0,.17v2.74a1.24,1.24,0,0,0,.12.24.42.42,0,0,0,.38.16.41.41,0,0,0,.38-.16l.07-.14,0-.1a.28.28,0,0,0,0-.09v-1h-.58v-.63h1.3v1.52c0,.1,0,.19,0,.27l0,.19-.06.15a1.09,1.09,0,0,1-.08.15Z" style="fill:#fff"/><path d="M31.54,16.63v.72H29.38v-5h2.16V13H30.1v1.49h1.26v.69H30.1v1.48Z" style="fill:#fff"/><path d="M31.86,17.35v-5h1.26a1.14,1.14,0,0,1,.84.34,1.17,1.17,0,0,1,.35.85V14a1.17,1.17,0,0,1-.6,1.07l.77,2.31h-.77L33,15.19h-.45v2.16Zm1.6-3a.31.31,0,0,0,.09-.18.93.93,0,0,0,0-.24V13.5a.51.51,0,0,0-.13-.37.43.43,0,0,0-.36-.15h-.51v1.57h.51a.47.47,0,0,0,.37-.16Z" style="fill:#fff"/><path d="M33.72,52.15c.47,0,.56-.52.53-.85s.37-.47.57-.54a15.88,15.88,0,0,0,6.64-4.15,12.7,12.7,0,0,0,3.81-7.3.58.58,0,0,0-.57-.73H13.49a.58.58,0,0,0-.57.73,12.82,12.82,0,0,0,3.81,7.3,16,16,0,0,0,6.64,4.15c.21.07.6.13.57.54s.06.85.54.85ZM23.08,37.21h2.07a4.93,4.93,0,0,0-1.32-4.92,4.17,4.17,0,0,1-1.18-2.84A5.91,5.91,0,0,1,23.78,26c.67-1.07-.92-1.83-1.6-1a7.46,7.46,0,0,0-1.67,4.66c0,1.86.9,2.8,1.83,3.9,1.71,2.05.74,3.7.74,3.7Zm12.46,0h2.07a4.91,4.91,0,0,0-1.31-4.92,4.13,4.13,0,0,1-1.19-2.84A5.89,5.89,0,0,1,36.25,26c.66-1.07-.92-1.83-1.61-1A7.52,7.52,0,0,0,33,29.61c0,1.86.91,2.8,1.83,3.9,1.71,2.05.74,3.7.74,3.7Zm-6.2,0h2.07a4.91,4.91,0,0,0-1.31-4.92,4.13,4.13,0,0,1-1.19-2.84A5.89,5.89,0,0,1,30.05,26c.66-1.07-.93-1.83-1.61-1a7.52,7.52,0,0,0-1.67,4.66c0,1.86.91,2.8,1.83,3.9,1.71,2.05.74,3.7.74,3.7Z" style="fill:#fff;fill-rule:evenodd"/><path d="M11.27,17.44H6.14V15.86l3.2-6.24a1.88,1.88,0,0,0,.22-.88V7.83a.82.82,0,0,0-.25-.61A.81.81,0,0,0,8.69,7a.88.88,0,0,0-.59.24.72.72,0,0,0-.25.57V8.83H6.1V8a3.84,3.84,0,0,1,.52-1.71,2.24,2.24,0,0,1,2.17-1A2.31,2.31,0,0,1,10.53,6a2.54,2.54,0,0,1,.74,1.8v1.1a3.12,3.12,0,0,1-.39,1.48L8.17,15.73h3.1Z" style="fill:#fff"/></svg>