<svg xmlns="http://www.w3.org/2000/svg" viewBox="0 0 187.3 187.3"><circle cx="93.65" cy="93.65" r="93.65" transform="translate(-21.63 28.44) rotate(-15.5)" style="fill:#69e4e4"/><path d="M93.65,0A93.4,93.4,0,0,1,163,30.66l-.94-.14-4.16.71-4,5.74-5.77.91-.83,4.95,2.44.59-.7,3.19-5.73-1.16L138,46.61l-1.1,2.91.91,6.18,3.06,1.44,5.16,0,3.49-.32L150.6,54l5.46-7.11,3.58.75,3.52-3.22.66,2.5,8.69,5.91-1.07,1.42-3.92-.19L169,56.19l2.4.54,2.82-1.18,0-3.44,1.24-.63-1-1.08-5.79-3.24-1.54-4.33H172l1,1a92.92,92.92,0,0,1,9.13,19l-3.73.36v3.51h-1.81l-1.94-1.4-9.83-2.53V56.36l-12.49,1-3.87,2.11h-5L141,59.18l-6,3.38v6.32l-12.29,8.93,1,3.83h2.5l-.65,3.62-1.75.66-.1,9.49,10.61,12.21H139l.26-.76h8.33l2.39-2.23h4.72l2.58,2.6,7,.75-.93,9.39,7.81,13.88-4.11,7.92.27,3.72,3.23,3.24V147a93.78,93.78,0,0,1-96.19,38.3l2-2,.37-2-3-.88.17-1.87,4.36-.66,6.62-3.18,2.22-4.1,6.93-8.95-1.58-7L94.62,151l6.38.2,4.31-3.41,1.38-13.48,4.75-6.1.85-3.91-4.36-1.42-2.87-4.73-9.78-.1-7.77-3-.36-5.59-2.61-4.56-7-.1L73.47,98.4l-3.61-1.79-.19,2L63.12,99,60.71,95.6l-6.84-1.39-5.65,6.54-8.86-1.49L38.7,89.18l-6.47-1.13,2.6-4.92-.75-2.84L25.59,86l-5.36-.66-1.9-4.22,1.15-4.34,3-5.49,6.79-3.46H42.35l0,4L47,74.11l-.36-6.89,3.38-3.46,6.86-4.53L57.4,56l6.84-7.18,7.25-4-.63-.54,4.92-4.66,1.8.48.83,1,1.87-2.08.47-.22-2-.29-2.09-.69v-2l1.11-.91h2.42l1.12.49,1,2,1.16-.2V37l.35.12,3.41-.51.48-1.7,2,.49v1.84l-1.81,1.26.27,2,6.17,1.91,0,.07,1.41-.12.1-2.7-4.89-2.22-.27-1.3,4.06-1.4.17-3.92-4.25-2.6-.27-6.6-5.82,2.87H82.35l.53-5L75,17.58l-3.29,2.5V27.7L65.8,29.57l-2.36,5L60.86,35V28.61l-5.53-.79L52.55,26l-1.12-4.12,9.91-5.83,4.87-1.5.49,3.29,2.7-.12.19-1.67,2.83-.39,0-.59-1.22-.52L71,12.83l3.49-.3,2.09-2.21.12-.14h0l.64-.67,7.3-.93,3.24,2.77-8.47,4.54,10.75,2.57,1.42-3.63h4.7L98,11.67l-3.33-.86v-4L84.17,2.16,77,3,72.91,5.15l.27,5.2-4.27-.64-.65-2.89,4.09-3.73L70.13,3A94,94,0,0,1,93.65,0ZM63.58,182.37,64,177.8l-3.9-5.22,1.58-8.85-2.31-.64v-19.2S52.85,139,52.48,139s-3.4-.83-3.4-.83l-.66-3.63L40,123.89l.86-3.82.26-6.23,5.82-4.09-.82-7-8.52-.64-6.65-7.65-4.7-1.29-3.07-.56.37-2.78-3.87-.56v1.57L10,88.45,6,82.42,7.65,79.5,2.52,72c-.24,1-.46,2-.67,3.06l1.2,1.85-.46,2.6-1.52-.07A95.29,95.29,0,0,0,0,93.65a93.7,93.7,0,0,0,63.58,88.72ZM51.73,9.89c.06.84.1,1.59.1,1.59l6.84-.2.73-1.84,4.72-.29.56-2.79L61.9,5.88l.16-.41A93.52,93.52,0,0,0,51.73,9.89ZM37.17,31.09,39,34.79l2.85-.91.9-3.55-2.63-.64-2.9,1.4Zm15.46,8.38h-1V38.15H47.3l-3.19,1.32-.63,1.62,2.48.68h6.67v-2.3Zm3,3.21H51.93v3.7L54,46l1.66-1.08V42.68Zm-1.87-.91,2.29-.56L53.8,39.13v2.64Zm1,5.37-2.55.37-.34.83-1.68.15-.56,2.43h3.55l1.58-1.6V47.14ZM46,42.68l-2.55,2.8-.42,2.79,1.95,1,4.7-6.64Zm15,3.7-4.2-1.25h-.29v2l1,1.42h3.52V46.38Zm-3.25-3,1.36,1.13,1.36-1.13-1.7-1Z" style="fill:#d2fbfb;fill-rule:evenodd"/><polyline points="47.76 58.26 46.64 60.49 47.87 62.67" style="fill:none;stroke:#fff;stroke-miterlimit:10"/><line x1="48.81" y1="64.34" x2="87.95" y2="133.79" style="fill:none;stroke:#fff;stroke-miterlimit:10;stroke-dasharray:4.802245140075684,1.9208980798721313"/><polyline points="88.42 134.63 89.65 136.81 91.91 135.73" style="fill:none;stroke:#fff;stroke-miterlimit:10"/><polyline points="93.73 134.86 99.31 132.21 168.18 96.41" style="fill:none;stroke:#fff;stroke-miterlimit:10;stroke-dasharray:5.047894477844238,2.019157648086548"/><polyline points="169.07 95.94 171.29 94.79 170.03 92.63" style="fill:none;stroke:#fff;stroke-miterlimit:10"/><line x1="169.16" y1="91.14" x2="166.55" y2="86.67" style="fill:none;stroke:#fff;stroke-miterlimit:10;stroke-dasharray:4.313602924346924,1.7254412174224854"/><polyline points="166.11 85.92 164.85 83.77 162.42 83.18" style="fill:none;stroke:#fff;stroke-miterlimit:10"/><line x1="160.47" y1="82.71" x2="52.33" y2="56.75" style="fill:none;stroke:#fff;stroke-miterlimit:10;stroke-dasharray:5.009510517120361,2.0038042068481445"/><polyline points="51.36 56.51 48.93 55.93 47.81 58.16" style="fill:none;stroke:#fff;stroke-miterlimit:10"/><path d="M37.73,39.4A13.37,13.37,0,1,0,51.1,52.77,13.39,13.39,0,0,0,37.73,39.4Z" style="fill:#230050"/><path d="M92.64,127A13.37,13.37,0,1,0,106,140.36,13.39,13.39,0,0,0,92.64,127Z" style="fill:#230050"/><path d="M169.29,82.9a6.8,6.8,0,1,0,6.79,6.8A6.8,6.8,0,0,0,169.29,82.9Z" style="fill:#230050"/><path d="M37.73,46.61v0Z" style="fill:none;stroke:#05bdbd;stroke-miterlimit:10;stroke-width:2px"/><path d="M54.6,34.24a17.26,17.26,0,0,0-33.74,0,.57.57,0,0,0,1,.52,4.3,4.3,0,0,1,6.69.85.57.57,0,0,0,1-.09,4.32,4.32,0,0,1,7.72-.17.56.56,0,0,0,1,0,4.32,4.32,0,0,1,7.72.17.57.57,0,0,0,1,.09,4.3,4.3,0,0,1,6.69-.85A.57.57,0,0,0,54.6,34.24Z" style="fill:#fa3c4b"/><path d="M93.65,136.8v0Z" style="fill:none;stroke:#05bdbd;stroke-miterlimit:10;stroke-width:2px"/><path d="M110.52,124.43a17.26,17.26,0,0,0-33.74,0,.58.58,0,0,0,1,.52,4.3,4.3,0,0,1,6.69.85.57.57,0,0,0,1-.09,4.32,4.32,0,0,1,7.72-.17.57.57,0,0,0,1,0,4.32,4.32,0,0,1,7.72.17.57.57,0,0,0,1,.09,4.29,4.29,0,0,1,6.68-.85A.57.57,0,0,0,110.52,124.43Z" style="fill:#fa3c4b"/><path d="M169.29,89.7v0Z" style="fill:none;stroke:#05bdbd;stroke-miterlimit:10;stroke-width:2px"/><path d="M186.16,77.32a17.27,17.27,0,0,0-33.74,0,.57.57,0,0,0,1,.52,4.3,4.3,0,0,1,6.69.85.57.57,0,0,0,1-.09,4.32,4.32,0,0,1,7.72-.17.56.56,0,0,0,1,0,4.32,4.32,0,0,1,7.72.17.57.57,0,0,0,1,.09,4.3,4.3,0,0,1,6.69-.85A.57.57,0,0,0,186.16,77.32Z" style="fill:#fa3c4b"/></svg>