<svg xmlns="http://www.w3.org/2000/svg" xmlns:xlink="http://www.w3.org/1999/xlink" viewBox="0 0 155.56 155.57"><defs><clipPath id="clip-path" transform="translate(-0.01 0.01)"><path d="M77.79,77.78l-13.5,76.6A77.78,77.78,0,0,1,77.79,0Z" style="fill:none"/></clipPath><clipPath id="clip-path-2" transform="translate(-0.01 0.01)"><path d="M77.2,77.78V0a77.78,77.78,0,0,1,0,155.56,68.77,68.77,0,0,1-13.51-1.18Z" style="fill:none"/></clipPath></defs><g id="Layer_2" data-name="Layer 2"><g id="Layer_1-2" data-name="Layer 1"><g style="clip-path:url(#clip-path)"><circle cx="77.78" cy="77.78" r="77.78" style="fill:#05d2d2"/><path d="M77.79,0A77.79,77.79,0,0,0,.51,69L9.85,74.4v-12l10.44,6v24l20.89,12v-24l10.44-6,10.44,6v12l10.44,6v-12l20.89-12v-12l10.44-6v-12l-10.44-6v-12l10.44-6,10.44,6V9.07A77.43,77.43,0,0,0,77.79,0ZM72.52,98.46l-10.44,6v24l10.44-6Zm10.44,6,10.45-6,10.44,6L83,116.51ZM62.08,154a79.09,79.09,0,0,0,15.72,1.59,77.55,77.55,0,0,0,57.39-25.3v-7.76l-31.33-18v12L62.09,140.55V154ZM93.41,86.43l10.44-6v12Zm20.88-48.09,10.45,6v24l-10.45,6-10.44-6,10.44-6Zm10.45,66.14,10.44,6,10.45-6-10.45-6Z" transform="translate(-0.01 0.01)" style="fill:#1e2dbe"/></g><g style="clip-path:url(#clip-path-2)"><circle cx="77.78" cy="77.78" r="77.78" style="fill:#9ef2f2"/><path d="M77.79,0A77.79,77.79,0,0,0,.51,69L9.85,74.4v-12l10.44,6v24l20.89,12v-24l10.44-6,10.44,6v12l10.44,6v-12l20.89-12v-12l10.44-6v-12l-10.44-6v-12l10.44-6,10.44,6V9.07A77.43,77.43,0,0,0,77.79,0ZM72.52,98.46l-10.44,6v24l10.44-6Zm10.44,6,10.45-6,10.44,6L83,116.51ZM62.08,154a79.09,79.09,0,0,0,15.72,1.59,77.55,77.55,0,0,0,57.39-25.3v-7.76l-31.33-18v12L62.09,140.55V154ZM93.41,86.43l10.44-6v12Zm20.88-48.09,10.45,6v24l-10.45,6-10.44-6,10.44-6Zm10.45,66.14,10.44,6,10.45-6-10.45-6Z" transform="translate(-0.01 0.01)" style="fill:#82afdc"/></g></g></g></svg>