<svg xmlns="http://www.w3.org/2000/svg" viewBox="0 0 409.64 274.59"><path d="M235.85,9.48a2.78,2.78,0,0,1-1.85-.6,2.22,2.22,0,0,1-.72-1.8A6.57,6.57,0,0,1,233.39,6l.78-4.36h1.31l-.8,4.58a5.59,5.59,0,0,0-.08.73c0,.84.45,1.26,1.33,1.26a2,2,0,0,0,1.25-.4,2.22,2.22,0,0,0,.66-1.4l.84-4.77H240l-.84,4.87A3.62,3.62,0,0,1,238,8.82,3.38,3.38,0,0,1,235.85,9.48Z" transform="translate(-0.79 -1.41)"/><path d="M240.22,9.35l1-5.62h1.26l-.1.57a1.72,1.72,0,0,1,1.41-.7,1.52,1.52,0,0,1,1.21.48,1.85,1.85,0,0,1,.43,1.29,3.68,3.68,0,0,1-.09.79l-.56,3.19h-1.26l.57-3.18a3,3,0,0,0,0-.53c0-.58-.26-.87-.79-.87a1.22,1.22,0,0,0-.82.34,1.62,1.62,0,0,0-.47,1l-.58,3.28Z" transform="translate(-0.79 -1.41)"/><path d="M246.34,9.35l1-5.62h1.25l-1,5.62Zm1.76-6.41a.59.59,0,0,1-.44-.18.58.58,0,0,1-.17-.44.84.84,0,0,1,.25-.61.77.77,0,0,1,.56-.26.62.62,0,0,1,.46.18.59.59,0,0,1,.18.44.85.85,0,0,1-.26.61A.78.78,0,0,1,248.1,2.94Z" transform="translate(-0.79 -1.41)"/><path d="M250.8,9.48a1.14,1.14,0,0,1-.82-.29,1,1,0,0,1-.3-.76,3.71,3.71,0,0,1,.08-.73l.5-2.86h-.88l.19-1.11h.89l.33-1.88,1.31-.44-.4,2.32h1.23l-.19,1.11h-1.23L251,7.58A2.17,2.17,0,0,0,251,8c0,.23.14.35.41.35a2.13,2.13,0,0,0,.84-.23L252,9.24A2.57,2.57,0,0,1,250.8,9.48Z" transform="translate(-0.79 -1.41)"/><path d="M255.51,9.48a2.17,2.17,0,0,1-1.63-.63,2.42,2.42,0,0,1-.61-1.76,3.83,3.83,0,0,1,.83-2.46,2.67,2.67,0,0,1,2.19-1,2,2,0,0,1,1.53.59,2.3,2.3,0,0,1,.54,1.62,4,4,0,0,1-.2,1.22h-3.61v.12a1.2,1.2,0,0,0,.32.89,1.09,1.09,0,0,0,.8.32,1.77,1.77,0,0,0,1.27-.55l.63.84A2.87,2.87,0,0,1,255.51,9.48ZM254.73,6h2.41a.91.91,0,0,0,0-.33.9.9,0,0,0-1-.91,1.32,1.32,0,0,0-.91.33A1.74,1.74,0,0,0,254.73,6Z" transform="translate(-0.79 -1.41)"/><path d="M261,9.48a1.58,1.58,0,0,1-1.33-.64,2.79,2.79,0,0,1-.49-1.7A3.87,3.87,0,0,1,260,4.56a2.5,2.5,0,0,1,2-1,1.3,1.3,0,0,1,1.16.54l.41-2.29,1.33-.44-1.39,7.94h-1.24l.09-.5A1.65,1.65,0,0,1,261,9.48Zm.41-1.21a1.38,1.38,0,0,0,1.13-.56l.41-2.35A.91.91,0,0,0,262,4.8a1.32,1.32,0,0,0-1.16.62A2.75,2.75,0,0,0,260.4,7a1.59,1.59,0,0,0,.24.92A.8.8,0,0,0,261.36,8.27Z" transform="translate(-0.79 -1.41)"/><path d="M267.52,9.35l1.35-7.7h1.22l2.18,4.81a3,3,0,0,1,.21.55,5.43,5.43,0,0,1,.06-.55l.85-4.81h1.3l-1.36,7.7h-1.18L270,4.61a5.29,5.29,0,0,1-.24-.63s0,.25-.08.64l-.84,4.73Z" transform="translate(-0.79 -1.41)"/><path d="M278,9.35l.09-.45a2.07,2.07,0,0,1-1.53.58A1.76,1.76,0,0,1,275.38,9a1.57,1.57,0,0,1-.48-1.2,1.88,1.88,0,0,1,.68-1.54,2.79,2.79,0,0,1,1.77-.55,2.4,2.4,0,0,1,1.27.35l.05-.28a2,2,0,0,0,0-.39c0-.48-.28-.72-.85-.72a3.36,3.36,0,0,0-1.78.57l-.17-1A4,4,0,0,1,278,3.6a2.48,2.48,0,0,1,.61.07,2.16,2.16,0,0,1,.61.26,1.26,1.26,0,0,1,.5.52,1.78,1.78,0,0,1,.19.83,4.4,4.4,0,0,1-.08.63l-.6,3.44Zm-1.11-1a2,2,0,0,0,1.38-.55l.13-.73a2.51,2.51,0,0,0-1.11-.26,1.52,1.52,0,0,0-.85.23.73.73,0,0,0-.35.67.56.56,0,0,0,.21.46A.9.9,0,0,0,276.93,8.37Z" transform="translate(-0.79 -1.41)"/><path d="M282.37,9.48a1.14,1.14,0,0,1-.82-.29,1,1,0,0,1-.3-.76,3.71,3.71,0,0,1,.08-.73l.5-2.86H281l.19-1.11H282l.33-1.88,1.32-.44-.4,2.32h1.23l-.19,1.11h-1.23l-.48,2.74a2.17,2.17,0,0,0-.07.44c0,.23.14.35.41.35a2.13,2.13,0,0,0,.84-.23l-.26,1.1A2.57,2.57,0,0,1,282.37,9.48Z" transform="translate(-0.79 -1.41)"/><path d="M284.8,9.35l1-5.62H287l-1,5.62Zm1.76-6.41a.57.57,0,0,1-.44-.18.59.59,0,0,1-.18-.44.84.84,0,0,1,.25-.61.79.79,0,0,1,.56-.26.6.6,0,0,1,.64.62.84.84,0,0,1-.25.61A.8.8,0,0,1,286.56,2.94Z" transform="translate(-0.79 -1.41)"/><path d="M289.93,9.48a2,2,0,0,1-1.62-.64,2.67,2.67,0,0,1-.54-1.78,3.78,3.78,0,0,1,.81-2.46,2.57,2.57,0,0,1,2.12-1,1.93,1.93,0,0,1,1.56.66,2.54,2.54,0,0,1,.56,1.7,4,4,0,0,1-.8,2.52A2.54,2.54,0,0,1,289.93,9.48ZM290,8.27a1.29,1.29,0,0,0,1.11-.62,2.53,2.53,0,0,0,.43-1.5,1.69,1.69,0,0,0-.25-1,.87.87,0,0,0-.76-.36,1.27,1.27,0,0,0-1.11.62A2.56,2.56,0,0,0,289,6.91C289,7.82,289.35,8.27,290,8.27Z" transform="translate(-0.79 -1.41)"/><path d="M293.56,9.35l1-5.62h1.26l-.1.57a1.72,1.72,0,0,1,1.41-.7,1.53,1.53,0,0,1,1.21.48,1.89,1.89,0,0,1,.42,1.29,3.65,3.65,0,0,1-.08.79l-.56,3.19h-1.26l.56-3.18a2.26,2.26,0,0,0,.06-.53c0-.58-.27-.87-.79-.87a1.22,1.22,0,0,0-.82.34,1.62,1.62,0,0,0-.47,1l-.58,3.28Z" transform="translate(-0.79 -1.41)"/><path d="M301.53,9.48a2.65,2.65,0,0,1-1.23-.28,1.83,1.83,0,0,1-.81-.74l.92-.71a1.48,1.48,0,0,0,1.24.65,1.19,1.19,0,0,0,.64-.16.49.49,0,0,0,.26-.45.51.51,0,0,0-.25-.42,3.28,3.28,0,0,0-.6-.35c-.24-.11-.48-.23-.72-.37a1.8,1.8,0,0,1-.6-.53,1.31,1.31,0,0,1-.25-.8,1.54,1.54,0,0,1,.6-1.26,2.44,2.44,0,0,1,1.55-.46,2.25,2.25,0,0,1,1.11.26,2,2,0,0,1,.74.63l-.93.69a1.25,1.25,0,0,0-1.05-.53,1,1,0,0,0-.58.16.51.51,0,0,0-.23.43.45.45,0,0,0,.25.36,4.28,4.28,0,0,0,.61.34c.24.11.48.23.72.37a1.81,1.81,0,0,1,.62.55,1.37,1.37,0,0,1,.25.82A1.59,1.59,0,0,1,303.18,9,2.59,2.59,0,0,1,301.53,9.48Z" transform="translate(-0.79 -1.41)"/><path d="M32.56,23.35l1.35-7.7H37a2.57,2.57,0,0,1,1,.19,1.66,1.66,0,0,1,.67.5A2.29,2.29,0,0,1,39,17a2.37,2.37,0,0,1,.11.76,2.61,2.61,0,0,1-.74,1.88,2.71,2.71,0,0,1-2.07.78H34.39l-.51,2.92Zm3.88-4.14a1.23,1.23,0,0,0,1-.41,1.37,1.37,0,0,0,.34-.91c0-.68-.31-1-.93-1H35l-.42,2.33Z" transform="translate(-0.79 -1.41)"/><path d="M42.34,23.35l.08-.45a2,2,0,0,1-1.52.59A1.74,1.74,0,0,1,39.67,23a1.54,1.54,0,0,1-.48-1.19,1.85,1.85,0,0,1,.69-1.54,2.7,2.7,0,0,1,1.76-.55,2.4,2.4,0,0,1,1.27.35l.05-.29a1.89,1.89,0,0,0,0-.38c0-.49-.29-.73-.86-.73a3.3,3.3,0,0,0-1.77.57l-.18-1a4,4,0,0,1,2.14-.65,2.62,2.62,0,0,1,.61.08,2.38,2.38,0,0,1,.61.25,1.3,1.3,0,0,1,.49.52,1.67,1.67,0,0,1,.19.83,4.09,4.09,0,0,1-.08.63l-.59,3.44Zm-1.11-1a2,2,0,0,0,1.37-.55l.13-.73a2.38,2.38,0,0,0-1.11-.26,1.51,1.51,0,0,0-.85.22.76.76,0,0,0-.35.68.55.55,0,0,0,.22.46A.89.89,0,0,0,41.23,22.38Z" transform="translate(-0.79 -1.41)"/><path d="M45,23.35l1-5.62h1.25l-.11.6a1.5,1.5,0,0,1,1.28-.74,1.21,1.21,0,0,1,.89.39L49,19.15a1.23,1.23,0,0,0-.83-.32,1.18,1.18,0,0,0-.79.33,1.73,1.73,0,0,0-.51,1.05l-.55,3.14Z" transform="translate(-0.79 -1.41)"/><path d="M51,23.49a1.14,1.14,0,0,1-.82-.29,1.06,1.06,0,0,1-.29-.77A3.75,3.75,0,0,1,50,21.7l.5-2.86h-.88l.2-1.11h.88L51,15.85l1.32-.44-.41,2.32h1.23L53,18.84H51.75l-.48,2.74a2.28,2.28,0,0,0-.07.44c0,.24.14.36.41.36a2,2,0,0,0,.85-.24l-.27,1.1A2.44,2.44,0,0,1,51,23.49Z" transform="translate(-0.79 -1.41)"/><path d="M53.47,23.35l1-5.62h1.25l-.1.58A1.75,1.75,0,0,1,57,17.6a1.53,1.53,0,0,1,1.22.49,1.88,1.88,0,0,1,.42,1.28,3.61,3.61,0,0,1-.09.79L58,23.35H56.76l.56-3.17a3.07,3.07,0,0,0,0-.53c0-.58-.26-.87-.79-.87a1.17,1.17,0,0,0-.81.34,1.63,1.63,0,0,0-.48,1l-.58,3.27Z" transform="translate(-0.79 -1.41)"/><path d="M61.87,23.49a2.14,2.14,0,0,1-1.63-.64,2.39,2.39,0,0,1-.61-1.75,3.77,3.77,0,0,1,.83-2.46,2.66,2.66,0,0,1,2.18-1,2,2,0,0,1,1.54.59,2.3,2.3,0,0,1,.54,1.62A3.68,3.68,0,0,1,64.51,21H60.9v.12a1.23,1.23,0,0,0,.32.89,1.08,1.08,0,0,0,.81.32,1.77,1.77,0,0,0,1.27-.55l.63.84A2.84,2.84,0,0,1,61.87,23.49ZM61.09,20H63.5a1.8,1.8,0,0,0,0-.33.91.91,0,0,0-1-.92,1.29,1.29,0,0,0-.91.34A1.67,1.67,0,0,0,61.09,20Z" transform="translate(-0.79 -1.41)"/><path d="M65.34,23.35l1-5.62h1.25l-.11.6a1.5,1.5,0,0,1,1.28-.74,1.23,1.23,0,0,1,.89.39l-.38,1.17a1.21,1.21,0,0,0-.82-.32,1.18,1.18,0,0,0-.79.33,1.73,1.73,0,0,0-.51,1.05l-.55,3.14Z" transform="translate(-0.79 -1.41)"/><path d="M74.44,23.49a2,2,0,0,1-1.55-.67A2.71,2.71,0,0,1,72.33,21a3.76,3.76,0,0,1,.8-2.45,2.56,2.56,0,0,1,2.1-1,2,2,0,0,1,1.28.42,1.9,1.9,0,0,1,.68,1.11L76,19.54a.85.85,0,0,0-.9-.74,1.21,1.21,0,0,0-1,.63A2.69,2.69,0,0,0,73.61,21a1.78,1.78,0,0,0,.23.95.74.74,0,0,0,.68.37,1.22,1.22,0,0,0,1.15-.83l1.11.39a2.67,2.67,0,0,1-.92,1.21A2.44,2.44,0,0,1,74.44,23.49Z" transform="translate(-0.79 -1.41)"/><path d="M80.07,23.49a2.06,2.06,0,0,1-1.63-.64,2.68,2.68,0,0,1-.54-1.78,3.8,3.8,0,0,1,.81-2.47,2.63,2.63,0,0,1,2.13-1,1.92,1.92,0,0,1,1.55.66A2.57,2.57,0,0,1,83,20a3.93,3.93,0,0,1-.8,2.51A2.54,2.54,0,0,1,80.07,23.49Zm.08-1.21a1.29,1.29,0,0,0,1.11-.62,2.58,2.58,0,0,0,.43-1.51,1.73,1.73,0,0,0-.25-1,.87.87,0,0,0-.76-.36,1.3,1.3,0,0,0-1.11.63,2.53,2.53,0,0,0-.43,1.48C79.14,21.82,79.48,22.28,80.15,22.28Z" transform="translate(-0.79 -1.41)"/><path d="M87,23.35l.09-.52a2,2,0,0,1-1.57.66A1.51,1.51,0,0,1,84.39,23a1.77,1.77,0,0,1-.45-1.3,6,6,0,0,1,0-.63l.6-3.38h1.26l-.57,3.18a3.38,3.38,0,0,0-.06.53.85.85,0,0,0,.21.62.77.77,0,0,0,.59.22A1.43,1.43,0,0,0,86.9,22a1.36,1.36,0,0,0,.48-.9L88,17.73h1.25l-1,5.62Z" transform="translate(-0.79 -1.41)"/><path d="M89.81,23.35l1-5.62h1.26l-.1.58a1.72,1.72,0,0,1,1.4-.71,1.51,1.51,0,0,1,1.22.49A1.88,1.88,0,0,1,95,19.37a4.32,4.32,0,0,1-.08.79l-.57,3.19H93.1l.56-3.17a2.33,2.33,0,0,0,.06-.53c0-.58-.27-.87-.8-.87a1.17,1.17,0,0,0-.81.34,1.57,1.57,0,0,0-.47,1l-.59,3.27Z" transform="translate(-0.79 -1.41)"/><path d="M97.53,23.49a1.13,1.13,0,0,1-.81-.29,1,1,0,0,1-.3-.77,3.79,3.79,0,0,1,.08-.73L97,18.84h-.88l.2-1.11h.88l.33-1.88,1.32-.44-.4,2.32h1.23l-.19,1.11H98.25l-.49,2.74a3,3,0,0,0-.06.44c0,.24.13.36.41.36a2,2,0,0,0,.84-.24l-.26,1.1A2.45,2.45,0,0,1,97.53,23.49Z" transform="translate(-0.79 -1.41)"/><path d="M99.93,23.35l1-5.62h1.26l-.11.6a1.48,1.48,0,0,1,1.27-.74,1.2,1.2,0,0,1,.89.39l-.37,1.17a1.23,1.23,0,0,0-.83-.32,1.18,1.18,0,0,0-.79.33,1.68,1.68,0,0,0-.5,1.05l-.55,3.14Z" transform="translate(-0.79 -1.41)"/><path d="M104.34,23.35l1-5.62h1.26l-1,5.62Zm1.76-6.41a.64.64,0,0,1-.44-.17.6.6,0,0,1-.17-.44.86.86,0,0,1,.25-.62.76.76,0,0,1,.56-.25.64.64,0,0,1,.46.17.6.6,0,0,1,.18.44.86.86,0,0,1-.25.61A.78.78,0,0,1,106.1,16.94Z" transform="translate(-0.79 -1.41)"/><path d="M109.48,23.49a2.12,2.12,0,0,1-1.63-.64,2.39,2.39,0,0,1-.61-1.75,3.77,3.77,0,0,1,.83-2.46,2.66,2.66,0,0,1,2.18-1,2,2,0,0,1,1.53.59,2.26,2.26,0,0,1,.55,1.62,3.68,3.68,0,0,1-.21,1.22h-3.61v.12a1.23,1.23,0,0,0,.32.89,1.06,1.06,0,0,0,.8.32,1.79,1.79,0,0,0,1.28-.55l.63.84A2.85,2.85,0,0,1,109.48,23.49ZM108.7,20h2.41a1.8,1.8,0,0,0,0-.33.92.92,0,0,0-1-.92,1.31,1.31,0,0,0-.92.34A1.72,1.72,0,0,0,108.7,20Z" transform="translate(-0.79 -1.41)"/><path d="M114.83,23.49a2.78,2.78,0,0,1-1.23-.28,1.85,1.85,0,0,1-.81-.75l.91-.7a1.52,1.52,0,0,0,1.25.65,1.14,1.14,0,0,0,.63-.16.51.51,0,0,0,.27-.46.53.53,0,0,0-.25-.42A3.66,3.66,0,0,0,115,21q-.36-.16-.72-.36a1.72,1.72,0,0,1-.6-.54,1.28,1.28,0,0,1-.25-.79,1.51,1.51,0,0,1,.6-1.26,2.44,2.44,0,0,1,1.54-.47,2.29,2.29,0,0,1,1.12.27,2,2,0,0,1,.74.62l-.93.7a1.22,1.22,0,0,0-1-.53,1,1,0,0,0-.59.16.47.47,0,0,0-.22.42.46.46,0,0,0,.25.37,4.8,4.8,0,0,0,.61.33c.24.11.48.24.72.37a1.94,1.94,0,0,1,.62.56,1.32,1.32,0,0,1,.25.81,1.58,1.58,0,0,1-.61,1.32A2.55,2.55,0,0,1,114.83,23.49Z" transform="translate(-0.79 -1.41)"/><path d="M325.81,90.35l1.36-7.7h3.08a2.4,2.4,0,0,1,1,.19,1.64,1.64,0,0,1,.67.5,2.05,2.05,0,0,1,.35.67,2.36,2.36,0,0,1,.12.75,2.64,2.64,0,0,1-.74,1.88,2.74,2.74,0,0,1-2.08.78h-1.91l-.52,2.93Zm3.89-4.15a1.25,1.25,0,0,0,1-.4,1.4,1.4,0,0,0,.34-.92c0-.67-.31-1-.94-1h-1.83l-.42,2.33Z" transform="translate(-0.79 -1.41)"/><path d="M332.49,90.35l1-5.62h1.25l-.11.59a1.49,1.49,0,0,1,1.28-.73,1.2,1.2,0,0,1,.89.38l-.37,1.18a1.19,1.19,0,0,0-.83-.32,1.21,1.21,0,0,0-.79.32,1.79,1.79,0,0,0-.51,1l-.55,3.15Z" transform="translate(-0.79 -1.41)"/><path d="M336.9,90.35l1-5.62h1.26l-1,5.62Zm1.76-6.41a.6.6,0,0,1-.44-.18.59.59,0,0,1-.18-.44.85.85,0,0,1,.26-.61.77.77,0,0,1,.56-.26.62.62,0,0,1,.46.18.59.59,0,0,1,.18.44.85.85,0,0,1-.26.61A.78.78,0,0,1,338.66,83.94Z" transform="translate(-0.79 -1.41)"/><path d="M342,90.48a2,2,0,0,1-1.62-.64,2.62,2.62,0,0,1-.55-1.78,3.78,3.78,0,0,1,.81-2.46,2.6,2.6,0,0,1,2.13-1,1.91,1.91,0,0,1,1.55.66,2.54,2.54,0,0,1,.56,1.7,4,4,0,0,1-.8,2.52A2.52,2.52,0,0,1,342,90.48Zm.09-1.21a1.32,1.32,0,0,0,1.11-.62,2.6,2.6,0,0,0,.43-1.5,1.69,1.69,0,0,0-.26-1,.87.87,0,0,0-.76-.36,1.29,1.29,0,0,0-1.11.62,2.64,2.64,0,0,0-.43,1.49C341.11,88.82,341.45,89.27,342.13,89.27Z" transform="translate(-0.79 -1.41)"/><path d="M345.63,90.35l1-5.62h1.26l-.11.59a1.47,1.47,0,0,1,1.27-.73,1.23,1.23,0,0,1,.9.38l-.38,1.18a1.18,1.18,0,0,0-.82-.32,1.19,1.19,0,0,0-.79.32,1.79,1.79,0,0,0-.51,1l-.55,3.15Z" transform="translate(-0.79 -1.41)"/><path d="M350.05,90.35l1-5.62h1.25l-1,5.62Zm1.76-6.41a.57.57,0,0,1-.44-.18.59.59,0,0,1-.18-.44.84.84,0,0,1,.25-.61.79.79,0,0,1,.56-.26.64.64,0,0,1,.47.18.62.62,0,0,1,.17.44.84.84,0,0,1-.25.61A.8.8,0,0,1,351.81,83.94Z" transform="translate(-0.79 -1.41)"/><path d="M354.5,90.48a1.11,1.11,0,0,1-.81-.29,1,1,0,0,1-.3-.76,3.71,3.71,0,0,1,.08-.73l.49-2.86h-.88l.2-1.11h.88l.33-1.88,1.32-.44-.41,2.32h1.23l-.18,1.11h-1.23l-.49,2.74a2.83,2.83,0,0,0-.06.44c0,.23.13.35.4.35a2.13,2.13,0,0,0,.85-.23l-.26,1.1A2.61,2.61,0,0,1,354.5,90.48Z" transform="translate(-0.79 -1.41)"/><path d="M357.2,92.48l1.22-2.26-1.05-5.49h1.26l.61,3.45c0,.21.06.37.08.49a3.43,3.43,0,0,1,.23-.49l1.86-3.45h1.35l-4.2,7.75Z" transform="translate(-0.79 -1.41)"/><path d="M367.45,90.48a1.9,1.9,0,0,1-1.55-.67,2.65,2.65,0,0,1-.56-1.77,3.8,3.8,0,0,1,.79-2.46,2.57,2.57,0,0,1,2.1-1,2.09,2.09,0,0,1,1.29.41,1.94,1.94,0,0,1,.68,1.12l-1.22.4a.84.84,0,0,0-.9-.73,1.2,1.2,0,0,0-1.06.62,2.77,2.77,0,0,0-.41,1.53,1.79,1.79,0,0,0,.23,1,.76.76,0,0,0,.68.36,1.19,1.19,0,0,0,1.15-.82l1.11.38a2.56,2.56,0,0,1-.92,1.21A2.38,2.38,0,0,1,367.45,90.48Z" transform="translate(-0.79 -1.41)"/><path d="M373.07,90.48a2,2,0,0,1-1.62-.64,2.62,2.62,0,0,1-.55-1.78,3.78,3.78,0,0,1,.81-2.46,2.6,2.6,0,0,1,2.13-1,1.91,1.91,0,0,1,1.55.66A2.54,2.54,0,0,1,376,87a4,4,0,0,1-.8,2.52A2.52,2.52,0,0,1,373.07,90.48Zm.09-1.21a1.32,1.32,0,0,0,1.11-.62,2.6,2.6,0,0,0,.43-1.5,1.69,1.69,0,0,0-.26-1,.87.87,0,0,0-.76-.36,1.29,1.29,0,0,0-1.11.62,2.64,2.64,0,0,0-.43,1.49C372.14,88.82,372.48,89.27,373.16,89.27Z" transform="translate(-0.79 -1.41)"/><path d="M380,90.35l.09-.53a2,2,0,0,1-1.58.66,1.51,1.51,0,0,1-1.11-.45,1.75,1.75,0,0,1-.45-1.3,4.11,4.11,0,0,1,.06-.62l.59-3.38h1.26l-.57,3.18a4.34,4.34,0,0,0,0,.53.86.86,0,0,0,.21.62.78.78,0,0,0,.58.21,1.29,1.29,0,0,0,1.36-1.19l.6-3.35h1.24l-1,5.62Z" transform="translate(-0.79 -1.41)"/><path d="M382.81,90.35l1-5.62h1.26l-.1.57a1.72,1.72,0,0,1,1.41-.7,1.52,1.52,0,0,1,1.21.48,1.85,1.85,0,0,1,.43,1.29,3.68,3.68,0,0,1-.09.79l-.56,3.19H386.1l.56-3.18a2.26,2.26,0,0,0,.06-.53c0-.58-.26-.87-.79-.87a1.22,1.22,0,0,0-.82.34,1.62,1.62,0,0,0-.47,1l-.58,3.28Z" transform="translate(-0.79 -1.41)"/><path d="M390.54,90.48a1.14,1.14,0,0,1-.82-.29,1,1,0,0,1-.3-.76,3.71,3.71,0,0,1,.08-.73l.5-2.86h-.88l.19-1.11h.88l.33-1.88,1.32-.44-.4,2.32h1.23l-.19,1.11h-1.23l-.48,2.74a2.17,2.17,0,0,0-.07.44c0,.23.14.35.41.35a2.22,2.22,0,0,0,.85-.23l-.27,1.1A2.57,2.57,0,0,1,390.54,90.48Z" transform="translate(-0.79 -1.41)"/><path d="M392.93,90.35l1-5.62h1.26l-.11.59a1.47,1.47,0,0,1,1.27-.73,1.19,1.19,0,0,1,.89.38l-.37,1.18a1.18,1.18,0,0,0-.82-.32,1.24,1.24,0,0,0-.8.32,1.79,1.79,0,0,0-.5,1l-.55,3.15Z" transform="translate(-0.79 -1.41)"/><path d="M397.34,90.35l1-5.62h1.26l-1,5.62Zm1.76-6.41a.57.57,0,0,1-.43-.18.59.59,0,0,1-.18-.44.84.84,0,0,1,.25-.61.79.79,0,0,1,.56-.26.6.6,0,0,1,.46.18.59.59,0,0,1,.18.44.84.84,0,0,1-.25.61A.8.8,0,0,1,399.1,83.94Z" transform="translate(-0.79 -1.41)"/><path d="M402.48,90.48a2.17,2.17,0,0,1-1.63-.63,2.42,2.42,0,0,1-.61-1.76,3.77,3.77,0,0,1,.83-2.46,2.65,2.65,0,0,1,2.18-1,2,2,0,0,1,1.54.59,2.3,2.3,0,0,1,.54,1.62,3.73,3.73,0,0,1-.21,1.22h-3.61v.12a1.24,1.24,0,0,0,.32.89,1.12,1.12,0,0,0,.81.32,1.77,1.77,0,0,0,1.27-.55l.63.84A2.87,2.87,0,0,1,402.48,90.48ZM401.7,87h2.41a1.82,1.82,0,0,0,0-.33.9.9,0,0,0-1-.91,1.32,1.32,0,0,0-.91.33A1.74,1.74,0,0,0,401.7,87Z" transform="translate(-0.79 -1.41)"/><path d="M407.83,90.48a2.65,2.65,0,0,1-1.23-.28,1.83,1.83,0,0,1-.81-.74l.92-.71a1.48,1.48,0,0,0,1.24.65,1.19,1.19,0,0,0,.64-.16.49.49,0,0,0,.26-.45.51.51,0,0,0-.25-.42A3.28,3.28,0,0,0,408,88c-.24-.11-.48-.23-.72-.37a1.8,1.8,0,0,1-.6-.53,1.31,1.31,0,0,1-.25-.8,1.54,1.54,0,0,1,.6-1.26,2.44,2.44,0,0,1,1.55-.46,2.25,2.25,0,0,1,1.11.26,2,2,0,0,1,.74.63l-.93.69a1.25,1.25,0,0,0-1.05-.53,1,1,0,0,0-.58.16.51.51,0,0,0-.23.43.45.45,0,0,0,.25.36,4.28,4.28,0,0,0,.61.34c.24.11.48.23.72.37a1.81,1.81,0,0,1,.62.55,1.37,1.37,0,0,1,.25.82,1.59,1.59,0,0,1-.61,1.32A2.59,2.59,0,0,1,407.83,90.48Z" transform="translate(-0.79 -1.41)"/><path d="M.83,115.85l1.35-7.7H3.5l-1.35,7.7Z" transform="translate(-0.79 -1.41)"/><path d="M3.78,115.85l1-5.62H6l-.1.57a1.72,1.72,0,0,1,1.41-.7,1.52,1.52,0,0,1,1.21.48A1.89,1.89,0,0,1,9,111.87a3.68,3.68,0,0,1-.09.79l-.56,3.19H7.07l.56-3.18a2.26,2.26,0,0,0,.06-.53c0-.58-.26-.87-.79-.87a1.22,1.22,0,0,0-.82.34,1.62,1.62,0,0,0-.47,1L5,115.85Z" transform="translate(-0.79 -1.41)"/><path d="M11.51,116a1.14,1.14,0,0,1-.82-.29,1,1,0,0,1-.29-.76,3.68,3.68,0,0,1,.07-.73l.5-2.86h-.88l.19-1.11h.89l.33-1.88,1.31-.44-.4,2.32h1.23l-.19,1.11H12.22l-.48,2.74a2.17,2.17,0,0,0-.07.44c0,.23.14.35.41.35a2.13,2.13,0,0,0,.84-.23l-.26,1.1A2.57,2.57,0,0,1,11.51,116Z" transform="translate(-0.79 -1.41)"/><path d="M16.23,116a2.18,2.18,0,0,1-1.64-.63,2.42,2.42,0,0,1-.61-1.76,3.83,3.83,0,0,1,.83-2.46,2.67,2.67,0,0,1,2.19-1,2,2,0,0,1,1.53.59,2.3,2.3,0,0,1,.54,1.62,4,4,0,0,1-.2,1.22H15.26v.12a1.2,1.2,0,0,0,.32.89,1.09,1.09,0,0,0,.8.32,1.77,1.77,0,0,0,1.27-.55l.63.84A2.86,2.86,0,0,1,16.23,116Zm-.79-3.53h2.41a.91.91,0,0,0,0-.33.9.9,0,0,0-1-.91,1.32,1.32,0,0,0-.91.33A1.74,1.74,0,0,0,15.44,112.45Z" transform="translate(-0.79 -1.41)"/><path d="M19.69,115.85l1-5.62h1.25l-.11.59a1.49,1.49,0,0,1,1.28-.73,1.2,1.2,0,0,1,.89.38l-.37,1.18a1.18,1.18,0,0,0-1.62,0,1.79,1.79,0,0,0-.51,1l-.55,3.15Z" transform="translate(-0.79 -1.41)"/><path d="M24.1,115.85l1-5.62h1.25l-.09.57a1.71,1.71,0,0,1,1.4-.7,1.54,1.54,0,0,1,1.22.48,1.89,1.89,0,0,1,.42,1.29,3.68,3.68,0,0,1-.09.79l-.56,3.19H27.39l.56-3.18a2.26,2.26,0,0,0,.06-.53c0-.58-.27-.87-.8-.87a1.22,1.22,0,0,0-.81.34,1.57,1.57,0,0,0-.47,1l-.59,3.28Z" transform="translate(-0.79 -1.41)"/><path d="M33.29,115.85l.08-.45a2.05,2.05,0,0,1-1.53.58,1.77,1.77,0,0,1-1.22-.44,1.57,1.57,0,0,1-.48-1.2,1.86,1.86,0,0,1,.69-1.54,2.76,2.76,0,0,1,1.76-.55,2.4,2.4,0,0,1,1.27.35l0-.28a2.08,2.08,0,0,0,.05-.39c0-.48-.29-.72-.86-.72a3.3,3.3,0,0,0-1.77.57l-.18-1a4,4,0,0,1,2.14-.65,2.6,2.6,0,0,1,.61.07,2.43,2.43,0,0,1,.61.26A1.24,1.24,0,0,1,35,111a1.67,1.67,0,0,1,.19.83,4.4,4.4,0,0,1-.08.63l-.59,3.44Zm-1.12-1a2,2,0,0,0,1.38-.55l.13-.73a2.51,2.51,0,0,0-1.11-.26,1.52,1.52,0,0,0-.85.23.75.75,0,0,0-.35.67.54.54,0,0,0,.22.46A.87.87,0,0,0,32.17,114.87Z" transform="translate(-0.79 -1.41)"/><path d="M37.61,116a1.14,1.14,0,0,1-.82-.29,1,1,0,0,1-.29-.76,3.68,3.68,0,0,1,.07-.73l.5-2.86h-.88l.2-1.11h.88l.33-1.88,1.32-.44-.41,2.32h1.23l-.18,1.11H38.32l-.48,2.74a3.29,3.29,0,0,0-.07.44c0,.23.14.35.41.35a2.13,2.13,0,0,0,.85-.23l-.27,1.1A2.54,2.54,0,0,1,37.61,116Z" transform="translate(-0.79 -1.41)"/><path d="M40,115.85l1-5.62h1.25l-1,5.62Zm1.76-6.41a.61.61,0,0,1-.62-.62.85.85,0,0,1,.26-.61A.76.76,0,0,1,42,108a.62.62,0,0,1,.46.18.59.59,0,0,1,.18.44.85.85,0,0,1-.26.61A.8.8,0,0,1,41.8,109.44Z" transform="translate(-0.79 -1.41)"/><path d="M45.18,116a2,2,0,0,1-1.63-.64,2.67,2.67,0,0,1-.54-1.78,3.78,3.78,0,0,1,.81-2.46,2.6,2.6,0,0,1,2.13-1,1.92,1.92,0,0,1,1.55.66,2.54,2.54,0,0,1,.56,1.7,4,4,0,0,1-.8,2.52A2.53,2.53,0,0,1,45.18,116Zm.08-1.21a1.32,1.32,0,0,0,1.12-.62,2.6,2.6,0,0,0,.42-1.5,1.69,1.69,0,0,0-.25-1,.87.87,0,0,0-.76-.36,1.29,1.29,0,0,0-1.11.62,2.64,2.64,0,0,0-.43,1.49C44.25,114.32,44.59,114.77,45.26,114.77Z" transform="translate(-0.79 -1.41)"/><path d="M48.81,115.85l1-5.62h1.25l-.1.57a1.73,1.73,0,0,1,1.41-.7,1.55,1.55,0,0,1,1.22.48,1.89,1.89,0,0,1,.42,1.29,3.68,3.68,0,0,1-.09.79l-.56,3.19H52.1l.56-3.18a3,3,0,0,0,.05-.53c0-.58-.26-.87-.79-.87a1.2,1.2,0,0,0-.81.34,1.63,1.63,0,0,0-.48,1l-.58,3.28Z" transform="translate(-0.79 -1.41)"/><path d="M58,115.85l.09-.45a2.07,2.07,0,0,1-1.53.58,1.76,1.76,0,0,1-1.22-.44,1.57,1.57,0,0,1-.48-1.2,1.85,1.85,0,0,1,.68-1.54,2.79,2.79,0,0,1,1.77-.55,2.34,2.34,0,0,1,1.26.35l.06-.28a2,2,0,0,0,0-.39c0-.48-.28-.72-.86-.72a3.33,3.33,0,0,0-1.77.57l-.17-1A3.92,3.92,0,0,1,58,110.1a2.48,2.48,0,0,1,.61.07,2.29,2.29,0,0,1,.61.26,1.26,1.26,0,0,1,.5.52,1.78,1.78,0,0,1,.18.83,4,4,0,0,1-.07.63l-.6,3.44Zm-1.11-1a2,2,0,0,0,1.38-.55l.13-.73a2.51,2.51,0,0,0-1.11-.26,1.55,1.55,0,0,0-.86.23.74.74,0,0,0-.34.67.56.56,0,0,0,.21.46A.9.9,0,0,0,56.88,114.87Z" transform="translate(-0.79 -1.41)"/><path d="M60.72,115.85l1.32-7.5,1.33-.44L62,115.85Z" transform="translate(-0.79 -1.41)"/><path d="M3.11,124.54l-.8,4.51H1.07l.79-4.51H1.08l.2-1.11h.78l.15-.9a1.54,1.54,0,0,1,.56-1,1.67,1.67,0,0,1,1-.3,2.19,2.19,0,0,1,1.08.29l-.19,1a1.76,1.76,0,0,0-.74-.19q-.39,0-.48.45l-.12.64H4.44l-.19,1.11Zm1.32,4.51,1-5.62H6.68l-1,5.62Zm1.76-6.41a.6.6,0,0,1-.44-.18.62.62,0,0,1-.17-.44.84.84,0,0,1,.25-.61.79.79,0,0,1,.56-.26.6.6,0,0,1,.46.18.59.59,0,0,1,.18.44.88.88,0,0,1-.25.61A.82.82,0,0,1,6.19,122.64Z" transform="translate(-0.79 -1.41)"/><path d="M7.28,129.05l1-5.62H9.53l-.1.57a1.71,1.71,0,0,1,1.4-.7,1.54,1.54,0,0,1,1.22.48,1.89,1.89,0,0,1,.42,1.29,4.41,4.41,0,0,1-.08.79l-.57,3.19H10.57l.56-3.18a2.26,2.26,0,0,0,.06-.53c0-.58-.27-.87-.8-.87a1.22,1.22,0,0,0-.81.34,1.57,1.57,0,0,0-.47,1l-.59,3.28Z" transform="translate(-0.79 -1.41)"/><path d="M16.47,129.05l.09-.45a2.07,2.07,0,0,1-1.53.58,1.74,1.74,0,0,1-1.22-.44,1.54,1.54,0,0,1-.49-1.2A1.86,1.86,0,0,1,14,126a2.78,2.78,0,0,1,1.76-.55,2.38,2.38,0,0,1,1.27.35l.05-.28a2.08,2.08,0,0,0,.05-.39c0-.48-.29-.72-.86-.72a3.3,3.3,0,0,0-1.77.57l-.18-1a4,4,0,0,1,2.14-.65,2.54,2.54,0,0,1,.61.07,2.43,2.43,0,0,1,.61.26,1.24,1.24,0,0,1,.49.52,1.67,1.67,0,0,1,.19.83,4.4,4.4,0,0,1-.08.63l-.59,3.44Zm-1.11-1a2,2,0,0,0,1.37-.55l.13-.73a2.51,2.51,0,0,0-1.11-.26,1.52,1.52,0,0,0-.85.23.75.75,0,0,0-.35.67.54.54,0,0,0,.22.46A.89.89,0,0,0,15.36,128.07Z" transform="translate(-0.79 -1.41)"/><path d="M19.18,129.05l1-5.62h1.26l-.1.57a1.72,1.72,0,0,1,1.41-.7,1.53,1.53,0,0,1,1.21.48,1.89,1.89,0,0,1,.43,1.29,3.68,3.68,0,0,1-.09.79l-.56,3.19H22.47l.56-3.18a2.26,2.26,0,0,0,.06-.53c0-.58-.27-.87-.79-.87a1.22,1.22,0,0,0-.82.34,1.62,1.62,0,0,0-.47,1l-.58,3.28Z" transform="translate(-0.79 -1.41)"/><path d="M27.53,129.18a1.91,1.91,0,0,1-1.55-.67,2.7,2.7,0,0,1-.56-1.77,3.81,3.81,0,0,1,.8-2.46,2.55,2.55,0,0,1,2.09-1,2.05,2.05,0,0,1,1.29.41,1.89,1.89,0,0,1,.68,1.12l-1.22.4a.84.84,0,0,0-.9-.73,1.25,1.25,0,0,0-1.06.62,2.77,2.77,0,0,0-.4,1.53,1.71,1.71,0,0,0,.23,1,.75.75,0,0,0,.68.36,1.19,1.19,0,0,0,1.14-.82l1.11.38a2.54,2.54,0,0,1-.91,1.21A2.37,2.37,0,0,1,27.53,129.18Z" transform="translate(-0.79 -1.41)"/><path d="M30.87,129.05l1-5.62h1.25l-1,5.62Zm1.76-6.41a.57.57,0,0,1-.44-.18A.59.59,0,0,1,32,122a.84.84,0,0,1,.25-.61.79.79,0,0,1,.56-.26.64.64,0,0,1,.47.18.62.62,0,0,1,.17.44.84.84,0,0,1-.25.61A.8.8,0,0,1,32.63,122.64Z" transform="translate(-0.79 -1.41)"/><path d="M36.78,129.05l.09-.45a2.07,2.07,0,0,1-1.53.58,1.76,1.76,0,0,1-1.22-.44,1.57,1.57,0,0,1-.48-1.2,1.88,1.88,0,0,1,.68-1.54,2.79,2.79,0,0,1,1.77-.55,2.4,2.4,0,0,1,1.27.35l0-.28a2,2,0,0,0,0-.39c0-.48-.28-.72-.85-.72a3.3,3.3,0,0,0-1.77.57l-.18-1a4,4,0,0,1,2.13-.65,2.48,2.48,0,0,1,.61.07,2.16,2.16,0,0,1,.61.26,1.26,1.26,0,0,1,.5.52,1.78,1.78,0,0,1,.19.83,4.4,4.4,0,0,1-.08.63L38,129.05Zm-1.11-1a2,2,0,0,0,1.38-.55l.13-.73a2.51,2.51,0,0,0-1.11-.26,1.52,1.52,0,0,0-.85.23.73.73,0,0,0-.35.67.56.56,0,0,0,.21.46A.9.9,0,0,0,35.67,128.07Z" transform="translate(-0.79 -1.41)"/><path d="M39.51,129.05l1.32-7.5,1.33-.44-1.41,7.94Z" transform="translate(-0.79 -1.41)"/><path d="M.79,142.25l1-5.62H3l-1,5.62Zm1.76-6.41a.6.6,0,0,1-.44-.18.58.58,0,0,1-.17-.44.84.84,0,0,1,.25-.61.77.77,0,0,1,.56-.26.62.62,0,0,1,.46.18.59.59,0,0,1,.18.44.85.85,0,0,1-.26.61A.78.78,0,0,1,2.55,135.84Z" transform="translate(-0.79 -1.41)"/><path d="M3.64,142.25l1-5.62H5.89l-.1.57a1.71,1.71,0,0,1,1.4-.7,1.54,1.54,0,0,1,1.22.48,1.89,1.89,0,0,1,.42,1.29,4.41,4.41,0,0,1-.08.79l-.57,3.19H6.93l.56-3.18a2.26,2.26,0,0,0,.06-.53c0-.58-.27-.87-.8-.87a1.22,1.22,0,0,0-.81.34,1.57,1.57,0,0,0-.47,1l-.59,3.28Z" transform="translate(-0.79 -1.41)"/><path d="M11.6,142.38a2.64,2.64,0,0,1-1.22-.28,1.83,1.83,0,0,1-.81-.74l.91-.7a1.51,1.51,0,0,0,1.25.64,1.22,1.22,0,0,0,.63-.15.5.5,0,0,0,0-.88,3.66,3.66,0,0,0-.6-.35c-.24-.11-.48-.23-.72-.37a1.8,1.8,0,0,1-.6-.53,1.31,1.31,0,0,1-.25-.8,1.54,1.54,0,0,1,.6-1.26,2.43,2.43,0,0,1,1.54-.46,2.29,2.29,0,0,1,1.12.26,2.13,2.13,0,0,1,.74.63l-.93.69a1.25,1.25,0,0,0-1-.53,1.05,1.05,0,0,0-.59.16.5.5,0,0,0-.22.43.45.45,0,0,0,.25.36,3.79,3.79,0,0,0,.61.34c.24.11.48.23.72.37a1.91,1.91,0,0,1,.62.55,1.37,1.37,0,0,1,.25.82,1.58,1.58,0,0,1-.61,1.32A2.62,2.62,0,0,1,11.6,142.38Z" transform="translate(-0.79 -1.41)"/><path d="M16.46,142.38a1.1,1.1,0,0,1-.82-.29,1,1,0,0,1-.3-.76,3.71,3.71,0,0,1,.08-.73l.5-2.86H15l.19-1.11h.88l.33-1.88,1.32-.44-.4,2.32h1.23l-.19,1.11H17.17l-.48,2.74a2.17,2.17,0,0,0-.07.44c0,.23.14.35.41.35a2.13,2.13,0,0,0,.84-.23l-.26,1.1A2.57,2.57,0,0,1,16.46,142.38Z" transform="translate(-0.79 -1.41)"/><path d="M18.89,142.25l1-5.62h1.25l-1,5.62Zm1.76-6.41a.57.57,0,0,1-.44-.18.59.59,0,0,1-.18-.44.84.84,0,0,1,.25-.61.79.79,0,0,1,.56-.26.6.6,0,0,1,.64.62.84.84,0,0,1-.25.61A.8.8,0,0,1,20.65,135.84Z" transform="translate(-0.79 -1.41)"/><path d="M23.34,142.38a1.09,1.09,0,0,1-.81-.29,1,1,0,0,1-.3-.76,3.71,3.71,0,0,1,.08-.73l.49-2.86h-.88l.2-1.11H23l.33-1.88,1.32-.44-.41,2.32h1.24l-.19,1.11H24.06l-.49,2.74a2.83,2.83,0,0,0-.06.44c0,.23.13.35.4.35a2.13,2.13,0,0,0,.85-.23l-.26,1.1A2.61,2.61,0,0,1,23.34,142.38Z" transform="translate(-0.79 -1.41)"/><path d="M29.06,142.25l.09-.53a2,2,0,0,1-1.57.66,1.51,1.51,0,0,1-1.11-.45,1.75,1.75,0,0,1-.45-1.3,3.91,3.91,0,0,1,.05-.62l.59-3.38h1.27l-.57,3.18a3.26,3.26,0,0,0-.06.53.86.86,0,0,0,.21.62.78.78,0,0,0,.58.21,1.4,1.4,0,0,0,.88-.28,1.44,1.44,0,0,0,.49-.91l.59-3.35h1.24l-1,5.62Z" transform="translate(-0.79 -1.41)"/><path d="M33.49,142.38a1.09,1.09,0,0,1-.81-.29,1,1,0,0,1-.3-.76,3.71,3.71,0,0,1,.08-.73l.5-2.86h-.88l.19-1.11h.88l.33-1.88,1.32-.44-.4,2.32h1.23l-.19,1.11H34.21l-.48,2.74a2.17,2.17,0,0,0-.07.44c0,.23.14.35.41.35a2.13,2.13,0,0,0,.84-.23l-.26,1.1A2.58,2.58,0,0,1,33.49,142.38Z" transform="translate(-0.79 -1.41)"/><path d="M35.93,142.25l1-5.62h1.25l-1,5.62Zm1.76-6.41a.57.57,0,0,1-.44-.18.59.59,0,0,1-.18-.44.84.84,0,0,1,.25-.61.79.79,0,0,1,.56-.26.64.64,0,0,1,.47.18.62.62,0,0,1,.17.44.84.84,0,0,1-.25.61A.8.8,0,0,1,37.69,135.84Z" transform="translate(-0.79 -1.41)"/><path d="M41.06,142.38a2,2,0,0,1-1.62-.64A2.65,2.65,0,0,1,38.9,140a3.85,3.85,0,0,1,.8-2.46,2.6,2.6,0,0,1,2.13-1,1.93,1.93,0,0,1,1.56.66,2.55,2.55,0,0,1,.55,1.7,4,4,0,0,1-.79,2.52A2.54,2.54,0,0,1,41.06,142.38Zm.09-1.21a1.28,1.28,0,0,0,1.11-.62,2.53,2.53,0,0,0,.43-1.5,1.69,1.69,0,0,0-.25-1,.87.87,0,0,0-.76-.36,1.29,1.29,0,0,0-1.11.62,2.56,2.56,0,0,0-.43,1.49C40.14,140.72,40.48,141.17,41.15,141.17Z" transform="translate(-0.79 -1.41)"/><path d="M44.69,142.25l1-5.62h1.26l-.1.57a1.72,1.72,0,0,1,1.41-.7,1.53,1.53,0,0,1,1.21.48,1.89,1.89,0,0,1,.42,1.29,4.41,4.41,0,0,1-.08.79l-.56,3.19H48l.56-3.18a2.26,2.26,0,0,0,.06-.53c0-.58-.27-.87-.79-.87A1.22,1.22,0,0,0,47,138a1.57,1.57,0,0,0-.47,1l-.58,3.28Z" transform="translate(-0.79 -1.41)"/><path d="M52.66,142.38a2.65,2.65,0,0,1-1.23-.28,1.83,1.83,0,0,1-.81-.74l.91-.7a1.51,1.51,0,0,0,1.25.64,1.29,1.29,0,0,0,.64-.15.52.52,0,0,0,.26-.46.51.51,0,0,0-.25-.42,3.28,3.28,0,0,0-.6-.35c-.24-.11-.48-.23-.72-.37a1.8,1.8,0,0,1-.6-.53,1.31,1.31,0,0,1-.25-.8,1.54,1.54,0,0,1,.6-1.26,2.43,2.43,0,0,1,1.54-.46,2.29,2.29,0,0,1,1.12.26,2.13,2.13,0,0,1,.74.63l-.93.69a1.25,1.25,0,0,0-1-.53,1,1,0,0,0-.58.16.49.49,0,0,0-.23.43.45.45,0,0,0,.25.36,3.79,3.79,0,0,0,.61.34c.24.11.48.23.72.37a1.81,1.81,0,0,1,.62.55,1.37,1.37,0,0,1,.25.82,1.58,1.58,0,0,1-.61,1.32A2.59,2.59,0,0,1,52.66,142.38Z" transform="translate(-0.79 -1.41)"/><path d="M320.88,212.86l-.16-7.7H322v4.63c0,.08,0,.19,0,.32v.24s.08-.21.22-.57l1.94-4.62h1.1l.34,4.64c0,.24,0,.42,0,.55a5.65,5.65,0,0,1,.18-.54l1.67-4.65h1.37l-2.91,7.7h-1.19l-.4-4.61c0-.19,0-.43,0-.73-.05.16-.14.39-.27.7l-2,4.64Z" transform="translate(-0.79 -1.41)"/><path d="M331,213a2,2,0,0,1-1.62-.64,2.62,2.62,0,0,1-.55-1.78,3.78,3.78,0,0,1,.81-2.46,2.6,2.6,0,0,1,2.13-1,1.93,1.93,0,0,1,1.56.66,2.54,2.54,0,0,1,.55,1.7,3.85,3.85,0,0,1-.8,2.51A2.5,2.5,0,0,1,331,213Zm.09-1.21a1.32,1.32,0,0,0,1.11-.62,2.62,2.62,0,0,0,.43-1.5,1.69,1.69,0,0,0-.26-1,.85.85,0,0,0-.75-.36,1.3,1.3,0,0,0-1.12.62,2.63,2.63,0,0,0-.42,1.49C330.06,211.33,330.39,211.78,331.07,211.78Z" transform="translate(-0.79 -1.41)"/><path d="M334.58,212.86l1-5.62h1.25l-.11.59a1.48,1.48,0,0,1,1.28-.73,1.22,1.22,0,0,1,.89.38l-.38,1.18a1.16,1.16,0,0,0-.82-.32,1.19,1.19,0,0,0-.79.32,1.79,1.79,0,0,0-.51,1.05l-.55,3.15Z" transform="translate(-0.79 -1.41)"/><path d="M342.41,208.92l1.27,3.94h-1.33l-1-3.06-.75.67-.42,2.39H339l1.3-7.5,1.35-.44-.7,3.92,1.79-1.6h1.6Z" transform="translate(-0.79 -1.41)"/><path d="M347.06,213a2.15,2.15,0,0,1-1.63-.63,2.42,2.42,0,0,1-.61-1.76,3.77,3.77,0,0,1,.83-2.46,2.65,2.65,0,0,1,2.18-1,2,2,0,0,1,1.54.58,2.34,2.34,0,0,1,.54,1.63,3.73,3.73,0,0,1-.21,1.22h-3.61v.12a1.2,1.2,0,0,0,.32.88,1.06,1.06,0,0,0,.8.33,1.79,1.79,0,0,0,1.28-.55l.63.83A2.84,2.84,0,0,1,347.06,213Zm-.78-3.53h2.41a1.82,1.82,0,0,0,0-.33.9.9,0,0,0-1-.91,1.32,1.32,0,0,0-.91.33A1.74,1.74,0,0,0,346.28,209.46Z" transform="translate(-0.79 -1.41)"/><path d="M350.53,212.86l1-5.62h1.25l-.11.59a1.49,1.49,0,0,1,1.28-.73,1.22,1.22,0,0,1,.89.38l-.38,1.18a1.16,1.16,0,0,0-.82-.32,1.19,1.19,0,0,0-.79.32,1.79,1.79,0,0,0-.51,1.05l-.55,3.15Z" transform="translate(-0.79 -1.41)"/><path d="M356.78,213a2.64,2.64,0,0,1-1.22-.28,1.83,1.83,0,0,1-.81-.74l.91-.71a1.5,1.5,0,0,0,1.25.65,1.16,1.16,0,0,0,.63-.16.49.49,0,0,0,.27-.45.53.53,0,0,0-.25-.42,3.06,3.06,0,0,0-.6-.35c-.24-.11-.48-.23-.72-.37a1.85,1.85,0,0,1-.61-.54,1.32,1.32,0,0,1-.24-.79,1.54,1.54,0,0,1,.6-1.26,2.43,2.43,0,0,1,1.54-.46,2.29,2.29,0,0,1,1.12.26,2.13,2.13,0,0,1,.74.63l-.93.69a1.25,1.25,0,0,0-1-.53,1.05,1.05,0,0,0-.59.16.5.5,0,0,0-.22.42.45.45,0,0,0,.25.37,3.79,3.79,0,0,0,.61.34c.24.11.48.23.72.37a1.91,1.91,0,0,1,.62.55,1.37,1.37,0,0,1,.25.82,1.6,1.6,0,0,1-.61,1.32A2.62,2.62,0,0,1,356.78,213Z" transform="translate(-0.79 -1.41)"/><path d="M53.88,244.86l1.35-7.7h4.84l-.2,1.24H56.35L56,240.28h2.12l-.22,1.22H55.79l-.37,2.13h3.75L59,244.86Z" transform="translate(-0.79 -1.41)"/><path d="M60.24,244.86l1-5.62h1.22l-.09.53a1.92,1.92,0,0,1,1.48-.66,1.34,1.34,0,0,1,.76.23,1.29,1.29,0,0,1,.49.61,2.16,2.16,0,0,1,1.77-.84,1.71,1.71,0,0,1,1.14.42,1.52,1.52,0,0,1,.51,1.25,2.67,2.67,0,0,1,0,.5l-.64,3.58H66.55l.6-3.36a2.47,2.47,0,0,0,0-.35.81.81,0,0,0-.23-.65.72.72,0,0,0-.51-.2,1.15,1.15,0,0,0-.72.28,1.34,1.34,0,0,0-.45.91l-.6,3.37H63.38l.6-3.36a2.47,2.47,0,0,0,0-.35.81.81,0,0,0-.22-.65.71.71,0,0,0-.52-.2,1.15,1.15,0,0,0-.72.28,1.4,1.4,0,0,0-.47.91l-.6,3.37Z" transform="translate(-0.79 -1.41)"/><path d="M72,245a1.45,1.45,0,0,1-1.26-.58l-.38,2.22-1.34.44,1.38-7.83h1.26l-.09.46a1.77,1.77,0,0,1,1.36-.59,1.57,1.57,0,0,1,1.29.64,2.69,2.69,0,0,1,.5,1.7,3.88,3.88,0,0,1-.81,2.59A2.43,2.43,0,0,1,72,245Zm-.07-1.21a1.27,1.27,0,0,0,1.11-.6,2.71,2.71,0,0,0,.42-1.58,1.61,1.61,0,0,0-.24-.94.81.81,0,0,0-.73-.35,1.43,1.43,0,0,0-.65.17,1.37,1.37,0,0,0-.49.43l-.4,2.31A1,1,0,0,0,71.94,243.78Z" transform="translate(-0.79 -1.41)"/><path d="M75.46,244.86l1.32-7.5,1.33-.44-1.4,7.94Z" transform="translate(-0.79 -1.41)"/><path d="M80.68,245a2.05,2.05,0,0,1-1.63-.63,2.69,2.69,0,0,1-.54-1.79,3.79,3.79,0,0,1,.81-2.46,2.6,2.6,0,0,1,2.13-1,1.92,1.92,0,0,1,1.55.66,2.57,2.57,0,0,1,.56,1.71,3.93,3.93,0,0,1-.8,2.51A2.53,2.53,0,0,1,80.68,245Zm.08-1.21a1.3,1.3,0,0,0,1.12-.62,2.6,2.6,0,0,0,.42-1.5,1.69,1.69,0,0,0-.25-1,.87.87,0,0,0-.76-.36,1.3,1.3,0,0,0-1.11.63,2.58,2.58,0,0,0-.43,1.48C79.75,243.33,80.09,243.78,80.76,243.78Z" transform="translate(-0.79 -1.41)"/><path d="M84.57,247l1.22-2.27-1-5.49H86l.62,3.46c0,.2.06.36.07.48a4.33,4.33,0,0,1,.23-.48l1.86-3.46h1.36L85.93,247Z" transform="translate(-0.79 -1.41)"/><path d="M92.41,245a2.17,2.17,0,0,1-1.63-.63,2.39,2.39,0,0,1-.61-1.75,3.84,3.84,0,0,1,.83-2.47,2.65,2.65,0,0,1,2.18-1,2,2,0,0,1,1.54.59,2.3,2.3,0,0,1,.54,1.62,3.68,3.68,0,0,1-.21,1.22h-3.6v.12a1.22,1.22,0,0,0,.31.89,1.08,1.08,0,0,0,.81.32,1.77,1.77,0,0,0,1.27-.55l.63.84A2.83,2.83,0,0,1,92.41,245Zm-.78-3.53H94a.91.91,0,0,0,0-.33.9.9,0,0,0-1-.91,1.29,1.29,0,0,0-.91.34A1.67,1.67,0,0,0,91.63,241.46Z" transform="translate(-0.79 -1.41)"/><path d="M95.88,244.86l1-5.62h1.25l-.11.6a1.48,1.48,0,0,1,1.28-.74,1.24,1.24,0,0,1,.89.38l-.37,1.18a1.25,1.25,0,0,0-.83-.32,1.18,1.18,0,0,0-.79.33,1.73,1.73,0,0,0-.51,1.05l-.55,3.14Z" transform="translate(-0.79 -1.41)"/><path d="M102.14,245a2.65,2.65,0,0,1-1.23-.28,1.78,1.78,0,0,1-.81-.74l.92-.7a1.51,1.51,0,0,0,1.24.65,1.29,1.29,0,0,0,.64-.16.52.52,0,0,0,.26-.46.53.53,0,0,0-.25-.42,3.28,3.28,0,0,0-.6-.35q-.36-.17-.72-.36a1.72,1.72,0,0,1-.6-.54,1.28,1.28,0,0,1-.25-.79,1.51,1.51,0,0,1,.6-1.26,2.45,2.45,0,0,1,1.55-.47,2.36,2.36,0,0,1,1.11.26,2,2,0,0,1,.74.63l-.93.69a1.24,1.24,0,0,0-1-.52,1,1,0,0,0-.58.16.48.48,0,0,0-.23.42.47.47,0,0,0,.25.37,5.6,5.6,0,0,0,.61.33c.24.11.48.24.72.37a1.84,1.84,0,0,1,.62.56,1.32,1.32,0,0,1,.25.81,1.58,1.58,0,0,1-.61,1.32A2.59,2.59,0,0,1,102.14,245Z" transform="translate(-0.79 -1.41)"/><path d="M233.42,274a2.28,2.28,0,0,1-2-.92,3.81,3.81,0,0,1-.68-2.31,5.86,5.86,0,0,1,.45-2.3,4.19,4.19,0,0,1,1.33-1.74,3.22,3.22,0,0,1,2-.68,2.38,2.38,0,0,1,2.37,1.61l-1.15.51a1.38,1.38,0,0,0-1.3-.88,1.84,1.84,0,0,0-1.3.55,3.39,3.39,0,0,0-.82,1.3,4.78,4.78,0,0,0-.25,1.54,2.75,2.75,0,0,0,.35,1.44,1.12,1.12,0,0,0,1,.61,1.82,1.82,0,0,0,1.61-1l1.13.5A3.17,3.17,0,0,1,233.42,274Z" transform="translate(-0.79 -1.41)"/><path d="M237.13,273.86l1-5.62h1.26l-1,5.62Zm1.76-6.41a.6.6,0,0,1-.61-.62.85.85,0,0,1,.25-.61.79.79,0,0,1,.56-.26.6.6,0,0,1,.46.18.59.59,0,0,1,.18.44.86.86,0,0,1-.25.61A.82.82,0,0,1,238.89,267.45Z" transform="translate(-0.79 -1.41)"/><path d="M241.44,273.86l-1-5.62h1.26l.56,3.46c0,.29.05.47.05.52a1.16,1.16,0,0,0,.12-.25l.14-.27,1.77-3.46h1.31l-2.93,5.62Z" transform="translate(-0.79 -1.41)"/><path d="M245.69,273.86l1-5.62h1.25l-1,5.62Zm1.76-6.41a.59.59,0,0,1-.44-.18.57.57,0,0,1-.18-.44.87.87,0,0,1,.26-.61.77.77,0,0,1,.56-.26.62.62,0,0,1,.46.18.59.59,0,0,1,.18.44.83.83,0,0,1-.26.61A.78.78,0,0,1,247.45,267.45Z" transform="translate(-0.79 -1.41)"/><path d="M248.55,273.86l1.32-7.5,1.33-.44-1.41,7.94Z" transform="translate(-0.79 -1.41)"/><path d="M255.79,274a2.65,2.65,0,0,1-1.23-.28,1.78,1.78,0,0,1-.81-.74l.92-.7a1.51,1.51,0,0,0,1.24.65,1.29,1.29,0,0,0,.64-.16.52.52,0,0,0,.26-.46.53.53,0,0,0-.25-.42,3.28,3.28,0,0,0-.6-.35q-.36-.16-.72-.36a1.82,1.82,0,0,1-.6-.54,1.28,1.28,0,0,1-.25-.79,1.51,1.51,0,0,1,.6-1.26,2.47,2.47,0,0,1,1.55-.47,2.33,2.33,0,0,1,1.11.26,2.17,2.17,0,0,1,.75.63l-.94.69a1.22,1.22,0,0,0-1-.52,1,1,0,0,0-.59.16.48.48,0,0,0-.23.42.5.5,0,0,0,.25.37,5.6,5.6,0,0,0,.61.33c.24.11.48.24.73.37a1.91,1.91,0,0,1,.61.56,1.32,1.32,0,0,1,.25.81,1.58,1.58,0,0,1-.61,1.32A2.57,2.57,0,0,1,255.79,274Z" transform="translate(-0.79 -1.41)"/><path d="M261.32,274a2,2,0,0,1-1.62-.63,2.7,2.7,0,0,1-.55-1.79,3.79,3.79,0,0,1,.81-2.46,2.6,2.6,0,0,1,2.13-1,1.93,1.93,0,0,1,1.56.66,2.56,2.56,0,0,1,.55,1.71,3.92,3.92,0,0,1-.79,2.51A2.55,2.55,0,0,1,261.32,274Zm.09-1.21a1.29,1.29,0,0,0,1.11-.62,2.53,2.53,0,0,0,.43-1.5,1.69,1.69,0,0,0-.25-1,.88.88,0,0,0-.76-.36,1.28,1.28,0,0,0-1.11.63,2.51,2.51,0,0,0-.43,1.48C260.4,272.33,260.73,272.78,261.41,272.78Z" transform="translate(-0.79 -1.41)"/><path d="M267.18,274a1.91,1.91,0,0,1-1.55-.67,2.66,2.66,0,0,1-.56-1.77,3.81,3.81,0,0,1,.8-2.46,2.58,2.58,0,0,1,2.1-1,2,2,0,0,1,1.28.42,1.9,1.9,0,0,1,.68,1.11l-1.22.41a.84.84,0,0,0-.9-.74,1.21,1.21,0,0,0-1.05.63,2.64,2.64,0,0,0-.41,1.52,1.79,1.79,0,0,0,.23,1,.75.75,0,0,0,.68.36,1.21,1.21,0,0,0,1.15-.82l1.11.39a2.67,2.67,0,0,1-.92,1.21A2.43,2.43,0,0,1,267.18,274Z" transform="translate(-0.79 -1.41)"/><path d="M270.52,273.86l1-5.62h1.25l-1,5.62Zm1.76-6.41a.61.61,0,0,1-.62-.62.9.9,0,0,1,.25-.61.79.79,0,0,1,.57-.26.6.6,0,0,1,.63.62.82.82,0,0,1-.25.61A.8.8,0,0,1,272.28,267.45Z" transform="translate(-0.79 -1.41)"/><path d="M275.65,274a2.17,2.17,0,0,1-1.63-.63,2.39,2.39,0,0,1-.61-1.75,3.84,3.84,0,0,1,.83-2.47,2.65,2.65,0,0,1,2.18-1,2,2,0,0,1,1.54.59,2.3,2.3,0,0,1,.54,1.62,3.68,3.68,0,0,1-.21,1.22h-3.6v.12a1.19,1.19,0,0,0,.32.89,1.06,1.06,0,0,0,.8.32,1.77,1.77,0,0,0,1.27-.55l.63.84A2.83,2.83,0,0,1,275.65,274Zm-.78-3.53h2.41a.91.91,0,0,0,0-.33.9.9,0,0,0-1-.91,1.29,1.29,0,0,0-.91.34A1.67,1.67,0,0,0,274.87,270.46Z" transform="translate(-0.79 -1.41)"/><path d="M280.76,274a1.1,1.1,0,0,1-.82-.29,1,1,0,0,1-.29-.76,3.68,3.68,0,0,1,.07-.73l.5-2.86h-.88l.2-1.11h.88l.33-1.88,1.32-.44-.41,2.32h1.23l-.18,1.11h-1.24l-.48,2.74a3.29,3.29,0,0,0-.07.44c0,.24.14.35.41.35a2,2,0,0,0,.85-.23l-.27,1.1A2.54,2.54,0,0,1,280.76,274Z" transform="translate(-0.79 -1.41)"/><path d="M283.45,276l1.22-2.27-1-5.49h1.25l.62,3.46c0,.2.06.36.08.48a3,3,0,0,1,.23-.48l1.86-3.46H289l-4.2,7.76Z" transform="translate(-0.79 -1.41)"/><path d="M240.93,107.32l2.6,3.87a50.87,50.87,0,0,1,6,34.36,132,132,0,0,0,60.93-1.71c0-2.15.43-4.3.43-6.88a110.75,110.75,0,0,0-32.84-78.61,135.75,135.75,0,0,1-37.16,49" transform="translate(-0.79 -1.41)" style="fill:#f5afb7;fill-rule:evenodd"/><path d="M310.9,137.24c0,2.57-.43,4.72-.43,6.86,4.74-1.71,9.48-3,14.21-5.15v-1.71c0-36.46-15.93-69.48-40.9-92.64a135.27,135.27,0,0,1-5.6,14.15,110.69,110.69,0,0,1,32.72,78.49" transform="translate(-0.79 -1.41)" style="fill:#bfdcf4;fill-rule:evenodd"/><path d="M237.05,102.35a126.08,126.08,0,0,0,36.38-48.18,111.57,111.57,0,0,0-75.37-28.82,114.36,114.36,0,0,0-12.13.43,133,133,0,0,1,15.16,59.79,51.45,51.45,0,0,1,36,16.78" transform="translate(-0.79 -1.41)" style="fill:#f5afb7;fill-rule:evenodd"/><path d="M198.16,25.68A112.37,112.37,0,0,1,273.49,54.1a92.29,92.29,0,0,0,5.19-14,130.19,130.19,0,0,0-80.52-28,140.53,140.53,0,0,0-19.48,1.27c2.6,4.24,5.2,8.49,7.36,12.73a117,117,0,0,1,12.12-.42" transform="translate(-0.79 -1.41)" style="fill:#bfdcf4;fill-rule:evenodd"/><path d="M171.48,92.48a51.7,51.7,0,0,1,23.45-7.29A127.2,127.2,0,0,0,179.3,26.85,113.27,113.27,0,0,0,102.43,77a139.08,139.08,0,0,1,56.46,25.31,47.32,47.32,0,0,1,12.59-9.87" transform="translate(-0.79 -1.41)" style="fill:#f5afb7;fill-rule:evenodd"/><path d="M179.68,27a74.42,74.42,0,0,0-7.81-12.41A127.18,127.18,0,0,0,87.68,75c5.21.43,10.42,1.28,15.19,2.14A113.24,113.24,0,0,1,179.68,27" transform="translate(-0.79 -1.41)" style="fill:#bfdcf4;fill-rule:evenodd"/><path d="M154.93,106.82A128.35,128.35,0,0,0,98.79,82.35a110.86,110.86,0,0,0-14.36,54.51,112.6,112.6,0,0,0,6.1,36.49,139.69,139.69,0,0,1,55.26-27.9,51.3,51.3,0,0,1,9.14-38.63" transform="translate(-0.79 -1.41)" style="fill:#f5afb7;fill-rule:evenodd"/><path d="M91.35,173.8a112,112,0,0,1-6.14-36.48,110.17,110.17,0,0,1,14.47-54.5C94.86,82,89.6,81.53,84.77,81.1a122.67,122.67,0,0,0-13.59,56.22,117.34,117.34,0,0,0,9.21,46.78c3.51-3.43,7-6.87,11-10.3" transform="translate(-0.79 -1.41)" style="fill:#bfdcf4;fill-rule:evenodd"/><path d="M171.93,183.19a51.55,51.55,0,0,1-19.86-19.75,69.34,69.34,0,0,1-5.18-11.59,132,132,0,0,0-54,27.9c12.09,29.62,36.7,52.37,66.48,63.1a132.63,132.63,0,0,1,12.52-59.66" transform="translate(-0.79 -1.41)" style="fill:#f5afb7;fill-rule:evenodd"/><path d="M93.53,179.6,83.18,189.89a125.71,125.71,0,0,0,78.5,67.71c-.86-5.14-1.29-9.86-1.72-15-29.76-10.71-54.35-33.43-66.43-63" transform="translate(-0.79 -1.41)" style="fill:#bfdcf4;fill-rule:evenodd"/><path d="M217.73,185.35c-13.09,5.19-27.93,5.19-40.14,0A124.86,124.86,0,0,0,165.81,245a109.18,109.18,0,0,0,31.85,4.32c21.81,0,42.76-6,59.77-16.86a135.59,135.59,0,0,1-39.7-47.14" transform="translate(-0.79 -1.41)" style="fill:#f5afb7;fill-rule:evenodd"/><path d="M198,249.35a109.54,109.54,0,0,1-31.79-4.29c.44,4.72.87,9.88,1.74,14.6A136.83,136.83,0,0,0,198,263.1a128.54,128.54,0,0,0,72.71-22.34c-4.35-2.58-8.71-5.15-13.06-8.16-17,10.74-37.88,16.75-59.65,16.75" transform="translate(-0.79 -1.41)" style="fill:#bfdcf4;fill-rule:evenodd"/><path d="M248.08,151.64a51.56,51.56,0,0,1-24.22,30.85h-.43a127.74,127.74,0,0,0,39.36,45.86,111.17,111.17,0,0,0,47.14-78c-19.46,5.14-40.65,5.57-61.85,1.29" transform="translate(-0.79 -1.41)" style="fill:#f5afb7;fill-rule:evenodd"/><path d="M324.18,146.1c-4.72,1.71-9.45,3.42-14.17,4.7a110.8,110.8,0,0,1-46.83,77.69c4.3,3,8.16,5.55,12.46,8.11a125.78,125.78,0,0,0,48.54-90.5" transform="translate(-0.79 -1.41)" style="fill:#bfdcf4;fill-rule:evenodd"/></svg>