<svg id="Layer_1" data-name="Layer 1" xmlns="http://www.w3.org/2000/svg" viewBox="0 0 419.34 146.31"><polygon points="259.61 17.98 347.49 17.98 364.64 35.13 347.49 52.29 259.61 52.29 259.61 17.98" style="fill:#05d2d2"/><polygon points="259.61 17.98 347.49 17.98 364.64 35.13 347.49 52.29 259.61 52.29 259.61 17.98" style="fill:none;stroke:#05d2d2;stroke-miterlimit:8;stroke-width:0.25px"/><text transform="translate(286.4 33.44)" style="font-size:5.928999900817871px;fill:#230050;font-family:NotoSans, Noto Sans"><tspan style="letter-spacing:-0.0029647706685869903em">O</tspan><tspan x="4.61" y="0">p</tspan><tspan x="8.26" y="0" style="letter-spacing:-0.00107061163032308em">e</tspan><tspan x="11.6" y="0" style="letter-spacing:-0.0019765137790579935em">r</tspan><tspan x="14.03" y="0" style="letter-spacing:0.00107061163032308em">a</tspan><tspan x="17.37" y="0" style="letter-spacing:-0.0030471254093810737em">t</tspan><tspan x="19.49" y="0" style="letter-spacing:-0.00008235474079408306em">i</tspan><tspan x="21.02" y="0" style="letter-spacing:0.0009882568895289968em">o</tspan><tspan x="24.61" y="0" style="letter-spacing:-0.0019765137790579935em">n</tspan><tspan x="28.26" y="0" style="letter-spacing:0.002058868519852077em">s</tspan><tspan x="31.11" y="0"> </tspan></text><text transform="translate(319.07 33.44)" style="font-size:5.928999900817871px;fill:#230050;font-family:NotoSans, Noto Sans"><tspan style="letter-spacing:0.0019765137790579935em">o</tspan><tspan x="3.6" y="0" style="letter-spacing:0.0030471254093810737em">f</tspan><tspan x="5.66" y="0"> </tspan></text><text transform="translate(326.27 33.44)" style="font-size:5.928999900817871px;fill:#230050;font-family:NotoSans, Noto Sans"><tspan style="letter-spacing:0.0030471254093810737em">s</tspan><tspan x="2.86" y="0" style="letter-spacing:0.0019765137790579935em">oc</tspan><tspan x="9.31" y="0" style="letter-spacing:0.0009059021487349138em">ial</tspan><tspan x="15.71" y="0"> </tspan></text><text transform="translate(286.4 40.64)" style="font-size:5.928999900817871px;fill:#230050;font-family:NotoSans, Noto Sans">p<tspan x="3.65" y="0" style="letter-spacing:-0.002058868519852077em">r</tspan><tspan x="6.08" y="0" style="letter-spacing:0.0019765137790579935em">o</tspan><tspan x="9.68" y="0" style="letter-spacing:-0.0029647706685869903em">t</tspan><tspan x="11.81" y="0" style="letter-spacing:-0.00107061163032308em">e</tspan><tspan x="15.14" y="0" style="letter-spacing:0.002058868519852077em">c</tspan><tspan x="18" y="0" style="letter-spacing:-0.0030471254093810737em">t</tspan><tspan x="20.12" y="0" style="letter-spacing:0.0009882568895289968em">i</tspan><tspan x="21.66" y="0" style="letter-spacing:0.0019765137790579935em">o</tspan><tspan x="25.26" y="0" style="letter-spacing:-0.0019765137790579935em">n</tspan><tspan x="28.91" y="0"> </tspan></text><text transform="translate(316.84 40.64)" style="font-size:5.928999900817871px;fill:#230050;font-family:NotoSans, Noto Sans"><tspan style="letter-spacing:0.0030471254093810737em">s</tspan><tspan x="2.86" y="0">y</tspan><tspan x="5.88" y="0" style="letter-spacing:0.0029647706685869903em">s</tspan><tspan x="8.74" y="0" style="letter-spacing:-0.0029647706685869903em">t</tspan><tspan x="10.86" y="0" style="letter-spacing:-0.00107061163032308em">e</tspan><tspan x="14.2" y="0" style="letter-spacing:0.00107061163032308em">m</tspan><tspan x="19.75" y="0">s</tspan></text><polygon points="193.55 17.98 264.48 17.98 281.63 35.13 264.48 52.29 193.55 52.29 193.55 17.98" style="fill:#69e4e4"/><polygon points="193.55 17.98 264.48 17.98 281.63 35.13 264.48 52.29 193.55 52.29 193.55 17.98" style="fill:none;stroke:#05d2d2;stroke-miterlimit:8;stroke-width:0.25px"/><text transform="translate(212.83 29.63)" style="font-size:5.928999900817871px;fill:#230050;font-family:NotoSans, Noto Sans"><tspan style="letter-spacing:0.0019765137790579935em">D</tspan><tspan x="4.34" y="0" style="letter-spacing:-0.0009882568895289968em">e</tspan><tspan x="7.68" y="0" style="letter-spacing:0.0030471254093810737em">s</tspan><tspan x="10.54" y="0" style="letter-spacing:0.0009882568895289968em">i</tspan><tspan x="12.07" y="0">g</tspan><tspan x="15.72" y="0" style="letter-spacing:-0.0019765137790579935em">n</tspan><tspan x="19.37" y="0"> </tspan><tspan x="20.91" y="0" style="letter-spacing:0.0019765137790579935em">o</tspan><tspan x="24.51" y="0" style="letter-spacing:0.0030471254093810737em">f</tspan><tspan x="26.57" y="0"> </tspan></text><text transform="translate(240.94 29.63)" style="font-size:5.928999900817871px;fill:#230050;font-family:NotoSans, Noto Sans">s</text><text transform="translate(243.8 29.63)" style="font-size:5.928999900817871px;fill:#230050;font-family:NotoSans, Noto Sans"><tspan style="letter-spacing:0.0019765137790579935em">oc</tspan><tspan x="6.46" y="0" style="letter-spacing:0.0009059021487349138em">ia</tspan><tspan x="11.32" y="0">l</tspan></text><text transform="translate(212.83 36.83)" style="font-size:5.928999900817871px;fill:#230050;font-family:NotoSans, Noto Sans">p<tspan x="3.65" y="0" style="letter-spacing:-0.002058868519852077em">r</tspan><tspan x="6.08" y="0" style="letter-spacing:0.0019765137790579935em">o</tspan><tspan x="9.68" y="0" style="letter-spacing:-0.0029647706685869903em">t</tspan><tspan x="11.81" y="0" style="letter-spacing:-0.00107061163032308em">e</tspan><tspan x="15.14" y="0" style="letter-spacing:0.002058868519852077em">c</tspan><tspan x="18" y="0" style="letter-spacing:-0.0030471254093810737em">t</tspan><tspan x="20.12" y="0" style="letter-spacing:0.0009882568895289968em">i</tspan><tspan x="21.66" y="0" style="letter-spacing:0.0019765137790579935em">o</tspan><tspan x="25.26" y="0" style="letter-spacing:-0.0019765137790579935em">n</tspan><tspan x="28.91" y="0"> </tspan></text><text transform="translate(243.27 36.83)" style="font-size:5.928999900817871px;fill:#230050;font-family:NotoSans, Noto Sans"><tspan style="letter-spacing:0.0030471254093810737em">s</tspan><tspan x="2.86" y="0" style="letter-spacing:0.0019765137790579935em">c</tspan><tspan x="5.72" y="0" style="letter-spacing:-0.0019765137790579935em">h</tspan><tspan x="9.37" y="0" style="letter-spacing:-0.0009882568895289968em">e</tspan><tspan x="12.71" y="0" style="letter-spacing:0.0019765137790579935em">m</tspan><tspan x="18.26" y="0" style="letter-spacing:-0.0009882568895289968em">e</tspan><tspan x="21.6" y="0">s</tspan></text><text transform="translate(212.83 44.02)" style="font-size:5.928999900817871px;fill:#230050;font-family:NotoSans, Noto Sans"><tspan style="letter-spacing:0.00107061163032308em">a</tspan><tspan x="3.33" y="0" style="letter-spacing:-0.002058868519852077em">n</tspan><tspan x="6.99" y="0" style="letter-spacing:0.0009882568895289968em">d</tspan><tspan x="10.64" y="0"> </tspan></text><text transform="translate(225.01 44.02)" style="font-size:5.928999900817871px;fill:#230050;font-family:NotoSans, Noto Sans"><tspan style="letter-spacing:0.0030471254093810737em">s</tspan><tspan x="2.86" y="0">y</tspan><tspan x="5.88" y="0" style="letter-spacing:0.0029647706685869903em">s</tspan><tspan x="8.74" y="0" style="letter-spacing:-0.0029647706685869903em">t</tspan><tspan x="10.86" y="0" style="letter-spacing:-0.00107061163032308em">e</tspan><tspan x="14.2" y="0" style="letter-spacing:0.002058868519852077em">m</tspan><tspan x="19.75" y="0">s</tspan></text><polygon points="126.63 17.98 193.33 17.98 210.49 35.13 193.33 52.29 126.63 52.29 126.63 17.98" style="fill:#9ef2f2"/><polygon points="126.63 17.98 193.33 17.98 210.49 35.13 193.33 52.29 126.63 52.29 126.63 17.98" style="fill:none;stroke:#05d2d2;stroke-miterlimit:8;stroke-width:0.25px"/><text transform="translate(135.58 29.63)" style="font-size:5.928999900817871px;fill:#230050;font-family:NotoSans, Noto Sans">N<tspan x="4.5" y="0" style="letter-spacing:0.00107061163032308em">a</tspan><tspan x="7.84" y="0" style="letter-spacing:-0.0030471254093810737em">t</tspan><tspan x="9.96" y="0" style="letter-spacing:0.00107061163032308em">i</tspan><tspan x="11.49" y="0" style="letter-spacing:0.0019765137790579935em">o</tspan><tspan x="15.09" y="0" style="letter-spacing:-0.0019765137790579935em">n</tspan><tspan x="18.75" y="0" style="letter-spacing:0.0009882568895289968em">al</tspan><tspan x="23.61" y="0"> </tspan></text><text transform="translate(160.72 29.63)" style="font-size:5.928999900817871px;fill:#230050;font-family:NotoSans, Noto Sans">s</text><text transform="translate(163.58 29.63)" style="font-size:5.928999900817871px;fill:#230050;font-family:NotoSans, Noto Sans;letter-spacing:0.0019765137790579935em">oc<tspan x="6.46" y="0" style="letter-spacing:0.0009059021487349138em">ia</tspan></text><text transform="translate(174.91 29.63)" style="font-size:5.928999900817871px;fill:#230050;font-family:NotoSans, Noto Sans"><tspan style="letter-spacing:0.0009882568895289968em">l</tspan><tspan x="1.53" y="0"> </tspan></text><text transform="translate(135.58 36.83)" style="font-size:5.928999900817871px;fill:#230050;font-family:NotoSans, Noto Sans">p</text><text transform="translate(139.23 36.83)" style="font-size:5.928999900817871px;fill:#230050;font-family:NotoSans, Noto Sans"><tspan style="letter-spacing:-0.0019765137790579935em">r</tspan><tspan x="2.44" y="0" style="letter-spacing:0.0019765137790579935em">o</tspan><tspan x="6.04" y="0" style="letter-spacing:-0.00403538229891007em">t</tspan><tspan x="8.15" y="0" style="letter-spacing:-0.0009882568895289968em">e</tspan><tspan x="11.49" y="0" style="letter-spacing:0.0019765137790579935em">c</tspan><tspan x="14.35" y="0" style="letter-spacing:-0.00403538229891007em">t</tspan><tspan x="16.46" y="0">i</tspan><tspan x="17.99" y="0" style="letter-spacing:0.0019765137790579935em">o</tspan><tspan x="21.59" y="0">n</tspan></text><text transform="translate(166.01 36.83)" style="font-size:5.928999900817871px;fill:#230050;font-family:NotoSans, Noto Sans">p<tspan x="3.65" y="0" style="letter-spacing:0.0019765137790579935em">o</tspan><tspan x="7.25" y="0" style="letter-spacing:0.0009882568895289968em">li</tspan><tspan x="10.32" y="0" style="letter-spacing:0.002058868519852077em">c</tspan><tspan x="13.17" y="0" style="letter-spacing:-0.00008235474079408306em">y </tspan></text><text transform="translate(183.75 36.83)" style="font-size:5.928999900817871px;fill:#230050;font-family:NotoSans, Noto Sans"><tspan style="letter-spacing:0.0019765137790579935em">o</tspan><tspan x="3.6" y="0" style="letter-spacing:-0.0019765137790579935em">r</tspan><tspan x="6.04" y="0"> </tspan></text><text transform="translate(135.58 44.02)" style="font-size:5.928999900817871px;fill:#230050;font-family:NotoSans, Noto Sans"><tspan style="letter-spacing:0.0030471254093810737em">s</tspan><tspan x="2.86" y="0" style="letter-spacing:-0.0030471254093810737em">t</tspan><tspan x="4.98" y="0" style="letter-spacing:-0.0009882568895289968em">r</tspan><tspan x="7.42" y="0" style="letter-spacing:0.0009882568895289968em">a</tspan><tspan x="10.75" y="0" style="letter-spacing:-0.0030471254093810737em">t</tspan><tspan x="12.88" y="0" style="letter-spacing:-0.0009882568895289968em">e</tspan><tspan x="16.21" y="0">gy</tspan></text><polygon points="341.41 110.15 380.38 139.14 419.34 110.15 380.38 81.17 341.41 110.15" style="fill:#230050"/><text transform="translate(364.56 107.11)" style="font-size:8.275750160217285px;fill:#fff;font-family:NotoSans-Bold, Noto Sans;font-weight:700;letter-spacing:0.000944023182038023em">Impact <tspan x="-4.53" y="9.93">on people</tspan></text><polygon points="233.78 94.21 292.22 94.21 309.16 111.15 292.22 128.09 233.78 128.09 233.78 94.21" style="fill:#fa3c4b"/><polygon points="233.78 94.21 292.22 94.21 309.16 111.15 292.22 128.09 233.78 128.09 233.78 94.21" style="fill:none;stroke:#fa3c4b;stroke-miterlimit:8;stroke-width:0.25px"/><text transform="translate(259.37 113.06)" style="font-size:5.928999900817871px;fill:#fff;font-family:NotoSans, Noto Sans;letter-spacing:-0.0029647706685869903em">K<tspan x="3.65" y="0" style="letter-spacing:-0.002058868519852077em">n</tspan><tspan x="7.31" y="0" style="letter-spacing:0.002058868519852077em">o</tspan><tspan x="10.91" y="0" style="letter-spacing:-0.00008235474079408306em">w</tspan><tspan x="15.57" y="0" style="letter-spacing:0.00107061163032308em">l</tspan><tspan x="17.1" y="0" style="letter-spacing:-0.0009882568895289968em">e</tspan><tspan x="20.44" y="0" style="letter-spacing:-0.00008235474079408306em">dge</tspan></text><polygon points="166.44 94.21 235.9 94.21 252.84 111.15 235.9 128.09 166.44 128.09 166.44 94.21" style="fill:#fc8a93"/><polygon points="166.44 94.21 235.9 94.21 252.84 111.15 235.9 128.09 166.44 128.09 166.44 94.21" style="fill:none;stroke:#fa3c4b;stroke-miterlimit:8;stroke-width:0.25px"/><text transform="translate(198.49 113.06)" style="font-size:5.928999900817871px;fill:#230050;font-family:NotoSans, Noto Sans;letter-spacing:0.0030471254093810737em">Support (TSF)</text><polygon points="114.35 94.21 172.79 94.21 189.74 111.15 172.79 128.09 114.35 128.09 114.35 94.21" style="fill:#fdb1b7"/><polygon points="114.35 94.21 172.79 94.21 189.74 111.15 172.79 128.09 114.35 128.09 114.35 94.21" style="fill:none;stroke:#fa3c4b;stroke-miterlimit:8;stroke-width:0.25px"/><text transform="translate(138.19 109.25)" style="font-size:5.928999900817871px;fill:#230050;font-family:NotoSans, Noto Sans">I<tspan x="2.01" y="0" style="letter-spacing:0.0029647706685869903em">L</tspan><tspan x="5.13" y="0" style="letter-spacing:-0.003953027558115987em">O</tspan><tspan x="9.74" y="0"> </tspan></text><text transform="translate(149.47 109.25)" style="font-size:5.928999900817871px;fill:#230050;font-family:NotoSans, Noto Sans;letter-spacing:-0.0030471254093810737em">t<tspan x="2.12" y="0" style="letter-spacing:-0.0019765137790579935em">h</tspan><tspan x="5.77" y="0" style="letter-spacing:-0.0009882568895289968em">e</tspan><tspan x="9.11" y="0" style="letter-spacing:0.0019765137790579935em">m</tspan><tspan x="14.67" y="0" style="letter-spacing:0.00107061163032308em">a</tspan><tspan x="18" y="0">t</tspan><tspan x="20.12" y="0" style="letter-spacing:0.0009882568895289968em">i</tspan><tspan x="21.66" y="0" style="letter-spacing:0.00008235474079408306em">c</tspan></text><text transform="translate(138.19 116.44)" style="font-size:5.928999900817871px;fill:#230050;font-family:NotoSans, Noto Sans">app<tspan x="10.62" y="0" style="letter-spacing:-0.0019765137790579935em">r</tspan><tspan x="13.06" y="0" style="letter-spacing:0.0019765137790579935em">o</tspan><tspan x="16.66" y="0" style="letter-spacing:0.00008235474079408306em">a</tspan><tspan x="19.98" y="0" style="letter-spacing:0.0019765137790579935em">c</tspan><tspan x="22.84" y="0">h</tspan></text><polygon points="79.63 94.21 116.47 94.21 133.41 111.15 116.47 128.09 79.63 128.09 79.63 94.21" style="fill:#fed8db"/><polygon points="79.63 94.21 116.47 94.21 133.41 111.15 116.47 128.09 79.63 128.09 79.63 94.21" style="fill:none;stroke:#fa3c4b;stroke-miterlimit:8;stroke-width:0.25px"/><text transform="translate(95.28 113.06)" style="font-size:5.928999900817871px;fill:#230050;font-family:NotoSans, Noto Sans"><tspan style="letter-spacing:0.0009882568895289968em">Ba</tspan><tspan x="7.19" y="0" style="letter-spacing:0.002058868519852077em">s</tspan><tspan x="10.04" y="0" style="letter-spacing:-0.0009882568895289968em">e</tspan><tspan x="13.38" y="0" style="letter-spacing:0.0009882568895289968em">li</tspan><tspan x="16.45" y="0" style="letter-spacing:-0.0019765137790579935em">n</tspan><tspan x="20.1" y="0">e</tspan></text><path d="M631.9,364.24l-.5,4-2.15-6.76,6.7,2.33Zm2.44,3.41-2.66-2.73.91-.89,2.66,2.74Zm3.54,3.65-2.66-2.74.91-.88,2.66,2.73Zm3.54,3.64-2.65-2.73.91-.89,2.66,2.73Zm3.55,3.64-2.66-2.73.91-.89,2.66,2.74Zm3.54,3.64-2.66-2.73.92-.88,2.65,2.73Zm3.55,3.65-2.66-2.74.91-.88L653,385Zm3.54,3.64-2.66-2.73.91-.89,2.66,2.73Zm3.54,3.64-2.66-2.73.92-.89,2.65,2.74Zm3.55,3.65L660,394.06l.91-.88,2.66,2.73Zm3.54,3.64-2.66-2.73.91-.89,2.66,2.73Zm3.54,3.64-2.66-2.73.92-.89,2.65,2.74Z" transform="translate(-469.16 -309.22)" style="fill:#fc8a93"/><path d="M696.21,364.68l1.24,3.87.87-7L692.16,365Zm-.05,1.22.58-.87-1.06-.7-.58.87Zm-2.81,4.24,2.11-3.18-1.06-.7-2.11,3.18Zm-2.82,4.23,2.11-3.17-1-.71-2.11,3.18Zm-2.81,4.24,2.11-3.18-1.06-.7-2.11,3.17Zm-2.81,4.23,2.11-3.18L686,379l-2.11,3.18Zm-2.81,4.23,2.11-3.17-1.06-.71L681,386.37Zm-2.81,4.24,2.11-3.18-1.06-.7-2.11,3.17Zm-2.81,4.23,2.11-3.18-1.06-.7-2.11,3.18Zm-2.81,4.23,2.1-3.17-1-.71-2.11,3.18ZM670.85,404l2.11-3.18-1.06-.7-2.1,3.17Z" transform="translate(-469.16 -309.22)" style="fill:#fc8a93"/><path d="M769.38,363l-1.14,3.91,4.67-5.35-7.08-.53Zm-.09.73.34-.14-.49-1.17-.34.14Zm-4.7,1.93,3.52-1.45-.48-1.17-3.53,1.45Zm-4.71,1.93,3.53-1.45-.48-1.17-3.53,1.45Zm-4.7,1.93,3.53-1.44-.48-1.18-3.53,1.45Zm-4.7,1.93L754,370l-.48-1.18L750,370.23Zm-4.7,1.93,3.53-1.44-.49-1.18-3.52,1.45Zm-4.7,1.94,3.53-1.45-.49-1.18-3.52,1.45Zm-4.7,1.93,3.53-1.45-.49-1.18L735.9,376Zm-4.7,1.93,3.52-1.45-.48-1.18L731.2,378Zm-4.7,1.93,3.52-1.45-.48-1.18-3.52,1.45Zm-4.7,1.93,3.52-1.45-.48-1.17-3.53,1.44Zm-4.7,1.93,3.52-1.45-.48-1.17-3.53,1.44Zm-4.7,1.93,3.52-1.45-.48-1.17-3.53,1.44Zm-4.71,1.93,3.53-1.45-.48-1.17-3.53,1.45Zm-4.7,1.93,3.53-1.45-.48-1.17L703,389.54Zm-4.7,1.93,3.53-1.45-.48-1.17-3.53,1.45Zm-4.7,1.93,3.53-1.45-.49-1.17-3.52,1.45Zm-4.7,1.93,3.53-1.44-.49-1.18-3.52,1.45Zm-4.7,1.93L688.2,397l-.49-1.18-3.52,1.45Zm-4.7,1.94,3.52-1.45-.48-1.18-3.52,1.45Zm-4.7,1.93,3.52-1.45-.48-1.18-3.53,1.45Zm-4.7,1.93,3.52-1.45-.48-1.18-3.53,1.45Z" transform="translate(-469.16 -309.22)" style="fill:#fc8a93"/><polygon points="354.7 68.5 359.3 63.89 347.72 52.33 356.91 43.12 368.49 54.69 373.08 50.08 373.1 68.48 354.7 68.5" style="fill:#05d2d2"/><polygon points="354.7 68.5 359.3 63.89 347.72 52.33 356.91 43.12 368.49 54.69 373.08 50.08 373.1 68.48 354.7 68.5" style="fill:none;stroke:#05d2d2;stroke-miterlimit:8;stroke-width:0.42399999499320984px"/><path d="M612.73,441.12l3.18,2.54-3.18-6.35-3.18,6.35Zm2.63,3.18h-2.63l.63.64v-2.46h-1.27v3.09h3.27Zm8.89,0h-5.08v1.27h5.08Zm8.89,0h-5.08v1.27h5.08Zm8.9,0H637v1.27H642Zm8.89,0h-5.08v1.27h5.08Zm8.89,0h-5.08v1.27h5.08Zm8.9,0h-5.09v1.27h5.09Zm8.89,0h-5.08v1.27h5.08Zm8.89,0h-5.08v1.27h5.08Zm8.9,0h-5.09v1.27h5.09Zm8.89,0h-5.08v1.27h5.08Zm8.89,0H708.1v1.27h5.08Zm8.9,0H717v1.27h5.08Zm8.89,0h-5.08v1.27H731Zm.64-1.91h1.27v-5.08h-1.27Z" transform="translate(-469.16 -309.22)" style="fill:#fc8a93"/><text transform="translate(142.81 143.97)" style="font-size:5.928999900817871px;fill:#230050;font-family:NotoSans, Noto Sans">I<tspan x="2.01" y="0" style="letter-spacing:0.0009882568895289968em">mp</tspan><tspan x="11.21" y="0" style="letter-spacing:-0.002058868519852077em">r</tspan><tspan x="13.65" y="0" style="letter-spacing:0.002058868519852077em">o</tspan><tspan x="17.25" y="0" style="letter-spacing:0.0009882568895289968em">v</tspan><tspan x="20.27" y="0" style="letter-spacing:-0.0009882568895289968em">e</tspan><tspan x="23.6" y="0" style="letter-spacing:0.0009882568895289968em">m</tspan><tspan x="29.15" y="0" style="letter-spacing:-0.0009882568895289968em">en</tspan><tspan x="36.15" y="0" style="letter-spacing:-0.00008235474079408306em">t</tspan></text><text transform="translate(182.62 143.97)" style="font-size:5.928999900817871px;fill:#230050;font-family:NotoSans, Noto Sans"><tspan style="letter-spacing:0.0019765137790579935em">o</tspan><tspan x="3.6" y="0" style="letter-spacing:0.0030471254093810737em">f</tspan><tspan x="5.66" y="0"> </tspan></text><text transform="translate(189.82 143.97)" style="font-size:5.928999900817871px;fill:#230050;font-family:NotoSans, Noto Sans">I<tspan x="2.01" y="0" style="letter-spacing:0.0029647706685869903em">L</tspan><tspan x="5.13" y="0" style="letter-spacing:-0.003953027558115987em">O</tspan><tspan x="9.74" y="0">’s</tspan></text><text transform="translate(205.8 143.97)" style="font-size:5.928999900817871px;fill:#230050;font-family:NotoSans, Noto Sans;letter-spacing:-0.0030471254093810737em">t<tspan x="2.12" y="0" style="letter-spacing:-0.0019765137790579935em">h</tspan><tspan x="5.77" y="0" style="letter-spacing:-0.0009882568895289968em">e</tspan><tspan x="9.11" y="0" style="letter-spacing:0.0019765137790579935em">m</tspan><tspan x="14.67" y="0" style="letter-spacing:0.00107061163032308em">a</tspan><tspan x="18" y="0">t</tspan><tspan x="20.12" y="0" style="letter-spacing:0.0009882568895289968em">i</tspan><tspan x="21.66" y="0" style="letter-spacing:0.00008235474079408306em">c</tspan></text><text transform="translate(231.85 143.97)" style="font-size:5.928999900817871px;fill:#230050;font-family:NotoSans, Noto Sans">app<tspan x="10.62" y="0" style="letter-spacing:-0.0019765137790579935em">r</tspan><tspan x="13.06" y="0" style="letter-spacing:0.0019765137790579935em">o</tspan><tspan x="16.66" y="0" style="letter-spacing:0.00008235474079408306em">a</tspan><tspan x="19.98" y="0" style="letter-spacing:0.0019765137790579935em">c</tspan><tspan x="22.84" y="0" style="letter-spacing:-0.0009882568895289968em">he</tspan><tspan x="29.84" y="0">s</tspan></text><path d="M728.62,402.2l-1.15-3.91,4.68,5.35-7.09.53Zm-.37-.84.61.25-.48,1.17-.61-.25Zm-4.7-1.93,3.52,1.45-.48,1.17-3.53-1.44Zm-4.71-1.92,3.53,1.44-.48,1.18-3.53-1.45Zm-4.7-1.93,3.53,1.44-.48,1.18-3.53-1.44Zm-4.7-1.93L713,395.1l-.48,1.17L709,394.83Zm-4.71-1.92,3.53,1.44-.48,1.18-3.53-1.45ZM700,389.8l3.53,1.45-.48,1.17L699.55,391Zm-4.7-1.92,3.53,1.44-.49,1.18-3.52-1.45ZM690.62,386l3.53,1.45-.48,1.17-3.53-1.44Zm-4.7-1.92,3.53,1.44-.48,1.18-3.53-1.45Zm-4.7-1.93,3.53,1.45-.49,1.17-3.52-1.44Zm-4.7-1.92,3.52,1.44-.48,1.18L676,381.35Zm-4.71-1.93,3.53,1.44-.48,1.18-3.53-1.44Zm-4.7-1.93,3.53,1.45-.48,1.17-3.53-1.44Zm-4.7-1.92,3.52,1.44-.48,1.18-3.52-1.45Zm-4.71-1.93,3.53,1.45-.48,1.17-3.53-1.44Zm-4.7-1.92,3.53,1.44-.48,1.18-3.53-1.45Zm-4.7-1.93,3.52,1.45-.48,1.17-3.52-1.44Zm-4.71-1.92,3.53,1.44-.48,1.18-3.53-1.45Zm-4.7-1.93,3.53,1.44-.48,1.18L638.41,366Zm-4.7-1.93,3.53,1.45-.49,1.17L633.71,364Zm-4.7-1.92,3.52,1.44-.48,1.18L629,362.09Z" transform="translate(-469.16 -309.22)" style="fill:#05d2d2;opacity:0.5803989768028259"/><path d="M729.81,400.69l.88-4,1.51,6.94-6.46-2.95Zm-2.36-3.95,2.39,3-1,.79-2.39-3Zm-3.19-4,2.39,3-1,.79-2.39-3Zm-3.18-4,2.39,3-1,.8-2.39-3Zm-3.19-4,2.39,3-1,.8-2.39-3Zm-3.19-4,2.39,3-1,.8-2.39-3Zm-3.18-4,2.39,3-1,.8-2.39-3Zm-3.19-4,2.39,3-1,.8-2.39-3Zm-3.19-4,2.39,3-1,.8-2.39-3Zm-3.18-4,2.39,3-1,.79-2.39-3Zm-3.19-4,2.39,3-1,.79-2.39-3Z" transform="translate(-469.16 -309.22)" style="fill:#05d2d2;opacity:0.5803989768028259"/><path d="M734.8,400.9l-.52-4-2.12,6.78,6.69-2.37Zm2.27-3.27-2.65,2.74.92.89,2.65-2.75ZM740.6,394,738,396.72l.92.88,2.65-2.74Zm3.53-3.65-2.65,2.74.92.88L745,391.2Zm3.53-3.66L745,389.4l.92.89,2.64-2.75Zm3.53-3.66-2.65,2.75.92.88,2.64-2.74Zm3.53-3.65-2.65,2.74.92.88,2.64-2.74Zm3.53-3.66-2.65,2.74.91.89,2.65-2.75Zm3.53-3.66-2.65,2.75.91.88,2.65-2.74Zm3.53-3.65-2.65,2.74.91.88,2.65-2.74Zm3.53-3.66-2.65,2.74.91.89,2.65-2.75Zm3.52-3.66-2.64,2.75.91.88,2.65-2.74Z" transform="translate(-469.16 -309.22)" style="fill:#05d2d2"/><text transform="translate(39.52 95.7)" style="font-size:5.928999900817871px;fill:#16228e;font-family:NotoSans, Noto Sans;letter-spacing:-0.0019765137790579935em">T<tspan x="3.29" y="0" style="letter-spacing:-0.0009882568895289968em">he</tspan><tspan x="10.28" y="0" style="letter-spacing:0.0019765137790579935em">m</tspan><tspan x="15.84" y="0" style="letter-spacing:0.0009882568895289968em">a</tspan><tspan x="19.17" y="0" style="letter-spacing:-0.0029647706685869903em">t</tspan><tspan x="21.29" y="0" style="letter-spacing:-0.00008235474079408306em">ic</tspan></text><text transform="translate(41.37 102.9)" style="font-size:5.928999900817871px;fill:#16228e;font-family:NotoSans, Noto Sans;letter-spacing:0.0030471254093810737em">s<tspan x="2.86" y="0" style="letter-spacing:-0.0019765137790579935em">u</tspan><tspan x="6.51" y="0" style="letter-spacing:-0.00008235474079408306em">pp</tspan><tspan x="13.81" y="0" style="letter-spacing:0.0019765137790579935em">o</tspan><tspan x="17.41" y="0" style="letter-spacing:-0.0009882568895289968em">r</tspan><tspan x="19.85" y="0" style="letter-spacing:-0.00008235474079408306em">t</tspan></text><text transform="translate(38.17 116.02)" style="font-size:5.928999900817871px;fill:#16228e;font-family:NotoSans, Noto Sans"><tspan style="letter-spacing:0.00403538229891007em">G</tspan><tspan x="4.34" y="0" style="letter-spacing:-0.0019765137790579935em">u</tspan><tspan x="7.99" y="0" style="letter-spacing:0.0009882568895289968em">i</tspan><tspan x="9.53" y="0">d</tspan><tspan x="13.18" y="0" style="letter-spacing:-0.0009882568895289968em">e</tspan><tspan x="16.51" y="0" style="letter-spacing:-0.00008235474079408306em">d by </tspan></text><text transform="translate(45.58 123.22)" style="font-size:5.928999900817871px;fill:#16228e;font-family:NotoSans, Noto Sans"><tspan style="letter-spacing:0.0019765137790579935em">R</tspan><tspan x="3.7" y="0" style="letter-spacing:0.0029647706685869903em">202</tspan><tspan x="13.55" y="0"> </tspan></text><text transform="translate(38.83 130.42)" style="font-size:5.928999900817871px;fill:#16228e;font-family:NotoSans, Noto Sans">p<tspan x="3.65" y="0" style="letter-spacing:-0.00107061163032308em">r</tspan><tspan x="6.09" y="0" style="letter-spacing:0.0009882568895289968em">i</tspan><tspan x="7.63" y="0" style="letter-spacing:-0.0019765137790579935em">n</tspan><tspan x="11.28" y="0" style="letter-spacing:0.0019765137790579935em">c</tspan><tspan x="14.14" y="0" style="letter-spacing:0.00107061163032308em">i</tspan><tspan x="15.67" y="0" style="letter-spacing:-0.00008235474079408306em">p</tspan><tspan x="19.32" y="0" style="letter-spacing:0.0009882568895289968em">l</tspan><tspan x="20.85" y="0" style="letter-spacing:-0.0009882568895289968em">e</tspan><tspan x="24.19" y="0" style="letter-spacing:0.0030471254093810737em">s</tspan><tspan x="27.05" y="0"> </tspan></text><polygon points="315.86 98.52 311.28 93.9 301.73 103.36 292.58 94.11 302.13 84.66 297.55 80.03 315.95 80.13 315.86 98.52" style="fill:#fa3c4b"/><polygon points="315.86 98.52 311.28 93.9 301.73 103.36 292.58 94.11 302.13 84.66 297.55 80.03 315.95 80.13 315.86 98.52" style="fill:none;stroke:#fa3c4b;stroke-miterlimit:8;stroke-width:0.42399999499320984px"/><text transform="translate(79.7 19.62)" style="font-size:5.928999900817871px;fill:#16228e;font-family:NotoSans, Noto Sans">In-country<tspan x="3.54" y="7.12">support</tspan></text><text transform="translate(78.6 39.94)" style="font-size:5.928999900817871px;fill:#16228e;font-family:NotoSans, Noto Sans"><tspan style="letter-spacing:0.0029647706685869903em">A</tspan><tspan x="3.81" y="0">pp</tspan><tspan x="11.1" y="0" style="letter-spacing:0.0009059021487349138em">lica</tspan><tspan x="20.36" y="0" style="letter-spacing:-0.00403538229891007em">t</tspan><tspan x="22.47" y="0" style="letter-spacing:0.0009882568895289968em">io</tspan><tspan x="27.6" y="0" style="letter-spacing:-0.0019765137790579935em">n</tspan><tspan style="letter-spacing:0.0019765137790579935em"><tspan x="5.26" y="7.12">of R</tspan><tspan x="16.17" y="7.12" style="letter-spacing:0.0029647706685869903em">202</tspan></tspan><tspan x="2.12" y="14.23">p</tspan><tspan x="5.76" y="14.23" style="letter-spacing:-0.00107061163032308em">r</tspan><tspan x="8.21" y="14.23" style="letter-spacing:0.0009882568895289968em">i</tspan><tspan x="9.74" y="14.23" style="letter-spacing:-0.0019765137790579935em">n</tspan><tspan x="13.4" y="14.23" style="letter-spacing:0.0019765137790579935em">c</tspan><tspan x="16.25" y="14.23" style="letter-spacing:0.00107061163032308em">i</tspan><tspan x="17.79" y="14.23" style="letter-spacing:-0.00008235474079408306em">p</tspan><tspan x="21.43" y="14.23" style="letter-spacing:0.0009882568895289968em">l</tspan><tspan x="22.97" y="14.23" style="letter-spacing:-0.0009882568895289968em">e</tspan><tspan x="26.31" y="14.23">s</tspan></text><rect x="120.7" y="17.98" width="11.43" height="34.3" style="fill:#1e2dbe;stroke:#05bdbd;stroke-miterlimit:8;stroke-width:0.25px"/><text transform="translate(128.23 41.49) rotate(-90)" style="font-size:5.928999900817871px;fill:#fff;font-family:NotoSans, Noto Sans">da<tspan x="6.97" y="0" style="letter-spacing:-0.0030471254093810737em">t</tspan><tspan x="9.1" y="0">a</tspan></text><rect x="79.63" y="94.21" width="11.43" height="33.88" style="fill:#1e2dbe"/><rect x="79.63" y="94.21" width="11.43" height="33.88" style="fill:none;stroke:#fa3c4b;stroke-miterlimit:8;stroke-width:0.25px"/><text transform="translate(86.99 117.29) rotate(-90)" style="font-size:5.928999900817871px;fill:#fcfcfc;font-family:NotoSans, Noto Sans">da<tspan x="6.97" y="0" style="letter-spacing:-0.0030471254093810737em">t</tspan><tspan x="9.1" y="0">a</tspan></text><path d="M673.29,441.12l-3.18,2.55,3.18-6.36,3.18,6.36Zm-.64,4.36v-4.72h.64l-.64.64v-.28h1.28V442h-.64l.64-.63v4.08Z" transform="translate(-469.16 -309.22)" style="fill:#fc8a93"/><text transform="translate(14.31 21.46)" style="font-size:5.928999900817871px;fill:#16228e;font-family:NotoSans, Noto Sans"><tspan style="letter-spacing:-0.003953027558115987em">S<tspan x="3.23" y="0" style="letter-spacing:-0.002058868519852077em">tr</tspan><tspan x="7.79" y="0" style="letter-spacing:0.00107061163032308em">a</tspan><tspan x="11.13" y="0" style="letter-spacing:-0.002058868519852077em">t</tspan><tspan x="13.25" y="0" style="letter-spacing:-0.0009882568895289968em">e</tspan><tspan x="16.59" y="0" style="letter-spacing:0.0009882568895289968em">g</tspan><tspan x="20.25" y="0" style="letter-spacing:-0.00008235474079408306em">i</tspan><tspan x="21.77" y="0" style="letter-spacing:0.002058868519852077em">c</tspan></tspan><tspan x="-5.44" y="7.12">p</tspan><tspan x="-1.79" y="7.12" style="letter-spacing:0.0009882568895289968em">a</tspan><tspan x="1.54" y="7.12" style="letter-spacing:-0.0019765137790579935em">r</tspan><tspan x="3.98" y="7.12" style="letter-spacing:-0.0030471254093810737em">t</tspan><tspan x="6.1" y="7.12" style="letter-spacing:-0.0019765137790579935em">n</tspan><tspan x="9.75" y="7.12" style="letter-spacing:-0.00107061163032308em">e</tspan><tspan x="13.09" y="7.12" style="letter-spacing:-0.0019765137790579935em">r</tspan><tspan x="15.53" y="7.12" style="letter-spacing:0.0030471254093810737em">s</tspan><tspan x="18.39" y="7.12" style="letter-spacing:-0.0019765137790579935em">h</tspan><tspan x="22.04" y="7.12" style="letter-spacing:0.0009882568895289968em">i</tspan><tspan x="23.57" y="7.12">ps</tspan></text><text transform="translate(8.19 44.02)" style="font-size:5.928999900817871px;fill:#16228e;font-family:NotoSans, Noto Sans"><tspan style="letter-spacing:0.0019765137790579935em">P</tspan><tspan x="3.6" y="0" style="letter-spacing:-0.0009882568895289968em">r</tspan><tspan x="6.04" y="0" style="letter-spacing:0.0019765137790579935em">o</tspan><tspan x="9.64" y="0" style="letter-spacing:0.00107061163032308em">m</tspan><tspan x="15.19" y="0" style="letter-spacing:0.0019765137790579935em">o</tspan><tspan x="18.79" y="0" style="letter-spacing:-0.0030471254093810737em">t</tspan><tspan x="20.91" y="0" style="letter-spacing:0.0009882568895289968em">i</tspan><tspan x="22.45" y="0" style="letter-spacing:0.0019765137790579935em">o</tspan><tspan x="26.04" y="0" style="letter-spacing:-0.0019765137790579935em">n</tspan><tspan x="29.7" y="0"> </tspan><tspan x="31.24" y="0" style="letter-spacing:0.0019765137790579935em">o</tspan><tspan x="34.84" y="0">f</tspan><tspan x="-2.6" y="7.12" style="letter-spacing:0.0019765137790579935em">R202</tspan><tspan x="10.93" y="7.12" style="letter-spacing:-0.0009882568895289968em"> </tspan><tspan x="12.46" y="7.12">p</tspan><tspan x="16.11" y="7.12" style="letter-spacing:-0.0019765137790579935em">r</tspan><tspan x="18.55" y="7.12" style="letter-spacing:0.0009059021487349138em">i</tspan><tspan x="20.08" y="7.12" style="letter-spacing:-0.0019765137790579935em">n</tspan><tspan x="23.74" y="7.12" style="letter-spacing:0.0009882568895289968em">ci</tspan><tspan x="28.12" y="7.12">p</tspan><tspan x="31.77" y="7.12" style="letter-spacing:0.0009059021487349138em">l</tspan><tspan x="33.3" y="7.12" style="letter-spacing:-0.0009882568895289968em">e</tspan><tspan x="36.64" y="7.12">s</tspan></text><text transform="translate(82.69 5.81)" style="font-size:6.776000022888184px;fill:#1e2dbe;font-family:NotoSans-Bold, Noto Sans;font-weight:700"><tspan style="letter-spacing:-0.0020176911088870594em">P</tspan><tspan x="4.24" y="0">ill</tspan><tspan x="10.44" y="0" style="letter-spacing:-0.0010088455544435297em">ar </tspan><tspan x="19.35" y="0">1</tspan></text><text transform="translate(41.58 82.12)" style="font-size:6.776000022888184px;fill:#1e2dbe;font-family:NotoSans-Bold, Noto Sans;font-weight:700"><tspan style="letter-spacing:-0.0020176911088870594em">P</tspan><tspan x="4.24" y="0">ill</tspan><tspan x="10.44" y="0" style="letter-spacing:-0.0010088455544435297em">ar </tspan><tspan x="19.35" y="0">2</tspan></text><text transform="translate(15.08 5.81)" style="font-size:6.776000022888184px;fill:#1e2dbe;font-family:NotoSans-Bold, Noto Sans;font-weight:700"><tspan style="letter-spacing:-0.0020176911088870594em">P</tspan><tspan x="4.24" y="0">ill</tspan><tspan x="10.44" y="0" style="letter-spacing:-0.0010088455544435297em">ar </tspan><tspan x="19.35" y="0">3</tspan></text><rect x="26.63" y="84.65" width="53" height="53" rx="5" style="fill:none;stroke:#fa3c4b;stroke-miterlimit:8;stroke-width:0.25px"/><rect x="0.13" y="8.26" width="53" height="53" rx="5" style="fill:none;stroke:#1e2dbe;stroke-miterlimit:8;stroke-width:0.25px"/><rect x="67.73" y="8.63" width="53" height="53" rx="5" style="fill:none;stroke:#05d2d2;stroke-miterlimit:8;stroke-width:0.25px"/><line x1="36.03" y1="82.52" x2="36.03" y2="61.26" style="fill:none;stroke:#1e2dbe;stroke-miterlimit:8;stroke-width:0.42399999499320984px"/><polygon points="37.51 82.09 36.03 84.65 34.55 82.09 37.51 82.09" style="fill:#1e2dbe"/><line x1="53.12" y1="34.76" x2="65.6" y2="34.76" style="fill:none;stroke:#1e2dbe;stroke-miterlimit:8;stroke-width:0.42399999499320984px"/><polygon points="65.17 36.24 67.73 34.76 65.17 33.28 65.17 36.24" style="fill:#1e2dbe"/></svg>