<svg xmlns="http://www.w3.org/2000/svg" viewBox="0 0 655.47 564.53"><g id="Layer_2" data-name="Layer 2"><g id="Layer_1-2" data-name="Layer 1"><path d="M0,0H655.47V564.53H0Z" style="fill:#003893"/><path d="M0,264.53H655.47v150H0Z" style="fill:#fff"/><path d="M0,314.53H655.47v50H0Z" style="fill:#cf2027"/><g id="d"><g id="c"><g id="b"><path id="a" d="M238.39,159.53l-9.27,28.53,14.27,4.64" style="fill:#f7d116"/><path id="a-2" data-name="a" d="M238.39,159.53l9.27,28.53L233.4,192.7" style="fill:#f7d116"/></g><g id="b-2" data-name="b"><path id="a-3" data-name="a" d="M266.92,180.26h-30v15" style="fill:#f7d116"/><path id="a-4" data-name="a" d="M266.92,180.26l-24.27,17.63-8.81-12.13" style="fill:#f7d116"/></g><g id="b-3" data-name="b"><path id="a-5" data-name="a" d="M256,213.8l-9.27-28.53-14.27,4.64" style="fill:#f7d116"/><path id="a-6" data-name="a" d="M256,213.8l-24.27-17.63L240.57,184" style="fill:#f7d116"/></g><g id="b-4" data-name="b"><path id="a-7" data-name="a" d="M220.76,213.8,245,196.17,236.21,184" style="fill:#f7d116"/><path id="a-8" data-name="a" d="M220.76,213.8,230,185.27l14.27,4.64" style="fill:#f7d116"/></g><g id="b-5" data-name="b"><path id="a-9" data-name="a" d="M209.86,180.26l24.27,17.63L243,185.76" style="fill:#f7d116"/><path id="a-10" data-name="a" d="M209.86,180.26h30v15" style="fill:#f7d116"/></g></g><g id="c-2" data-name="c"><g id="b-6" data-name="b"><path id="a-11" data-name="a" d="M238.39,459.53l-9.27,28.53,14.27,4.64" style="fill:#f7d116"/><path id="a-12" data-name="a" d="M238.39,459.53l9.27,28.53L233.4,492.7" style="fill:#f7d116"/></g><g id="b-7" data-name="b"><path id="a-13" data-name="a" d="M266.92,480.26h-30v15" style="fill:#f7d116"/><path id="a-14" data-name="a" d="M266.92,480.26l-24.27,17.63-8.81-12.13" style="fill:#f7d116"/></g><g id="b-8" data-name="b"><path id="a-15" data-name="a" d="M256,513.8l-9.27-28.53-14.27,4.64" style="fill:#f7d116"/><path id="a-16" data-name="a" d="M256,513.8l-24.27-17.63L240.57,484" style="fill:#f7d116"/></g><g id="b-9" data-name="b"><path id="a-17" data-name="a" d="M220.76,513.8,245,496.17,236.21,484" style="fill:#f7d116"/><path id="a-18" data-name="a" d="M220.76,513.8,230,485.27l14.27,4.64" style="fill:#f7d116"/></g><g id="b-10" data-name="b"><path id="a-19" data-name="a" d="M209.86,480.26l24.27,17.63L243,485.76" style="fill:#f7d116"/><path id="a-20" data-name="a" d="M209.86,480.26h30v15" style="fill:#f7d116"/></g></g></g><g id="d-2" data-name="d"><g id="c-3" data-name="c"><g id="b-11" data-name="b"><path id="a-21" data-name="a" d="M409.58,283.91h-30v15" style="fill:#f7d116"/><path id="a-22" data-name="a" d="M409.58,283.91l-24.27,17.63-8.81-12.13" style="fill:#f7d116"/></g><g id="b-12" data-name="b"><path id="a-23" data-name="a" d="M398.69,317.45l-9.28-28.53-14.26,4.63" style="fill:#f7d116"/><path id="a-24" data-name="a" d="M398.69,317.45l-24.28-17.63,8.82-12.14" style="fill:#f7d116"/></g><g id="b-13" data-name="b"><path id="a-25" data-name="a" d="M363.42,317.45l24.27-17.63-8.82-12.14" style="fill:#f7d116"/><path id="a-26" data-name="a" d="M363.42,317.45l9.27-28.53L387,293.55" style="fill:#f7d116"/></g><g id="b-14" data-name="b"><path id="a-27" data-name="a" d="M352.52,283.91l24.27,17.63,8.82-12.13" style="fill:#f7d116"/><path id="a-28" data-name="a" d="M352.52,283.91h30v15" style="fill:#f7d116"/></g><g id="b-15" data-name="b"><path id="a-29" data-name="a" d="M381.05,263.18l-9.27,28.53,14.27,4.64" style="fill:#f7d116"/><path id="a-30" data-name="a" d="M381.05,263.18l9.27,28.53-14.26,4.64" style="fill:#f7d116"/></g></g><g id="c-4" data-name="c"><g id="b-16" data-name="b"><path id="a-31" data-name="a" d="M124.27,376.61h-30v15" style="fill:#f7d116"/><path id="a-32" data-name="a" d="M124.27,376.61,100,394.25l-8.82-12.14" style="fill:#f7d116"/></g><g id="b-17" data-name="b"><path id="a-33" data-name="a" d="M113.37,410.15l-9.27-28.53-14.27,4.64" style="fill:#f7d116"/><path id="a-34" data-name="a" d="M113.37,410.15,89.1,392.52l8.81-12.13" style="fill:#f7d116"/></g><g id="b-18" data-name="b"><path id="a-35" data-name="a" d="M78.1,410.15l24.27-17.63-8.82-12.13" style="fill:#f7d116"/><path id="a-36" data-name="a" d="M78.1,410.15l9.27-28.53,14.27,4.64" style="fill:#f7d116"/></g><g id="b-19" data-name="b"><path id="a-37" data-name="a" d="M67.2,376.61l24.27,17.64,8.82-12.14" style="fill:#f7d116"/><path id="a-38" data-name="a" d="M67.2,376.61h30v15" style="fill:#f7d116"/></g><g id="b-20" data-name="b"><path id="a-39" data-name="a" d="M95.73,355.88l-9.27,28.54,14.27,4.63" style="fill:#f7d116"/><path id="a-40" data-name="a" d="M95.73,355.88,105,384.42l-14.27,4.63" style="fill:#f7d116"/></g></g></g><g id="d-3" data-name="d"><g id="c-5" data-name="c"><g id="b-21" data-name="b"><path id="a-41" data-name="a" d="M344.19,485.15l-9.27-28.53-14.26,4.64" style="fill:#f7d116"/><path id="a-42" data-name="a" d="M344.19,485.15l-24.27-17.63,8.82-12.13" style="fill:#f7d116"/></g><g id="b-22" data-name="b"><path id="a-43" data-name="a" d="M308.93,485.15l24.27-17.63-8.82-12.13" style="fill:#f7d116"/><path id="a-44" data-name="a" d="M308.93,485.15l9.27-28.53,14.26,4.64" style="fill:#f7d116"/></g><g id="b-23" data-name="b"><path id="a-45" data-name="a" d="M298,451.61l24.27,17.64,8.82-12.14" style="fill:#f7d116"/><path id="a-46" data-name="a" d="M298,451.61h30v15" style="fill:#f7d116"/></g><g id="b-24" data-name="b"><path id="a-47" data-name="a" d="M326.56,430.88l-9.27,28.54,14.27,4.63" style="fill:#f7d116"/><path id="a-48" data-name="a" d="M326.56,430.88l9.27,28.54-14.26,4.63" style="fill:#f7d116"/></g><g id="b-25" data-name="b"><path id="a-49" data-name="a" d="M355.09,451.61h-30v15" style="fill:#f7d116"/><path id="a-50" data-name="a" d="M355.09,451.61l-24.27,17.64L322,457.11" style="fill:#f7d116"/></g></g><g id="c-6" data-name="c"><g id="b-26" data-name="b"><path id="a-51" data-name="a" d="M167.86,242.45l-9.27-28.53-14.27,4.63" style="fill:#f7d116"/><path id="a-52" data-name="a" d="M167.86,242.45l-24.27-17.63,8.82-12.14" style="fill:#f7d116"/></g><g id="b-27" data-name="b"><path id="a-53" data-name="a" d="M132.59,242.45l24.27-17.63-8.81-12.14" style="fill:#f7d116"/><path id="a-54" data-name="a" d="M132.59,242.45l9.27-28.53,14.27,4.63" style="fill:#f7d116"/></g><g id="b-28" data-name="b"><path id="a-55" data-name="a" d="M121.69,208.91,146,226.54l8.82-12.13" style="fill:#f7d116"/><path id="a-56" data-name="a" d="M121.69,208.91h30v15" style="fill:#f7d116"/></g><g id="b-29" data-name="b"><path id="a-57" data-name="a" d="M150.23,188.18,141,216.71l14.27,4.64" style="fill:#f7d116"/><path id="a-58" data-name="a" d="M150.23,188.18l9.27,28.53-14.27,4.64" style="fill:#f7d116"/></g><g id="b-30" data-name="b"><path id="a-59" data-name="a" d="M178.76,208.91h-30v15" style="fill:#f7d116"/><path id="a-60" data-name="a" d="M178.76,208.91l-24.27,17.63-8.82-12.13" style="fill:#f7d116"/></g></g></g><g id="d-4" data-name="d"><g id="c-7" data-name="c"><g id="b-31" data-name="b"><path id="a-61" data-name="a" d="M132.59,485.15l24.27-17.63-8.81-12.13" style="fill:#f7d116"/><path id="a-62" data-name="a" d="M132.59,485.15l9.27-28.53,14.27,4.64" style="fill:#f7d116"/></g><g id="b-32" data-name="b"><path id="a-63" data-name="a" d="M121.69,451.61,146,469.25l8.82-12.14" style="fill:#f7d116"/><path id="a-64" data-name="a" d="M121.69,451.61h30v15" style="fill:#f7d116"/></g><g id="b-33" data-name="b"><path id="a-65" data-name="a" d="M150.23,430.88,141,459.42l14.27,4.63" style="fill:#f7d116"/><path id="a-66" data-name="a" d="M150.23,430.88l9.27,28.54-14.27,4.63" style="fill:#f7d116"/></g><g id="b-34" data-name="b"><path id="a-67" data-name="a" d="M178.76,451.61h-30v15" style="fill:#f7d116"/><path id="a-68" data-name="a" d="M178.76,451.61l-24.27,17.64-8.82-12.14" style="fill:#f7d116"/></g><g id="b-35" data-name="b"><path id="a-69" data-name="a" d="M167.86,485.15l-9.27-28.53-14.27,4.64" style="fill:#f7d116"/><path id="a-70" data-name="a" d="M167.86,485.15l-24.27-17.63,8.82-12.13" style="fill:#f7d116"/></g></g><g id="c-8" data-name="c"><g id="b-36" data-name="b"><path id="a-71" data-name="a" d="M308.93,242.45l24.27-17.63-8.82-12.14" style="fill:#f7d116"/><path id="a-72" data-name="a" d="M308.93,242.45l9.27-28.53,14.26,4.63" style="fill:#f7d116"/></g><g id="b-37" data-name="b"><path id="a-73" data-name="a" d="M298,208.91l24.27,17.63,8.82-12.13" style="fill:#f7d116"/><path id="a-74" data-name="a" d="M298,208.91h30v15" style="fill:#f7d116"/></g><g id="b-38" data-name="b"><path id="a-75" data-name="a" d="M326.56,188.18l-9.27,28.53,14.27,4.64" style="fill:#f7d116"/><path id="a-76" data-name="a" d="M326.56,188.18l9.27,28.53-14.26,4.64" style="fill:#f7d116"/></g><g id="b-39" data-name="b"><path id="a-77" data-name="a" d="M355.09,208.91h-30v15" style="fill:#f7d116"/><path id="a-78" data-name="a" d="M355.09,208.91l-24.27,17.63L322,214.41" style="fill:#f7d116"/></g><g id="b-40" data-name="b"><path id="a-79" data-name="a" d="M344.19,242.45l-9.27-28.53-14.26,4.63" style="fill:#f7d116"/><path id="a-80" data-name="a" d="M344.19,242.45l-24.27-17.63,8.82-12.14" style="fill:#f7d116"/></g></g></g><g id="d-5" data-name="d"><g id="c-9" data-name="c"><g id="b-41" data-name="b"><path id="a-81" data-name="a" d="M67.2,283.91l24.27,17.63,8.82-12.13" style="fill:#f7d116"/><path id="a-82" data-name="a" d="M67.2,283.91h30v15" style="fill:#f7d116"/></g><g id="b-42" data-name="b"><path id="a-83" data-name="a" d="M95.73,263.18l-9.27,28.53,14.27,4.64" style="fill:#f7d116"/><path id="a-84" data-name="a" d="M95.73,263.18,105,291.71l-14.27,4.64" style="fill:#f7d116"/></g><g id="b-43" data-name="b"><path id="a-85" data-name="a" d="M124.27,283.91h-30v15" style="fill:#f7d116"/><path id="a-86" data-name="a" d="M124.27,283.91,100,301.54l-8.82-12.13" style="fill:#f7d116"/></g><g id="b-44" data-name="b"><path id="a-87" data-name="a" d="M113.37,317.45l-9.27-28.53-14.27,4.63" style="fill:#f7d116"/><path id="a-88" data-name="a" d="M113.37,317.45,89.1,299.82l8.81-12.14" style="fill:#f7d116"/></g><g id="b-45" data-name="b"><path id="a-89" data-name="a" d="M78.1,317.45l24.27-17.63-8.82-12.14" style="fill:#f7d116"/><path id="a-90" data-name="a" d="M78.1,317.45l9.27-28.53,14.27,4.63" style="fill:#f7d116"/></g></g><g id="c-10" data-name="c"><g id="b-46" data-name="b"><path id="a-91" data-name="a" d="M352.52,376.61l24.27,17.64,8.82-12.14" style="fill:#f7d116"/><path id="a-92" data-name="a" d="M352.52,376.61h30v15" style="fill:#f7d116"/></g><g id="b-47" data-name="b"><path id="a-93" data-name="a" d="M381.05,355.88l-9.27,28.54,14.27,4.63" style="fill:#f7d116"/><path id="a-94" data-name="a" d="M381.05,355.88l9.27,28.54-14.26,4.63" style="fill:#f7d116"/></g><g id="b-48" data-name="b"><path id="a-95" data-name="a" d="M409.58,376.61h-30v15" style="fill:#f7d116"/><path id="a-96" data-name="a" d="M409.58,376.61l-24.27,17.64-8.81-12.14" style="fill:#f7d116"/></g><g id="b-49" data-name="b"><path id="a-97" data-name="a" d="M398.69,410.15l-9.28-28.53-14.26,4.64" style="fill:#f7d116"/><path id="a-98" data-name="a" d="M398.69,410.15l-24.28-17.63,8.82-12.13" style="fill:#f7d116"/></g><g id="b-50" data-name="b"><path id="a-99" data-name="a" d="M363.42,410.15l24.27-17.63-8.82-12.13" style="fill:#f7d116"/><path id="a-100" data-name="a" d="M363.42,410.15l9.27-28.53L387,386.26" style="fill:#f7d116"/></g></g></g></g></g></svg>