<?xml version="1.0" encoding="utf-8"?>
<!-- Generator: Adobe Illustrator 25.4.0, SVG Export Plug-In . SVG Version: 6.00 Build 0)  -->
<svg version="1.1" id="Layer_1" xmlns="http://www.w3.org/2000/svg" xmlns:xlink="http://www.w3.org/1999/xlink" x="0px" y="0px"
	 viewBox="0 0 655.5 564.5" style="enable-background:new 0 0 655.5 564.5;" xml:space="preserve">
<style type="text/css">
	.st0{fill:#003893;}
	.st1{fill:#FFFFFF;}
	.st2{fill:#CF2027;}
	.st3{fill:#F7D116;}
</style>
<path class="st0" d="M0,0h655.5v564.5H0V0z"/>
<path class="st1" d="M0,264.5h655.5v150H0V264.5z"/>
<path class="st2" d="M0,314.5h655.5v50H0V314.5z"/>
<g transform="matrix(2 0 0 2 382.5 375)">
	<g id="d">
		<g id="c" transform="translate(0 -75)">
			<g id="b">
				<path id="a" class="st3" d="M-72.1-32.7l-4.6,14.3l7.1,2.3"/>
				<g transform="scale(-1 1)">
					<path id="a_00000096742967603208996320000005655172908266166448_" class="st3" d="M-72.1-32.7l4.6,14.3l-7.1,2.3"/>
				</g>
			</g>
			<g transform="rotate(72)">
				<g id="b_00000129910565977525271810000017969298878156667537_">
					<path id="a_00000157309853151554738320000006312998852971644562_" class="st3" d="M-57.8-22.4h-15v7.5"/>
					<g transform="scale(-1 1)">
						<path id="a_00000173130169973316980280000001258693175689645243_" class="st3" d="M-57.8-22.4l-12.1,8.8l-4.4-6.1"/>
					</g>
				</g>
			</g>
			<g transform="rotate(144)">
				<g id="b_00000169525649714519445060000002651029641921830307_">
					<path id="a_00000059993456198775439200000016221153411056208045_" class="st3" d="M-63.2-5.6l-4.6-14.3l-7.1,2.3"/>
					<g transform="scale(-1 1)">
						<path id="a_00000090276688564591534150000001581700331549396889_" class="st3" d="M-63.2-5.6l-12.1-8.8l4.4-6.1"/>
					</g>
				</g>
			</g>
			<g transform="rotate(-144)">
				<g id="b_00000117670401448330961210000012525278977889192576_">
					<path id="a_00000074443953395093685190000009364831329417359245_" class="st3" d="M-80.9-5.6l12.1-8.8l-4.4-6.1"/>
					<g transform="scale(-1 1)">
						<path id="a_00000040545805179886663610000002453826777188430978_" class="st3" d="M-80.9-5.6l4.6-14.3l7.1,2.3"/>
					</g>
				</g>
			</g>
			<g transform="rotate(-72)">
				<g id="b_00000034775155336925099930000008039247235738457235_">
					<path id="a_00000103977643150614428600000017977928837271731375_" class="st3" d="M-86.3-22.4l12.1,8.8l4.4-6.1"/>
					<g transform="scale(-1 1)">
						<path id="a_00000156579331026820715830000002215930432083649411_" class="st3" d="M-86.3-22.4h15v7.5"/>
					</g>
				</g>
			</g>
		</g>
		<g>
			<g id="c_00000005252176201203433010000000165045097606030984_" transform="translate(0 -75)">
				<g id="b_00000151512865575804401990000001258361243845620101_">
					<path id="a_00000119109332471821037950000008198979535468877190_" class="st3" d="M-72.1,117.3l-4.6,14.3l7.1,2.3"/>
					<g transform="scale(-1 1)">
						<path id="a_00000147918927093111157880000017246060898328085410_" class="st3" d="M-72.1,117.3l4.6,14.3l-7.1,2.3"/>
					</g>
				</g>
				<g transform="rotate(72)">
					<g id="b_00000080916611809532495390000003411754772614022024_">
						<path id="a_00000000937586068434177180000003784998123834635661_" class="st3" d="M-57.8,127.6h-15v7.5"/>
						<g transform="scale(-1 1)">
							<path id="a_00000181087377462315331400000005944947259388435840_" class="st3" d="M-57.8,127.6l-12.1,8.8l-4.4-6.1"/>
						</g>
					</g>
				</g>
				<g transform="rotate(144)">
					<g id="b_00000106108026013035772420000013362603014091148422_">
						<path id="a_00000127036873981229656520000016692082760194179246_" class="st3" d="M-63.2,144.4l-4.6-14.3l-7.1,2.3"/>
						<g transform="scale(-1 1)">
							<path id="a_00000127762113816264672830000003129348223722437290_" class="st3" d="M-63.2,144.4l-12.1-8.8l4.4-6.1"/>
						</g>
					</g>
				</g>
				<g transform="rotate(-144)">
					<g id="b_00000000199793240089903650000004383566665337293988_">
						<path id="a_00000160180836671623366440000016491379985613269418_" class="st3" d="M-80.9,144.4l12.1-8.8l-4.4-6.1"/>
						<g transform="scale(-1 1)">
							<path id="a_00000066473785643969694030000000516336308931727751_" class="st3" d="M-80.9,144.4l4.6-14.3l7.1,2.3"/>
						</g>
					</g>
				</g>
				<g transform="rotate(-72)">
					<g id="b_00000080183870501709541280000014168572304781176250_">
						<path id="a_00000106109249463078736840000003220711875150736298_" class="st3" d="M-86.3,127.6l12.1,8.8l4.4-6.1"/>
						<g transform="scale(-1 1)">
							<path id="a_00000022544699526407227180000008575536035434127250_" class="st3" d="M-86.3,127.6h15v7.5"/>
						</g>
					</g>
				</g>
			</g>
		</g>
	</g>
	<g transform="rotate(72)">
		<g id="d_00000101066799441730739030000004303461058650327950_">
			<g id="c_00000152224418506930094320000018313355142200444555_" transform="translate(0 -75)">
				<g id="b_00000141426119714641116360000011392743416312479913_">
					<path id="a_00000177462984882160646690000010921080042062686348_" class="st3" d="M13.5,29.5h-15V37"/>
					<g transform="scale(-1 1)">
						<path id="a_00000016766632553052954310000003089109909477053576_" class="st3" d="M13.5,29.5L1.4,38.3L-3,32.2"/>
					</g>
				</g>
				<g transform="rotate(72)">
					<g id="b_00000016782256252164288860000000516167896877256107_">
						<path id="a_00000176036205890592429690000000673269811310185654_" class="st3" d="M8.1,46.2L3.5,32l-7.1,2.3"/>
						<g transform="scale(-1 1)">
							<path id="a_00000026877495160710427040000018061570681096042912_" class="st3" d="M8.1,46.2L-4,37.4l4.4-6.1"/>
						</g>
					</g>
				</g>
				<g transform="rotate(144)">
					<g id="b_00000008856792492294342410000005272426819895551882_">
						<path id="a_00000129194272790806319610000003946392849591069324_" class="st3" d="M-9.5,46.2l12.1-8.8l-4.4-6.1"/>
						<g transform="scale(-1 1)">
							<path id="a_00000076599656979577313870000013263198390349677441_" class="st3" d="M-9.5,46.2L-4.9,32l7.1,2.3"/>
						</g>
					</g>
				</g>
				<g transform="rotate(-144)">
					<g id="b_00000011011919530922699870000004571024172839532963_">
						<path id="a_00000059298731450990404300000014739343524411375016_" class="st3" d="M-15,29.5l12.1,8.8l4.4-6.1"/>
						<g transform="scale(-1 1)">
							<path id="a_00000076605027708361732660000015843072104017261457_" class="st3" d="M-15,29.5H0L0,37"/>
						</g>
					</g>
				</g>
				<g transform="rotate(-72)">
					<g id="b_00000055703720652307702290000006867468323181327248_">
						<path id="a_00000170270890965585192280000010067371507297315513_" class="st3" d="M-0.7,19.1l-4.6,14.3l7.1,2.3"/>
						<g transform="scale(-1 1)">
							<path id="a_00000113351472620137042650000007403131424354597020_" class="st3" d="M-0.7,19.1l4.6,14.3l-7.1,2.3"/>
						</g>
					</g>
				</g>
			</g>
			<g>
				<g id="c_00000049934948628827452260000011367985412213290923_" transform="translate(0 -75)">
					<g id="b_00000114771861484371379150000002100533097638367106_">
						<path id="a_00000036225129545642646300000009108593977810266510_" class="st3" d="M-129.1,75.8h-15v7.5"/>
						<g transform="scale(-1 1)">
							<path id="a_00000169521484987699079710000000504845468603469503_" class="st3" d="M-129.1,75.8l-12.1,8.8l-4.4-6.1"/>
						</g>
					</g>
					<g transform="rotate(72)">
						<g id="b_00000013909040725339498040000006959224382916408706_">
							<path id="a_00000165209220444337643320000014278684766453580704_" class="st3" d="M-134.6,92.6l-4.6-14.3l-7.1,2.3"/>
							<g transform="scale(-1 1)">
								<path id="a_00000005988654284167425010000010933792490593829794_" class="st3" d="M-134.6,92.6l-12.1-8.8l4.4-6.1"/>
							</g>
						</g>
					</g>
					<g transform="rotate(144)">
						<g id="b_00000033344427978542036110000013753809057431860404_">
							<path id="a_00000090276035952492586980000015180720086481241736_" class="st3" d="M-152.2,92.6l12.1-8.8l-4.4-6.1"/>
							<g transform="scale(-1 1)">
								<path id="a_00000088102182633348649720000015626830915540468909_" class="st3" d="M-152.2,92.6l4.6-14.3l7.1,2.3"/>
							</g>
						</g>
					</g>
					<g transform="rotate(-144)">
						<g id="b_00000164485555111241619160000011196316556975549581_">
							<path id="a_00000040567215525012848400000014014956150087062945_" class="st3" d="M-157.6,75.8l12.1,8.8l4.4-6.1"/>
							<g transform="scale(-1 1)">
								<path id="a_00000124841656632824877240000014451781884843938471_" class="st3" d="M-157.6,75.8h15v7.5"/>
							</g>
						</g>
					</g>
					<g transform="rotate(-72)">
						<g id="b_00000120559247905583942280000008045061495180342177_">
							<path id="a_00000145023389984250364620000009237812653492372367_" class="st3" d="M-143.4,65.4l-4.6,14.3l7.1,2.3"/>
							<g transform="scale(-1 1)">
								<path id="a_00000103968292669194768550000005572624520964158861_" class="st3" d="M-143.4,65.4l4.6,14.3l-7.1,2.3"/>
							</g>
						</g>
					</g>
				</g>
			</g>
		</g>
	</g>
	<g transform="rotate(144)">
		<g id="d_00000077325942181311422320000009678349326889058721_">
			<g id="c_00000080181772585354082140000006141196513606658750_" transform="translate(0 -75)">
				<g id="b_00000055683841800887612190000014456850770812138124_">
					<path id="a_00000150100769637779782840000015265710956398683299_" class="st3" d="M-19.2,130.1l-4.6-14.3l-7.1,2.3"/>
					<g transform="scale(-1 1)">
						<path id="a_00000157295492911627610300000002622164478365602493_" class="st3" d="M-19.2,130.1l-12.1-8.8l4.4-6.1"/>
					</g>
				</g>
				<g transform="rotate(72)">
					<g id="b_00000036239717942908017410000008542962717888332420_">
						<path id="a_00000046313430117665284680000001356136618507800980_" class="st3" d="M-36.8,130.1l12.1-8.8l-4.4-6.1"/>
						<g transform="scale(-1 1)">
							<path id="a_00000077304525262147300320000004141175727775783828_" class="st3" d="M-36.8,130.1l4.6-14.3l7.1,2.3"/>
						</g>
					</g>
				</g>
				<g transform="rotate(144)">
					<g id="b_00000164482175649957068010000011076250324618458538_">
						<path id="a_00000111161773339257220810000017394787386189018784_" class="st3" d="M-42.2,113.3l12.1,8.8l4.4-6.1"/>
						<g transform="scale(-1 1)">
							<path id="a_00000049916663933841194310000009614791462106173075_" class="st3" d="M-42.2,113.3h15v7.5"/>
						</g>
					</g>
				</g>
				<g transform="rotate(-144)">
					<g id="b_00000029751978823096534030000015391183716759882416_">
						<path id="a_00000148633259120202184470000002436019607934024856_" class="st3" d="M-28,102.9l-4.6,14.3l7.1,2.3"/>
						<g transform="scale(-1 1)">
							<path id="a_00000075121621788638309040000017232697131210035385_" class="st3" d="M-28,102.9l4.6,14.3l-7.1,2.3"/>
						</g>
					</g>
				</g>
				<g transform="rotate(-72)">
					<g id="b_00000016766864666194278180000000670640996238707366_">
						<path id="a_00000072978786863796309220000011618344731609640884_" class="st3" d="M-13.7,113.3h-15v7.5"/>
						<g transform="scale(-1 1)">
							<path id="a_00000134234769156789917750000016415627598822188730_" class="st3" d="M-13.7,113.3l-12.1,8.8l-4.4-6.1"/>
						</g>
					</g>
				</g>
			</g>
			<g>
				<g id="c_00000106869280775809590200000007239063966233095065_" transform="translate(0 -75)">
					<g id="b_00000095306222874487240600000005007351476041353371_">
						<path id="a_00000120535468369287003330000003628067742544716213_" class="st3" d="M-107.3,8.7L-112-5.5l-7.1,2.3"/>
						<g transform="scale(-1 1)">
							<path id="a_00000016048344509462505160000002361674671129966757_" class="st3" d="M-107.3,8.7l-12.1-8.8l4.4-6.1"/>
						</g>
					</g>
					<g transform="rotate(72)">
						<g id="b_00000156576794449212835080000005265154177934204050_">
							<path id="a_00000173152862970657793690000015752636396134328991_" class="st3" d="M-125,8.7l12.1-8.8l-4.4-6.1"/>
							<g transform="scale(-1 1)">
								<path id="a_00000066514990611411382000000008762126254859260065_" class="st3" d="M-125,8.7l4.6-14.3l7.1,2.3"/>
							</g>
						</g>
					</g>
					<g transform="rotate(144)">
						<g id="b_00000177482371848700210890000009195217418645307806_">
							<path id="a_00000066474075006718834460000003039720808296585893_" class="st3" d="M-130.4-8l12.1,8.8l4.4-6.1"/>
							<g transform="scale(-1 1)">
								<path id="a_00000005967525370088228500000000599851965560669064_" class="st3" d="M-130.4-8l15,0v7.5"/>
							</g>
						</g>
					</g>
					<g transform="rotate(-144)">
						<g id="b_00000095299049423251210650000001442335992345653177_">
							<path id="a_00000147194720002758040300000014109639764720327334_" class="st3" d="M-116.1-18.4l-4.6,14.3l7.1,2.3"/>
							<g transform="scale(-1 1)">
								<path id="a_00000033342342464296691660000007916812817070145676_" class="st3" d="M-116.1-18.4l4.6,14.3l-7.1,2.3"/>
							</g>
						</g>
					</g>
					<g transform="rotate(-72)">
						<g id="b_00000062186774468651374930000007476539773352137640_">
							<path id="a_00000135683656937444260900000007859547852785393549_" class="st3" d="M-101.9-8h-15v7.5"/>
							<g transform="scale(-1 1)">
								<path id="a_00000048480987298277550210000016808899029669608117_" class="st3" d="M-101.9-8L-114,0.8l-4.4-6.1"/>
							</g>
						</g>
					</g>
				</g>
			</g>
		</g>
	</g>
	<g transform="rotate(-144)">
		<g id="d_00000155861612892282471340000009951219094078248382_">
			<g id="c_00000147191905772389408220000005820570034875713949_" transform="translate(0 -75)">
				<g id="b_00000178921145420397833850000012855269659603757968_">
					<path id="a_00000052801447372401322730000007267334158616056722_" class="st3" d="M-125,130.1l12.1-8.8l-4.4-6.1"/>
					<g transform="scale(-1 1)">
						<path id="a_00000040561412498102648830000008202962051409396365_" class="st3" d="M-125,130.1l4.6-14.3l7.1,2.3"/>
					</g>
				</g>
				<g transform="rotate(72)">
					<g id="b_00000016784310405347830080000016038688569612264879_">
						<path id="a_00000121985755230476542880000010365885461129372843_" class="st3" d="M-130.4,113.3l12.1,8.8l4.4-6.1"/>
						<g transform="scale(-1 1)">
							<path id="a_00000150100805635983836830000009331646478962600127_" class="st3" d="M-130.4,113.3h15v7.5"/>
						</g>
					</g>
				</g>
				<g transform="rotate(144)">
					<g id="b_00000155845375969187805360000002040492803635483536_">
						<path id="a_00000137119256826660866990000011532796259670415542_" class="st3" d="M-116.1,102.9l-4.6,14.3l7.1,2.3"/>
						<g transform="scale(-1 1)">
							<path id="a_00000040560195477117700750000015029557782230621599_" class="st3" d="M-116.1,102.9l4.6,14.3l-7.1,2.3"/>
						</g>
					</g>
				</g>
				<g transform="rotate(-144)">
					<g id="b_00000052071089704491935940000001126033479907769758_">
						<path id="a_00000094602637365467122810000005543061006608226460_" class="st3" d="M-101.9,113.3h-15v7.5"/>
						<g transform="scale(-1 1)">
							<path id="a_00000168105566013632754300000016048509041212120214_" class="st3" d="M-101.9,113.3l-12.1,8.8l-4.4-6.1"/>
						</g>
					</g>
				</g>
				<g transform="rotate(-72)">
					<g id="b_00000142872410109902367600000003345674655932810674_">
						<path id="a_00000021801390036728037490000013524674549081774482_" class="st3" d="M-107.3,130.1l-4.6-14.3l-7.1,2.3"/>
						<g transform="scale(-1 1)">
							<path id="a_00000038381119289678558090000004222025754793938867_" class="st3" d="M-107.3,130.1l-12.1-8.8l4.4-6.1"/>
						</g>
					</g>
				</g>
			</g>
			<g>
				<g id="c_00000015332519622847792550000013336988959039952265_" transform="translate(0 -75)">
					<g id="b_00000033344035593260344390000012005851306970360216_">
						<path id="a_00000012445843301638211640000012782240455127642792_" class="st3" d="M-36.8,8.7l12.1-8.8l-4.4-6.1"/>
						<g transform="scale(-1 1)">
							<path id="a_00000060717822783334336650000008090502577471652273_" class="st3" d="M-36.8,8.7l4.6-14.3l7.1,2.3"/>
						</g>
					</g>
					<g transform="rotate(72)">
						<g id="b_00000110466291535359042510000015321218332748144785_">
							<path id="a_00000060750214219079535180000014033945731731892141_" class="st3" d="M-42.2-8l12.1,8.8l4.4-6.1"/>
							<g transform="scale(-1 1)">
								<path id="a_00000095301144758824863370000015420194807421202051_" class="st3" d="M-42.2-8h15v7.5"/>
							</g>
						</g>
					</g>
					<g transform="rotate(144)">
						<g id="b_00000016061065164024561780000011622360986955437480_">
							<path id="a_00000029739646772897156040000004010231369034017948_" class="st3" d="M-28-18.4l-4.6,14.3l7.1,2.3"/>
							<g transform="scale(-1 1)">
								<path id="a_00000098219125455833626360000006395951039687093634_" class="st3" d="M-28-18.4l4.6,14.3l-7.1,2.3"/>
							</g>
						</g>
					</g>
					<g transform="rotate(-144)">
						<g id="b_00000081611458894911878880000009624213814857858492_">
							<path id="a_00000022532048757598391700000017691502389808580514_" class="st3" d="M-13.7-8l-15,0v7.5"/>
							<g transform="scale(-1 1)">
								<path id="a_00000054259533205972390640000005621671273088748965_" class="st3" d="M-13.7-8l-12.1,8.8l-4.4-6.1"/>
							</g>
						</g>
					</g>
					<g transform="rotate(-72)">
						<g id="b_00000142141742934980525770000013247267237091419009_">
							<path id="a_00000163785583212891636350000011881230592137019569_" class="st3" d="M-19.2,8.7l-4.6-14.3l-7.1,2.3"/>
							<g transform="scale(-1 1)">
								<path id="a_00000073679716796747629780000004928588939535152262_" class="st3" d="M-19.2,8.7l-12.1-8.8l4.4-6.1"/>
							</g>
						</g>
					</g>
				</g>
			</g>
		</g>
	</g>
	<g transform="rotate(-72)">
		<g id="d_00000148619716058819261380000011879579819818647204_">
			<g id="c_00000146482082589162879020000002058089149211413662_" transform="translate(0 -75)">
				<g id="b_00000115516549266575794690000014617498599830679741_">
					<path id="a_00000005953236415161687500000000704830404240637842_" class="st3" d="M-157.6,29.5l12.1,8.8l4.4-6.1"/>
					<g transform="scale(-1 1)">
						<path id="a_00000022529695656502072590000010001468456097919395_" class="st3" d="M-157.6,29.5h15V37"/>
					</g>
				</g>
				<g transform="rotate(72)">
					<g id="b_00000169531101552837509670000013015095372136211613_">
						<path id="a_00000096059690882234564620000014561134135593037981_" class="st3" d="M-143.4,19.1l-4.6,14.3l7.1,2.3"/>
						<g transform="scale(-1 1)">
							<path id="a_00000103255242104237752980000014771201966162861723_" class="st3" d="M-143.4,19.1l4.6,14.3l-7.1,2.3"/>
						</g>
					</g>
				</g>
				<g transform="rotate(144)">
					<g id="b_00000059305581500853995700000009387779121947516054_">
						<path id="a_00000150068130419647805050000003760858623703437717_" class="st3" d="M-129.1,29.5h-15V37"/>
						<g transform="scale(-1 1)">
							<path id="a_00000134241645299463594150000001514734502648480688_" class="st3" d="M-129.1,29.5l-12.1,8.8l-4.4-6.1"/>
						</g>
					</g>
				</g>
				<g transform="rotate(-144)">
					<g id="b_00000177467256288371791320000005326506932359613345_">
						<path id="a_00000007422046307357042520000017335947113583821243_" class="st3" d="M-134.6,46.2l-4.6-14.3l-7.1,2.3"/>
						<g transform="scale(-1 1)">
							<path id="a_00000181061277970470903510000012449894023355447424_" class="st3" d="M-134.6,46.2l-12.1-8.8l4.4-6.1"/>
						</g>
					</g>
				</g>
				<g transform="rotate(-72)">
					<g id="b_00000151531430524237912030000006617483213144130949_">
						<path id="a_00000090999611612517855500000000671624571875413673_" class="st3" d="M-152.2,46.2l12.1-8.8l-4.4-6.1"/>
						<g transform="scale(-1 1)">
							<path id="a_00000013878804016216840380000008846825194893624494_" class="st3" d="M-152.2,46.2l4.6-14.3l7.1,2.3"/>
						</g>
					</g>
				</g>
			</g>
			<g>
				<g id="c_00000054962646502640461800000002116412297383199142_" transform="translate(0 -75)">
					<g id="b_00000098194832272577140920000009159389416791389351_">
						<path id="a_00000173862258660706303120000002375967351110792864_" class="st3" d="M-15,75.8l12.1,8.8l4.4-6.1"/>
						<g transform="scale(-1 1)">
							<path id="a_00000014636241461243151790000017792357648749973650_" class="st3" d="M-15,75.8H0v7.5"/>
						</g>
					</g>
					<g transform="rotate(72)">
						<g id="b_00000000942687894443021510000010098400500611273656_">
							<path id="a_00000120558182132630103580000004368602057881572014_" class="st3" d="M-0.7,65.4l-4.6,14.3L1.8,82"/>
							<g transform="scale(-1 1)">
								<path id="a_00000147941904266254654750000014502797317399496859_" class="st3" d="M-0.7,65.4l4.6,14.3L-3.2,82"/>
							</g>
						</g>
					</g>
					<g transform="rotate(144)">
						<g id="b_00000092438534419031763690000007437326407998611612_">
							<path id="a_00000149371594042505766890000007291337209470841753_" class="st3" d="M13.5,75.8h-15l0,7.5"/>
							<g transform="scale(-1 1)">
								<path id="a_00000063596557283056635630000014125515954894597002_" class="st3" d="M13.5,75.8L1.4,84.6L-3,78.6"/>
							</g>
						</g>
					</g>
					<g transform="rotate(-144)">
						<g id="b_00000034083481242830295680000008637067895159698088_">
							<path id="a_00000031171408709681519320000005732632952978629781_" class="st3" d="M8.1,92.6L3.5,78.3l-7.1,2.3"/>
							<g transform="scale(-1 1)">
								<path id="a_00000097498601720148898980000015681850022166787765_" class="st3" d="M8.1,92.6L-4,83.8l4.4-6.1"/>
							</g>
						</g>
					</g>
					<g transform="rotate(-72)">
						<g id="b_00000098922202386591375910000005717698215312350130_">
							<path id="a_00000066515220127601733260000007678473203216448145_" class="st3" d="M-9.5,92.6l12.1-8.8l-4.4-6.1"/>
							<g transform="scale(-1 1)">
								<path id="a_00000146482621431974454360000007671273440509551241_" class="st3" d="M-9.5,92.6l4.6-14.3l7.1,2.3"/>
							</g>
						</g>
					</g>
				</g>
			</g>
		</g>
	</g>
</g>
</svg>
