<svg xmlns="http://www.w3.org/2000/svg" viewBox="0 0 579.7 500"><g id="Layer_2" data-name="Layer 2"><g id="Layer_1-2" data-name="Layer 1"><path d="M0,0H579.7V500H0Z" style="fill:#006a4e"/><path d="M0,100H579.7V200H0Z" style="fill:#ffce00"/><path d="M0,0H300V350H0Z" style="fill:#d21034"/><path d="M0,300H579.7V400H0Z" style="fill:#ffce00"/><g id="b"><path id="a" d="M150,55l-29.36,90.35L168.2,160.8" style="fill:#fff"/><path id="a-2" data-name="a" d="M150,55l29.36,90.35L131.8,160.8" style="fill:#fff"/></g><g id="c"><g id="b-2" data-name="b"><path id="a-3" data-name="a" d="M240.35,120.64h-95v50" style="fill:#fff"/><path id="a-4" data-name="a" d="M240.35,120.64l-76.86,55.84L134.1,136" style="fill:#fff"/></g><g id="b-3" data-name="b"><path id="a-5" data-name="a" d="M94.16,226.86,171,171l-29.39-40.45" style="fill:#fff"/><path id="a-6" data-name="a" d="M94.16,226.86l29.36-90.35L171.07,152" style="fill:#fff"/></g></g><g id="c-2" data-name="c"><g id="b-4" data-name="b"><path id="a-7" data-name="a" d="M205.84,226.86l-29.36-90.35L128.93,152" style="fill:#fff"/><path id="a-8" data-name="a" d="M205.84,226.86,129,171l29.39-40.45" style="fill:#fff"/></g><g id="b-5" data-name="b"><path id="a-9" data-name="a" d="M59.65,120.64l76.86,55.84L165.9,136" style="fill:#fff"/><path id="a-10" data-name="a" d="M59.65,120.64h95v50" style="fill:#fff"/></g></g></g></g></svg>