<svg xmlns="http://www.w3.org/2000/svg" viewBox="0 0 288.7 133.98"><g id="Layer_2" data-name="Layer 2"><g id="Camada_1" data-name="Camada 1"><path d="M242,96.92c-.67-.74-1.57-1-1.82.13a20.66,20.66,0,0,0-.24,4.46c0,42,0-16,0,25.94,0,2,.39,4-.67,6.53H47.83V96.38L0,123.79V105.32c.94-1.35,2.4-1.85,3.68-2.59C17.37,94.82,31.08,87,44.73,79a14.15,14.15,0,0,1,7.54-2q28,.13,56,0a13.09,13.09,0,0,1,7,1.9c8,4.75,16.12,9.35,24.21,14,1.57.9,3,2.09,5.28,2.38,9-5.16,18.26-10.36,27.4-15.81A17.36,17.36,0,0,1,181.62,77c18.16.12,36.32,0,54.48.06,2,0,3.94-.2,5.82.89,15.54,9,31.12,18,46.78,27V124Z" style="fill:#1e2dbe"/><path d="M237.74,30.7v.6a31.22,31.22,0,1,1-7.1-19.9l7.2-4.1,20.9,12V43.4l10.4,6-20.9,12-10.4-6Z" style="fill:#1e2dbe"/><circle cx="81.12" cy="31.3" r="31.3" style="fill:#1e2dbe"/></g></g></svg>