<svg xmlns="http://www.w3.org/2000/svg" viewBox="0 0 81.1 120"><path d="M7.93,95.75l-.35-.44,1.34-.77.84.14L7.93,95.75" style="fill:#2a46ab"/><path d="M.29,89a2.09,2.09,0,0,0,0,2.12C1.63,94,3,94.75,4.88,97.39c.43.61,2.05,2.58,2.79,3.39,2.11,2.32,6.9,1.29,5.51-2.47-1-2.6-3.31-3.87-4.76-6.23A32.69,32.69,0,0,0,6,88.19a3.22,3.22,0,0,0-3.38-1.26A4.26,4.26,0,0,0,.29,89Z" style="fill:#e49428"/><path d="M.6,89.08c.13,1.81,3.17,5.21,4.59,6.9.48.58,2.71,3.29,3.55,4,2.47,2.08,5.78,1.51,4.38-2.28-1-2.62-2.5-3.95-3.95-6.33a34.55,34.55,0,0,0-2.48-3.92C4.45,84.72.38,87.44.6,89.08Z" style="fill:#230050"/><path d="M9,91.24c-.66-1.88.24-3.08,1.13-4.69l0,0A39,39,0,0,0,6,82.36L6,82.61c-2,5.91-4.75,3-.72,8.35l.18.22a1.72,1.72,0,0,0,2,.51A5.21,5.21,0,0,1,9,91.24Z" style="fill:#ebf5fd"/><path d="M20.72,113.12c.08.53.18,1.14.28,1.79.36,2.19,4,1.79,5.5,1.14,1.9-.83,1.39-2.45.86-4.49,0-.16-4.44,1.19-6.64,1.56Z" style="fill:#e49428"/><path d="M41.27,55c-.06-.4-.21-1.28-.35-2.47a10.31,10.31,0,0,0-.29-1.75,4.78,4.78,0,0,0-.79-1.34l-1.33-1.8a1.42,1.42,0,0,1-.25-.47v-.25c-.27,0-.55,0-.81,0-.9-.07-2,0-3,0A3.75,3.75,0,0,0,34.2,48a4.89,4.89,0,0,0,.24,1.56c.39,1.43.83,2.85,1.32,4.24.16.45.46,1,.93.91s.58-.93.33-1.44c-.92-1.89-.3-1.81,1.11-.15,0,0,.59,1.24,1.36,3.18a1,1,0,0,0,.89.65c.38,0,.63-.64.27-.75a.5.5,0,0,0,.5-.12c.33-.26.19-.56.12-1.07Z" style="fill:#6e4136"/><path d="M38.71,46.83c-.38-1-5.09-13.45-5.09-13.45-.51-2.51-1.14-6.12-1.24-6.59-1.87-8.51-2.77-11.74-5.13-12.8-.61-.28-.65.27-.7.94l.82,21.41c.71,1.76,4.81,9.57,6.35,12.66.86,1.73,5.55-.67,5-2.17" style="fill:#05d2d2"/><path d="M20.75,113.33c.43,2.55,4,2.14,5.46,1.49,1.9-.84,1.54-2.25.84-4.34s-1.56-4.56-2-5.55a3.29,3.29,0,0,0-1-1.55c-1.16-.69-4.29-.3-4.14,1.9.11,1.57.26,3.1.45,4.61.22,1.71.08,1.74.37,3.44Z" style="fill:#230050"/><path d="M23.35,106.21a5.8,5.8,0,0,1,1.45.11v-.08c-.21-1.24-.61-2.45-.82-3.69a23.19,23.19,0,0,1-.28-3.11c-.06-1.23-.09-2.47-.12-3.7a63,63,0,0,1-6.51,1.43c.5,1.15,1.05,2.28,1.58,3.42,2,4.26,1.67,4.71,1.91,6.38a5.55,5.55,0,0,1,2.79-.76Z" style="fill:#ebf5fd"/><path d="M13.76,68.62C6.64,72.57,4.61,82.13,3,85.52,1.5,88.15,8.21,93,9.45,91.16l7.7-12.34-3.39-10.2Z" style="fill:#96242d"/><path d="M24.54,68.51c1.37-3.2,2.56-6.08,3.37-8.19a27.23,27.23,0,0,0,1.18-6.15,52.27,52.27,0,0,0,0-6.13,2.8,2.8,0,0,0-3-2.61c-9.39.8-12.88,1.74-17.32,3.2-1.17,1.22-1.29,3.22-1.2,4.72.34,6.3,2.84,13.5,6.21,26a40.84,40.84,0,0,1,1.34,9.14A52.92,52.92,0,0,0,19,105.32c.37,1.6,6.92.86,6.8-1.38a136.59,136.59,0,0,0-1.48-17.81,30.82,30.82,0,0,1-.35-5.59c.19-6,.62-12,.62-12Z" style="fill:#c8303c"/><path d="M28.46,42.1A70,70,0,0,1,28.14,31c.05-1.11.12-2.29.2-3.48.33-4.76,1.12-9.72.05-12.3-1-2.34-5.25-1.83-5.25-1.83a36.82,36.82,0,0,0-11.57,2.36s-7.06,3-9.07,5a3,3,0,0,0-.5,2L5.47,31.4l1.68,5.24c.29.91.54,1.84.75,2.77A18,18,0,0,1,8.49,46c-.31,2-.42,2.63-.77,4.52-.88,4.79,22.09,5,21.41-2.92-.05,0-.29-2.29-.67-5.45" style="fill:#05d2d2"/><path d="M20.29,24c3.26-3.06,2-7.9,1-8.69-1.78-1.4-11.72.29-10.07,3.62,2.4,4.86,7,7.08,9.09,5.07" style="fill:#6e4136"/><path d="M31.22,69.61l-10.6-11A.94.94,0,0,1,22,57.3l10.6,11c.44.51-1,1.68-1.35,1.3Z" style="fill:#230050"/><path d="M62.65,101.78l-31-32.24c-.23-.24.65-1.09.88-.85l31.05,32.24c.24.24-.6,1.13-.88.85Z" style="fill:#ebf5fd"/><path d="M79.85,119.22a.49.49,0,0,1-.34-.14L62.88,101.81c-.18-.19.49-.84.67-.65l16.63,17.27a.46.46,0,0,1,0,.66.44.44,0,0,1-.32.13Z" style="fill:#c8303c"/><path d="M79.85,120a1.27,1.27,0,0,1-.9-.38l-.68-.71a1.24,1.24,0,0,1,1.79-1.73l.69.71a1.25,1.25,0,0,1-.9,2.11Z" style="fill:#ebf5fd"/><path d="M21.54,56.2l-.91.25a26.28,26.28,0,0,1,.55,11.83,9.76,9.76,0,0,1-.95,3,2,2,0,0,1-1.9,1.25c-.83-.11-1.54-.94-1.85-2.18-.43-1.67,0-2.63,1-5.19.47-1.16,1-2.6,1.73-4.56A5.33,5.33,0,0,0,19.62,58l-.92.15a4.51,4.51,0,0,1-.38,2.09c-.68,1.94-1.26,3.37-1.72,4.52-1.08,2.69-1.53,3.81-1,5.77.42,1.64,1.41,2.72,2.65,2.88h.3a3,3,0,0,0,2.54-1.74,10.75,10.75,0,0,0,1-3.25,27.27,27.27,0,0,0-.56-12.25Z" style="fill:#ebf5fd"/><path d="M26.22,61.59c-.21-.47-2.12-2.8-2.12-2.81.33.08.68-.16.6-.73a5.73,5.73,0,0,0-1.18-2.83c-.48-.48-1.84-1.4-2.37-1.89C20,52.24,19.8,52,18.65,50.85c-.38-.37-3.85,2-3.66,2.64A12,12,0,0,1,17.08,57c.63,1.42,1.21,2.87,2.52,3.69a3.08,3.08,0,0,0,.82.2,3.32,3.32,0,0,0,.66.2H22c.57.31.94.41,1.26.23s.07-.74-.07-1.24c.54.54,1.82,1.76,1.93,1.86a1,1,0,0,0,.71.29.5.5,0,0,0,.44-.22.53.53,0,0,0,0-.47Z" style="fill:#6e4136"/><path d="M14.59,9.68c-.38,2.77-.81,5.35-1.59,6.73a2.06,2.06,0,0,0-.16,1.91,7.46,7.46,0,0,0,.83,1.34c1.87,2.49,3.81,2.75,5,2.58a2.07,2.07,0,0,0,1.7-1.44l.25-.75L14.59,9.68Z" style="fill:#573429"/><polyline points="28.05 10.53 24.8 8.26 24.54 7.73 28.04 10.25 28.05 10.53" style="fill:#2b2825"/><path d="M17.35,1C14.45,2.15,12.3,4.22,13,9.79c.52,4.28,4.13,8.61,7.33,10.93.8.58,3.24,1.19,4-.65A31.15,31.15,0,0,0,26.61,9.93c0-3.21-.09-6-2.54-7.93a6.13,6.13,0,0,0-6.72-1" style="fill:#6e4136"/><path d="M18,11.87c.3-.83.38-1.55,1.24-2,1.61-.82,5.5-.17,7.37-2,.5-1.7-.23-4.34-2.51-6.23a6.47,6.47,0,0,0-7-1.06C14.2,1.69,11.92,4,12.74,9.79c.06.42.71,3.78,1.5,3.78.49-.12.12-1.9.2-2.4a1,1,0,0,1,1.64-.62,1.92,1.92,0,0,1,.52,1c.15.94,1,1.42,1.37.3Z" style="fill:#2b2119"/><polyline points="20.19 14.07 16.62 11.61 16.49 11.18 20.22 13.82 20.19 14.07" style="fill:#2b2825"/><path d="M24.61,11.93a.77.77,0,0,0-1,.34l0,.27c.1-.16.47-.65.93-.39l0-.22" style="fill:#2b2825"/><path d="M26.29,13.24A22.09,22.09,0,0,0,26.61,10l.32-.16.11,0,1,.7v.09a3.16,3.16,0,0,1-1.71,2.6l-.05,0m1.73-3-.67-.48h.06a.6.6,0,0,1,.61.48" style="fill:#2d2e37"/><path d="M28.05,10.52l-1-.7a1.25,1.25,0,0,1,.31-.07l.67.48a.85.85,0,0,1,0,.23v.06" style="fill:#2b2825"/><path d="M25.6,13.4a1,1,0,0,1-1-1.11v-.15l0-.21h0a2.09,2.09,0,0,1,1.07-1.44l.94-.45a22.09,22.09,0,0,1-.32,3.21,1.72,1.72,0,0,1-.69.16" style="fill:#322b27"/><path d="M24.59,12.14h0a1.62,1.62,0,0,1,0-.21h0l0,.21" style="fill:#2b2825"/><path d="M21.21,15.38a1,1,0,0,1-1-1.11v-.16a.22.22,0,0,1,0-.08l0-.21h0a2.13,2.13,0,0,1,1.06-1.36l1.26-.61a1,1,0,0,1,.47-.12.6.6,0,0,1,.63.53h0l0,.27h0v.05A3.18,3.18,0,0,1,22,15.19a1.69,1.69,0,0,1-.74.19" style="fill:#322b27"/><path d="M20.2,14a1.49,1.49,0,0,1,0-.21h0l0,.21" style="fill:#2b2825"/><path d="M23.66,12.54l0-.27h0c0,.06,0,.11,0,.17v.11h0" style="fill:#2b2825"/><path d="M26.33,13.18a1.3,1.3,0,0,1-1.25.05,1.07,1.07,0,0,1-.46-.94v-.16a2,2,0,0,1,1.07-1.62l1.25-.61a1,1,0,0,1,.54-.11l.25.08a.66.66,0,0,1,.28.59v.15a3.15,3.15,0,0,1-1.69,2.57Zm1.75-2.72a.71.71,0,0,0-.31-.65.89.89,0,0,0-.85,0l-1.26.61a2.06,2.06,0,0,0-1.11,1.68v.16a1.12,1.12,0,0,0,.48,1,1.21,1.21,0,0,0,.43.14,1.77,1.77,0,0,0,.89-.19,3.2,3.2,0,0,0,1.72-2.63v-.15Z" style="fill:#2b2825"/><path d="M21.94,15.16a1.36,1.36,0,0,1-1.25.05,1.09,1.09,0,0,1-.46-.94v-.16a2,2,0,0,1,1.06-1.62l1.26-.61a1,1,0,0,1,.54-.12l.25.08a.66.66,0,0,1,.28.59v.16a3.12,3.12,0,0,1-1.68,2.57Zm1.43-3.37a.86.86,0,0,0-.85,0l-1.25.61a2,2,0,0,0-1.11,1.68v.16a1.13,1.13,0,0,0,.49,1,.91.91,0,0,0,.43.14,1.66,1.66,0,0,0,.89-.18,3.22,3.22,0,0,0,1.72-2.63v-.16a.74.74,0,0,0-.32-.64Z" style="fill:#2b2825"/></svg>