<svg xmlns="http://www.w3.org/2000/svg" viewBox="0 0 345.27 272.86"><path d="M157.22,272.86h-63V88h63Z" style="fill:#bedcfa"/><path d="M345.27,88.1V272.77H282.15V88.1Z" style="fill:#82afdc"/><path d="M0,156.21H63V272.72H0Z" style="fill:#fff"/><path d="M251,272.85H188V156.35h63Z" style="fill:#d2fbfb"/><path d="M292.88,31.29c-2.75-7.93-2.06-15.39,3-22.28S310.41-1.53,318.75.61c9.1,2.34,15.06,8.15,17,17.42,2,9.46-1.22,17.36-9,22.89-7.93,5.63-16.45,5.72-24.91.76-1-.57-1.88-1.21-2.82-1.82Q295.95,35.58,292.88,31.29Z" style="fill:#82afdc"/><path d="M52.83,82.06c.22,1.21.38,2.43.66,3.62,3,12.33-4.36,24.69-16.81,27.36-13.21,2.83-24.57-5.12-27-17.29-1.76-8.81.69-16.68,8-22.28,7.16-5.47,15.1-6.64,23.46-2.68,1.89.9,3.71,1.93,5.57,2.91Z" style="fill:#fff"/><path d="M140.41,39.91c-2.61,1.36-5.11,3-7.85,4-6.56,2.39-12.87,1.47-18.79-2.18-1-.65-2.12-1.22-3.19-1.83l-6.06-8.27c-1-4.74-2.09-9.4-.84-14.36C106.61,5.62,118.8-2.1,130.37.65c12.53,3,20,15.07,17,27.33-.3,1.21-.58,2.42-.86,3.62Z" style="fill:#bedcfa"/><path d="M240.49,82.47c2.57,7.78,2.09,15.17-2.79,22a22.63,22.63,0,0,1-24.57,8.25c-9.43-2.89-15.89-11.1-15.85-20.71,0-3.3.95-6.59,1.47-9.88l6.1-8.31c3.24-1.54,6.34-3.54,9.74-4.5,7.25-2.07,13.71.35,19.64,4.56Z" style="fill:#d2fbfb"/><path d="M240.49,82.47l-6.26-8.58,58.65-42.6Q296,35.58,299,39.86Z" style="fill:#ebf5fd"/><path d="M204.85,73.83l-6.1,8.31c-8.08-5.8-16.18-11.57-24.24-17.41q-17.07-12.38-34.1-24.82l6.1-8.31Q160.89,42,175.28,52.29C185.16,59.44,195,66.65,204.85,73.83Z" style="fill:#ebf5fd"/><path d="M104.52,31.66l6.06,8.27Q87.14,57.08,63.7,74.22c-3.61,2.63-7.25,5.23-10.87,7.84L46.72,73.7Z" style="fill:#ebf5fd"/></svg>