<?xml version="1.0" encoding="utf-8"?>
<!-- Generator: Adobe Illustrator 25.4.0, SVG Export Plug-In . SVG Version: 6.00 Build 0)  -->
<svg version="1.1" id="Layer_1" xmlns="http://www.w3.org/2000/svg" xmlns:xlink="http://www.w3.org/1999/xlink" x="0px" y="0px"
	 viewBox="0 0 156.7 252.6" style="enable-background:new 0 0 156.7 252.6;" xml:space="preserve">
<style type="text/css">
	.st0{fill:#1E2DBE;}
	.st1{fill:#FA3C4B;}
</style>
<circle class="st0" cx="73.1" cy="48.1" r="31.3"/>
<path class="st0" d="M31.3,66.2l94,54.1v12l-10.4,6l-52.2-30.1l41.8,144.3H83.6l-41.8-96.2v96.2H20.9L0,156.4v-36
	C0,98,12,77.3,31.3,66.2L31.3,66.2z"/>
<path class="st1" d="M146.2,144.3v12l10.4,6v-24.1l-20.9-12l-20.9,12v114.2h10.4V144.3l10.4-6L146.2,144.3z"/>
<path class="st0" d="M52.2,18V6L41.8,0L31.3,6v12l10.4,6L52.2,18z"/>
</svg>
