<svg xmlns="http://www.w3.org/2000/svg" viewBox="0 0 566.93 566.93"><circle cx="330.33" cy="208.69" r="72.87" fill="#fa3c4b"/><path fill="#230050" d="M330.46 250.72h20.89v144.31h-20.89zM299.13 292.81h20.89v102.22h-20.89zM361.79 292.81h20.89v102.22h-20.89zM267.8 322.87h20.89v72.15H267.8z"/><circle cx="205.12" cy="185.26" r="31.32" fill="#1e2dbe"/><path fill="#1e2dbe" d="M309.57 220.65l-41.77 24.06-31.33-18.04H173.81l-31.33 18.04V304.84h20.89v-48.11l10.44-6.01v180.39l20.89-.01 10.45-126.27 10.44 126.27 20.88.01V250.72l31.33 18.04 41.77-24.06z"/><g fill="#fa3c4b"><path d="M372.23 419.08h52.22v12.03h-52.22zM372.23 401.03h52.22v12.03h-52.22zM372.23 383h52.22v12.03h-52.22zM372.23 364.96h52.22v12.03h-52.22z"/></g><path fill="#1e2dbe" d="M330.46 135.83v72.8l63.02-36.28c-12.57-21.79-36.07-36.48-63.02-36.52z"/><path fill="#230050" d="M393.49 245.01a72.528 72.528 0 0 0 9.71-36.32c0-13.26-3.56-25.68-9.75-36.39l-63 36.32 63.04 36.39z"/></svg>