<?xml version="1.0" encoding="utf-8"?>
<!-- Generator: Adobe Illustrator 25.4.0, SVG Export Plug-In . SVG Version: 6.00 Build 0)  -->
<svg version="1.1" id="Layer_1" xmlns="http://www.w3.org/2000/svg" xmlns:xlink="http://www.w3.org/1999/xlink" x="0px" y="0px"
	 viewBox="0 0 229.8 271.8" style="enable-background:new 0 0 229.8 271.8;" xml:space="preserve">
<style type="text/css">
	.st0{fill:#230050;}
	.st1{fill:#FA3C4B;}
	.st2{fill:#1E2DBE;}
</style>
<path class="st0" d="M156.6,271.8v-36.1h62.7v36.1H156.6z"/>
<path class="st1" d="M167.1,223.7v12h62.7v-6l-10.4-6L167.1,223.7z"/>
<path class="st2" d="M208.9,211.7l0,12l-62.6,0l0-12H208.9z"/>
<path class="st1" d="M177.5,199.7h20.9v12h-20.9V199.7z"/>
<g>
	<circle class="st2" cx="104.4" cy="31.3" r="31.3"/>
	<path class="st2" d="M125.3,73.4H83.5L41.8,97.5v48.6l20.9,0l0-36.6l10.4-6v168.4H94l10.4-114.2l10.4,114.2h20.9V127.5l20.9,0
		l20.9-12v-12L125.3,73.4L125.3,73.4z M135.8,115.5v-12l10.4,6L135.8,115.5z"/>
</g>
<path class="st1" d="M0,145.6h208.9v12H0V145.6z M52.2,157.6l114.9,114.2h-10.4L41.8,157.6H52.2z"/>
<path class="st1" d="M156.6,157.6L41.8,271.8h10.4l114.9-114.2H156.6z"/>
<path class="st0" d="M146.2,145.6v-18h-31.3l-10.4,6v12L146.2,145.6z"/>
</svg>
