<?xml version="1.0" encoding="utf-8"?>
<!-- Generator: Adobe Illustrator 25.4.0, SVG Export Plug-In . SVG Version: 6.00 Build 0)  -->
<svg version="1.1" id="Layer_1" xmlns="http://www.w3.org/2000/svg" xmlns:xlink="http://www.w3.org/1999/xlink" x="0px" y="0px"
	 viewBox="0 0 566.9 566.9" style="enable-background:new 0 0 566.9 566.9;" xml:space="preserve">
<style type="text/css">
	.st0{fill:#FA3C4B;}
	.st1{fill:#230050;}
	.st2{fill:#1E2DBE;}
</style>
<circle class="st0" cx="330.3" cy="208.7" r="72.9"/>
<path class="st1" d="M330.5,250.7h20.9V395h-20.9L330.5,250.7z M299.1,292.8H320V395h-20.9V292.8z M361.8,292.8h20.9V395h-20.9
	L361.8,292.8z M267.8,322.9h20.9V395h-20.9V322.9z"/>
<circle class="st2" cx="205.1" cy="185.3" r="31.3"/>
<path class="st2" d="M309.6,220.6l-41.8,24.1l-31.3-18h-62.7l-31.3,18v60.1h20.9v-48.1l10.4-6v180.4l20.9,0l10.4-126.3l10.4,126.3
	l20.9,0V250.7l31.3,18l41.8-24.1L309.6,220.6z"/>
<g>
	<path class="st0" d="M372.2,419.1h52.2v12h-52.2V419.1z M372.2,401h52.2v12h-52.2V401z M372.2,383h52.2v12h-52.2V383z M372.2,365
		h52.2v12h-52.2V365z"/>
</g>
<path class="st2" d="M330.5,135.8v72.8l63-36.3C380.9,150.6,357.4,135.9,330.5,135.8z"/>
<path class="st1" d="M393.5,245c6.4-11,9.7-23.6,9.7-36.3c0-13.3-3.6-25.7-9.8-36.4l-63,36.3L393.5,245z"/>
</svg>
