<svg xmlns="http://www.w3.org/2000/svg" viewBox="0 0 106.02 120"><path d="M49.75,71.59l1.13-2-2.26-1.3-.14-.08-.06,0h0a3,3,0,0,0-2.84.36,9.32,9.32,0,0,0-4.21,7.3,3,3,0,0,0,1.18,2.69L45.06,80l1.23-2.2a9.61,9.61,0,0,0,3.46-6.18Z" style="fill:#69e4e4"/><path d="M52,72.26a9.31,9.31,0,0,1-4.22,7.3c-2.33,1.34-4.21.26-4.21-2.43a9.3,9.3,0,0,1,4.21-7.3c2.33-1.35,4.22-.25,4.22,2.43Z" style="fill:#05d2d2"/><path d="M50.14,73.36a5.13,5.13,0,0,1-2.32,4c-.92.54-1.72.37-2.09-.31a2,2,0,0,0,1.17-.31,5.13,5.13,0,0,0,2.32-4,2.17,2.17,0,0,0-.22-1c.68.07,1.14.66,1.14,1.65Z" style="fill:#05bdbd"/><path d="M49.22,72.73a5.13,5.13,0,0,1-2.32,4,2,2,0,0,1-1.17.31,2.24,2.24,0,0,1-.23-1,5.12,5.12,0,0,1,2.32-4A2,2,0,0,1,49,71.71a2.17,2.17,0,0,1,.22,1Z" style="fill:#fff"/><path d="M101,79a1.34,1.34,0,0,1-.66-.18L70.66,61.72A1.34,1.34,0,1,1,72,59.4l29.67,17.13a1.34,1.34,0,0,1,.49,1.83A1.32,1.32,0,0,1,101,79Z" style="fill:#230050"/><path d="M73.75,57.73l1.12-2-2.26-1.3-.14-.08-.06,0h0a3,3,0,0,0-2.84.36A9.3,9.3,0,0,0,65.35,62a3,3,0,0,0,1.18,2.7l2.53,1.44,1.22-2.19a9.65,9.65,0,0,0,3.47-6.19Z" style="fill:#69e4e4"/><path d="M76,58.41a9.31,9.31,0,0,1-4.21,7.3c-2.33,1.34-4.22.25-4.22-2.43A9.31,9.31,0,0,1,71.82,56c2.33-1.35,4.21-.26,4.21,2.43Z" style="fill:#05d2d2"/><path d="M74.14,59.51a5.13,5.13,0,0,1-2.32,4c-.92.53-1.72.37-2.09-.31a2.08,2.08,0,0,0,1.17-.31,5.13,5.13,0,0,0,2.32-4,2.05,2.05,0,0,0-.23-1c.69.07,1.15.66,1.15,1.65Z" style="fill:#05bdbd"/><path d="M73.22,58.88a5.13,5.13,0,0,1-2.32,4,2.08,2.08,0,0,1-1.17.31,2.12,2.12,0,0,1-.23-1,5.12,5.12,0,0,1,2.32-4A1.93,1.93,0,0,1,73,57.86a2.05,2.05,0,0,1,.23,1Z" style="fill:#fff"/><polygon points="50.05 48.82 71.93 61.37 73.25 59.09 51.36 46.54 50.05 48.82 50.05 48.82" style="fill:#230050"/><polygon points="74.21 59.65 63.47 53.49 73.29 36.51 71.97 35.76 62.15 52.73 52.32 47.1 51.01 49.37 60.83 55.01 50.09 73.58 51.4 74.33 62.15 55.76 72.9 61.92 74.21 59.65 74.21 59.65" style="fill:#230050"/><path d="M50.09,73.58,61.19,55.2l9.43,5.41L53.69,70.38l-1,1.68-2.63,1.52ZM62.5,52.93l9.82-17L71,35.2l-9.82,17-9.83-5.64-1.31,2.28,9.82,5.63L49.12,73v2.14l1,.56L73.25,61.24V59.09L62.5,52.93Z" style="fill:#151f85"/><polygon points="74.21 61.79 50.09 75.72 50.09 73.58 74.21 59.65 74.21 61.79 74.21 61.79" style="fill:#230050"/><polygon points="75.56 84.32 48.33 68.6 48.33 67.53 75.56 83.25 75.56 84.32 75.56 84.32" style="fill:#230050"/><path d="M75.62,81.89l19.1-11,.37.21L76,82.1l-.37-.21Zm-1.86-1.07-.37-.21,19.11-11,.37.2L73.76,80.82Zm-2.6-1.5,19.11-11,.37.21-19.11,11-.37-.21ZM68.94,78,88,67l.37.21L69.3,78.25,68.94,78Zm-2.23-1.29,19.11-11,.37.21L67.08,77l-.37-.21Zm-2.23-1.28L83.59,64.41l.37.21L64.85,75.68l-.37-.21Zm-2.22-1.29,19.1-11.06.37.21L62.62,74.39l-.36-.21ZM60,72.89l19.1-11,.37.21-19.1,11L60,72.89ZM57.81,71.6l19.1-11,.37.21L58.17,71.82l-.36-.22Zm-2.23-1.28,19.1-11.06.37.22L55.94,70.53l-.36-.21ZM53.35,69,72.46,58l.36.21L53.71,69.25,53.35,69Zm-2.23-1.28L70.23,56.69l.37.22L51.49,68l-.37-.21ZM70.87,54.51l-22.54,13L75.56,83.25l22.55-13L70.87,54.51Z" style="fill:#151f85"/><polygon points="95.92 70.57 95.09 71.05 94.72 70.84 75.62 81.89 74.78 81.42 94.72 69.88 95.92 70.57 95.92 70.57" style="fill:#230050"/><polygon points="93.7 69.29 92.87 69.76 92.5 69.56 73.39 80.61 72.56 80.13 92.5 68.59 93.7 69.29 93.7 69.29" style="fill:#230050"/><polygon points="91.47 68 90.64 68.48 90.27 68.27 71.16 79.32 70.33 78.85 90.27 67.31 91.47 68 91.47 68" style="fill:#230050"/><polygon points="89.24 66.71 88.41 67.19 88.04 66.98 68.94 78.04 68.11 77.56 88.04 66.02 89.24 66.71 89.24 66.71" style="fill:#230050"/><polygon points="87.02 65.43 86.19 65.91 85.82 65.7 66.71 76.75 65.88 76.27 85.82 64.74 87.02 65.43 87.02 65.43" style="fill:#230050"/><polygon points="84.79 64.14 83.96 64.62 83.59 64.41 64.48 75.47 63.66 74.98 83.59 63.45 84.79 64.14 84.79 64.14" style="fill:#230050"/><polygon points="82.56 62.85 81.73 63.33 81.36 63.12 62.26 74.18 61.43 73.7 81.36 62.17 82.56 62.85 82.56 62.85" style="fill:#230050"/><polygon points="80.33 61.56 79.5 62.05 79.13 61.84 60.03 72.89 59.2 72.41 79.13 60.88 80.33 61.56 80.33 61.56" style="fill:#230050"/><polygon points="78.11 60.28 77.28 60.76 76.91 60.55 57.8 71.6 56.97 71.13 76.91 59.59 78.11 60.28 78.11 60.28" style="fill:#230050"/><polygon points="75.88 59 75.05 59.48 74.68 59.26 55.58 70.32 54.75 69.84 74.68 58.31 75.88 59 75.88 59" style="fill:#230050"/><polygon points="73.65 57.71 72.82 58.19 72.45 57.98 53.35 69.03 52.52 68.56 72.45 57.02 73.65 57.71 73.65 57.71" style="fill:#230050"/><polygon points="71.43 56.42 70.6 56.91 70.23 56.69 51.12 67.75 50.29 67.27 70.23 55.73 71.43 56.42 71.43 56.42" style="fill:#230050"/><polygon points="98.11 71.31 75.56 84.32 75.56 83.25 98.11 70.23 98.11 71.31 98.11 71.31" style="fill:#230050"/><path d="M72.32,34.31,39.81,53l-1-25.62-1.94-1.12L26.53,28.89a2.07,2.07,0,0,0-1.24,1.52c-.1.48,0,.85.28,1h0l2,1.11,1.07-1.72h0l6.51-1.65L38,56.36l1.94,1.11,34.32-22-1.94-1.12Z" style="fill:#151f85"/><path d="M41.74,54.11,38.86,27.37,28.46,30a2.06,2.06,0,0,0-1.23,1.52c-.15.7.16,1.16.69,1L37,30.24l2.94,27.23,34.32-19.9V35.43L41.74,54.11Z" style="fill:#230050"/><polygon points="64.99 11.26 64.99 24.67 42.85 37.45 68.98 52.42 91.13 39.64 91.13 26.23 64.99 11.26 64.99 11.26" style="fill:#96242d"/><path d="M73.42,6.4,65,11.26V24.67L42.85,37.45v6c0,5.1,3.61,7.19,8,4.64l22.54-13c4.42-2.55,8-8.81,8-13.9V11c0-5.1-3.61-7.18-8-4.63Z" style="fill:#c8303c"/><path d="M79.07,48.24c-8.68,5.83-17.87,7.48-20.78,3.15S60.05,38.81,68.73,33s17.59-8.13,22.16-2.61c6.75,10.72-3.18,11.73-11.82,17.86Z" style="fill:#f9fafb"/><path d="M88.06,31.68A5.65,5.65,0,0,1,77.67,36a5.65,5.65,0,0,1,10.39-4.35Z" style="fill:#05d2d2"/><path d="M87.23,31.2a4.73,4.73,0,1,1-6.09-2.31,4.61,4.61,0,0,1,6.09,2.31Z" style="fill:#683914"/><path d="M75.57,36.51c-.76.83,8.18,4.67,10.7,1.54.28-.4-6.37-5.44-10.7-1.54Z" style="fill:#f9fafb"/><path d="M79.48,29.39c2,3-1.35,5.06-1.12,7.77-4-.18-6-8.61,1.12-7.77Z" style="fill:#f9fafb"/><path d="M74.46,29.7c6.37,8.26,1.61,20.38,1.61,20.38S79.4,39.14,74.46,29.7Z" style="fill:#bdbbba"/><path d="M63.58,37.16c9.25,2.06,13.88,7.37,13.88,7.37s-5.73-7.6-13.88-7.37Z" style="fill:#bdbbba"/><path d="M67.66,38.36c4.2,6.41,2.11,14.29,2.11,14.29s.74-8.13-2.11-14.29Z" style="fill:#bdbbba"/><path d="M91.13,39.08,103.2,19.69,79.3,6c-1.47-1-3.56-.93-5.88.41L65,11.26l26.14,15V39.08Z" style="fill:#fc8a93"/><path d="M69,52.43l-26.13-15v6c0,2.86,1,4.53,2.58,5.31l26.21,15L90.32,40.1,69,52.43Z" style="fill:#fc8a93"/><path d="M78,86.67l9.43-16.3,9.43,5.41L78,86.67ZM88.77,68.1l9.82-17-1.31-.76-9.83,17-9.82-5.63L76.31,64l9.83,5.63L75.39,88.18v2.15L99.51,76.4V74.26L88.77,68.1Z" style="fill:#151f85"/><polygon points="100.48 76.96 76.35 90.89 76.35 88.74 100.48 74.81 100.48 76.96 100.48 76.96" style="fill:#230050"/><polygon points="100.48 74.81 89.73 68.65 99.56 51.68 98.24 50.92 88.42 67.9 78.59 62.26 77.28 64.54 87.1 70.17 76.35 88.74 77.67 89.5 88.42 70.92 99.17 77.09 100.48 74.81 100.48 74.81" style="fill:#230050"/><path d="M52,46.06a1,1,0,0,1-.54-.14L28,32.39a1.07,1.07,0,0,1,1.07-1.85L52.51,44.06a1.07,1.07,0,0,1,.39,1.47,1,1,0,0,1-.92.53Z" style="fill:#230050"/><path d="M77.64,93.21A1.25,1.25,0,0,1,77,93L46.69,75.55A1.34,1.34,0,1,1,48,73.24L78.31,90.71a1.34,1.34,0,0,1-.67,2.5Z" style="fill:#230050"/><path d="M97.62,48.92,65.11,67.6,64.15,42l-1.93-1.11L51.83,43.5A2.05,2.05,0,0,0,50.59,45c-.1.48,0,.84.27,1h0l1.94,1.12,1.08-1.72h0l6.5-1.66L63.3,71l1.93,1.12L99.56,50l-1.94-1.11Z" style="fill:#151f85"/><path d="M67,68.72,64.15,42,53.76,44.61a2.06,2.06,0,0,0-1.23,1.52c-.15.7.16,1.16.69,1l9.08-2.31,2.93,27.23,34.32-19.9V50L67,68.72Z" style="fill:#230050"/><path d="M97.55,20.26l-8.43,4.86V38.53L67,51.32v6c0,5.09,3.61,7.18,8,4.63l22.54-13c4.42-2.55,8-8.8,8-13.9V24.89c0-5.1-3.61-7.18-8-4.63Z" style="fill:#fb636f"/><path d="M103.73,75.05l1.13-2-2.26-1.31-.14-.08-.06,0h0a3,3,0,0,0-2.84.35,9.34,9.34,0,0,0-4.22,7.3A3,3,0,0,0,96.52,82L99,83.43l1.23-2.19a9.59,9.59,0,0,0,3.46-6.19Z" style="fill:#69e4e4"/><path d="M106,75.73a9.34,9.34,0,0,1-4.21,7.3c-2.33,1.34-4.22.25-4.22-2.44a9.34,9.34,0,0,1,4.22-7.3C104.13,72,106,73,106,75.73Z" style="fill:#05d2d2"/><path d="M104.13,76.82a5.13,5.13,0,0,1-2.32,4c-.92.53-1.72.37-2.09-.31a2.08,2.08,0,0,0,1.17-.31,5.15,5.15,0,0,0,2.32-4,2.09,2.09,0,0,0-.23-1c.69.07,1.15.67,1.15,1.65Z" style="fill:#05bdbd"/><path d="M103.21,76.2a5.15,5.15,0,0,1-2.32,4,2.08,2.08,0,0,1-1.17.31,2.12,2.12,0,0,1-.23-1,5.1,5.1,0,0,1,2.32-4,2,2,0,0,1,1.17-.32,2.09,2.09,0,0,1,.23,1Z" style="fill:#fff"/><path d="M81.19,89.74l1.12-2-2.26-1.3-.13-.08-.07,0h0a3,3,0,0,0-2.84.36A9.31,9.31,0,0,0,72.79,94,3,3,0,0,0,74,96.67l2.52,1.44,1.23-2.19a9.66,9.66,0,0,0,3.46-6.18Z" style="fill:#69e4e4"/><path d="M83.48,90.41a9.31,9.31,0,0,1-4.22,7.3c-2.33,1.35-4.21.26-4.21-2.43A9.3,9.3,0,0,1,79.26,88c2.33-1.35,4.22-.26,4.22,2.43Z" style="fill:#05d2d2"/><path d="M81.58,91.51a5.12,5.12,0,0,1-2.32,4c-.92.54-1.72.37-2.09-.31a2,2,0,0,0,1.17-.31,5.13,5.13,0,0,0,2.32-4,2.17,2.17,0,0,0-.22-1c.68.07,1.14.66,1.14,1.65Z" style="fill:#05bdbd"/><path d="M80.66,90.88a5.13,5.13,0,0,1-2.32,4,2,2,0,0,1-1.17.31,2.12,2.12,0,0,1-.23-1,5.12,5.12,0,0,1,2.32-4,1.94,1.94,0,0,1,1.18-.31,2.17,2.17,0,0,1,.22,1Z" style="fill:#fff"/><path d="M20.11,100.68a4.35,4.35,0,0,0,1.8,2.82s-.09,1.4-.76,1.86a7.63,7.63,0,0,1-3.85.54c-1.37-.1-1.14,0-2.31-.94s-.94-3-.94-3v-1l3.58-1.2s1.84.64,2.48.94Z" style="fill:#683914"/><path d="M13,81.45a23.35,23.35,0,0,0-1.34,5.62c-.18,2.59,1.07,7.23,2.23,14.47,3,1.38,6.24-.86,6.24-.86s-1.67-9.28-.35-17a8.53,8.53,0,0,0,1-4c1.06-3.76,3.41-12.6,3.69-18.5s.47-10,.47-10L12.49,59.75,13,81.45Z" style="fill:#151f85"/><path d="M5.21,109.13a5.38,5.38,0,0,0,.34,2.46l.33,1.58-1.54,1.49-2.61-.42L.57,111.76l.09-3,2.21-1.14a19.14,19.14,0,0,1,2.34,1.5Z" style="fill:#683914"/><path d="M5.55,111.59c0,1.26-1.08,1.67-2,1.64-1.88-.09-2.94-3.6-2.86-4.46A6.32,6.32,0,0,0,0,111.94a11.28,11.28,0,0,0,1.43,3.47,15.54,15.54,0,0,0,1.72,3.09c1.11,1.12,4.06,2.54,5.44.36.69-1.09-3.34-7.79-3-7.27Z" style="fill:#bedcfa"/><path d="M6.66,50.78a17.69,17.69,0,0,0-3.95,7.1c-.66,2.85.18,26.33.18,26.33S.57,88,.12,90.55s.54,18.22.54,18.22A3,3,0,0,0,4,110.2a2,2,0,0,0,1.53-1.43S7.34,89.39,9.18,87.43c5.32-9.82,6.3-23.83,6.3-23.83S25.39,55.78,25,50.78c-15.19,6.87-18.3,0-18.3,0Z" style="fill:#1e2dbe"/><path d="M27.39,26.55s2.33,3.25,3.5,5c3,.79,5.78,7.08,8.65,9.27.51-.07,1.65-1.93,3-2.72.77-.45,4.84.55,4.32,2.72L45.47,40c-1.21.16-1.34,1.79-.88,2l1.49.86c-.18,1-4.75,1.37-6.61.92-1.44-.36-9.61-4.84-11.25-8.57a29.58,29.58,0,0,1-4.65-5.51l3.82-3.11Z" style="fill:#683914"/><path d="M22.35,17.06c1.76,1.38,5.09,9,5.24,9.49.13,3-4.35,3.85-4.35,3.85L16,17s3.94-1.77,6.33.11Z" style="fill:#fc8a93"/><polygon points="16.5 17.5 16.5 22.79 14.89 24.4 8.95 24.4 6.27 20.56 6.6 15.1 16.5 17.5 16.5 17.5" style="fill:#542700"/><path d="M6.66,50.78s1,2.58,5.19,3.18A19.46,19.46,0,0,0,25,50.78l-.16-3.27L12.94,50l-5-.76L6.66,50.78Z" style="fill:#230050"/><path d="M23.29,50.6c0,.5-.58,1.17-1.33,1.48s-1.36.18-1.37-.32.58-1.17,1.33-1.49,1.36-.17,1.37.33Z" style="fill:#151f85"/><path d="M3.79,38.23a21,21,0,0,1,4.15,11s.67,1.53,3.93,1.93a17.76,17.76,0,0,0,12.93-2.5s1.38-12.33,1.94-16.34c.36-2.6-2.23-5.86-4.3-9.83a14.86,14.86,0,0,0-5.85-6H14.33c2.31,4.88-.23,6.06-.23,6.06a4.93,4.93,0,0,1-6.25-3.75c-.79.62-6.9,7.2-6.9,7.2S-1.7,29.92,3.79,38.23Z" style="fill:#fdb1b7"/><path d="M25,37.25s-10.22,5.87-12.5,2.3C14,44.6,25,37.25,25,37.25Z" style="fill:#eb5b83"/><path d="M15.58,19.86a9.86,9.86,0,0,1-1.05,1.37,3.65,3.65,0,0,1-3.53.16c-.91-.62-4.22-5.89-4.59-6.83S7.59,9.71,7.59,9.71L13.24,6l5.86.68,2.11,5-2.84,3.12-.3,3.78-2.49,1.32Z" style="fill:#683914"/><path d="M15.71,10.31a4.26,4.26,0,0,0-3.17-.22c-1.47.62-.94,3.23-4.95,4.93-1.23,1.68,3.86,5.4,1.58,8.81-.3-1.37-.78-2.68-2-2.68-.5-.08.7,1.81-.07,2.68-.39-.92-.93-2.71-1.93-2.26L3.42,23.4a12.64,12.64,0,0,1-1-10.25C3.91,9.46,2.54-.7,13,.13,20.58-1,20.62,5.89,20.62,5.89a10.5,10.5,0,0,1,1.25,5.54c-.22,1.83-2.81,3.23-3.08,3.34s.83,4.11-.89,6.7a7.09,7.09,0,0,0-2.32-1.61s2.09-2.42,2.23-3.16.22-2.06.22-2.06a6.6,6.6,0,0,0,.68-.89A8,8,0,0,0,18.4,10c-.55-1-2.69.34-2.69.34Z" style="fill:#461a00"/><path d="M23.94,34.47a.22.22,0,0,1-.06-.43.8.8,0,0,0,.49-.48.84.84,0,0,0,0-.58.58.58,0,0,0-.32-.36.7.7,0,0,0-.86.47.78.78,0,0,0,.06.76.22.22,0,1,1-.36.26,1.24,1.24,0,0,1-.11-1.2,1.13,1.13,0,0,1,1.44-.69,1,1,0,0,1,.57.62,1.3,1.3,0,0,1,0,.89,1.21,1.21,0,0,1-.77.73Z" style="fill:#fff"/><path d="M24.56,34.92c-.26.5-1.07.59-1.81.2S21.64,34,21.9,33.51s1.07-.59,1.81-.2,1.12,1.11.85,1.61Z" style="fill:#05d2d2"/><path d="M24.45,35.15c-.27.5-1.08.59-1.81.2s-1.12-1.1-.86-1.6,1.08-.59,1.81-.2,1.12,1.1.86,1.6Z" style="fill:#05bdbd"/><path d="M25.49,37.93c0,2.76-2.62,5-5.84,5s-5.84-2.24-5.84-5,2.61-5,5.84-5,5.84,2.25,5.84,5Z" style="fill:#683914"/><path d="M14.27,37.53a4.9,4.9,0,0,0-2,3.75,5.7,5.7,0,0,0,4.29,4.57s15.54,8.49,23.18-2.23c1.79-2.4,1.55-5.21-.79-7.43-1.3-1.58-7.21,0-14.18-.66,1.12,3.38-6.29-.81-10.5,2Z" style="fill:#05d2d2"/><path d="M29.58,35.7C36.43,40.5,27.47,49,27.47,49s7.44-8.69,2.11-13.34Z" style="fill:#05bdbd"/><path d="M27.68,35.7c3.32,7.67-8.52,11.13-8.52,11.13s10.63-4.38,8.52-11.13Z" style="fill:#05bdbd"/><path d="M7.63,41.32S9.68,44,11.11,46.13c.62.93,1.25,2.32,1.35,2.45,2.54,3.35,19.1,1.88,19.1,1.88S37,48.72,37.72,48s1.14-3.9.69-4.25-1.85,1.81-2.25,2.18-2.41,1-2.28.15,2.14-2.81,1.65-3.35c-.27-.3-1.31.63-2.32,1.47-.79.66-1.58,1.19-1.87,1.52a4.17,4.17,0,0,0-.81,2.1c-2.3-.48-13.17-3.74-14.24-3.41C15.35,42.6,13.54,38,13.54,38L7.63,41.32Z" style="fill:#683914"/><path d="M2.34,25.39c-6,1.26,2,10.9,2,10.9S6.74,41.14,7,41.53c2.3,1,7-2.92,6.63-3.71-.12-.25-1.59-2.39-2.88-4.8s-2.42-5.13-2.42-5.13-1.52-2.93-6-2.5Z" style="fill:#fc8a93"/><path d="M14.05,102c-.23,2.2,6.73,3.81,7.86,1.51,4.6,2.77,9.64,2.81,7.68,6.16-1.17,1.92-10.41-1.92-10.41-1.92s-5.53-.45-6-1.38.08-3.31.85-4.37Z" style="fill:#bedcfa"/></svg>