<?xml version="1.0" encoding="utf-8"?>
<!-- Generator: Adobe Illustrator 25.4.0, SVG Export Plug-In . SVG Version: 6.00 Build 0)  -->
<svg version="1.1" id="Layer_1" xmlns="http://www.w3.org/2000/svg" xmlns:xlink="http://www.w3.org/1999/xlink" x="0px" y="0px"
	 viewBox="0 0 234.8 149.1" style="enable-background:new 0 0 234.8 149.1;" xml:space="preserve">
<style type="text/css">
	.st0{clip-path:url(#SVGID_00000166645306165936883580000006615681593848970628_);}
	.st1{fill:#FFFFFF;}
	.st2{fill:#1E2DBE;}
</style>
<g id="Layer_2_00000082346097757407505740000010246498338336653188_">
	<g id="Camada_1">
		<g>
			<defs>
				<rect id="SVGID_1_" x="-3.5" y="0" width="238.3" height="149.1"/>
			</defs>
			<clipPath id="SVGID_00000155121842584185194880000016297901094365591939_">
				<use xlink:href="#SVGID_1_"  style="overflow:visible;"/>
			</clipPath>
			<g style="clip-path:url(#SVGID_00000155121842584185194880000016297901094365591939_);">
				<polygon class="st1" points="140.8,87.6 182.5,87.6 172.1,93.7 151.2,93.7 				"/>
				<path class="st2" d="M234.8,177.8l-20.9-12v-36.1l-20.9-12l9.4,48.5c0.7,3.7,0.9,7.5,0.6,11.3l-10,120.6h-20.9l-10.4-126.3
					l-10.4,126.3h-20.9l-10.3-124.6c-0.1-1.1-0.1-2.3-0.1-3.4v-10.3l-10.4-6v-48.1l31.3-18l10.4,6l10.4-6l10.4,6l10.4-6l52.2,30.1
					L234.8,177.8L234.8,177.8z"/>
				<polygon class="st1" points="51.3,87.6 93.1,87.6 79.1,127.8 65.1,127.8 				"/>
				<polyline class="st2" points="52.2,87.6 0,117.7 0,177.8 20.9,165.8 20.9,129.7 31.3,123.7 31.3,171.8 41.8,298.1 62.7,298.1 
					73.1,171.8 83.5,298.1 104.4,298.1 114.9,171.8 114.9,159.8 125.3,153.8 125.3,105.7 94,87.6 73.2,99.3 				"/>
				<path class="st2" d="M174.5,17.9c0.2-0.9,0.3-1.8,0.3-2.7c0.2-8.4-6.4-15.3-14.7-15.5c-8.4-0.2-15.3,6.4-15.5,14.7
					c0,0.3,0,0.5,0,0.8c0,0.9,0.1,1.8,0.3,2.7C153.5,11.2,165.7,11.2,174.5,17.9L174.5,17.9z"/>
				<path class="st1" d="M159.6,17.5c4.9,0,9.7,1.1,14,3.3c0.4-1,0.7-1.9,0.9-3c-8.8-6.7-21-6.7-29.8,0c0.2,1,0.5,2,0.9,3
					C149.9,18.7,154.7,17.5,159.6,17.5z"/>
				<path class="st2" d="M181.5,26.5c-12.3-12.1-32.1-11.9-44.3,0.4s-11.9,32.1,0.4,44.3c12.3,12.1,32.1,11.9,44.3-0.4
					c5.8-5.9,9-13.7,9-21.9C190.9,40.4,187.5,32.4,181.5,26.5z"/>
				<path class="st2" d="M72.2,25.7c5.5,0,10.2-3.9,11.2-9.3c-7.2-2.8-15.3-2.8-22.5,0C62,21.8,66.7,25.7,72.2,25.7z"/>
				<path class="st2" d="M87.1,18.1C85,26.4,76.6,31.3,68.3,29.2c-5.4-1.4-9.7-5.6-11.1-11.1C42,26.4,36.5,45.4,44.7,60.6
					S72,81.4,87.2,73.1S108,45.8,99.7,30.6C96.8,25.3,92.4,21,87.1,18.1z"/>
			</g>
		</g>
	</g>
</g>
</svg>
