<svg width="34" height="35" viewBox="0 0 34 35" fill="none" xmlns="http://www.w3.org/2000/svg">
    <path
        d="M30.454 17.57H16.8243V3.94033C16.8243 3.77281 16.6873 3.63575 16.5198 3.63575H15.5299C13.53 3.63248 11.5492 4.02468 9.70143 4.78979C7.85367 5.5549 6.17542 6.67782 4.76326 8.09394C3.37253 9.48036 2.26442 11.1238 1.50052 12.9328C0.705603 14.8092 0.297701 16.8266 0.301262 18.8644C0.297987 20.8643 0.690187 22.8451 1.4553 24.6929C2.22041 26.5406 3.34333 28.2189 4.75945 29.6311C6.15668 31.0283 7.78614 32.1286 9.59835 32.8938C11.4747 33.6887 13.4922 34.0966 15.5299 34.093C17.5298 34.0963 19.5106 33.7041 21.3584 32.939C23.2062 32.1739 24.8844 31.051 26.2966 29.6349C27.6938 28.2376 28.7941 26.6082 29.5593 24.796C30.3542 22.9196 30.7621 20.9022 30.7586 18.8644V17.8745C30.7586 17.707 30.6215 17.57 30.454 17.57ZM24.4272 27.8417C23.2483 29.0114 21.8502 29.937 20.313 30.5655C18.7758 31.1939 17.1297 31.5129 15.469 31.5042C12.1149 31.4889 8.96255 30.1755 6.59069 27.8036C4.2036 25.4165 2.89013 22.2414 2.89013 18.8644C2.89013 15.4874 4.2036 12.3123 6.59069 9.92519C8.6694 7.84647 11.3458 6.57869 14.2355 6.28934V20.1588H28.105C27.8118 23.0637 26.5326 25.7554 24.4272 27.8417ZM33.8043 15.4532L33.7053 14.3796C33.3817 10.8732 31.8246 7.56474 29.3195 5.06725C26.8126 2.56517 23.511 1.01667 19.9843 0.68901L18.9069 0.590024C18.7279 0.574795 18.5756 0.711853 18.5756 0.890789V15.5141C18.5756 15.6816 18.7127 15.8187 18.8802 15.8187L33.4997 15.7806C33.6786 15.7806 33.8195 15.6283 33.8043 15.4532ZM21.1569 13.2374V3.46824C23.5552 3.9702 25.756 5.15792 27.492 6.88707C29.2319 8.62313 30.4235 10.8313 30.9185 13.2108L21.1569 13.2374Z"
        fill="white" />
</svg>