<svg xmlns="http://www.w3.org/2000/svg" xmlns:xlink="http://www.w3.org/1999/xlink" viewBox="0 0 275.3 275.3"><defs><clipPath id="a" transform="translate(-0.01 -0.02)"><path d="M273.5,115.62A137.19,137.19,0,0,0,245.29,52l-.36-.45a138.49,138.49,0,0,0-32.88-29.6l-.27-.33a5.27,5.27,0,0,0-2.85-1.67A136.85,136.85,0,0,0,140,.08c-.19,0-.38,0-.57,0-.59,0-1.18-.06-1.77-.06a137.66,137.66,0,0,0-26.57,2.6s-.08,0-.12,0-.07,0-.12.05A136.83,136.83,0,0,0,93.48,7.36c-.11,0-.22.08-.33.11A138,138,0,0,0,40.89,39.86l-.48.46A139,139,0,0,0,24.79,59c-.15.2-.3.41-.44.62A137.12,137.12,0,0,0,5.63,99a4.08,4.08,0,0,0-.16.6,136.15,136.15,0,0,0-1.71,70c0,.15.08.31.11.46A137.51,137.51,0,0,0,37,231.48l.65.67a138.63,138.63,0,0,0,33.88,26.24l.06,0a136.76,136.76,0,0,0,66,16.91h0a138.32,138.32,0,0,0,18.54-1.28c.12,0,.23,0,.34,0l.06,0a137.5,137.5,0,0,0,80.78-41.57l.82-.87a138.13,138.13,0,0,0,27.67-43.85c.07-.19.14-.37.22-.56a135.5,135.5,0,0,0,7.5-70.74A5,5,0,0,0,273.5,115.62Zm-104.79,145c-2.82.71-5.7,1.31-8.6,1.82l-4.06-24.22a262,262,0,0,0,33.37-7.58c-10,19.06-20.3,29.48-20.51,29.69A2.11,2.11,0,0,0,168.71,260.6ZM37.86,185.88a199.8,199.8,0,0,0,28,5.38A177.86,177.86,0,0,0,87.65,231a205.76,205.76,0,0,1-29-4A169.36,169.36,0,0,1,37.86,185.88Zm-27-48.21a126.6,126.6,0,0,1,3.52-29.58c1.31.6,2.88,1.26,4.6,2a172,172,0,0,0,2.38,57.23c.11.54.26,1,.37,1.56-3.25-1.43-5.88-2.75-7.87-3.86A126.6,126.6,0,0,1,10.87,137.67ZM32,165a161,161,0,0,1-2.53-51.2,183,183,0,0,0,23.83,5.66,169.72,169.72,0,0,0,3.62,42.14c1.38,6.39,3,12.43,4.89,18.2a172.55,172.55,0,0,1-27.75-6.32C33.32,170.69,32.63,167.88,32,165Zm7.41-94.86a215,215,0,0,0,21.47,2.5,202.33,202.33,0,0,0-6.83,35.76,173.64,173.64,0,0,1-23-5.64A203.3,203.3,0,0,1,39.41,70.12Zm68.06-55.58,7.56,45a261.46,261.46,0,0,1-39.18,2.75,219.12,219.12,0,0,1,21.93-45C101,16.28,104.19,15.34,107.47,14.54ZM77.29,73.25a275.89,275.89,0,0,0,39.35-2.93l.19,0,6.58,39.22A239.69,239.69,0,0,1,65,110a196.44,196.44,0,0,1,7.36-36.87C74,73.15,75.61,73.25,77.29,73.25Zm-9.74,86A156.61,156.61,0,0,1,64.23,121a232.94,232.94,0,0,0,26.84,1.52,274.11,274.11,0,0,0,34.15-2.26l9.94,59.21c-24.11,3.12-44.5,3.23-61.38,1.69A179.87,179.87,0,0,1,67.55,159.28ZM136,118.63A193.68,193.68,0,0,0,198.86,96.7,157.1,157.1,0,0,1,208,138.07a175.81,175.81,0,0,1,.34,20.54c-16.41,8-37,15.14-62.41,19.35Zm82.88,18.58a170.4,170.4,0,0,0-10.43-46.28,163,163,0,0,0,23.74-18.71,163.71,163.71,0,0,1,16.51,58.85c0,.09,0,.17,0,.25a158.9,158.9,0,0,1-29.23,21.4C219.46,147.7,219.28,142.54,218.85,137.21Zm-12-104.47a214.78,214.78,0,0,1,20,29.38A152.89,152.89,0,0,1,204.2,80.53a207.62,207.62,0,0,0-18.78-33.4A176.34,176.34,0,0,0,206.88,32.74ZM194.75,86.43a182.8,182.8,0,0,1-60.58,21.48l-6.63-39.49a194.36,194.36,0,0,0,48-16.08A199.7,199.7,0,0,1,194.75,86.43ZM78.2,192.45c5.66.39,11.64.61,18,.61a316.9,316.9,0,0,0,40.8-2.82L143.48,229A301.36,301.36,0,0,1,102,231.56,166.37,166.37,0,0,1,78.2,192.45Zm76.05,35-6.52-38.79a242.23,242.23,0,0,0,59.71-17.48,167,167,0,0,1-11.72,46A246.28,246.28,0,0,1,154.25,227.48ZM219,165.58a174.53,174.53,0,0,0,30.21-20,170.92,170.92,0,0,1-6.78,47.79,177.79,177.79,0,0,1-32.76,18.33A177.66,177.66,0,0,0,219,165.58Zm45.43-27.91a126.23,126.23,0,0,1-8,44.25,184.64,184.64,0,0,0,3.39-46c1.64-1.66,3.12-3.25,4.43-4.72C264.39,133.31,264.45,135.48,264.45,137.67ZM258.52,121a178.21,178.21,0,0,0-18.36-57.1l.31-.35a126.09,126.09,0,0,1,22.07,52.29C261.71,117.06,260.4,118.82,258.52,121ZM197.74,26A164.68,164.68,0,0,1,179,38.25a234.58,234.58,0,0,0-23-26A125.71,125.71,0,0,1,197.74,26ZM137.66,10.88h.58A216.12,216.12,0,0,1,169,43.44a184.6,184.6,0,0,1-43.26,14.25l-7.6-45.31A128.12,128.12,0,0,1,137.66,10.88ZM64.22,61.94c-7.77-.45-14.7-1.26-20.88-2.24,1.75-4.33,3.55-8.44,5.36-12.25A127.39,127.39,0,0,1,80.81,24.39,233.61,233.61,0,0,0,64.22,61.94ZM25.16,79.32c-1.76,6.25-3.29,12.78-4.51,19.57-1.24-.52-2.3-1-3.21-1.42A125.07,125.07,0,0,1,25.16,79.32Zm0,102.57A182,182,0,0,0,41.62,220.3,126.75,126.75,0,0,1,17.82,179C20,179.92,22.44,180.9,25.14,181.89Zm51.76,67c-2.68-2.69-5.48-5.71-8.34-9.07a240.63,240.63,0,0,0,28.1,2.48,167,167,0,0,0,21.25,20.59A125.8,125.8,0,0,1,76.9,248.91ZM139,264.42c-3.48-2-14.61-9.05-27.34-22.06a323.34,323.34,0,0,0,33.59-2.61l4.05,24.15C145.94,264.21,142.5,264.38,139,264.42Zm65.17-38.8a202.44,202.44,0,0,0,32.31-15.39,159.11,159.11,0,0,1-6.91,14.61A127.18,127.18,0,0,1,188.13,254,165.43,165.43,0,0,0,204.2,225.62Z" style="fill:none"/></clipPath></defs><g style="clip-path:url(#a)"><path d="M137.67,137.67V0a137.65,137.65,0,0,1,0,275.3,120.58,120.58,0,0,1-23.9-2.1Z" transform="translate(-0.01 -0.02)" style="fill:#82afdc"/><path d="M137.67,137.67V0a137.65,137.65,0,0,1,0,275.3,120.58,120.58,0,0,1-23.9-2.1Z" transform="translate(-0.01 -0.02)" style="fill:none"/><path d="M137.67,137.67l-23.9,135.55A137.65,137.65,0,0,1,137.67,0Z" transform="translate(-0.01 -0.02)" style="fill:#1e2dbe"/><path d="M137.67,137.67l-23.9,135.55A137.65,137.65,0,0,1,137.67,0Z" transform="translate(-0.01 -0.02)" style="fill:none"/></g></svg>