<svg xmlns="http://www.w3.org/2000/svg" viewBox="0 0 479.69 479.69"><path d="M353,28.7C489.38,96,523.14,291.28,417.41,401.36c-4.43-3.18-2.93-8-2.66-12,.54-7.78-2.49-12.3-9.35-16.08-26.27-14.46-52.19-29.56-78-44.79-10.56-6.23-21.6-11.61-31.91-18.25-4.75-3.06-9.33-3.56-14.17-.31-1.6,1.08-3.47,1.76-5,2.87-5.68,4-14.47,5.36-16.89,11.8-3.36,8.94-1.13,19-1,28.36,3.7,1.61,5.68-.69,7.85-1.92,14.73-8.34,29.47-16.66,44.1-25.19,2.68-1.56,5.28-3.54,8.69-3,2.1,1,2.58,2.91,2.69,4.82a238.53,238.53,0,0,1,0,27.53c-.34,5.59-4.61,8.23-8.83,10.68q-33.58,19.45-67.28,38.74c-15.31,8.78-30.49,17.8-45.92,26.37-5.16,2.86-7.12,6.56-6.93,12.24.26,7.72.12,15.46,0,23.2,0,2.85.39,5.86-1.79,8.27C69.42,449.5-11.17,336.46,1.26,216.81c.1-1,.36-1.89.55-2.84,3.45-1.72,6,.72,8.74,2,5.42,2.52,10.11,6.55,16.53,8.35,3.37-10.09-1.42-20.92,2.92-29.68,1.21-1,1.68-1.37,2.12-1.27,11.81,2.72,21.41,9.58,30.56,17,3.15,2.54,2.46,7.14,2.48,11,.06,17.88.22,35.76-.08,53.63-.11,6.56,2.09,10.75,7.92,13.95,14.63,8,29,16.45,43.43,24.86,2.26,1.32,4.49,2.86,7.24,2.92,2.61-2.45,1.82-5.51,1.84-8.29.09-16.67.29-33.34-.07-50-.17-8.16,2.37-13.86,10-17.49,5.87-2.8,11.36-6.41,17.07-9.58,4.6-2.55,9-2.72,13.75-.09,7,3.88,13.76,8.08,20.67,12.06,4.21,2.42,5.87,6.17,6,10.87.13,7.24.26,14.5,0,21.73-.2,5.54,2,9.11,6.76,11.68,5.52,3,11,6.18,16.38,9.34,2.7,1.57,5.6,3,6.62,6.38-.42,3.93-3.55,5.55-6.42,7.26-5.82,3.45-11.77,6.69-17.61,10.12-3.3,1.93-5.6,4.39-5.61,8.58-.06,19.33-.17,38.65.08,58,0,1.2.24,2.4,2.07,4,8.3-3.85,16.79-8.15,24.13-14.42,2.63-2.25,2-5.83,2-8.91.11-16.19-.38-32.39.18-48.55.49-14.18-.11-28.31-.24-42.46-.08-7.92,2.79-13,9.77-16.93,16-9,31.84-18.35,47.9-27.28,5.5-3.05,8.18-6.92,7.83-13.3s.08-12.56-.08-18.83c-.17-6.51,2.54-11,8.13-14.21,5.24-3,10.33-6.32,15.72-9,6.22-3.12,8.75-7.78,8.16-14.61a52.74,52.74,0,0,1,0-11.58c1.3-9.6-2.76-15.65-11.43-19.28-2.88-1.21-5.36-3.36-8.24-4.56-9.56-4-13.48-10.85-12.46-21.16.61-6.22.07-12.55.18-18.83a12.35,12.35,0,0,1,6.62-11.25c6.27-3.66,12.73-7,18.82-10.93,5.51-3.56,10.59-3.5,16.23-.1,6.55,4,12.89,8.44,20.15,10.75,2.6-2.56,1.91-5.36,1.94-7.91.1-9.91,0-19.81.08-29.72C350.65,34.89,350.08,31.33,353,28.7Z" style="fill:#1e2dbe"/><path d="M353,28.7V82L320.34,63.4,289.07,81.33v37.24l31.29,18.21v37.64l-31.47,18.26v36.91l-65,37.48V378.13l-32.37,18.6V322.05l31.28-18.28-32-18.6V248.26l-31.47-18.15-31.73,18.16v74.67L62.57,285.6v-74L31.06,193.37V230.1L1.81,214C6.34,162.09,27.37,117.38,62,79,140.86-8.41,265.32-20.34,353,28.7Z" style="fill:#fa3c4b"/><path d="M191,474.75V433.46l128.51-74V323.3l-63,36.11V321.7l31.7-18.28,129.27,74.33v23.61C355.32,467.08,279.68,491.05,191,474.75Z" style="fill:#fa3c4b"/><path d="M352,117.85l32.78,18.82v74.82L352.6,230.06l-32.71-18.82L352,192.45Z" style="fill:#fa3c4b"/><path d="M417,303.45l32.77,18.87L417,341.22l-32.86-18.9C395.63,315.75,406.16,309.69,417,303.45Z" style="fill:#fa3c4b"/><path d="M320.07,285.42l-32.58-18.66L320.07,248Z" style="fill:#ed6565"/></svg>