<svg xmlns="http://www.w3.org/2000/svg" viewBox="0 0 474.71 426.49"><path d="M474.71,363l-.93-.06c-1.43-1.58-1.32-3.55-1.32-5.46q-.06-26.73,0-53.47c0-1.9-.1-3.87,1.33-5.45l.92,0Z" style="fill:#c9d3ec"/><path d="M473.79,298.52q0,32.19,0,64.38-81.42,31.22-162.84,62.45a13.18,13.18,0,0,1-7.57.93q-81.19-15.69-162.43-31.14a31.37,31.37,0,0,0-5.73-.48q-65.29,0-130.6,0c-3.45,0-4.62-.6-4.61-4.42q.24-68,.05-136c0-2.84.4-4.22,3.75-4.85C57.56,239.29,111.28,228.87,165,218.62c5.82-1.11,11.41,1.28,17,2.34q74.16,14.11,148.25,28.49c1.21.23,2.46.27,3.7.39,2.31.84,2.27,2.9,2.3,4.77.12,7.77.11,15.53,0,23.3,0,1.79-.23,3.57-1.93,4.7l-104.53,0c-1,0-1.93-.05-2.89,0-.64,0-1.71.06-1.83.37-.31.84.72,1,1.23,1.29q26.14,14.92,52.31,29.8c2.59-.4,4.41,1.34,6.36,2.48,5.71,3.33,11.51,6.49,17.14,9.93a13,13,0,0,0,9.79,1.8c32.3-6.12,64.56-12.44,96.86-18.57,3.18-.6,6.36-1.95,9.7-.77Z" style="fill:#1e2dbe"/><path d="M348.64,139.7c-38.42,0-70-31.59-69.87-69.95.12-38.51,31.69-69.94,70-69.75a70.05,70.05,0,0,1,69.67,69.73C418.63,108.09,387.1,139.68,348.64,139.7Z" style="fill:#fa3c4b"/><path d="M348.77,186.85c-21.89,0-43.78-.11-65.66.1-3.81,0-4.55-1.11-4.44-4.61.25-8.39.13-16.79,0-25.18,0-2.28.25-3.45,3.05-3.44q66.9.14,133.81,0c2,0,3,.35,3,2.68-.12,9.22-.17,18.44,0,27.66.07,3.14-1.74,2.77-3.69,2.77Z" style="fill:#fa3c4b"/><path d="M348.56,201.73c22,0,44.05.06,66.08-.07,3,0,4,.7,3.92,3.86-.23,8.66-.15,17.34,0,26,0,2.42-.5,3.34-3.16,3.33q-66.71-.12-133.4,0c-2.48,0-3.33-.61-3.28-3.21.15-8.8.19-17.62,0-26.42-.07-3.08,1.1-3.55,3.81-3.54C304.51,201.78,326.53,201.73,348.56,201.73Z" style="fill:#fa3c4b"/><path d="M418.52,308.91l-74,14.33c-10.92,2.11-21.86,4.11-32.76,6.33a11.37,11.37,0,0,1-8.95-1.33c-7.94-4.91-16.08-9.49-24.15-14.2,0-4.26.23-8.53,0-12.78-.14-2.87.73-3.71,3.65-3.69,20.07.13,40.14.07,60.21.07,23.93,0,47.85.08,71.77-.08,3.48,0,4.62,1,4.23,4.35A58.37,58.37,0,0,0,418.52,308.91Z" style="fill:#fa3c4b"/><path d="M334.38,282.61c.45-10.93,1.21-21.86-.38-32.77q40.9-.08,81.83-.19c2.32,0,2.7,1,2.68,2.95q-.11,13.64,0,27.28c0,2-.44,2.93-2.72,2.92Q375.09,282.62,334.38,282.61Z" style="fill:#fa3c4b"/></svg>