<svg xmlns="http://www.w3.org/2000/svg" viewBox="0 0 330.97 364.69"><path d="M330.82,86.34c.05,1.5.15,3,.15,4.49V278l-24.2,12.76q-69.27,36.45-138.54,72.89a21.06,21.06,0,0,1-2.72,1l0-191.53q22-11.46,43.92-22.94Q270.15,118.3,330.82,86.34Z" style="fill:#1e2dbe"/><path d="M165.54,173.16l0,191.53c-14.35-7.43-28.73-14.79-43-22.3Q62.65,311,2.87,279.45C2,279,1.16,278.47.2,277.9c-.07-1-.19-2-.19-3q0-92.8,0-185.6c0-1,.11-2,.18-3q38.37,20.11,76.75,40.26c10,5.27,20,10.7,30,16Q136.21,157.93,165.54,173.16Z" style="fill:#3264c8"/><path d="M165.54,173.16Q136.25,157.88,107,142.58c-10-5.26-20-10.69-30-16Q38.58,106.45.19,86.36c7.51-4,15-8.16,22.56-12.13Q93.07,37.19,163.5.34c1.35-.7,3.86-.22,5.37.57Q228.21,32,287.43,63.3c13.53,7.12,27.13,14.12,40.68,21.2a28.81,28.81,0,0,1,2.71,1.85q-60.69,31.94-121.36,63.87Q187.53,161.74,165.54,173.16Z" style="fill:#82afdc"/></svg>