<svg xmlns="http://www.w3.org/2000/svg" xmlns:xlink="http://www.w3.org/1999/xlink" viewBox="0 0 500.24 487.83"><defs><clipPath id="a" transform="translate(19.94 7.68)"><path d="M353.16,29.17C418,64.47,459.38,118.17,474.54,190c16.14,76.5-1.78,145.71-52.09,206.11-1.53,1.84-3.27,3.52-4.91,5.28-4.16-3.36-2.58-8.1-2.31-12.11.52-7.7-2.25-12.25-9.21-16-26.92-14.66-53.12-30.61-79.9-45.52a23.84,23.84,0,0,1-5.24-3.83A294.16,294.16,0,0,1,295,309.63c-4.38-2.63-8.31-2.88-12.85-.26-6.47,3.73-12.79,7.75-19.38,11.28-3.37,1.8-4.73,4.53-4.73,8.24,0,7,.11,14,0,21-.12,5.42,2,5.57,6,3.17,14.94-8.85,30.2-17.14,45.16-25.94a52.72,52.72,0,0,1,6.33-3.5c3.57-1.49,6-.2,6,3.53.12,10.79,1.38,21.62-.75,32.37-2.2,3.4-5.75,5.07-9.07,7Q255.91,398.66,200,430.63c-5.32,3-7.66,6.56-7.37,12.62.37,7.69.14,15.42.07,23.13,0,2.84.47,5.83-1.51,8.34-96.73-19-173.59-100-188-197.89C.14,256-.94,235.15,2.14,214.22c6.48-1.09,10.44,4.1,15.61,6.27,3.45,1.45,6.84,6,10.12,4,2.75-1.64.87-6.75,1-10.31.22-5.06-.31-10.15.27-15.19.64-5.47,3-6.89,7.89-4.3,7.9,4.15,15.62,8.68,23.19,13.45,4.56,2.87,4.89,7.4,4.89,12.11,0,18.1.28,36.21-.13,54.3-.16,7.12,1.95,11.64,8.43,15.08,15.35,8.17,30.21,17.25,45.34,25.83,6.4,3.63,7.31,3.07,7.35-4.25.09-17.86.24-35.73-.07-53.58-.13-7.33,2.07-12.39,8.95-15.69,6.52-3.13,12.58-7.18,19-10.62a11.37,11.37,0,0,1,11.7.11c7.42,4.06,14.56,8.6,21.93,12.76,3.78,2.13,5.12,5.55,5.18,9.69.1,7.49.24,15,0,22.45-.18,5.51,2,9.1,6.77,11.66,5.76,3.06,11.35,6.45,17,9.67,2.5,1.43,5.19,2.68,6.47,5.56-.42,3.61-3.26,5.18-5.92,6.82-3.29,2-6.53,4.34-10.08,5.69-11.79,4.49-15.19,12.8-14.35,25,1,14.89.13,29.89.29,44.84.07,6.78,1.23,7.46,7.16,4,26.25-15.31,21.2-8.6,21.68-35.66.23-13.26.07-26.52,0-39.79a32.18,32.18,0,0,1,1.38-10.69c-2.49-11-1.22-22.05-.87-33.08.15-4.69,4.15-6.77,7.73-8.87,16.25-9.5,32.53-19,49-28,5.78-3.17,8.59-7.11,8.19-13.79-.39-6.48,0-13-.09-19.52-.1-5.63,2.18-9.62,7-12.52,6.2-3.75,12.52-7.28,18.79-10.91,4.18-2.43,6.2-5.75,6.14-10.61q-.13-10.12,0-20.25a11.07,11.07,0,0,0-6.06-10.64c-6.07-3.49-12.08-7.09-18.24-10.4-5.27-2.82-7.7-6.92-7.62-12.85.1-8,0-15.91,0-23.87,0-5,1.87-8.74,6.4-11.26,7-3.87,13.93-7.74,20.7-11.93,4.45-2.75,8.57-2.5,12.87.24,4.69,3,9.6,5.58,14.41,8.35,9,5.19,9.42,5,9.44-5S351,48.16,351.1,38C351.13,35,350.6,31.69,353.16,29.17Z" style="fill:none"/></clipPath><clipPath id="b" transform="translate(19.94 7.68)"><path d="M221.65,303c-9.52-5.3-19-10.68-28.59-15.84-3-1.61-2.94-4.06-2.94-6.75,0-8.94-.17-17.88.1-26.81.12-3.92-1.1-6.43-4.77-7.88a40.46,40.46,0,0,1-4.47-2.44c-7.63-4.17-15.48-13-22.7-11.64-10.39,2-19.59,10.07-29.35,15.48-3,1.69-2.4,4.46-2.4,7,0,20.53-.21,41.06.08,61.58.1,6.68-1.74,6.69-6.83,3.7q-26.67-15.66-53.7-30.71c-4-2.22-5.28-4.72-5.23-9.1.21-20.77,0-41.54.18-62.31,0-4.15-1.2-6.6-5-8.58-8.72-4.61-17.2-9.67-26.72-15.09v36.65L0,214.17c1.42-25.87,8.71-50.31,19.8-73.48,35.09-73.24,92.92-119,172.72-135.62,54.5-11.37,107.19-3.38,157,21.6A33.72,33.72,0,0,1,353.16,29c0,15.68-.24,31.36,0,47,.08,5.44-1.48,5.66-5.67,3.13-7.46-4.5-15.28-8.44-22.63-13.11-3.45-2.19-5.9-1.94-9.15.14C310,69.88,304.25,73.75,298,76.29c-8.07,3.3-10.43,8.56-9.62,16.81s-2.07,18.08,1.34,24.91,13.51,9.67,21.13,13.23c8,3.75,11,8.87,9.92,17.49s3.06,18.75-1.63,25.43c-4.43,6.3-13.7,9.59-21.31,13.23-7.27,3.49-10.23,8.06-9.5,16.26.76,8.58,2.74,18.94-1.08,25.51s-14.08,9.48-21.62,13.83c-12.38,7.16-24.76,14.31-37.3,21.18-3.88,2.14-5.31,4.67-5.19,9.12.27,9.87-.12,19.75-.24,29.63C222.53,303.68,222.11,303.67,221.65,303Z" style="fill:none"/></clipPath></defs><path d="M240.31,240.15,236.59.18C369.12-1.87,478.22,103.9,480.27,236.43S376.55,478.06,244,480.12c-81.11,1.25-150.6-33.57-198.15-99.29Z" transform="translate(19.94 7.68)" style="fill:#1e2dbe"/><path d="M240.31,240.15,236.59.18C369.12-1.87,478.22,103.9,480.27,236.43S376.55,478.06,244,480.12c-81.11,1.25-150.6-33.57-198.15-99.29Z" transform="translate(19.94 7.68)" style="fill:#230050"/><path d="M321.3,323.17C342,333.55,361.51,346,381.7,357.25c10.32,5.75,20.42,11.89,30.78,17.57,3.62,2,5.19,4.29,5,8.5-.32,6,0,12,.09,18.07-30.16,34.22-67.67,56.86-111.29,69.41a232.05,232.05,0,0,1-115.07,3.92c0-11.8.18-23.62-.17-35.41-.13-4.54,1.65-6.82,5.42-9Q258.29,395,320,359.44c1.33-9.5.2-19,.62-28.55C320.72,328.31,319.91,325.64,321.3,323.17Z" transform="translate(19.94 7.68)" style="fill:#1e2dbe"/><path d="M320,211.43c9.37-5.38,17.34-10.3,25.63-14.61,4.86-2.52,6.83-5.56,6.72-11.26-.39-20.23,0-40.47-.23-60.71-.06-5.33,1.16-6.78,5.76-3.38.38.28.87.42,1.28.67,8.5,5,20.25,8.15,24.58,15.59s1.33,19.18,1.39,29c.09,13-.1,26,.1,39,.06,4-.8,6.66-4.66,8.68-7.9,4.11-15.59,8.65-23.2,13.29-3.24,2-5.75,2.16-9.14.07C339.44,222.39,330.37,217.42,320,211.43Z" transform="translate(19.94 7.68)" style="fill:#1e2dbe"/><path d="M222.45,303l1.25-.07c.12,23.89.21,47.78.42,71.67,0,2.83-1.14,4.36-3.49,5.67q-12.31,6.9-24.47,14.1c-3.73,2.22-5.09,1.45-5.07-2.89q.12-32.24,0-64.45a6.92,6.92,0,0,1,4.07-6.89c7.41-4.06,14.7-8.35,22-12.67C219.09,306.28,221.75,305.77,222.45,303Z" transform="translate(19.94 7.68)" style="fill:#1e2dbe"/><path d="M321.3,323.17c0,9.82,0,19.63,0,29.45,0,2.32.69,4.84-1.28,6.82V323.28l-64,36.58c0-12.52,0-23.93,0-35.35,0-2.81,2.1-3.53,3.93-4.59,8.14-4.69,16.31-9.32,24.42-14.06,2.16-1.26,4.12-2.32,6.65-.77C301,311.26,311.75,316.22,321.3,323.17Z" transform="translate(19.94 7.68)" style="fill:#1e2dbe"/><path d="M449.88,322.48c-10.72,6.19-20.5,11.82-30.26,17.5-1.92,1.11-3.62.77-5.43-.28-9.56-5.56-19.15-11.08-29.81-17.23L415,304.85a4.41,4.41,0,0,1,4.77.24C429.49,310.73,439.25,316.35,449.88,322.48Z" transform="translate(19.94 7.68)" style="fill:#1e2dbe"/><path d="M320.86,286,287.78,267C298,261.08,307.5,255.57,317,250.09c3-1.73,3.87-.16,3.87,2.63C320.86,263.3,320.86,273.87,320.86,286Z" transform="translate(19.94 7.68)" style="fill:#230050"/><g style="clip-path:url(#a)"><path d="M240.31,240.15,45.87,380.83C-31.82,273.44-7.76,123.4,99.63,45.7,141.19,15.64,185.31,1,236.59.18Z" transform="translate(19.94 7.68)" style="fill:#05d2d2"/></g><g style="clip-path:url(#b)"><path d="M218.66,303c-9.38-5.3-18.71-10.68-28.17-15.83-3-1.62-2.9-4.06-2.89-6.75,0-8.94-.17-17.87.1-26.8.11-3.92-1.08-6.42-4.7-7.88a38.57,38.57,0,0,1-4.4-2.43c-7.52-4.17-15.26-13-22.37-11.64-10.23,2-19.3,10.07-28.91,15.48-3,1.68-2.37,4.46-2.37,7,0,20.52-.21,41,.08,61.55.1,6.68-1.72,6.69-6.73,3.7Q92,303.77,65.4,288.72c-3.93-2.21-5.2-4.72-5.16-9.09.21-20.76,0-41.52.19-62.28,0-4.15-1.18-6.6-4.88-8.58-8.6-4.61-16.95-9.67-26.33-15.08v36.63L.3,214.22c1.39-25.86,8.58-50.29,19.51-73.44C54.38,67.56,111.35,21.86,190,5.22,243.65-6.15,295.56,1.83,344.69,26.8a34,34,0,0,1,3.53,2.37c0,15.67-.23,31.35,0,47,.08,5.43-1.45,5.65-5.58,3.13-7.35-4.51-15.06-8.44-22.3-13.11-3.4-2.19-5.81-1.94-9,.14C305.68,70,300,73.86,293.9,76.4,286,79.7,283.63,85,284.43,93.2s-2.05,18.07,1.31,24.9,13.32,9.67,20.82,13.23c7.89,3.74,10.84,8.86,9.77,17.48s3,18.75-1.6,25.42c-4.37,6.29-13.5,9.58-21,13.23-7.17,3.48-10.08,8-9.36,16.25.75,8.57,2.7,18.93-1.06,25.49S269.43,238.67,262,243c-12.2,7.15-24.4,14.3-36.75,21.17-3.82,2.13-5.23,4.66-5.11,9.11.26,9.87-.12,19.75-.24,29.62C219.53,303.69,219.11,303.67,218.66,303Z" transform="translate(19.94 7.68)" style="fill:#1e2dbe"/><path d="M210.57,259.28l-186.4,156C-50.71,295.66-28,128.8,75,42.63,114.82,9.28,157.16-6.92,206.42-7.68Z" transform="translate(19.94 7.68)" style="fill:#9ef2f2"/></g></svg>