<svg xmlns="http://www.w3.org/2000/svg" viewBox="0 0 269.76 130.45"><g id="Layer_2" data-name="Layer 2"><g id="Camada_1" data-name="Camada 1"><circle cx="125.8" cy="31.32" r="31.32" style="fill:#230050"/><polygon points="146.51 73.41 104.74 73.41 62.96 97.46 62.96 97.88 63.29 97.88 188.65 97.66 146.51 73.41" style="fill:#230050"/><rect x="95.01" y="91.67" width="61.58" height="25.97" style="fill:#230050"/><circle cx="62.67" cy="51.08" r="31.32" style="fill:#1e2dbe"/><polygon points="83.55 93.17 41.78 93.17 0 117.22 0 117.63 0.33 117.63 125.69 117.42 83.55 93.17" style="fill:#1e2dbe"/><circle cx="188.76" cy="51.08" r="31.32" style="fill:#1e2dbe"/><polygon points="209.46 93.17 167.69 93.17 125.91 117.22 125.91 117.63 126.24 117.63 251.6 117.42 209.46 93.17" style="fill:#1e2dbe"/><circle cx="237.74" cy="98.44" r="24.28" style="fill:#fff"/><g id="UYnbbY.tif"><path d="M243.23,130.45h-11c-.12-1.85-.29-3.69-.35-5.54,0-.64-.26-.82-.82-1a34.73,34.73,0,0,1-3.72-1.28c-1.24-.52-2.42-1.18-3.65-1.8l-4.56,4.05L211.24,117l4-4.55c-.65-1.32-1.33-2.54-1.86-3.82s-.89-2.64-1.35-4a.75.75,0,0,0-.51-.37c-.94-.09-1.87-.12-2.81-.17l-3-.2V92.86c1.9-.11,3.77-.24,5.65-.32a.69.69,0,0,0,.79-.63,25.46,25.46,0,0,1,2.55-6.42c.2-.36.42-.72.63-1.07l-4.09-4.6L219.12,72,223.73,76a28,28,0,0,1,7.71-3.28.69.69,0,0,0,.37-.51c.08-.87.1-1.75.16-2.62.06-1.08.13-2.15.2-3.21h11.08c0,.22.06.41.07.59.1,1.69.22,3.37.27,5.06,0,.49.2.65.64.79,1.51.49,3,1,4.47,1.58,1.05.43,2,1,3.06,1.56l4.62-4.1,7.86,7.86-4.14,4.67a26.09,26.09,0,0,1,3.23,7.67c.11.43.37.41.69.43l5.74.38v11c-1.89.13-3.78.28-5.67.37-.47,0-.7.14-.81.62a24.71,24.71,0,0,1-2.93,7.06.59.59,0,0,0,.1.85c1.28,1.42,2.55,2.86,3.78,4.24l-7.86,7.87c-1.4-1.25-2.86-2.53-4.29-3.83a.52.52,0,0,0-.75-.08,24.91,24.91,0,0,1-7.11,3c-.48.12-.6.33-.63.8C243.5,126.68,243.35,128.56,243.23,130.45Zm13.33-32a18.84,18.84,0,1,0-18.84,18.83A18.87,18.87,0,0,0,256.56,98.43Z" style="fill:#fa3c4b"/><path d="M252.8,98.43a15.08,15.08,0,1,1-15.07-15.09A15.1,15.1,0,0,1,252.8,98.43Zm-9-7-10,10-4.16-4.22-2.49,2.5,6.87,6.86,12.46-12.46Z" style="fill:#fa3c4b"/></g></g></g></svg>