<?xml version="1.0" encoding="utf-8"?>
<!-- Generator: Adobe Illustrator 25.4.0, SVG Export Plug-In . SVG Version: 6.00 Build 0)  -->
<svg version="1.1" id="Layer_1" xmlns="http://www.w3.org/2000/svg" xmlns:xlink="http://www.w3.org/1999/xlink" x="0px" y="0px"
	 viewBox="0 0 396.9 288.6" style="enable-background:new 0 0 396.9 288.6;" xml:space="preserve">
<style type="text/css">
	.st0{fill:#FA3C4B;}
	.st1{fill:#FFFFFF;}
	.st2{fill:#1E2DBE;}
</style>
<path class="st0" d="M250.6,168.2l20.9,0.1v-36.1l20.9-12v168.4h20.9l10.4-126.3l10.5,126.3h20.9l0-168.4l20.9,12v36.1l20.9,12
	v-60.1l-52.2-30.1l-20.9,12l-20.9-12l-52.2,30.1L250.6,168.2z"/>
<path class="st1" d="M302.9,90.2l20.9,48.1l20.9-48.1H302.9z"/>
<path class="st2" d="M104.4,47.5v0.6c0,17.3-14,31.3-31.3,31.3s-31.3-14-31.3-31.3s14-31.3,31.3-31.3c9.7,0,18.4,4.4,24.2,11.4
	l7.2-4.1l20.9,12v24.1l10.4,6l-20.9,12l-10.4-6L104.4,47.5L104.4,47.5z M229.8,47.5v0.6c0,17.3-14,31.3-31.3,31.3
	s-31.3-14-31.3-31.3s14-31.3,31.3-31.3c9.7,0,18.4,4.4,24.2,11.4l7.2,7.9l10.4-6l10.4,6v24.1l10.4,6l-20.9,12l-10.4-6L229.8,47.5
	L229.8,47.5z M41.8,288.6h20.9l10.4-126.3l10.4,126.3h20.9l9.9-108.4c0.4-3.9,0.2-7.8-0.6-11.6l-9.3-48.4l20.9,12v36.1h20.9v-48.1
	L94,90.2H52.2L0,120.3v60.1l20.9-12v-36.1l20.9-12l-9.3,48.4c-0.7,3.8-0.9,7.7-0.6,11.6C31.9,180.2,41.8,288.6,41.8,288.6z"/>
<path class="st0" d="M135.8,114.2"/>
<path class="st2" d="M125.3,180.4l20.9-12v-36.1l20.9-12l-9.3,48.4c-0.7,3.8-0.9,7.7-0.6,11.6l9.9,108.4H188l10.4-126.3l10.4,126.3
	h20.9l9.9-108.4c0.4-3.9,0.2-7.8-0.6-11.6l-9.3-48.4l20.9,12v36.1l20.9,12v-60.1l-52.2-30.1h-41.8l-52.2,30.1L125.3,180.4
	L125.3,180.4z"/>
<path class="st0" d="M163.4,252.5l3.7,36.1H188l3-36.1H163.4z M205.9,252.5l3,36.1h20.9l3.7-36.1H205.9z M198.4,162.3l10.4,6H239
	l-9.3-48.1V96.2l-10.4-6l-10.4,6l-10.4,6L188,96.1l-10.5-5.9l-1.2,0.7l-9.2,5.3v24l-9.3,48.1H188L198.4,162.3L198.4,162.3
	L198.4,162.3L198.4,162.3z M125.3,180.4l20.9-12v-24h-20.9V180.4z M167.1,12L188,0h20.9l20.9,12l0,30.1l-73.1,0v-12l10.4-6L167.1,12
	z M31.3,126.3l10.4-6l-7,36.1h76.6l-7-36.1l10.4,6v-24.1L96.2,91.5L94,90.2H83.6v6l-10.4,6l-10.4-6v-6H52.2l-20.9,12L31.3,126.3z"/>
<path class="st1" d="M234.4,144.3h-71.9l-2.3,12h76.6L234.4,144.3z"/>
<g>
	<path class="st1" d="M167.1,120.3l-2.3,12h67.3l-2.3-12H167.1z"/>
</g>
<path class="st2" d="M323.8,138.3l-20.9-48.1l-52.2,30.1v48l20.9,0.1v-36.1l20.9-12l-9.3,48.3c-0.7,3.8-0.9,7.8-0.6,11.6l9.9,108.4
	h20.9l10.4-126.3l10.4,126.3h20.9l9.9-108.4c0.4-3.9,0.2-7.8-0.6-11.6l-9.3-48.3l20.9,12v36.1l20.9,12v-60.1l-52.2-30.1L323.8,138.3
	z"/>
<path class="st0" d="M271.5,180.4l-20.9-12v-24h20.9V180.4z"/>
<path class="st2" d="M376,192.4h20.9v48.1H376V192.4z"/>
<g>
	<path class="st0" d="M41.8,36.1v24.1l-10.4-6v-12L41.8,36.1z M114.9,54.1v-12l-10.4-6v12l-20.9,12v12L114.9,54.1z"/>
</g>
<path class="st2" d="M355.1,47.5v0.6c0,17.3-14,31.3-31.3,31.3c-17.3,0-31.3-14-31.3-31.3s14-31.3,31.3-31.3
	c9.7,0,18.4,4.4,24.2,11.4l7.2-4.1l20.9,12v24.1l10.4,6l-20.9,12l-10.4-6V47.5z"/>
</svg>
