<?xml version="1.0" encoding="utf-8"?>
<!-- Generator: Adobe Illustrator 25.4.0, SVG Export Plug-In . SVG Version: 6.00 Build 0)  -->
<svg version="1.1" id="Layer_1" xmlns="http://www.w3.org/2000/svg" xmlns:xlink="http://www.w3.org/1999/xlink" x="0px" y="0px"
	 viewBox="0 0 365.2 324.7" style="enable-background:new 0 0 365.2 324.7;" xml:space="preserve">
<style type="text/css">
	.st0{fill:#FA3C4B;}
	.st1{fill:#1E2DBE;}
</style>
<path class="st0" d="M250.6,132.3l20.8,0l93.7,66.2L261,150.3L250.6,132.3z"/>
<circle class="st1" cx="94" cy="132.3" r="52.2"/>
<path class="st0" d="M41.8,96.2V60.1l20.9-12v24.1h10.4V42.1h10.4v30.1H94V42.1h20.9l31.3,18l0,60.1H20.9v-12L41.8,96.2z"/>
<path class="st1" d="M188,240.5v84.2h-31.3v-66.1l-10.4-6v72.1H41.8v-72.1l-10.4,6v66.1H0v-84.2l62.7-36.1l62.7,0L188,240.5z"/>
<g>
	<path class="st0" d="M250.7,132.3l-10.5-18L250.7,0l10.4,114.2L250.7,132.3z M250.6,132.3l-10.4,18.1l-104.5,48.1l94-66.2
		L250.6,132.3z"/>
	<path class="st1" d="M240.1,126.2l10.5-6l10.4,6.1l0,11.9l-10.5,6.1l-10.5-6L240.1,126.2z"/>
</g>
<path class="st1" d="M250.7,156.3l-10.5,6v162.4h20.9V162.3L250.7,156.3z"/>
</svg>
