<?xml version="1.0" encoding="utf-8"?>
<!-- Generator: Adobe Illustrator 25.4.0, SVG Export Plug-In . SVG Version: 6.00 Build 0)  -->
<svg version="1.1" id="Layer_1" xmlns="http://www.w3.org/2000/svg" xmlns:xlink="http://www.w3.org/1999/xlink" x="0px" y="0px"
	 viewBox="0 0 331.7 271.9" style="enable-background:new 0 0 331.7 271.9;" xml:space="preserve">
<style type="text/css">
	.st0{fill:#FFFFFF;}
	.st1{fill:#1E2DBE;}
	.st2{fill:#FA3C4B;}
	.st3{fill:#230050;}
</style>
<path class="st0" d="M52.2,73.5H94l-10.5,6H62.7L52.2,73.5z"/>
<path class="st1" d="M135.8,121.6l10.4-6V55.5l-20.9,12v24L94,73.5l-10.4,6l-10.4-6l-10.4,6l-10.4-6L0,103.5v12l10.4,6l41.8-24.1
	v60.1L41.8,271.7h20.9l10.4-126.3l10.4,126.3h20.9l9.9-108.4c0.4-3.9,0.2-7.8-0.6-11.6l-9.3-48.2l10.4,6L135.8,121.6z"/>
<path class="st2" d="M0,103.5h83.6v168.4H0V103.5z"/>
<path class="st3" d="M10.4,61.4l20.9-12v12l-10.4,6v36.1H10.4V61.4z"/>
<path class="st1" d="M0,79.5l10.4-6l10.5,6v12l-10.5,6v6H0V79.5z M104.4,30.7v0.6c0,17.3-14,31.3-31.3,31.3s-31.3-14-31.3-31.3
	S55.8,0,73.1,0c9.7,0,18.4,4.4,24.2,11.4l7.2-4.1l20.9,12v24.1l10.4,6l-20.9,12l-10.4-6L104.4,30.7L104.4,30.7z"/>
<g>
	<path class="st0" d="M237.7,73.5l10.5-6.1l10.4,6.1l10.5-6.1l10.4,6.1l0.1,36.1l-31.7,5.8L237.7,73.5z"/>
	<circle class="st1" cx="258.6" cy="31.4" r="31.3"/>
	<path class="st1" d="M290,103.5l10.4,6l20.9,12.1l10.4-6.1V55.4l-20.9,12v24.1l-31.3-18l-20.9,36l-20.9-36l-52.2,30v12l10.5,6.1
		l41.7-24.1v60.1l-10.4,114.3h20.9l10.4-126.3l10.5,126.3H290V103.5z"/>
	<path class="st3" d="M196,61.4l20.9-12v12l-10.5,6v36.1l-10.4,0.1V61.4z"/>
	<path class="st1" d="M185.5,79.5l10.5-6l10.4,6v12l-10.4,6v6h-10.5V79.5z"/>
	<path class="st3" d="M258.6,73.5l-10.4,6l10.4,6l10.5-6L258.6,73.5z M258.6,109.5l5.3-9l-5.3-15l-5.2,15L258.6,109.5z"/>
	<path class="st2" d="M185.5,103.5h83.6v168.4h-83.6V103.5z"/>
</g>
</svg>
